<?xml version="1.0" encoding="UTF-8" standalone="yes"?><svg xmlns="http://www.w3.org/2000/svg" xmlns:xlink="http://www.w3.org/1999/xlink" height="404px" style="width:976px;height:404px;" version="1.1" viewBox="0 0 976 404" width="976px"><defs><filter height="300%" id="f8y98bh" width="300%" x="-1" y="-1"><feGaussianBlur result="blurOut" stdDeviation="2.0"/><feColorMatrix in="blurOut" result="blurOut2" type="matrix" values="0 0 0 0 0 0 0 0 0 0 0 0 0 0 0 0 0 0 .4 0"/><feOffset dx="4.0" dy="4.0" in="blurOut2" result="blurOut3"/><feBlend in="SourceGraphic" in2="blurOut3" mode="normal"/></filter></defs><g><!--cluster bot--><polygon fill="#FFFFFF" filter="url(#f8y98bh)" points="112.5,78,145.5,78,152.5,100.2969,969.5,100.2969,969.5,397,112.5,397,112.5,78" style="stroke: #000000; stroke-width: 2.0;"/><line style="stroke: #000000; stroke-width: 2.0;" x1="112.5" x2="152.5" y1="100.2969" y2="100.2969"/><text fill="#000000" font-family="sans-serif" font-size="14" font-weight="bold" lengthAdjust="spacingAndGlyphs" textLength="27" x="116.5" y="92.9951">bot</text><!--cluster Drools--><path d="M301.5,144 C301.5,141 303.5,139 306.5,139 C309.5,139 311.5,141 311.5,144 C311.5,141 313.5,139 316.5,139 C319.5,139 321.5,141 321.5,144 C321.5,141 323.5,139 326.5,139 C329.5,139 331.5,141 331.5,144 C331.5,141 333.5,139 336.5,139 C339.5,139 341.5,141 341.5,144 C341.5,141 343.5,139 346.5,139 C349.5,139 351.5,141 351.5,144 C351.5,141 353.5,139 356.5,139 C359.5,139 361.5,141 361.5,144 C361.5,141 363.5,139 366.5,139 C369.5,139 371.5,141 371.5,144 C371.5,141 373.5,139 376.5,139 C379.5,139 381.5,141 381.5,144 C381.5,141 383.5,139 386.5,139 C389.5,139 391.5,141 391.5,144 C391.5,141 393.5,139 396.5,139 C399.5,139 401.5,141 401.5,144 C401.5,141 403.5,139 406.5,139 C409.5,139 411.5,141 411.5,144 C411.5,141 413.5,139 416.5,139 C419.5,139 421.5,141 421.5,144 C421.5,141 423.5,139 426.5,139 C429.5,139 431.5,141 431.5,144 C431.5,141 433.5,139 436.5,139 C439.5,139 441.5,141 441.5,144 C441.5,141 443.5,139 446.5,139 C449.5,139 451.5,141 451.5,144 C451.5,141 453.5,139 456.5,139 C459.5,139 461.5,141 461.5,144 C461.5,141 463.5,139 466.5,139 C469.5,139 471.5,141 471.5,144 C471.5,141 473.5,139 476.5,139 C479.5,139 481.5,141 481.5,144 C481.5,141 483.5,139 486.5,139 C489.5,139 491.5,141 491.5,144 C491.5,141 493.5,139 496.5,139 C499.5,139 501.5,141 501.5,144 C501.5,141 503.5,139 506.5,139 C509.5,139 511.5,141 511.5,144 C511.5,141 513.5,139 516.5,139 C519.5,139 521.5,141 521.5,144 C521.5,141 523.5,139 526.5,139 C529.5,139 531.5,141 531.5,144 C531.5,141 533.5,139 536.5,139 C539.5,139 541.5,141 541.5,144 C541.5,141 543.5,139 546.5,139 C549.5,139 551.5,141 551.5,144 C551.5,141 553.5,139 556.5,139 C559.5,139 561.5,141 561.5,144 C561.5,141 563.5,139 566.5,139 C569.5,139 571.5,141 571.5,144 C571.5,141 573.5,139 576.5,139 C579.5,139 581.5,141 581.5,144 C581.5,141 583.5,139 586.5,139 C589.5,139 591.5,141 591.5,144 C591.5,141 593.5,139 596.5,139 C599.5,139 601.5,141 601.5,144 C601.5,141 603.5,139 606.5,139 C609.5,139 611.5,141 611.5,144 C611.5,141 613.5,139 616.5,139 C619.5,139 621.5,141 621.5,144 C621.5,141 623.5,139 626.5,139 C629.5,139 631.5,141 631.5,144 C631.5,141 633.5,139 636.5,139 C639.5,139 641.5,141 641.5,144 C641.5,141 643.5,139 646.5,139 C649.5,139 651.5,141 651.5,144 C651.5,141 653.5,139 656.5,139 C659.5,139 661.5,141 661.5,144 C661.5,141 663.5,139 666.5,139 C669.5,139 671.5,141 671.5,144 C671.5,141 673.5,139 676.5,139 C679.5,139 681.5,141 681.5,144 C681.5,141 683.5,139 686.5,139 C689.5,139 691.5,141 691.5,144 C691.5,141 693.5,139 696.5,139 C699.5,139 701.5,141 701.5,144 C701.5,141 703.5,139 706.5,139 C709.5,139 711.5,141 711.5,144 C711.5,141 713.5,139 716.5,139 C719.5,139 721.5,141 721.5,144 C721.5,141 723.5,139 726.5,139 C729.5,139 731.5,141 731.5,144 C731.5,141 733.5,139 736.5,139 C739.5,139 741.5,141 741.5,144 C741.5,141 743.5,139 746.5,139 C749.5,139 751.5,141 751.5,144 C751.5,141 753.5,139 756.5,139 C759.5,139 761.5,141 761.5,144 C761.5,141 763.5,139 766.5,139 C769.5,139 771.5,141 771.5,144 C771.5,141 773.5,139 776.5,139 C779.5,139 781.5,141 781.5,144 C781.5,141 783.5,139 786.5,139 C789.5,139 791.5,141 791.5,144 C791.5,141 793.5,139 796.5,139 C799.5,139 801.5,141 801.5,144 C801.5,141 803.5,139 806.5,139 C809.5,139 811.5,141 811.5,144 C811.5,141 813.5,139 816.5,139 C819.5,139 821.5,141 821.5,144 C821.5,141 823.5,139 826.5,139 C829.5,139 831.5,141 831.5,144 C831.5,141 833.5,139 836.5,139 C839.5,139 841.5,141 841.5,144 C841.5,141 843.5,139 846.5,139 C849.5,139 851.5,141 851.5,144 C851.5,141 853.5,139 856.5,139 C859.5,139 861.5,141 861.5,144 C861.5,141 863.5,139 866.5,139 C869.5,139 871.5,141 871.5,144 C871.5,141 873.5,139 876.5,139 C879.5,139 881.5,141 881.5,144 C881.5,141 883.5,139 886.5,139 C889.5,139 891.5,141 891.5,144 C891.5,141 893.5,139 896.5,139 C899.5,139 901.5,141 901.5,144 C901.5,141 903.5,139 906.5,139 C909.5,139 911.5,141 911.5,144 C911.5,141 913.5,139 916.5,139 C919.5,139 921.5,141 921.5,144 C921.5,141 923.5,139 926.5,139 C929.5,139 931.5,141 931.5,144 C934.5,144 936.5,146 936.5,149 C936.5,152 934.5,154 931.5,154 C934.5,154 936.5,156 936.5,159 C936.5,162 934.5,164 931.5,164 C934.5,164 936.5,166 936.5,169 C936.5,172 934.5,174 931.5,174 C934.5,174 936.5,176 936.5,179 C936.5,182 934.5,184 931.5,184 C934.5,184 936.5,186 936.5,189 C936.5,192 934.5,194 931.5,194 C934.5,194 936.5,196 936.5,199 C936.5,202 934.5,204 931.5,204 C934.5,204 936.5,206 936.5,209 C936.5,212 934.5,214 931.5,214 C934.5,214 936.5,216 936.5,219 C936.5,222 934.5,224 931.5,224 C934.5,224 936.5,226 936.5,229 C936.5,232 934.5,234 931.5,234 C934.5,234 936.5,236 936.5,239 C936.5,242 934.5,244 931.5,244 C934.5,244 936.5,246 936.5,249 C936.5,252 934.5,254 931.5,254 C934.5,254 936.5,256 936.5,259 C936.5,262 934.5,264 931.5,264 C934.5,264 936.5,266 936.5,269 C936.5,272 934.5,274 931.5,274 C934.5,274 936.5,276 936.5,279 C936.5,282 934.5,284 931.5,284 C934.5,284 936.5,286 936.5,289 C936.5,292 934.5,294 931.5,294 C934.5,294 936.5,296 936.5,299 C936.5,302 934.5,304 931.5,304 C934.5,304 936.5,306 936.5,309 C936.5,312 934.5,314 931.5,314 C934.5,314 936.5,316 936.5,319 C936.5,322 934.5,324 931.5,324 C934.5,324 936.5,326 936.5,329 C936.5,332 934.5,334 931.5,334 C934.5,334 936.5,336 936.5,339 C936.5,342 934.5,344 931.5,344 C934.5,344 936.5,346 936.5,349 C936.5,352 934.5,354 931.5,354 C931.5,357 928.5,359 926.5,359 C923.5,359 921.5,357 921.5,354 C921.5,357 918.5,359 916.5,359 C913.5,359 911.5,357 911.5,354 C911.5,357 908.5,359 906.5,359 C903.5,359 901.5,357 901.5,354 C901.5,357 898.5,359 896.5,359 C893.5,359 891.5,357 891.5,354 C891.5,357 888.5,359 886.5,359 C883.5,359 881.5,357 881.5,354 C881.5,357 878.5,359 876.5,359 C873.5,359 871.5,357 871.5,354 C871.5,357 868.5,359 866.5,359 C863.5,359 861.5,357 861.5,354 C861.5,357 858.5,359 856.5,359 C853.5,359 851.5,357 851.5,354 C851.5,357 848.5,359 846.5,359 C843.5,359 841.5,357 841.5,354 C841.5,357 838.5,359 836.5,359 C833.5,359 831.5,357 831.5,354 C831.5,357 828.5,359 826.5,359 C823.5,359 821.5,357 821.5,354 C821.5,357 818.5,359 816.5,359 C813.5,359 811.5,357 811.5,354 C811.5,357 808.5,359 806.5,359 C803.5,359 801.5,357 801.5,354 C801.5,357 798.5,359 796.5,359 C793.5,359 791.5,357 791.5,354 C791.5,357 788.5,359 786.5,359 C783.5,359 781.5,357 781.5,354 C781.5,357 778.5,359 776.5,359 C773.5,359 771.5,357 771.5,354 C771.5,357 768.5,359 766.5,359 C763.5,359 761.5,357 761.5,354 C761.5,357 758.5,359 756.5,359 C753.5,359 751.5,357 751.5,354 C751.5,357 748.5,359 746.5,359 C743.5,359 741.5,357 741.5,354 C741.5,357 738.5,359 736.5,359 C733.5,359 731.5,357 731.5,354 C731.5,357 728.5,359 726.5,359 C723.5,359 721.5,357 721.5,354 C721.5,357 718.5,359 716.5,359 C713.5,359 711.5,357 711.5,354 C711.5,357 708.5,359 706.5,359 C703.5,359 701.5,357 701.5,354 C701.5,357 698.5,359 696.5,359 C693.5,359 691.5,357 691.5,354 C691.5,357 688.5,359 686.5,359 C683.5,359 681.5,357 681.5,354 C681.5,357 678.5,359 676.5,359 C673.5,359 671.5,357 671.5,354 C671.5,357 668.5,359 666.5,359 C663.5,359 661.5,357 661.5,354 C661.5,357 658.5,359 656.5,359 C653.5,359 651.5,357 651.5,354 C651.5,357 648.5,359 646.5,359 C643.5,359 641.5,357 641.5,354 C641.5,357 638.5,359 636.5,359 C633.5,359 631.5,357 631.5,354 C631.5,357 628.5,359 626.5,359 C623.5,359 621.5,357 621.5,354 C621.5,357 618.5,359 616.5,359 C613.5,359 611.5,357 611.5,354 C611.5,357 608.5,359 606.5,359 C603.5,359 601.5,357 601.5,354 C601.5,357 598.5,359 596.5,359 C593.5,359 591.5,357 591.5,354 C591.5,357 588.5,359 586.5,359 C583.5,359 581.5,357 581.5,354 C581.5,357 578.5,359 576.5,359 C573.5,359 571.5,357 571.5,354 C571.5,357 568.5,359 566.5,359 C563.5,359 561.5,357 561.5,354 C561.5,357 558.5,359 556.5,359 C553.5,359 551.5,357 551.5,354 C551.5,357 548.5,359 546.5,359 C543.5,359 541.5,357 541.5,354 C541.5,357 538.5,359 536.5,359 C533.5,359 531.5,357 531.5,354 C531.5,357 528.5,359 526.5,359 C523.5,359 521.5,357 521.5,354 C521.5,357 518.5,359 516.5,359 C513.5,359 511.5,357 511.5,354 C511.5,357 508.5,359 506.5,359 C503.5,359 501.5,357 501.5,354 C501.5,357 498.5,359 496.5,359 C493.5,359 491.5,357 491.5,354 C491.5,357 488.5,359 486.5,359 C483.5,359 481.5,357 481.5,354 C481.5,357 478.5,359 476.5,359 C473.5,359 471.5,357 471.5,354 C471.5,357 468.5,359 466.5,359 C463.5,359 461.5,357 461.5,354 C461.5,357 458.5,359 456.5,359 C453.5,359 451.5,357 451.5,354 C451.5,357 448.5,359 446.5,359 C443.5,359 441.5,357 441.5,354 C441.5,357 438.5,359 436.5,359 C433.5,359 431.5,357 431.5,354 C431.5,357 428.5,359 426.5,359 C423.5,359 421.5,357 421.5,354 C421.5,357 418.5,359 416.5,359 C413.5,359 411.5,357 411.5,354 C411.5,357 408.5,359 406.5,359 C403.5,359 401.5,357 401.5,354 C401.5,357 398.5,359 396.5,359 C393.5,359 391.5,357 391.5,354 C391.5,357 388.5,359 386.5,359 C383.5,359 381.5,357 381.5,354 C381.5,357 378.5,359 376.5,359 C373.5,359 371.5,357 371.5,354 C371.5,357 368.5,359 366.5,359 C363.5,359 361.5,357 361.5,354 C361.5,357 358.5,359 356.5,359 C353.5,359 351.5,357 351.5,354 C351.5,357 348.5,359 346.5,359 C343.5,359 341.5,357 341.5,354 C341.5,357 338.5,359 336.5,359 C333.5,359 331.5,357 331.5,354 C331.5,357 328.5,359 326.5,359 C323.5,359 321.5,357 321.5,354 C321.5,357 318.5,359 316.5,359 C313.5,359 311.5,357 311.5,354 C311.5,357 308.5,359 306.5,359 C303.5,359 301.5,357 301.5,354 C298.5,354 296.5,352 296.5,349 C296.5,346 298.5,344 301.5,344 C298.5,344 296.5,342 296.5,339 C296.5,336 298.5,334 301.5,334 C298.5,334 296.5,332 296.5,329 C296.5,326 298.5,324 301.5,324 C298.5,324 296.5,322 296.5,319 C296.5,316 298.5,314 301.5,314 C298.5,314 296.5,312 296.5,309 C296.5,306 298.5,304 301.5,304 C298.5,304 296.5,302 296.5,299 C296.5,296 298.5,294 301.5,294 C298.5,294 296.5,292 296.5,289 C296.5,286 298.5,284 301.5,284 C298.5,284 296.5,282 296.5,279 C296.5,276 298.5,274 301.5,274 C298.5,274 296.5,272 296.5,269 C296.5,266 298.5,264 301.5,264 C298.5,264 296.5,262 296.5,259 C296.5,256 298.5,254 301.5,254 C298.5,254 296.5,252 296.5,249 C296.5,246 298.5,244 301.5,244 C298.5,244 296.5,242 296.5,239 C296.5,236 298.5,234 301.5,234 C298.5,234 296.5,232 296.5,229 C296.5,226 298.5,224 301.5,224 C298.5,224 296.5,222 296.5,219 C296.5,216 298.5,214 301.5,214 C298.5,214 296.5,212 296.5,209 C296.5,206 298.5,204 301.5,204 C298.5,204 296.5,202 296.5,199 C296.5,196 298.5,194 301.5,194 C298.5,194 296.5,192 296.5,189 C296.5,186 298.5,184 301.5,184 C298.5,184 296.5,182 296.5,179 C296.5,176 298.5,174 301.5,174 C298.5,174 296.5,172 296.5,169 C296.5,166 298.5,164 301.5,164 C298.5,164 296.5,162 296.5,159 C296.5,156 298.5,154 301.5,154 C298.5,154 296.5,152 296.5,149 C296.5,146 298.5,144 301.5,144 " fill="#FFFFFF" filter="url(#f8y98bh)" style="stroke: #000000; stroke-width: 2.0;"/><text fill="#000000" font-family="sans-serif" font-size="14" font-weight="bold" lengthAdjust="spacingAndGlyphs" textLength="52" x="588" y="162.9951">Drools</text><!--entity meanings--><path d="M145,292 C145,282 209.5,282 209.5,282 C209.5,282 274,282 274,292 L274,337.5938 C274,347.5938 209.5,347.5938 209.5,347.5938 C209.5,347.5938 145,347.5938 145,337.5938 L145,292 " fill="#FEFECE" filter="url(#f8y98bh)" style="stroke: #000000; stroke-width: 1.5;"/><path d="M145,292 C145,302 209.5,302 209.5,302 C209.5,302 274,302 274,292 " fill="none" style="stroke: #000000; stroke-width: 1.5;"/><text fill="#000000" font-family="sans-serif" font-size="14" lengthAdjust="spacingAndGlyphs" textLength="59" x="180" y="314.9951">patterns</text><path d="M145,313.2969 C145,323.2969 209.5,323.2969 209.5,323.2969 C209.5,323.2969 274,323.2969 274,313.2969 " fill="none" style="stroke: #000000; stroke-width: 1.0;"/><path d="M145,315.2969 C145,325.2969 209.5,325.2969 209.5,325.2969 C209.5,325.2969 274,325.2969 274,315.2969 " fill="none" style="stroke: #000000; stroke-width: 1.0;"/><text fill="#000000" font-family="sans-serif" font-size="14" lengthAdjust="spacingAndGlyphs" textLength="97" x="161" y="335.292">symbol graph</text><!--entity filereader--><ellipse cx="209.5" cy="190" fill="#FEFECE" filter="url(#f8y98bh)" rx="12" ry="12" style="stroke: #A80036; stroke-width: 2.0;"/><line style="stroke: #A80036; stroke-width: 2.0;" x1="197.5" x2="221.5" y1="204" y2="204"/><text fill="#000000" font-family="sans-serif" font-size="14" lengthAdjust="spacingAndGlyphs" textLength="70" x="174.5" y="218.9951">filereader</text><!--entity score--><rect fill="#FEFECE" filter="url(#f8y98bh)" height="36.2969" style="stroke: #A80036; stroke-width: 1.5;" width="59" x="846" y="180"/><rect fill="#FEFECE" height="5" style="stroke: #A80036; stroke-width: 1.5;" width="10" x="841" y="185"/><rect fill="#FEFECE" height="5" style="stroke: #A80036; stroke-width: 1.5;" width="10" x="841" y="206.2969"/><text fill="#000000" font-family="sans-serif" font-size="14" lengthAdjust="spacingAndGlyphs" textLength="39" x="856" y="202.9951">score</text><!--entity scenario--><rect fill="#FEFECE" filter="url(#f8y98bh)" height="36.2969" style="stroke: #A80036; stroke-width: 1.5;" width="81" x="730" y="180"/><rect fill="#FEFECE" height="5" style="stroke: #A80036; stroke-width: 1.5;" width="10" x="725" y="185"/><rect fill="#FEFECE" height="5" style="stroke: #A80036; stroke-width: 1.5;" width="10" x="725" y="206.2969"/><text fill="#000000" font-family="sans-serif" font-size="14" lengthAdjust="spacingAndGlyphs" textLength="61" x="740" y="202.9951">scenario</text><!--entity interpreter--><rect fill="#FEFECE" filter="url(#f8y98bh)" height="36.2969" style="stroke: #A80036; stroke-width: 1.5;" width="97" x="598" y="180"/><rect fill="#FEFECE" height="5" style="stroke: #A80036; stroke-width: 1.5;" width="10" x="593" y="185"/><rect fill="#FEFECE" height="5" style="stroke: #A80036; stroke-width: 1.5;" width="10" x="593" y="206.2969"/><text fill="#000000" font-family="sans-serif" font-size="14" lengthAdjust="spacingAndGlyphs" textLength="77" x="608" y="202.9951">interpreter</text><!--entity facts--><rect fill="#FEFECE" filter="url(#f8y98bh)" height="36.2969" rx="35" ry="35" style="stroke: #000000; stroke-width: 1.5;" width="54" x="619.5" y="297"/><text fill="#000000" font-family="sans-serif" font-size="14" lengthAdjust="spacingAndGlyphs" textLength="34" x="629.5" y="319.9951">facts</text><!--entity emotions--><rect fill="#FEFECE" filter="url(#f8y98bh)" height="36.2969" style="stroke: #A80036; stroke-width: 1.5;" width="86" x="476.5" y="180"/><rect fill="#FEFECE" height="5" style="stroke: #A80036; stroke-width: 1.5;" width="10" x="471.5" y="185"/><rect fill="#FEFECE" height="5" style="stroke: #A80036; stroke-width: 1.5;" width="10" x="471.5" y="206.2969"/><text fill="#000000" font-family="sans-serif" font-size="14" lengthAdjust="spacingAndGlyphs" textLength="66" x="486.5" y="202.9951">emotions</text><!--entity personality--><rect fill="#FEFECE" filter="url(#f8y98bh)" height="36.2969" style="stroke: #A80036; stroke-width: 1.5;" width="99" x="342" y="180"/><rect fill="#FEFECE" height="5" style="stroke: #A80036; stroke-width: 1.5;" width="10" x="337" y="185"/><rect fill="#FEFECE" height="5" style="stroke: #A80036; stroke-width: 1.5;" width="10" x="337" y="206.2969"/><text fill="#000000" font-family="sans-serif" font-size="14" lengthAdjust="spacingAndGlyphs" textLength="79" x="352" y="202.9951">personality</text><!--entity server--><polygon fill="#FEFECE" filter="url(#f8y98bh)" points="40,18,50,8,125,8,125,44.2969,115,54.2969,40,54.2969,40,18" style="stroke: #000000; stroke-width: 1.5;"/><line style="stroke: #000000; stroke-width: 1.5;" x1="115" x2="124" y1="18" y2="9"/><line style="stroke: #000000; stroke-width: 1.5;" x1="40" x2="115" y1="18" y2="18"/><line style="stroke: #000000; stroke-width: 1.5;" x1="115" x2="115" y1="18" y2="54.2969"/><text fill="#000000" font-family="sans-serif" font-size="14" lengthAdjust="spacingAndGlyphs" textLength="45" x="55" y="40.9951">server</text><!--entity client--><polygon fill="#FEFECE" filter="url(#f8y98bh)" points="6,185,16,175,85,175,85,211.2969,75,221.2969,6,221.2969,6,185" style="stroke: #000000; stroke-width: 1.5;"/><line style="stroke: #000000; stroke-width: 1.5;" x1="75" x2="84" y1="185" y2="176"/><line style="stroke: #000000; stroke-width: 1.5;" x1="6" x2="75" y1="185" y2="185"/><line style="stroke: #000000; stroke-width: 1.5;" x1="75" x2="75" y1="185" y2="221.2969"/><text fill="#000000" font-family="sans-serif" font-size="14" lengthAdjust="spacingAndGlyphs" textLength="39" x="21" y="207.9951">client</text><path d="M751.936,216.217 C728.559,237.897 688.627,274.93 665.191,296.666 " fill="none" style="stroke: #A80036; stroke-width: 1.0;"/><path d="M646.5,216.466 C646.5,238.207 646.5,275.105 646.5,296.746 " fill="none" style="stroke: #A80036; stroke-width: 1.0;"/><path d="M845.562,214.034 C800.705,236.561 716.724,278.735 673.591,300.395 " fill="none" style="stroke: #A80036; stroke-width: 1.0;"/><path d="M540.566,216.294 C560.335,232.737 590.518,258.394 615.5,282 C620.447,286.675 625.657,291.917 630.363,296.784 " fill="none" style="stroke: #A80036; stroke-width: 1.0;"/><path d="M441.073,216.058 C502.338,237.341 600.391,272.143 615.5,282 C621.719,286.057 627.633,291.572 632.597,296.88 " fill="none" style="stroke: #A80036; stroke-width: 1.0;"/><path d="M209.5,222.272 C209.5,237.736 209.5,258.394 209.5,276.19 " fill="none" style="stroke: #A80036; stroke-width: 1.0; stroke-dasharray: 7.0,7.0;"/><polygon fill="#A80036" points="209.5,281.612,213.5,272.612,209.5,276.612,205.5,272.612,209.5,281.612" style="stroke: #A80036; stroke-width: 1.0;"/><path d="M298.4643,229.1742 C298.4152,229.2557 298.366,229.3372 298.3167,229.4187 C298.2181,229.5817 298.1192,229.7445 298.0199,229.9073 C296.4314,232.5107 294.7527,235.0803 292.9983,237.6123 C289.4894,242.6761 285.6779,247.5888 281.6803,252.3178 C273.685,261.7757 264.9455,270.499 256.395,278.227 " fill="none" style="stroke: #A80036; stroke-width: 1.0;"/><polygon fill="#A80036" points="252.531,281.664,261.9141,278.6712,256.2669,278.3409,256.5972,272.6937,252.531,281.664" style="stroke: #A80036; stroke-width: 1.0;"/><path d="M98.7456,54.003 C100.1889,56.611 101.4849,59.305 102.5,62 C105.1258,68.97 107.3778,76.2687 109.3085,83.7097 C110.2738,87.4302 111.1588,91.1862 111.9699,94.9546 C112.0713,95.4256 112.1715,95.8968 112.2706,96.3682 C112.3201,96.6039 112.3694,96.8396 112.4184,97.0754 " fill="none" style="stroke: #A80036; stroke-width: 1.0;"/><path d="M77.51,54.253 C70.4286,85.832 57.5403,143.307 50.4699,174.837 " fill="none" style="stroke: #A80036; stroke-width: 1.0;"/><ellipse cx="63.9858" cy="114.5634" fill="#FFFFFF" rx="10" ry="10" style="stroke: #FFFFFF; stroke-width: 1.0;"/><path d="M55.5389,119.9159 A10,10 0 0 0 69.3383 123.0103" fill="#FFFFFF" style="stroke: #A80036; stroke-width: 1.5;"/><path d="M72.4328,109.2109 A10,10 0 0 0 58.6333 106.1164" fill="#FFFFFF" style="stroke: #A80036; stroke-width: 1.5;"/><ellipse cx="63.9858" cy="114.5634" fill="#FFFFFF" rx="6" ry="6" style="stroke: #A80036; stroke-width: 1.5;"/></g></svg>