<?xml version="1.0" encoding="UTF-8" standalone="yes"?><svg xmlns="http://www.w3.org/2000/svg" xmlns:xlink="http://www.w3.org/1999/xlink" height="543px" style="width:651px;height:543px;" version="1.1" viewBox="0 0 651 543" width="651px"><defs><filter height="300%" id="fkzy92z" width="300%" x="-1" y="-1"><feGaussianBlur result="blurOut" stdDeviation="2.0"/><feColorMatrix in="blurOut" result="blurOut2" type="matrix" values="0 0 0 0 0 0 0 0 0 0 0 0 0 0 0 0 0 0 .4 0"/><feOffset dx="4.0" dy="4.0" in="blurOut2" result="blurOut3"/><feBlend in="SourceGraphic" in2="blurOut3" mode="normal"/></filter></defs><g><!--cluster org.kie.api.runtime--><polygon fill="#FFFFFF" filter="url(#fkzy92z)" points="22,405,182,405,189,427.2969,336,427.2969,336,530,22,530,22,405" style="stroke: #000000; stroke-width: 2.0;"/><line style="stroke: #000000; stroke-width: 2.0;" x1="22" x2="189" y1="427.2969" y2="427.2969"/><text fill="#000000" font-family="sans-serif" font-size="14" font-weight="bold" lengthAdjust="spacingAndGlyphs" textLength="154" x="26" y="419.9951">org.kie.api.runtime</text><!--cluster org.alicebot.ab--><polygon fill="#FFFFFF" filter="url(#fkzy92z)" points="360,399,486,399,493,421.2969,644,421.2969,644,536,360,536,360,399" style="stroke: #000000; stroke-width: 2.0;"/><line style="stroke: #000000; stroke-width: 2.0;" x1="360" x2="493" y1="421.2969" y2="421.2969"/><text fill="#000000" font-family="sans-serif" font-size="14" font-weight="bold" lengthAdjust="spacingAndGlyphs" textLength="120" x="364" y="413.9951">org.alicebot.ab</text><!--class KieSession--><rect fill="#FEFECE" filter="url(#fkzy92z)" height="73.6094" style="stroke: #A80036; stroke-width: 1.5;" width="281" x="38.5" y="440"/><ellipse cx="143.25" cy="456" fill="#ADD1B2" rx="11" ry="11" style="stroke: #A80036; stroke-width: 1.0;"/><path d="M146.2188,461 Q145.6406,461.5 145,461.75 Q144.3594,462 143.6563,462 Q141.1563,462 139.8359,460.4609 Q138.5156,458.9219 138.5156,456 Q138.5156,453.0781 139.8359,451.5391 Q141.1563,450 143.6563,450 Q144.3594,450 145.0078,450.25 Q145.6563,450.5 146.2188,451 L146.2188,454 Q145.5938,452.9688 145,452.4844 Q144.4063,452 143.7656,452 Q142.4375,452 141.75,453.0078 Q141.0625,454.0156 141.0625,456 Q141.0625,457.9844 141.75,458.9922 Q142.4375,460 143.7656,460 Q144.4063,460 145,459.5156 Q145.5938,459.0313 146.2188,458 L146.2188,461 Z "/><text fill="#000000" font-family="sans-serif" font-size="12" lengthAdjust="spacingAndGlyphs" textLength="63" x="163.75" y="460.1543">KieSession</text><line style="stroke: #A80036; stroke-width: 1.5;" x1="39.5" x2="318.5" y1="472" y2="472"/><line style="stroke: #A80036; stroke-width: 1.5;" x1="39.5" x2="318.5" y1="480" y2="480"/><ellipse cx="49.5" cy="491.9023" fill="#84BE84" rx="3" ry="3" style="stroke: #038048; stroke-width: 1.0;"/><text fill="#000000" font-family="sans-serif" font-size="11" lengthAdjust="spacingAndGlyphs" textLength="162" x="58.5" y="494.2104">Facthandle insert(Object obj)</text><ellipse cx="49.5" cy="504.707" fill="#84BE84" rx="3" ry="3" style="stroke: #038048; stroke-width: 1.0;"/><text fill="#000000" font-family="sans-serif" font-size="11" lengthAdjust="spacingAndGlyphs" textLength="255" x="58.5" y="507.0151">void setGlobal(String identifier, Object value)</text><!--class Chat--><rect fill="#FEFECE" filter="url(#fkzy92z)" height="86.4141" style="stroke: #A80036; stroke-width: 1.5;" width="251" x="376.5" y="434"/><ellipse cx="483.75" cy="450" fill="#ADD1B2" rx="11" ry="11" style="stroke: #A80036; stroke-width: 1.0;"/><path d="M486.7188,455 Q486.1406,455.5 485.5,455.75 Q484.8594,456 484.1563,456 Q481.6563,456 480.3359,454.4609 Q479.0156,452.9219 479.0156,450 Q479.0156,447.0781 480.3359,445.5391 Q481.6563,444 484.1563,444 Q484.8594,444 485.5078,444.25 Q486.1563,444.5 486.7188,445 L486.7188,448 Q486.0938,446.9688 485.5,446.4844 Q484.9063,446 484.2656,446 Q482.9375,446 482.25,447.0078 Q481.5625,448.0156 481.5625,450 Q481.5625,451.9844 482.25,452.9922 Q482.9375,454 484.2656,454 Q484.9063,454 485.5,453.5156 Q486.0938,453.0313 486.7188,452 L486.7188,455 Z "/><text fill="#000000" font-family="sans-serif" font-size="12" lengthAdjust="spacingAndGlyphs" textLength="28" x="504.25" y="454.1543">Chat</text><line style="stroke: #A80036; stroke-width: 1.5;" x1="377.5" x2="626.5" y1="466" y2="466"/><ellipse cx="387.5" cy="477.9023" fill="none" rx="3" ry="3" style="stroke: #038048; stroke-width: 1.0;"/><text fill="#000000" font-family="sans-serif" font-size="11" lengthAdjust="spacingAndGlyphs" textLength="209" x="396.5" y="480.2104">HashMap&lt;String, Object&gt; predicates</text><line style="stroke: #A80036; stroke-width: 1.5;" x1="377.5" x2="626.5" y1="486.8047" y2="486.8047"/><ellipse cx="387.5" cy="498.707" fill="#84BE84" rx="3" ry="3" style="stroke: #038048; stroke-width: 1.0;"/><text fill="#000000" font-family="sans-serif" font-size="11" lengthAdjust="spacingAndGlyphs" textLength="225" x="396.5" y="501.0151">String multisentenceRespond(String str)</text><ellipse cx="387.5" cy="511.5117" fill="#84BE84" rx="3" ry="3" style="stroke: #038048; stroke-width: 1.0;"/><text fill="#000000" font-family="sans-serif" font-size="11" lengthAdjust="spacingAndGlyphs" textLength="165" x="396.5" y="513.8198">setKieSession(KieSession kie)</text><!--class ChatBotEngine--><rect fill="#FEFECE" filter="url(#fkzy92z)" height="73.6094" style="stroke: #A80036; stroke-width: 1.5;" width="211" x="234.5" y="154"/><ellipse cx="290.75" cy="170" fill="#B4A7E5" rx="11" ry="11" style="stroke: #A80036; stroke-width: 1.0;"/><path d="M287.1719,166 L287.1719,164 L294.5625,164 L294.5625,166 L292.0938,166 L292.0938,174 L294.5625,174 L294.5625,176 L287.1719,176 L287.1719,174 L289.6406,174 L289.6406,166 L287.1719,166 Z "/><text fill="#000000" font-family="sans-serif" font-size="12" font-style="italic" lengthAdjust="spacingAndGlyphs" textLength="90" x="311.25" y="174.1543">ChatBotEngine</text><line style="stroke: #A80036; stroke-width: 1.5;" x1="235.5" x2="444.5" y1="186" y2="186"/><line style="stroke: #A80036; stroke-width: 1.5;" x1="235.5" x2="444.5" y1="194" y2="194"/><ellipse cx="245.5" cy="205.9023" fill="#84BE84" rx="3" ry="3" style="stroke: #038048; stroke-width: 1.0;"/><text fill="#000000" font-family="sans-serif" font-size="11" lengthAdjust="spacingAndGlyphs" textLength="149" x="254.5" y="208.2104">String chat(String request)</text><ellipse cx="245.5" cy="218.707" fill="#84BE84" rx="3" ry="3" style="stroke: #038048; stroke-width: 1.0;"/><text fill="#000000" font-family="sans-serif" font-size="11" lengthAdjust="spacingAndGlyphs" textLength="185" x="254.5" y="221.0151">void setSession(Session session)</text><!--class ChatBotEngineImpl--><rect fill="#FEFECE" filter="url(#fkzy92z)" height="86.4141" style="stroke: #A80036; stroke-width: 1.5;" width="149" x="265.5" y="288"/><ellipse cx="280.5" cy="304" fill="#ADD1B2" rx="11" ry="11" style="stroke: #A80036; stroke-width: 1.0;"/><path d="M283.4688,309 Q282.8906,309.5 282.25,309.75 Q281.6094,310 280.9063,310 Q278.4063,310 277.0859,308.4609 Q275.7656,306.9219 275.7656,304 Q275.7656,301.0781 277.0859,299.5391 Q278.4063,298 280.9063,298 Q281.6094,298 282.2578,298.25 Q282.9063,298.5 283.4688,299 L283.4688,302 Q282.8438,300.9688 282.25,300.4844 Q281.6563,300 281.0156,300 Q279.6875,300 279,301.0078 Q278.3125,302.0156 278.3125,304 Q278.3125,305.9844 279,306.9922 Q279.6875,308 281.0156,308 Q281.6563,308 282.25,307.5156 Q282.8438,307.0313 283.4688,306 L283.4688,309 Z "/><text fill="#000000" font-family="sans-serif" font-size="12" lengthAdjust="spacingAndGlyphs" textLength="117" x="294.5" y="308.1543">ChatBotEngineImpl</text><line style="stroke: #A80036; stroke-width: 1.5;" x1="266.5" x2="413.5" y1="320" y2="320"/><rect fill="none" height="6" style="stroke: #C82930; stroke-width: 1.0;" width="6" x="273.5" y="328.9023"/><text fill="#000000" font-family="sans-serif" font-size="11" lengthAdjust="spacingAndGlyphs" textLength="113" x="285.5" y="334.2104">KieSession kSession</text><rect fill="none" height="6" style="stroke: #C82930; stroke-width: 1.0;" width="6" x="273.5" y="341.707"/><text fill="#000000" font-family="sans-serif" font-size="11" lengthAdjust="spacingAndGlyphs" textLength="97" x="285.5" y="347.0151">Chat chatSession</text><rect fill="none" height="6" style="stroke: #C82930; stroke-width: 1.0;" width="6" x="273.5" y="354.5117"/><text fill="#000000" font-family="sans-serif" font-size="11" lengthAdjust="spacingAndGlyphs" textLength="89" x="285.5" y="359.8198">Session session</text><line style="stroke: #A80036; stroke-width: 1.5;" x1="266.5" x2="413.5" y1="366.4141" y2="366.4141"/><!--class WebsocketService--><rect fill="#FEFECE" filter="url(#fkzy92z)" height="86.4141" style="stroke: #A80036; stroke-width: 1.5;" width="310" x="185" y="8"/><ellipse cx="280.75" cy="24" fill="#ADD1B2" rx="11" ry="11" style="stroke: #A80036; stroke-width: 1.0;"/><path d="M283.7188,29 Q283.1406,29.5 282.5,29.75 Q281.8594,30 281.1563,30 Q278.6563,30 277.3359,28.4609 Q276.0156,26.9219 276.0156,24 Q276.0156,21.0781 277.3359,19.5391 Q278.6563,18 281.1563,18 Q281.8594,18 282.5078,18.25 Q283.1563,18.5 283.7188,19 L283.7188,22 Q283.0938,20.9688 282.5,20.4844 Q281.9063,20 281.2656,20 Q279.9375,20 279.25,21.0078 Q278.5625,22.0156 278.5625,24 Q278.5625,25.9844 279.25,26.9922 Q279.9375,28 281.2656,28 Q281.9063,28 282.5,27.5156 Q283.0938,27.0313 283.7188,26 L283.7188,29 Z "/><text fill="#000000" font-family="sans-serif" font-size="12" lengthAdjust="spacingAndGlyphs" textLength="110" x="301.25" y="28.1543">WebsocketService</text><line style="stroke: #A80036; stroke-width: 1.5;" x1="186" x2="494" y1="40" y2="40"/><rect fill="none" height="6" style="stroke: #C82930; stroke-width: 1.0;" width="6" x="193" y="48.9023"/><text fill="#000000" font-family="sans-serif" font-size="11" lengthAdjust="spacingAndGlyphs" textLength="107" x="205" y="54.2104">ChatBotEngine cbe</text><line style="stroke: #A80036; stroke-width: 1.5;" x1="186" x2="494" y1="60.8047" y2="60.8047"/><ellipse cx="196" cy="72.707" fill="#84BE84" rx="3" ry="3" style="stroke: #038048; stroke-width: 1.0;"/><text fill="#000000" font-family="sans-serif" font-size="11" lengthAdjust="spacingAndGlyphs" textLength="284" x="205" y="75.0151">void onMessage(Session session, String message)</text><rect fill="#F24D5C" height="6" style="stroke: #C82930; stroke-width: 1.0;" width="6" x="193" y="82.5117"/><text fill="#000000" font-family="sans-serif" font-size="11" lengthAdjust="spacingAndGlyphs" textLength="238" x="205" y="87.8198">void chat(Session session, Strin message)</text><path d="M340,248.619 C340,261.659 340,275.309 340,287.622 " fill="none" style="stroke: #A80036; stroke-width: 1.0;"/><polygon fill="none" points="333,248.258,340,228.258,347,248.258,333,248.258" style="stroke: #A80036; stroke-width: 1.0;"/><path d="M340,94.154 C340,111.394 340,131.283 340,148.46 " fill="none" style="stroke: #A80036; stroke-width: 1.0;"/><polygon fill="#A80036" points="340,153.697,344,144.697,340,148.697,336,144.697,340,153.697" style="stroke: #A80036; stroke-width: 1.0;"/><path d="M292.999,374.038 C271.068,393.654 245.099,416.881 223.49,436.208 " fill="none" style="stroke: #A80036; stroke-width: 1.0;"/><polygon fill="#A80036" points="219.508,439.769,228.8832,436.7515,223.2352,436.4361,223.5506,430.7881,219.508,439.769" style="stroke: #A80036; stroke-width: 1.0;"/><path d="M387.293,374.038 C407.25,391.778 430.531,412.472 450.884,430.563 " fill="none" style="stroke: #A80036; stroke-width: 1.0;"/><polygon fill="#A80036" points="454.649,433.91,450.5791,424.9414,450.9117,430.5884,445.2646,430.921,454.649,433.91" style="stroke: #A80036; stroke-width: 1.0;"/></g></svg>