<?xml version="1.0" encoding="UTF-8" standalone="yes"?><svg xmlns="http://www.w3.org/2000/svg" xmlns:xlink="http://www.w3.org/1999/xlink" height="152px" style="width:270px;height:152px;" version="1.1" viewBox="0 0 270 152" width="270px"><defs><filter height="300%" id="f7pqqta" width="300%" x="-1" y="-1"><feGaussianBlur result="blurOut" stdDeviation="2.0"/><feColorMatrix in="blurOut" result="blurOut2" type="matrix" values="0 0 0 0 0 0 0 0 0 0 0 0 0 0 0 0 0 0 .4 0"/><feOffset dx="4.0" dy="4.0" in="blurOut2" result="blurOut3"/><feBlend in="SourceGraphic" in2="blurOut3" mode="normal"/></filter></defs><g><!--entity Unity Client--><rect fill="#FEFECE" filter="url(#f7pqqta)" height="36.2969" style="stroke: #A80036; stroke-width: 1.5;" width="101" x="6" y="8"/><rect fill="#FEFECE" height="5" style="stroke: #A80036; stroke-width: 1.5;" width="10" x="1" y="13"/><rect fill="#FEFECE" height="5" style="stroke: #A80036; stroke-width: 1.5;" width="10" x="1" y="34.2969"/><text fill="#000000" font-family="sans-serif" font-size="14" lengthAdjust="spacingAndGlyphs" textLength="81" x="16" y="30.9951">Unity Client</text><!--entity Websocket--><ellipse cx="128.5" cy="130" fill="#FEFECE" filter="url(#f7pqqta)" rx="8" ry="8" style="stroke: #A80036; stroke-width: 2.0;"/><text fill="#000000" font-family="sans-serif" font-size="14" lengthAdjust="spacingAndGlyphs" textLength="78" x="89.5" y="151.9951">Websocket</text><!--entity Wildfly Server--><rect fill="#FEFECE" filter="url(#f7pqqta)" height="36.2969" style="stroke: #A80036; stroke-width: 1.5;" width="119" x="142" y="8"/><rect fill="#FEFECE" height="5" style="stroke: #A80036; stroke-width: 1.5;" width="10" x="137" y="13"/><rect fill="#FEFECE" height="5" style="stroke: #A80036; stroke-width: 1.5;" width="10" x="137" y="34.2969"/><text fill="#000000" font-family="sans-serif" font-size="14" lengthAdjust="spacingAndGlyphs" textLength="99" x="152" y="30.9951">Wildfly Server</text><path d="M70.5931,48.531 C83.4649,68.1963 102.3655,97.0722 115.036,116.43 " fill="none" style="stroke: #A80036; stroke-width: 1.0;"/><polygon fill="#A80036" points="117.799,120.6507,116.2175,110.9296,115.061,116.467,109.5236,115.3105,117.799,120.6507" style="stroke: #A80036; stroke-width: 1.0;"/><polygon fill="#A80036" points="67.75,44.188,69.3302,53.9093,70.4875,48.3721,76.0247,49.5293,67.75,44.188" style="stroke: #A80036; stroke-width: 1.0;"/><text fill="#000000" font-family="sans-serif" font-size="13" lengthAdjust="spacingAndGlyphs" textLength="27" x="98.5" y="87.0669">json</text><path d="M187.211,48.531 C174.161,68.1963 154.998,97.0722 142.151,116.43 " fill="none" style="stroke: #A80036; stroke-width: 1.0;"/><polygon fill="#A80036" points="139.35,120.6507,147.6597,115.364,142.115,116.4848,140.9943,110.9401,139.35,120.6507" style="stroke: #A80036; stroke-width: 1.0;"/><polygon fill="#A80036" points="190.094,44.188,181.7848,49.4754,187.3294,48.3542,188.4507,53.8988,190.094,44.188" style="stroke: #A80036; stroke-width: 1.0;"/><text fill="#000000" font-family="sans-serif" font-size="13" lengthAdjust="spacingAndGlyphs" textLength="27" x="169.5" y="87.0669">json</text></g></svg>