<?xml version="1.0" encoding="UTF-8" standalone="yes"?><svg xmlns="http://www.w3.org/2000/svg" xmlns:xlink="http://www.w3.org/1999/xlink" height="805px" style="width:811px;height:805px;" version="1.1" viewBox="0 0 811 805" width="811px"><defs><filter height="300%" id="f0m9tjk" width="300%" x="-1" y="-1"><feGaussianBlur result="blurOut" stdDeviation="2.0"/><feColorMatrix in="blurOut" result="blurOut2" type="matrix" values="0 0 0 0 0 0 0 0 0 0 0 0 0 0 0 0 0 0 .4 0"/><feOffset dx="4.0" dy="4.0" in="blurOut2" result="blurOut3"/><feBlend in="SourceGraphic" in2="blurOut3" mode="normal"/></filter></defs><g><text fill="#000000" font-family="sans-serif" font-size="18" lengthAdjust="spacingAndGlyphs" textLength="100" x="90.5" y="29.4531">WebSocket</text><line style="stroke: #000000; stroke-width: 2.0;" x1="10" x2="10" y1="12.7451" y2="798.3857"/><ellipse cx="140.5" cy="43.6982" fill="#000000" filter="url(#f0m9tjk)" rx="10" ry="10" style="stroke: none; stroke-width: 1.0;"/><rect fill="#FEFECE" filter="url(#f0m9tjk)" height="33.9688" rx="12.5" ry="12.5" style="stroke: #A80036; stroke-width: 1.5;" width="189" x="46" y="88.6982"/><text fill="#000000" font-family="sans-serif" font-size="12" lengthAdjust="spacingAndGlyphs" textLength="169" x="56" y="109.8369">Receve StartGame message</text><rect fill="#FEFECE" filter="url(#f0m9tjk)" height="33.9688" rx="12.5" ry="12.5" style="stroke: #A80036; stroke-width: 1.5;" width="182" x="49.5" y="157.667"/><text fill="#000000" font-family="sans-serif" font-size="12" lengthAdjust="spacingAndGlyphs" textLength="162" x="59.5" y="178.8057">Construct a chatbotengine</text><rect fill="#FEFECE" filter="url(#f0m9tjk)" height="33.9688" rx="12.5" ry="12.5" style="stroke: #A80036; stroke-width: 1.5;" width="241" x="20" y="709.417"/><text fill="#000000" font-family="sans-serif" font-size="12" lengthAdjust="spacingAndGlyphs" textLength="221" x="30" y="730.5557">put game id in websocket user prefs</text><ellipse cx="140.5" cy="788.3857" fill="none" filter="url(#f0m9tjk)" rx="10" ry="10" style="stroke: #000000; stroke-width: 1.0;"/><ellipse cx="141" cy="788.8857" fill="#000000" filter="url(#f0m9tjk)" rx="6" ry="6" style="stroke: none; stroke-width: 1.0;"/><rect fill="#CCDDDD" height="785.6406" style="stroke: #CCDDDD; stroke-width: 1.0;" width="248" x="271" y="12.7451"/><text fill="#000000" font-family="sans-serif" font-size="18" lengthAdjust="spacingAndGlyphs" textLength="60" x="365" y="29.4531">Engine</text><line style="stroke: #000000; stroke-width: 2.0;" x1="271" x2="271" y1="12.7451" y2="798.3857"/><rect fill="#FEFECE" filter="url(#f0m9tjk)" height="33.9688" rx="12.5" ry="12.5" style="stroke: #A80036; stroke-width: 1.5;" width="115" x="337.5" y="226.6357"/><text fill="#000000" font-family="sans-serif" font-size="12" lengthAdjust="spacingAndGlyphs" textLength="95" x="347.5" y="247.7744">Start kie thread</text><rect fill="#FEFECE" filter="url(#f0m9tjk)" height="33.9688" rx="12.5" ry="12.5" style="stroke: #A80036; stroke-width: 1.5;" width="228" x="281" y="295.6045"/><text fill="#000000" font-family="sans-serif" font-size="12" lengthAdjust="spacingAndGlyphs" textLength="208" x="291" y="316.7432">Register engine as controller in kie</text><rect fill="#FEFECE" filter="url(#f0m9tjk)" height="33.9688" rx="12.5" ry="12.5" style="stroke: #A80036; stroke-width: 1.5;" width="151" x="319.5" y="364.5732"/><text fill="#000000" font-family="sans-serif" font-size="12" lengthAdjust="spacingAndGlyphs" textLength="131" x="329.5" y="385.7119">Insert GameStart fact</text><rect fill="#FAEBD7" height="785.6406" style="stroke: #FAEBD7; stroke-width: 1.0;" width="291" x="519" y="12.7451"/><text fill="#000000" font-family="sans-serif" font-size="18" lengthAdjust="spacingAndGlyphs" textLength="48" x="640.5" y="29.4531">Drool</text><line style="stroke: #000000; stroke-width: 2.0;" x1="519" x2="519" y1="12.7451" y2="798.3857"/><rect fill="#FEFECE" filter="url(#f0m9tjk)" height="33.9688" rx="12.5" ry="12.5" style="stroke: #A80036; stroke-width: 1.5;" width="105" x="612" y="433.542"/><text fill="#000000" font-family="sans-serif" font-size="12" lengthAdjust="spacingAndGlyphs" textLength="85" x="622" y="454.6807">Load aiml files</text><rect fill="#FEFECE" filter="url(#f0m9tjk)" height="33.9688" rx="12.5" ry="12.5" style="stroke: #A80036; stroke-width: 1.5;" width="271" x="529" y="502.5107"/><text fill="#000000" font-family="sans-serif" font-size="12" lengthAdjust="spacingAndGlyphs" textLength="251" x="539" y="523.6494">Construct a Chat object with help of AIML</text><rect fill="#FEFECE" filter="url(#f0m9tjk)" height="33.9688" rx="12.5" ry="12.5" style="stroke: #A80036; stroke-width: 1.5;" width="177" x="576" y="571.4795"/><text fill="#000000" font-family="sans-serif" font-size="12" lengthAdjust="spacingAndGlyphs" textLength="157" x="586" y="592.6182">Chat inserted in controller</text><rect fill="#FEFECE" filter="url(#f0m9tjk)" height="33.9688" rx="12.5" ry="12.5" style="stroke: #A80036; stroke-width: 1.5;" width="95" x="617" y="640.4482"/><text fill="#000000" font-family="sans-serif" font-size="12" lengthAdjust="spacingAndGlyphs" textLength="75" x="627" y="661.5869">Log to client</text><line style="stroke: #000000; stroke-width: 2.0;" x1="810" x2="810" y1="12.7451" y2="798.3857"/><line style="stroke: #A80036; stroke-width: 1.5;" x1="140.5" x2="140.5" y1="53.6982" y2="88.6982"/><polygon fill="#A80036" points="136.5,78.6982,140.5,88.6982,144.5,78.6982,140.5,82.6982" style="stroke: #A80036; stroke-width: 1.0;"/><line style="stroke: #A80036; stroke-width: 1.5;" x1="140.5" x2="140.5" y1="122.667" y2="157.667"/><polygon fill="#A80036" points="136.5,147.667,140.5,157.667,144.5,147.667,140.5,151.667" style="stroke: #A80036; stroke-width: 1.0;"/><line style="stroke: #A80036; stroke-width: 1.5;" x1="140.5" x2="140.5" y1="743.3857" y2="778.3857"/><polygon fill="#A80036" points="136.5,768.3857,140.5,778.3857,144.5,768.3857,140.5,772.3857" style="stroke: #A80036; stroke-width: 1.0;"/><line style="stroke: #A80036; stroke-width: 1.5;" x1="395" x2="395" y1="260.6045" y2="295.6045"/><polygon fill="#A80036" points="391,285.6045,395,295.6045,399,285.6045,395,289.6045" style="stroke: #A80036; stroke-width: 1.0;"/><line style="stroke: #A80036; stroke-width: 1.5;" x1="395" x2="395" y1="329.5732" y2="364.5732"/><polygon fill="#A80036" points="391,354.5732,395,364.5732,399,354.5732,395,358.5732" style="stroke: #A80036; stroke-width: 1.0;"/><line style="stroke: #A80036; stroke-width: 1.5;" x1="664.5" x2="664.5" y1="467.5107" y2="502.5107"/><polygon fill="#A80036" points="660.5,492.5107,664.5,502.5107,668.5,492.5107,664.5,496.5107" style="stroke: #A80036; stroke-width: 1.0;"/><line style="stroke: #A80036; stroke-width: 1.5;" x1="664.5" x2="664.5" y1="536.4795" y2="571.4795"/><polygon fill="#A80036" points="660.5,561.4795,664.5,571.4795,668.5,561.4795,664.5,565.4795" style="stroke: #A80036; stroke-width: 1.0;"/><line style="stroke: #A80036; stroke-width: 1.5;" x1="664.5" x2="664.5" y1="605.4482" y2="640.4482"/><polygon fill="#A80036" points="660.5,630.4482,664.5,640.4482,668.5,630.4482,664.5,634.4482" style="stroke: #A80036; stroke-width: 1.0;"/><line style="stroke: #A80036; stroke-width: 1.5;" x1="140.5" x2="140.5" y1="191.6357" y2="209.1357"/><line style="stroke: #A80036; stroke-width: 1.5;" x1="140.5" x2="395" y1="209.1357" y2="209.1357"/><line style="stroke: #A80036; stroke-width: 1.5;" x1="395" x2="395" y1="209.1357" y2="226.6357"/><polygon fill="#A80036" points="391,216.6357,395,226.6357,399,216.6357,395,220.6357" style="stroke: #A80036; stroke-width: 1.0;"/><line style="stroke: #A80036; stroke-width: 1.5;" x1="395" x2="395" y1="398.542" y2="416.042"/><line style="stroke: #A80036; stroke-width: 1.5;" x1="395" x2="664.5" y1="416.042" y2="416.042"/><line style="stroke: #A80036; stroke-width: 1.5;" x1="664.5" x2="664.5" y1="416.042" y2="433.542"/><polygon fill="#A80036" points="660.5,423.542,664.5,433.542,668.5,423.542,664.5,427.542" style="stroke: #A80036; stroke-width: 1.0;"/><line style="stroke: #A80036; stroke-width: 1.5;" x1="664.5" x2="664.5" y1="674.417" y2="691.917"/><line style="stroke: #A80036; stroke-width: 1.5;" x1="664.5" x2="140.5" y1="691.917" y2="691.917"/><line style="stroke: #A80036; stroke-width: 1.5;" x1="140.5" x2="140.5" y1="691.917" y2="709.417"/><polygon fill="#A80036" points="136.5,699.417,140.5,709.417,144.5,699.417,140.5,703.417" style="stroke: #A80036; stroke-width: 1.0;"/></g></svg>