<?xml version="1.0" encoding="UTF-8" standalone="yes"?><svg xmlns="http://www.w3.org/2000/svg" xmlns:xlink="http://www.w3.org/1999/xlink" height="474px" style="width:647px;height:474px;" version="1.1" viewBox="0 0 647 474" width="647px"><defs><filter height="300%" id="f2oz5ww" width="300%" x="-1" y="-1"><feGaussianBlur result="blurOut" stdDeviation="2.0"/><feColorMatrix in="blurOut" result="blurOut2" type="matrix" values="0 0 0 0 0 0 0 0 0 0 0 0 0 0 0 0 0 0 .4 0"/><feOffset dx="4.0" dy="4.0" in="blurOut2" result="blurOut3"/><feBlend in="SourceGraphic" in2="blurOut3" mode="normal"/></filter></defs><g><!--cluster Drools.db--><polygon fill="#FFFFFF" filter="url(#f2oz5ww)" points="22,24,105,24,112,46.2969,640,46.2969,640,467,22,467,22,24" style="stroke: #000000; stroke-width: 2.0;"/><line style="stroke: #000000; stroke-width: 2.0;" x1="22" x2="112" y1="46.2969" y2="46.2969"/><text fill="#000000" font-family="sans-serif" font-size="14" font-weight="bold" lengthAdjust="spacingAndGlyphs" textLength="77" x="26" y="38.9951">Drools.db</text><!--class Database--><rect fill="#FEFECE" filter="url(#f2oz5ww)" height="124.8281" style="stroke: #A80036; stroke-width: 1.5;" width="268" x="168" y="326"/><ellipse cx="238.25" cy="342" fill="#A9DCDF" rx="11" ry="11" style="stroke: #A80036; stroke-width: 1.0;"/><path d="M238.3594,337.3906 L237.2031,342.25 L239.5313,342.25 L238.3594,337.3906 Z M236.875,335.25 L239.8594,335.25 L243.2188,347.25 L240.7656,347.25 L240,344.25 L236.7188,344.25 L235.9688,347.25 L233.5313,347.25 L236.875,335.25 Z "/><text fill="#000000" font-family="sans-serif" font-size="12" font-style="italic" lengthAdjust="spacingAndGlyphs" textLength="56" x="258.75" y="346.1543">Database</text><rect fill="#FFFFFF" height="15.9688" style="stroke: #000000; stroke-width: 1.0; stroke-dasharray: 2.0,2.0;" width="61" x="378" y="323"/><text fill="#000000" font-family="sans-serif" font-size="12" font-style="italic" lengthAdjust="spacingAndGlyphs" textLength="59" x="379" y="335.1387">Key,Value</text><line style="stroke: #A80036; stroke-width: 1.5;" x1="169" x2="435" y1="358" y2="358"/><rect fill="none" height="6" style="stroke: #C82930; stroke-width: 1.0;" width="6" x="176" y="366.9023"/><text fill="#000000" font-family="sans-serif" font-size="11" lengthAdjust="spacingAndGlyphs" textLength="139" x="188" y="372.2104">values:Map&lt;Key,Value&gt;</text><line style="stroke: #A80036; stroke-width: 1.5;" x1="169" x2="435" y1="378.8047" y2="378.8047"/><ellipse cx="179" cy="390.707" fill="#84BE84" rx="3" ry="3" style="stroke: #038048; stroke-width: 1.0;"/><text fill="#000000" font-family="sans-serif" font-size="11" lengthAdjust="spacingAndGlyphs" textLength="172" x="188" y="393.0151">get(key:Key):Optional&lt;Value&gt;</text><ellipse cx="179" cy="403.5117" fill="#84BE84" rx="3" ry="3" style="stroke: #038048; stroke-width: 1.0;"/><text fill="#000000" font-family="sans-serif" font-size="11" lengthAdjust="spacingAndGlyphs" textLength="156" x="188" y="405.8198">getOrThrow(key:Key):Value</text><ellipse cx="179" cy="416.3164" fill="#84BE84" rx="3" ry="3" style="stroke: #038048; stroke-width: 1.0;"/><text fill="#000000" font-family="sans-serif" font-size="11" lengthAdjust="spacingAndGlyphs" textLength="118" x="188" y="418.6245">keys():Stream&lt;Key&gt;</text><ellipse cx="179" cy="429.1211" fill="#84BE84" rx="3" ry="3" style="stroke: #038048; stroke-width: 1.0;"/><text fill="#000000" font-family="sans-serif" font-size="11" lengthAdjust="spacingAndGlyphs" textLength="140" x="188" y="431.4292">values():Stream&lt;Value&gt;</text><ellipse cx="179" cy="441.9258" fill="#84BE84" rx="3" ry="3" style="stroke: #038048; stroke-width: 1.0;"/><text fill="#000000" font-family="sans-serif" font-size="11" lengthAdjust="spacingAndGlyphs" textLength="242" x="188" y="444.2339">entries():Stream&lt;Map.Entry&lt;Key,Value&gt;&gt;</text><!--class ConnectionDatabase--><rect fill="#FEFECE" filter="url(#f2oz5ww)" height="99.2188" style="stroke: #A80036; stroke-width: 1.5;" width="452" x="124" y="59"/><ellipse cx="213.25" cy="75" fill="#ADD1B2" rx="11" ry="11" style="stroke: #A80036; stroke-width: 1.0;"/><path d="M216.2188,80 Q215.6406,80.5 215,80.75 Q214.3594,81 213.6563,81 Q211.1563,81 209.8359,79.4609 Q208.5156,77.9219 208.5156,75 Q208.5156,72.0781 209.8359,70.5391 Q211.1563,69 213.6563,69 Q214.3594,69 215.0078,69.25 Q215.6563,69.5 216.2188,70 L216.2188,73 Q215.5938,71.9688 215,71.4844 Q214.4063,71 213.7656,71 Q212.4375,71 211.75,72.0078 Q211.0625,73.0156 211.0625,75 Q211.0625,76.9844 211.75,77.9922 Q212.4375,79 213.7656,79 Q214.4063,79 215,78.5156 Q215.5938,78.0313 216.2188,77 L216.2188,80 Z "/><text fill="#000000" font-family="sans-serif" font-size="12" lengthAdjust="spacingAndGlyphs" textLength="124" x="233.75" y="79.1543">ConnectionDatabase</text><rect fill="#FFFFFF" height="15.9688" style="stroke: #000000; stroke-width: 1.0; stroke-dasharray: 2.0,2.0;" width="139" x="440" y="56"/><text fill="#000000" font-family="sans-serif" font-size="12" font-style="italic" lengthAdjust="spacingAndGlyphs" textLength="137" x="441" y="68.1387">Symbol, {Connection}</text><line style="stroke: #A80036; stroke-width: 1.5;" x1="125" x2="575" y1="91" y2="91"/><line style="stroke: #A80036; stroke-width: 1.5;" x1="125" x2="575" y1="99" y2="99"/><ellipse cx="135" cy="110.9023" fill="#84BE84" rx="3" ry="3" style="stroke: #038048; stroke-width: 1.0;"/><text fill="#000000" font-family="sans-serif" font-size="11" lengthAdjust="spacingAndGlyphs" textLength="407" x="144" y="113.2104">getAllowedConnections(name:Symbol, role:Actor):Stream&lt;Connection&gt;</text><ellipse cx="135" cy="123.707" fill="#84BE84" rx="3" ry="3" style="stroke: #038048; stroke-width: 1.0;"/><text fill="#000000" font-family="sans-serif" font-size="11" lengthAdjust="spacingAndGlyphs" textLength="339" x="144" y="126.0151">getFromTo(from:Symbol, to:Symbol):Optional&lt;Connection&gt;</text><ellipse cx="135" cy="136.5117" fill="#84BE84" rx="3" ry="3" style="stroke: #038048; stroke-width: 1.0;"/><text fill="#000000" font-family="sans-serif" font-size="11" lengthAdjust="spacingAndGlyphs" textLength="426" x="144" y="138.8198">putInCopy(symbol:Symbol, connections:Connection...):ConnectionDatabase</text><ellipse cx="135" cy="149.3164" fill="#84BE84" rx="3" ry="3" style="stroke: #038048; stroke-width: 1.0;"/><text fill="#000000" font-family="sans-serif" font-size="11" lengthAdjust="spacingAndGlyphs" textLength="189" x="144" y="151.6245">createDual():ConnectionDatabase</text><!--class PatternDatabase--><rect fill="#FEFECE" filter="url(#f2oz5ww)" height="48" style="stroke: #A80036; stroke-width: 1.5;" width="286" x="338" y="218"/><ellipse cx="353" cy="234" fill="#ADD1B2" rx="11" ry="11" style="stroke: #A80036; stroke-width: 1.0;"/><path d="M355.9688,239 Q355.3906,239.5 354.75,239.75 Q354.1094,240 353.4063,240 Q350.9063,240 349.5859,238.4609 Q348.2656,236.9219 348.2656,234 Q348.2656,231.0781 349.5859,229.5391 Q350.9063,228 353.4063,228 Q354.1094,228 354.7578,228.25 Q355.4063,228.5 355.9688,229 L355.9688,232 Q355.3438,230.9688 354.75,230.4844 Q354.1563,230 353.5156,230 Q352.1875,230 351.5,231.0078 Q350.8125,232.0156 350.8125,234 Q350.8125,235.9844 351.5,236.9922 Q352.1875,238 353.5156,238 Q354.1563,238 354.75,237.5156 Q355.3438,237.0313 355.9688,236 L355.9688,239 Z "/><text fill="#000000" font-family="sans-serif" font-size="12" lengthAdjust="spacingAndGlyphs" textLength="100" x="367" y="238.1543">PatternDatabase</text><rect fill="#FFFFFF" height="15.9688" style="stroke: #000000; stroke-width: 1.0; stroke-dasharray: 2.0,2.0;" width="152" x="475" y="215"/><text fill="#000000" font-family="sans-serif" font-size="12" font-style="italic" lengthAdjust="spacingAndGlyphs" textLength="150" x="476" y="227.1387">Scene, {PatternSymbol}</text><line style="stroke: #A80036; stroke-width: 1.5;" x1="339" x2="623" y1="250" y2="250"/><line style="stroke: #A80036; stroke-width: 1.5;" x1="339" x2="623" y1="258" y2="258"/><!--class SymbolDatabase--><rect fill="#FEFECE" filter="url(#f2oz5ww)" height="48" style="stroke: #A80036; stroke-width: 1.5;" width="227" x="38.5" y="218"/><ellipse cx="53.5" cy="234" fill="#ADD1B2" rx="11" ry="11" style="stroke: #A80036; stroke-width: 1.0;"/><path d="M56.4688,239 Q55.8906,239.5 55.25,239.75 Q54.6094,240 53.9063,240 Q51.4063,240 50.0859,238.4609 Q48.7656,236.9219 48.7656,234 Q48.7656,231.0781 50.0859,229.5391 Q51.4063,228 53.9063,228 Q54.6094,228 55.2578,228.25 Q55.9063,228.5 56.4688,229 L56.4688,232 Q55.8438,230.9688 55.25,230.4844 Q54.6563,230 54.0156,230 Q52.6875,230 52,231.0078 Q51.3125,232.0156 51.3125,234 Q51.3125,235.9844 52,236.9922 Q52.6875,238 54.0156,238 Q54.6563,238 55.25,237.5156 Q55.8438,237.0313 56.4688,236 L56.4688,239 Z "/><text fill="#000000" font-family="sans-serif" font-size="12" lengthAdjust="spacingAndGlyphs" textLength="101" x="67.5" y="238.1543">SymbolDatabase</text><rect fill="#FFFFFF" height="15.9688" style="stroke: #000000; stroke-width: 1.0; stroke-dasharray: 2.0,2.0;" width="92" x="176.5" y="215"/><text fill="#000000" font-family="sans-serif" font-size="12" font-style="italic" lengthAdjust="spacingAndGlyphs" textLength="90" x="177.5" y="227.1387">String, Symbol</text><line style="stroke: #A80036; stroke-width: 1.5;" x1="39.5" x2="264.5" y1="250" y2="250"/><line style="stroke: #A80036; stroke-width: 1.5;" x1="39.5" x2="264.5" y1="258" y2="258"/><path d="M335.369,158.024 C330.196,176.638 324.74,198.169 321,218 C315.639,246.428 311.602,277.843 308.66,305.826 " fill="none" style="stroke: #A80036; stroke-width: 1.0;"/><polygon fill="none" points="315.602,306.763,306.664,325.975,301.67,305.382,315.602,306.763" style="stroke: #A80036; stroke-width: 1.0;"/><path d="M452.241,266.216 C436.175,279.185 415.167,296.145 393.973,313.254 " fill="none" style="stroke: #A80036; stroke-width: 1.0;"/><polygon fill="none" points="398.153,318.875,378.194,325.991,389.359,307.982,398.153,318.875" style="stroke: #A80036; stroke-width: 1.0;"/><path d="M176.1,266.216 C189.234,278.869 206.311,295.32 223.629,312.002 " fill="none" style="stroke: #A80036; stroke-width: 1.0;"/><polygon fill="none" points="228.603,307.075,238.15,325.991,218.89,317.157,228.603,307.075" style="stroke: #A80036; stroke-width: 1.0;"/></g></svg>