<?xml version="1.0" encoding="UTF-8" standalone="yes"?><svg xmlns="http://www.w3.org/2000/svg" xmlns:xlink="http://www.w3.org/1999/xlink" height="260px" style="width:600px;height:260px;" version="1.1" viewBox="0 0 600 260" width="600px"><defs><filter height="300%" id="fk3722z" width="300%" x="-1" y="-1"><feGaussianBlur result="blurOut" stdDeviation="2.0"/><feColorMatrix in="blurOut" result="blurOut2" type="matrix" values="0 0 0 0 0 0 0 0 0 0 0 0 0 0 0 0 0 0 .4 0"/><feOffset dx="4.0" dy="4.0" in="blurOut2" result="blurOut3"/><feBlend in="SourceGraphic" in2="blurOut3" mode="normal"/></filter></defs><g><!--cluster user sais--><rect fill="#FFFFFF" filter="url(#fk3722z)" height="83" style="stroke: #000000; stroke-width: 2.0;" width="571" x="22" y="24"/><path d="M102,25 L102,33.2969 L92,43.2969 L22,43.2969 " fill="#FFFFFF" style="stroke: #000000; stroke-width: 2.0;"/><text fill="#000000" font-family="sans-serif" font-size="14" font-weight="bold" lengthAdjust="spacingAndGlyphs" textLength="70" x="25" y="37.9951">user sais</text><!--cluster symbols--><path d="M66,138 C66,135 68,133 71,133 C74,133 76,135 76,138 C76,135 78,133 81,133 C84,133 86,135 86,138 C86,135 88,133 91,133 C94,133 96,135 96,138 C96,135 98,133 101,133 C104,133 106,135 106,138 C106,135 108,133 111,133 C114,133 116,135 116,138 C116,135 118,133 121,133 C124,133 126,135 126,138 C126,135 128,133 131,133 C134,133 136,135 136,138 C136,135 138,133 141,133 C144,133 146,135 146,138 C146,135 148,133 151,133 C154,133 156,135 156,138 C156,135 158,133 161,133 C164,133 166,135 166,138 C166,135 168,133 171,133 C174,133 176,135 176,138 C176,135 178,133 181,133 C184,133 186,135 186,138 C186,135 188,133 191,133 C194,133 196,135 196,138 C196,135 198,133 201,133 C204,133 206,135 206,138 C206,135 208,133 211,133 C214,133 216,135 216,138 C216,135 218,133 221,133 C224,133 226,135 226,138 C226,135 228,133 231,133 C234,133 236,135 236,138 C236,135 238,133 241,133 C244,133 246,135 246,138 C246,135 248,133 251,133 C254,133 256,135 256,138 C256,135 258,133 261,133 C264,133 266,135 266,138 C266,135 268,133 271,133 C274,133 276,135 276,138 C276,135 278,133 281,133 C284,133 286,135 286,138 C286,135 288,133 291,133 C294,133 296,135 296,138 C296,135 298,133 301,133 C304,133 306,135 306,138 C306,135 308,133 311,133 C314,133 316,135 316,138 C316,135 318,133 321,133 C324,133 326,135 326,138 C326,135 328,133 331,133 C334,133 336,135 336,138 C336,135 338,133 341,133 C344,133 346,135 346,138 C346,135 348,133 351,133 C354,133 356,135 356,138 C356,135 358,133 361,133 C364,133 366,135 366,138 C366,135 368,133 371,133 C374,133 376,135 376,138 C379,138 381,140 381,143 C381,146 379,148 376,148 C379,148 381,150 381,153 C381,156 379,158 376,158 C379,158 381,160 381,163 C381,166 379,168 376,168 C379,168 381,170 381,173 C381,176 379,178 376,178 C379,178 381,180 381,183 C381,186 379,188 376,188 C379,188 381,190 381,193 C381,196 379,198 376,198 C379,198 381,200 381,203 C381,206 379,208 376,208 C379,208 381,210 381,213 C381,216 379,218 376,218 C379,218 381,220 381,223 C381,226 379,228 376,228 C379,228 381,230 381,233 C381,236 379,238 376,238 C379,238 381,240 381,243 C381,246 379,248 376,248 C376,251 373,253 371,253 C368,253 366,251 366,248 C366,251 363,253 361,253 C358,253 356,251 356,248 C356,251 353,253 351,253 C348,253 346,251 346,248 C346,251 343,253 341,253 C338,253 336,251 336,248 C336,251 333,253 331,253 C328,253 326,251 326,248 C326,251 323,253 321,253 C318,253 316,251 316,248 C316,251 313,253 311,253 C308,253 306,251 306,248 C306,251 303,253 301,253 C298,253 296,251 296,248 C296,251 293,253 291,253 C288,253 286,251 286,248 C286,251 283,253 281,253 C278,253 276,251 276,248 C276,251 273,253 271,253 C268,253 266,251 266,248 C266,251 263,253 261,253 C258,253 256,251 256,248 C256,251 253,253 251,253 C248,253 246,251 246,248 C246,251 243,253 241,253 C238,253 236,251 236,248 C236,251 233,253 231,253 C228,253 226,251 226,248 C226,251 223,253 221,253 C218,253 216,251 216,248 C216,251 213,253 211,253 C208,253 206,251 206,248 C206,251 203,253 201,253 C198,253 196,251 196,248 C196,251 193,253 191,253 C188,253 186,251 186,248 C186,251 183,253 181,253 C178,253 176,251 176,248 C176,251 173,253 171,253 C168,253 166,251 166,248 C166,251 163,253 161,253 C158,253 156,251 156,248 C156,251 153,253 151,253 C148,253 146,251 146,248 C146,251 143,253 141,253 C138,253 136,251 136,248 C136,251 133,253 131,253 C128,253 126,251 126,248 C126,251 123,253 121,253 C118,253 116,251 116,248 C116,251 113,253 111,253 C108,253 106,251 106,248 C106,251 103,253 101,253 C98,253 96,251 96,248 C96,251 93,253 91,253 C88,253 86,251 86,248 C86,251 83,253 81,253 C78,253 76,251 76,248 C76,251 73,253 71,253 C68,253 66,251 66,248 C63,248 61,246 61,243 C61,240 63,238 66,238 C63,238 61,236 61,233 C61,230 63,228 66,228 C63,228 61,226 61,223 C61,220 63,218 66,218 C63,218 61,216 61,213 C61,210 63,208 66,208 C63,208 61,206 61,203 C61,200 63,198 66,198 C63,198 61,196 61,193 C61,190 63,188 66,188 C63,188 61,186 61,183 C61,180 63,178 66,178 C63,178 61,176 61,173 C61,170 63,168 66,168 C63,168 61,166 61,163 C61,160 63,158 66,158 C63,158 61,156 61,153 C61,150 63,148 66,148 C63,148 61,146 61,143 C61,140 63,138 66,138 " fill="#FFFFFF" filter="url(#fk3722z)" style="stroke: #000000; stroke-width: 2.0;"/><text fill="#000000" font-family="sans-serif" font-size="14" font-weight="bold" lengthAdjust="spacingAndGlyphs" textLength="65" x="189" y="156.9951">symbols</text><ellipse cx="510.9597" cy="75.0919" fill="#FEFECE" filter="url(#fk3722z)" rx="65.9597" ry="15.5919" style="stroke: #A80036; stroke-width: 1.5;"/><text fill="#000000" font-family="sans-serif" font-size="14" lengthAdjust="spacingAndGlyphs" textLength="96" x="462.9597" y="79.7404">How are you?</text><ellipse cx="341.9975" cy="74.8995" fill="#FEFECE" filter="url(#fk3722z)" rx="67.4975" ry="15.8995" style="stroke: #A80036; stroke-width: 1.5;"/><text fill="#000000" font-family="sans-serif" font-size="14" lengthAdjust="spacingAndGlyphs" textLength="100" x="291.9975" y="79.5479">How are you *</text><ellipse cx="184.9117" cy="75.0236" fill="#FEFECE" filter="url(#fk3722z)" rx="53.9117" ry="14.5236" style="stroke: #A80036; stroke-width: 1.5;"/><text fill="#000000" font-family="sans-serif" font-size="14" lengthAdjust="spacingAndGlyphs" textLength="72" x="148.9117" y="79.6721">How * you</text><ellipse cx="67.163" cy="75.0236" fill="#FEFECE" filter="url(#fk3722z)" rx="29.163" ry="14.5236" style="stroke: #A80036; stroke-width: 1.5;"/><text fill="#000000" font-family="sans-serif" font-size="14" lengthAdjust="spacingAndGlyphs" textLength="37" x="48.663" y="79.6721">Hello</text><!--entity Greeting--><polygon fill="#FEFECE" filter="url(#fk3722z)" points="79,176,89,166,181,166,181,226.5938,171,236.5938,79,236.5938,79,176" style="stroke: #000000; stroke-width: 1.5;"/><line style="stroke: #000000; stroke-width: 1.5;" x1="171" x2="180" y1="176" y2="167"/><line style="stroke: #000000; stroke-width: 1.5;" x1="79" x2="171" y1="176" y2="176"/><line style="stroke: #000000; stroke-width: 1.5;" x1="171" x2="171" y1="176" y2="236.5938"/><text fill="#000000" font-family="sans-serif" font-size="14" lengthAdjust="spacingAndGlyphs" textLength="62" x="94" y="198.9951">Greeting</text><line style="stroke: #000000; stroke-width: 1.0;" x1="79" x2="171" y1="202.2969" y2="202.2969"/><line style="stroke: #000000; stroke-width: 1.0;" x1="171" x2="181" y1="202.2969" y2="192.2969"/><text fill="#000000" font-family="sans-serif" font-size="14" lengthAdjust="spacingAndGlyphs" textLength="37" x="106.5" y="219.292">Hello</text><!--entity StatusInquiry--><polygon fill="#FEFECE" filter="url(#fk3722z)" points="216,176,226,166,364,166,364,226.5938,354,236.5938,216,236.5938,216,176" style="stroke: #000000; stroke-width: 1.5;"/><line style="stroke: #000000; stroke-width: 1.5;" x1="354" x2="363" y1="176" y2="167"/><line style="stroke: #000000; stroke-width: 1.5;" x1="216" x2="354" y1="176" y2="176"/><line style="stroke: #000000; stroke-width: 1.5;" x1="354" x2="354" y1="176" y2="236.5938"/><text fill="#000000" font-family="sans-serif" font-size="14" lengthAdjust="spacingAndGlyphs" textLength="93" x="238.5" y="198.9951">StatusInquiry</text><line style="stroke: #000000; stroke-width: 1.0;" x1="216" x2="354" y1="202.2969" y2="202.2969"/><line style="stroke: #000000; stroke-width: 1.0;" x1="354" x2="364" y1="202.2969" y2="192.2969"/><text fill="#000000" font-family="sans-serif" font-size="14" lengthAdjust="spacingAndGlyphs" textLength="96" x="237" y="219.292">How are you?</text><path d="M335.624,91.266 C328.704,107.834 317.35,135.017 307.701,158.121 " fill="none" style="stroke: #A80036; stroke-width: 1.0;"/><polygon fill="#A80036" points="304.502,165.778,310.3544,159.5531,304.8183,157.2399,304.502,165.778" style="stroke: #A80036; stroke-width: 1.0;"/><path d="M486.928,89.561 C456.408,106.754 402.502,137.122 358.796,161.744 " fill="none" style="stroke: #A80036; stroke-width: 1.0;"/><polygon fill="#A80036" points="351.598,165.799,360.0405,164.4856,357.0952,159.2583,351.598,165.799" style="stroke: #A80036; stroke-width: 1.0;"/><path d="M196.237,89.324 C210.272,105.965 234.936,135.21 255.446,159.529 " fill="none" style="stroke: #A80036; stroke-width: 1.0;"/><polygon fill="#A80036" points="260.834,165.918,257.9691,157.8686,253.3828,161.7372,260.834,165.918" style="stroke: #A80036; stroke-width: 1.0;"/><path d="M73.7421,89.324 C82.0557,105.753 96.5849,134.465 108.795,158.595 " fill="none" style="stroke: #A80036; stroke-width: 1.0;"/><polygon fill="#A80036" points="112.501,165.918,111.5665,157.4253,106.2127,160.1338,112.501,165.918" style="stroke: #A80036; stroke-width: 1.0;"/></g></svg>