<?xml version="1.0" encoding="UTF-8" standalone="yes"?><svg xmlns="http://www.w3.org/2000/svg" xmlns:xlink="http://www.w3.org/1999/xlink" height="337px" style="width:1011px;height:337px;" version="1.1" viewBox="0 0 1011 337" width="1011px"><defs><filter height="300%" id="fn2ehrp" width="300%" x="-1" y="-1"><feGaussianBlur result="blurOut" stdDeviation="2.0"/><feColorMatrix in="blurOut" result="blurOut2" type="matrix" values="0 0 0 0 0 0 0 0 0 0 0 0 0 0 0 0 0 0 .4 0"/><feOffset dx="4.0" dy="4.0" in="blurOut2" result="blurOut3"/><feBlend in="SourceGraphic" in2="blurOut3" mode="normal"/></filter></defs><g><!--cluster user sais--><rect fill="#FFFFFF" filter="url(#fn2ehrp)" height="115" style="stroke: #000000; stroke-width: 2.0;" width="982" x="22" y="24"/><path d="M102,25 L102,33.2969 L92,43.2969 L22,43.2969 " fill="#FFFFFF" style="stroke: #000000; stroke-width: 2.0;"/><text fill="#000000" font-family="sans-serif" font-size="14" font-weight="bold" lengthAdjust="spacingAndGlyphs" textLength="70" x="25" y="37.9951">user sais</text><!--cluster symbols--><path d="M243,195 C243,192 245,190 248,190 C251,190 253,192 253,195 C253,192 255,190 258,190 C261,190 263,192 263,195 C263,192 265,190 268,190 C271,190 273,192 273,195 C273,192 275,190 278,190 C281,190 283,192 283,195 C283,192 285,190 288,190 C291,190 293,192 293,195 C293,192 295,190 298,190 C301,190 303,192 303,195 C303,192 305,190 308,190 C311,190 313,192 313,195 C313,192 315,190 318,190 C321,190 323,192 323,195 C323,192 325,190 328,190 C331,190 333,192 333,195 C333,192 335,190 338,190 C341,190 343,192 343,195 C343,192 345,190 348,190 C351,190 353,192 353,195 C353,192 355,190 358,190 C361,190 363,192 363,195 C363,192 365,190 368,190 C371,190 373,192 373,195 C373,192 375,190 378,190 C381,190 383,192 383,195 C383,192 385,190 388,190 C391,190 393,192 393,195 C393,192 395,190 398,190 C401,190 403,192 403,195 C403,192 405,190 408,190 C411,190 413,192 413,195 C413,192 415,190 418,190 C421,190 423,192 423,195 C423,192 425,190 428,190 C431,190 433,192 433,195 C433,192 435,190 438,190 C441,190 443,192 443,195 C443,192 445,190 448,190 C451,190 453,192 453,195 C453,192 455,190 458,190 C461,190 463,192 463,195 C463,192 465,190 468,190 C471,190 473,192 473,195 C473,192 475,190 478,190 C481,190 483,192 483,195 C483,192 485,190 488,190 C491,190 493,192 493,195 C493,192 495,190 498,190 C501,190 503,192 503,195 C503,192 505,190 508,190 C511,190 513,192 513,195 C513,192 515,190 518,190 C521,190 523,192 523,195 C523,192 525,190 528,190 C531,190 533,192 533,195 C533,192 535,190 538,190 C541,190 543,192 543,195 C543,192 545,190 548,190 C551,190 553,192 553,195 C553,192 555,190 558,190 C561,190 563,192 563,195 C563,192 565,190 568,190 C571,190 573,192 573,195 C573,192 575,190 578,190 C581,190 583,192 583,195 C583,192 585,190 588,190 C591,190 593,192 593,195 C593,192 595,190 598,190 C601,190 603,192 603,195 C603,192 605,190 608,190 C611,190 613,192 613,195 C613,192 615,190 618,190 C621,190 623,192 623,195 C623,192 625,190 628,190 C631,190 633,192 633,195 C633,192 635,190 638,190 C641,190 643,192 643,195 C643,192 645,190 648,190 C651,190 653,192 653,195 C653,192 655,190 658,190 C661,190 663,192 663,195 C663,192 665,190 668,190 C671,190 673,192 673,195 C673,192 675,190 678,190 C681,190 683,192 683,195 C683,192 685,190 688,190 C691,190 693,192 693,195 C693,192 695,190 698,190 C701,190 703,192 703,195 C703,192 705,190 708,190 C711,190 713,192 713,195 C713,192 715,190 718,190 C721,190 723,192 723,195 C723,192 725,190 728,190 C731,190 733,192 733,195 C733,192 735,190 738,190 C741,190 743,192 743,195 C743,192 745,190 748,190 C751,190 753,192 753,195 C753,192 755,190 758,190 C761,190 763,192 763,195 C763,192 765,190 768,190 C771,190 773,192 773,195 C773,192 775,190 778,190 C781,190 783,192 783,195 C783,192 785,190 788,190 C791,190 793,192 793,195 C793,192 795,190 798,190 C801,190 803,192 803,195 C803,192 805,190 808,190 C811,190 813,192 813,195 C813,192 815,190 818,190 C821,190 823,192 823,195 C823,192 825,190 828,190 C831,190 833,192 833,195 C833,192 835,190 838,190 C841,190 843,192 843,195 C843,192 845,190 848,190 C851,190 853,192 853,195 C853,192 855,190 858,190 C861,190 863,192 863,195 C863,192 865,190 868,190 C871,190 873,192 873,195 C876,195 878,197 878,200 C878,203 876,205 873,205 C876,205 878,207 878,210 C878,213 876,215 873,215 C876,215 878,217 878,220 C878,223 876,225 873,225 C876,225 878,227 878,230 C878,233 876,235 873,235 C876,235 878,237 878,240 C878,243 876,245 873,245 C876,245 878,247 878,250 C878,253 876,255 873,255 C876,255 878,257 878,260 C878,263 876,265 873,265 C876,265 878,267 878,270 C878,273 876,275 873,275 C876,275 878,277 878,280 C878,283 876,285 873,285 C876,285 878,287 878,290 C878,293 876,295 873,295 C876,295 878,297 878,300 C878,303 876,305 873,305 C876,305 878,307 878,310 C878,313 876,315 873,315 C876,315 878,317 878,320 C878,323 876,325 873,325 C873,328 870,330 868,330 C865,330 863,328 863,325 C863,328 860,330 858,330 C855,330 853,328 853,325 C853,328 850,330 848,330 C845,330 843,328 843,325 C843,328 840,330 838,330 C835,330 833,328 833,325 C833,328 830,330 828,330 C825,330 823,328 823,325 C823,328 820,330 818,330 C815,330 813,328 813,325 C813,328 810,330 808,330 C805,330 803,328 803,325 C803,328 800,330 798,330 C795,330 793,328 793,325 C793,328 790,330 788,330 C785,330 783,328 783,325 C783,328 780,330 778,330 C775,330 773,328 773,325 C773,328 770,330 768,330 C765,330 763,328 763,325 C763,328 760,330 758,330 C755,330 753,328 753,325 C753,328 750,330 748,330 C745,330 743,328 743,325 C743,328 740,330 738,330 C735,330 733,328 733,325 C733,328 730,330 728,330 C725,330 723,328 723,325 C723,328 720,330 718,330 C715,330 713,328 713,325 C713,328 710,330 708,330 C705,330 703,328 703,325 C703,328 700,330 698,330 C695,330 693,328 693,325 C693,328 690,330 688,330 C685,330 683,328 683,325 C683,328 680,330 678,330 C675,330 673,328 673,325 C673,328 670,330 668,330 C665,330 663,328 663,325 C663,328 660,330 658,330 C655,330 653,328 653,325 C653,328 650,330 648,330 C645,330 643,328 643,325 C643,328 640,330 638,330 C635,330 633,328 633,325 C633,328 630,330 628,330 C625,330 623,328 623,325 C623,328 620,330 618,330 C615,330 613,328 613,325 C613,328 610,330 608,330 C605,330 603,328 603,325 C603,328 600,330 598,330 C595,330 593,328 593,325 C593,328 590,330 588,330 C585,330 583,328 583,325 C583,328 580,330 578,330 C575,330 573,328 573,325 C573,328 570,330 568,330 C565,330 563,328 563,325 C563,328 560,330 558,330 C555,330 553,328 553,325 C553,328 550,330 548,330 C545,330 543,328 543,325 C543,328 540,330 538,330 C535,330 533,328 533,325 C533,328 530,330 528,330 C525,330 523,328 523,325 C523,328 520,330 518,330 C515,330 513,328 513,325 C513,328 510,330 508,330 C505,330 503,328 503,325 C503,328 500,330 498,330 C495,330 493,328 493,325 C493,328 490,330 488,330 C485,330 483,328 483,325 C483,328 480,330 478,330 C475,330 473,328 473,325 C473,328 470,330 468,330 C465,330 463,328 463,325 C463,328 460,330 458,330 C455,330 453,328 453,325 C453,328 450,330 448,330 C445,330 443,328 443,325 C443,328 440,330 438,330 C435,330 433,328 433,325 C433,328 430,330 428,330 C425,330 423,328 423,325 C423,328 420,330 418,330 C415,330 413,328 413,325 C413,328 410,330 408,330 C405,330 403,328 403,325 C403,328 400,330 398,330 C395,330 393,328 393,325 C393,328 390,330 388,330 C385,330 383,328 383,325 C383,328 380,330 378,330 C375,330 373,328 373,325 C373,328 370,330 368,330 C365,330 363,328 363,325 C363,328 360,330 358,330 C355,330 353,328 353,325 C353,328 350,330 348,330 C345,330 343,328 343,325 C343,328 340,330 338,330 C335,330 333,328 333,325 C333,328 330,330 328,330 C325,330 323,328 323,325 C323,328 320,330 318,330 C315,330 313,328 313,325 C313,328 310,330 308,330 C305,330 303,328 303,325 C303,328 300,330 298,330 C295,330 293,328 293,325 C293,328 290,330 288,330 C285,330 283,328 283,325 C283,328 280,330 278,330 C275,330 273,328 273,325 C273,328 270,330 268,330 C265,330 263,328 263,325 C263,328 260,330 258,330 C255,330 253,328 253,325 C253,328 250,330 248,330 C245,330 243,328 243,325 C240,325 238,323 238,320 C238,317 240,315 243,315 C240,315 238,313 238,310 C238,307 240,305 243,305 C240,305 238,303 238,300 C238,297 240,295 243,295 C240,295 238,293 238,290 C238,287 240,285 243,285 C240,285 238,283 238,280 C238,277 240,275 243,275 C240,275 238,273 238,270 C238,267 240,265 243,265 C240,265 238,263 238,260 C238,257 240,255 243,255 C240,255 238,253 238,250 C238,247 240,245 243,245 C240,245 238,243 238,240 C238,237 240,235 243,235 C240,235 238,233 238,230 C238,227 240,225 243,225 C240,225 238,223 238,220 C238,217 240,215 243,215 C240,215 238,213 238,210 C238,207 240,205 243,205 C240,205 238,203 238,200 C238,197 240,195 243,195 " fill="#FFFFFF" filter="url(#fn2ehrp)" style="stroke: #000000; stroke-width: 2.0;"/><text fill="#000000" font-family="sans-serif" font-size="14" font-weight="bold" lengthAdjust="spacingAndGlyphs" textLength="65" x="524" y="213.9951">symbols</text><ellipse cx="103.9597" cy="100.5919" fill="#FEFECE" filter="url(#fn2ehrp)" rx="65.9597" ry="15.5919" style="stroke: #A80036; stroke-width: 1.5;"/><text fill="#000000" font-family="sans-serif" font-size="14" lengthAdjust="spacingAndGlyphs" textLength="96" x="55.9597" y="105.2404">How are you?</text><ellipse cx="272.9975" cy="100.3995" fill="#FEFECE" filter="url(#fn2ehrp)" rx="67.4975" ry="15.8995" style="stroke: #A80036; stroke-width: 1.5;"/><text fill="#000000" font-family="sans-serif" font-size="14" lengthAdjust="spacingAndGlyphs" textLength="100" x="222.9975" y="105.0479">How are you *</text><ellipse cx="429.9117" cy="100.5236" fill="#FEFECE" filter="url(#fn2ehrp)" rx="53.9117" ry="14.5236" style="stroke: #A80036; stroke-width: 1.5;"/><text fill="#000000" font-family="sans-serif" font-size="14" lengthAdjust="spacingAndGlyphs" textLength="72" x="393.9117" y="105.1721">How * you</text><ellipse cx="548.163" cy="100.5236" fill="#FEFECE" filter="url(#fn2ehrp)" rx="29.163" ry="14.5236" style="stroke: #A80036; stroke-width: 1.5;"/><text fill="#000000" font-family="sans-serif" font-size="14" lengthAdjust="spacingAndGlyphs" textLength="37" x="529.663" y="105.1721">Hello</text><ellipse cx="712.0203" cy="100.3041" fill="#FEFECE" filter="url(#fn2ehrp)" rx="99.5203" ry="22.3041" style="stroke: #A80036; stroke-width: 1.5;"/><text fill="#000000" font-family="sans-serif" font-size="14" lengthAdjust="spacingAndGlyphs" textLength="175" x="624.5203" y="104.9525">Not doing too well today.</text><ellipse cx="917.1456" cy="100.5291" fill="#FEFECE" filter="url(#fn2ehrp)" rx="70.6456" ry="16.5291" style="stroke: #A80036; stroke-width: 1.5;"/><text fill="#000000" font-family="sans-serif" font-size="14" lengthAdjust="spacingAndGlyphs" textLength="108" x="863.1456" y="105.1776">doing (*.) badly</text><!--entity Greeting--><polygon fill="#FEFECE" filter="url(#fn2ehrp)" points="474,252,484,242,576,242,576,302.5938,566,312.5938,474,312.5938,474,252" style="stroke: #000000; stroke-width: 1.5;"/><line style="stroke: #000000; stroke-width: 1.5;" x1="566" x2="575" y1="252" y2="243"/><line style="stroke: #000000; stroke-width: 1.5;" x1="474" x2="566" y1="252" y2="252"/><line style="stroke: #000000; stroke-width: 1.5;" x1="566" x2="566" y1="252" y2="312.5938"/><text fill="#000000" font-family="sans-serif" font-size="14" lengthAdjust="spacingAndGlyphs" textLength="62" x="489" y="274.9951">Greeting</text><line style="stroke: #000000; stroke-width: 1.0;" x1="474" x2="566" y1="278.2969" y2="278.2969"/><line style="stroke: #000000; stroke-width: 1.0;" x1="566" x2="576" y1="278.2969" y2="268.2969"/><text fill="#000000" font-family="sans-serif" font-size="14" lengthAdjust="spacingAndGlyphs" textLength="37" x="501.5" y="295.292">Hello</text><!--entity StatusInquiry--><polygon fill="#FEFECE" filter="url(#fn2ehrp)" points="256,252,266,242,404,242,404,302.5938,394,312.5938,256,312.5938,256,252" style="stroke: #000000; stroke-width: 1.5;"/><line style="stroke: #000000; stroke-width: 1.5;" x1="394" x2="403" y1="252" y2="243"/><line style="stroke: #000000; stroke-width: 1.5;" x1="256" x2="394" y1="252" y2="252"/><line style="stroke: #000000; stroke-width: 1.5;" x1="394" x2="394" y1="252" y2="312.5938"/><text fill="#000000" font-family="sans-serif" font-size="14" lengthAdjust="spacingAndGlyphs" textLength="93" x="278.5" y="274.9951">StatusInquiry</text><line style="stroke: #000000; stroke-width: 1.0;" x1="256" x2="394" y1="278.2969" y2="278.2969"/><line style="stroke: #000000; stroke-width: 1.0;" x1="394" x2="404" y1="278.2969" y2="268.2969"/><text fill="#000000" font-family="sans-serif" font-size="14" lengthAdjust="spacingAndGlyphs" textLength="96" x="277" y="295.292">How are you?</text><!--entity ReplyBad--><polygon fill="#FEFECE" filter="url(#fn2ehrp)" points="629.5,252,639.5,242,856.5,242,856.5,302.5938,846.5,312.5938,629.5,312.5938,629.5,252" style="stroke: #000000; stroke-width: 1.5;"/><line style="stroke: #000000; stroke-width: 1.5;" x1="846.5" x2="855.5" y1="252" y2="243"/><line style="stroke: #000000; stroke-width: 1.5;" x1="629.5" x2="846.5" y1="252" y2="252"/><line style="stroke: #000000; stroke-width: 1.5;" x1="846.5" x2="846.5" y1="252" y2="312.5938"/><text fill="#000000" font-family="sans-serif" font-size="14" lengthAdjust="spacingAndGlyphs" textLength="68" x="704" y="274.9951">ReplyBad</text><line style="stroke: #000000; stroke-width: 1.0;" x1="629.5" x2="846.5" y1="278.2969" y2="278.2969"/><line style="stroke: #000000; stroke-width: 1.0;" x1="846.5" x2="856.5" y1="278.2969" y2="268.2969"/><text fill="#000000" font-family="sans-serif" font-size="14" lengthAdjust="spacingAndGlyphs" textLength="175" x="650.5" y="295.292">Not doing too well today.</text><path d="M277.959,116.724 C286.379,142.576 303.761,195.942 316.117,233.877 " fill="none" style="stroke: #A80036; stroke-width: 1.0;"/><polygon fill="#A80036" points="318.672,241.722,319.0461,233.1862,313.3412,235.0449,318.672,241.722" style="stroke: #A80036; stroke-width: 1.0;"/><path d="M122.112,115.525 C155.694,141.529 228.733,198.085 278.647,236.735 " fill="none" style="stroke: #A80036; stroke-width: 1.0;"/><polygon fill="#A80036" points="285.224,241.828,280.7364,234.5574,277.0623,239.3009,285.224,241.828" style="stroke: #A80036; stroke-width: 1.0;"/><path d="M422.319,114.941 C407.853,140.258 376.025,195.956 353.809,234.834 " fill="none" style="stroke: #A80036; stroke-width: 1.0;"/><polygon fill="#A80036" points="349.779,241.886,356.3534,236.4292,351.1443,233.4518,349.779,241.886" style="stroke: #A80036; stroke-width: 1.0;"/><path d="M546.195,115.232 C542.883,140.432 535.709,195.02 530.626,233.69 " fill="none" style="stroke: #A80036; stroke-width: 1.0;"/><polygon fill="#A80036" points="529.576,241.684,533.5931,234.1433,527.6443,233.3612,529.576,241.684" style="stroke: #A80036; stroke-width: 1.0;"/><path d="M715.863,123.31 C720.732,150.793 729.21,198.652 735.397,233.579 " fill="none" style="stroke: #A80036; stroke-width: 1.0;"/><polygon fill="#A80036" points="736.838,241.713,738.3962,233.3123,732.4883,234.3591,736.838,241.713" style="stroke: #A80036; stroke-width: 1.0;"/><path d="M901.863,116.724 C875.728,143.009 821.314,197.736 783.499,235.768 " fill="none" style="stroke: #A80036; stroke-width: 1.0;"/><polygon fill="#A80036" points="777.579,241.722,785.3469,238.1639,781.0919,233.9336,777.579,241.722" style="stroke: #A80036; stroke-width: 1.0;"/><path d="M576.208,256.172 C595.291,255.4727 611,262.582 611,277.5 C611,291.0194 598.099,298.1257 581.476,298.8188 " fill="none" style="stroke: #A80036; stroke-width: 1.0; stroke-dasharray: 7.0,7.0;"/><polygon fill="#A80036" points="576.208,298.828,585.2148,302.8126,581.208,298.8194,585.2011,294.8126,576.208,298.828" style="stroke: #A80036; stroke-width: 1.0;"/><path d="M473.594,277.5 C452.201,277.5 430.807,277.5 409.413,277.5 " fill="none" style="stroke: #A80036; stroke-width: 1.0; stroke-dasharray: 7.0,7.0;"/><polygon fill="#A80036" points="404.268,277.5,413.268,281.5,409.268,277.5,413.268,273.5,404.268,277.5" style="stroke: #A80036; stroke-width: 1.0;"/><path d="M363.439,241.821 C387.104,219.308 420.941,192.245 457,180 C522.23,157.848 546.606,158.336 612,180 C646.998,191.595 680.243,216.569 704.485,238.338 " fill="none" style="stroke: #A80036; stroke-width: 1.0; stroke-dasharray: 7.0,7.0;"/><polygon fill="#A80036" points="708.297,241.801,704.3272,232.7876,704.5969,238.4381,698.9465,238.7078,708.297,241.801" style="stroke: #A80036; stroke-width: 1.0;"/><text fill="#000000" font-family="sans-serif" font-size="13" lengthAdjust="spacingAndGlyphs" textLength="73" x="450.5" y="168.0669">a = patient</text></g></svg>