<?xml version="1.0" encoding="UTF-8" standalone="yes"?><svg xmlns="http://www.w3.org/2000/svg" xmlns:xlink="http://www.w3.org/1999/xlink" height="493px" style="width:552px;height:493px;" version="1.1" viewBox="0 0 552 493" width="552px"><defs><filter height="300%" id="ffoi5je" width="300%" x="-1" y="-1"><feGaussianBlur result="blurOut" stdDeviation="2.0"/><feColorMatrix in="blurOut" result="blurOut2" type="matrix" values="0 0 0 0 0 0 0 0 0 0 0 0 0 0 0 0 0 0 .4 0"/><feOffset dx="4.0" dy="4.0" in="blurOut2" result="blurOut3"/><feBlend in="SourceGraphic" in2="blurOut3" mode="normal"/></filter></defs><g><!--cluster symbols--><path d="M25,31 C25,28 27,26 30,26 C33,26 35,28 35,31 C35,28 37,26 40,26 C43,26 45,28 45,31 C45,28 47,26 50,26 C53,26 55,28 55,31 C55,28 57,26 60,26 C63,26 65,28 65,31 C65,28 67,26 70,26 C73,26 75,28 75,31 C75,28 77,26 80,26 C83,26 85,28 85,31 C85,28 87,26 90,26 C93,26 95,28 95,31 C95,28 97,26 100,26 C103,26 105,28 105,31 C105,28 107,26 110,26 C113,26 115,28 115,31 C115,28 117,26 120,26 C123,26 125,28 125,31 C125,28 127,26 130,26 C133,26 135,28 135,31 C135,28 137,26 140,26 C143,26 145,28 145,31 C145,28 147,26 150,26 C153,26 155,28 155,31 C155,28 157,26 160,26 C163,26 165,28 165,31 C165,28 167,26 170,26 C173,26 175,28 175,31 C175,28 177,26 180,26 C183,26 185,28 185,31 C185,28 187,26 190,26 C193,26 195,28 195,31 C195,28 197,26 200,26 C203,26 205,28 205,31 C205,28 207,26 210,26 C213,26 215,28 215,31 C215,28 217,26 220,26 C223,26 225,28 225,31 C225,28 227,26 230,26 C233,26 235,28 235,31 C235,28 237,26 240,26 C243,26 245,28 245,31 C245,28 247,26 250,26 C253,26 255,28 255,31 C255,28 257,26 260,26 C263,26 265,28 265,31 C265,28 267,26 270,26 C273,26 275,28 275,31 C275,28 277,26 280,26 C283,26 285,28 285,31 C285,28 287,26 290,26 C293,26 295,28 295,31 C295,28 297,26 300,26 C303,26 305,28 305,31 C305,28 307,26 310,26 C313,26 315,28 315,31 C315,28 317,26 320,26 C323,26 325,28 325,31 C325,28 327,26 330,26 C333,26 335,28 335,31 C335,28 337,26 340,26 C343,26 345,28 345,31 C345,28 347,26 350,26 C353,26 355,28 355,31 C355,28 357,26 360,26 C363,26 365,28 365,31 C365,28 367,26 370,26 C373,26 375,28 375,31 C375,28 377,26 380,26 C383,26 385,28 385,31 C385,28 387,26 390,26 C393,26 395,28 395,31 C395,28 397,26 400,26 C403,26 405,28 405,31 C405,28 407,26 410,26 C413,26 415,28 415,31 C415,28 417,26 420,26 C423,26 425,28 425,31 C425,28 427,26 430,26 C433,26 435,28 435,31 C435,28 437,26 440,26 C443,26 445,28 445,31 C445,28 447,26 450,26 C453,26 455,28 455,31 C455,28 457,26 460,26 C463,26 465,28 465,31 C465,28 467,26 470,26 C473,26 475,28 475,31 C475,28 477,26 480,26 C483,26 485,28 485,31 C485,28 487,26 490,26 C493,26 495,28 495,31 C498,31 500,33 500,36 C500,39 498,41 495,41 C498,41 500,43 500,46 C500,49 498,51 495,51 C498,51 500,53 500,56 C500,59 498,61 495,61 C498,61 500,63 500,66 C500,69 498,71 495,71 C498,71 500,73 500,76 C500,79 498,81 495,81 C498,81 500,83 500,86 C500,89 498,91 495,91 C498,91 500,93 500,96 C500,99 498,101 495,101 C498,101 500,103 500,106 C500,109 498,111 495,111 C498,111 500,113 500,116 C500,119 498,121 495,121 C498,121 500,123 500,126 C500,129 498,131 495,131 C498,131 500,133 500,136 C500,139 498,141 495,141 C498,141 500,143 500,146 C500,149 498,151 495,151 C498,151 500,153 500,156 C500,159 498,161 495,161 C498,161 500,163 500,166 C500,169 498,171 495,171 C498,171 500,173 500,176 C500,179 498,181 495,181 C498,181 500,183 500,186 C500,189 498,191 495,191 C498,191 500,193 500,196 C500,199 498,201 495,201 C498,201 500,203 500,206 C500,209 498,211 495,211 C498,211 500,213 500,216 C500,219 498,221 495,221 C498,221 500,223 500,226 C500,229 498,231 495,231 C498,231 500,233 500,236 C500,239 498,241 495,241 C498,241 500,243 500,246 C500,249 498,251 495,251 C498,251 500,253 500,256 C500,259 498,261 495,261 C498,261 500,263 500,266 C500,269 498,271 495,271 C498,271 500,273 500,276 C500,279 498,281 495,281 C498,281 500,283 500,286 C500,289 498,291 495,291 C498,291 500,293 500,296 C500,299 498,301 495,301 C498,301 500,303 500,306 C500,309 498,311 495,311 C498,311 500,313 500,316 C500,319 498,321 495,321 C498,321 500,323 500,326 C500,329 498,331 495,331 C498,331 500,333 500,336 C500,339 498,341 495,341 C498,341 500,343 500,346 C500,349 498,351 495,351 C498,351 500,353 500,356 C500,359 498,361 495,361 C498,361 500,363 500,366 C500,369 498,371 495,371 C498,371 500,373 500,376 C500,379 498,381 495,381 C498,381 500,383 500,386 C500,389 498,391 495,391 C498,391 500,393 500,396 C500,399 498,401 495,401 C498,401 500,403 500,406 C500,409 498,411 495,411 C498,411 500,413 500,416 C500,419 498,421 495,421 C498,421 500,423 500,426 C500,429 498,431 495,431 C498,431 500,433 500,436 C500,439 498,441 495,441 C498,441 500,443 500,446 C500,449 498,451 495,451 C498,451 500,453 500,456 C500,459 498,461 495,461 C498,461 500,463 500,466 C500,469 498,471 495,471 C498,471 500,473 500,476 C500,479 498,481 495,481 C495,484 492,486 490,486 C487,486 485,484 485,481 C485,484 482,486 480,486 C477,486 475,484 475,481 C475,484 472,486 470,486 C467,486 465,484 465,481 C465,484 462,486 460,486 C457,486 455,484 455,481 C455,484 452,486 450,486 C447,486 445,484 445,481 C445,484 442,486 440,486 C437,486 435,484 435,481 C435,484 432,486 430,486 C427,486 425,484 425,481 C425,484 422,486 420,486 C417,486 415,484 415,481 C415,484 412,486 410,486 C407,486 405,484 405,481 C405,484 402,486 400,486 C397,486 395,484 395,481 C395,484 392,486 390,486 C387,486 385,484 385,481 C385,484 382,486 380,486 C377,486 375,484 375,481 C375,484 372,486 370,486 C367,486 365,484 365,481 C365,484 362,486 360,486 C357,486 355,484 355,481 C355,484 352,486 350,486 C347,486 345,484 345,481 C345,484 342,486 340,486 C337,486 335,484 335,481 C335,484 332,486 330,486 C327,486 325,484 325,481 C325,484 322,486 320,486 C317,486 315,484 315,481 C315,484 312,486 310,486 C307,486 305,484 305,481 C305,484 302,486 300,486 C297,486 295,484 295,481 C295,484 292,486 290,486 C287,486 285,484 285,481 C285,484 282,486 280,486 C277,486 275,484 275,481 C275,484 272,486 270,486 C267,486 265,484 265,481 C265,484 262,486 260,486 C257,486 255,484 255,481 C255,484 252,486 250,486 C247,486 245,484 245,481 C245,484 242,486 240,486 C237,486 235,484 235,481 C235,484 232,486 230,486 C227,486 225,484 225,481 C225,484 222,486 220,486 C217,486 215,484 215,481 C215,484 212,486 210,486 C207,486 205,484 205,481 C205,484 202,486 200,486 C197,486 195,484 195,481 C195,484 192,486 190,486 C187,486 185,484 185,481 C185,484 182,486 180,486 C177,486 175,484 175,481 C175,484 172,486 170,486 C167,486 165,484 165,481 C165,484 162,486 160,486 C157,486 155,484 155,481 C155,484 152,486 150,486 C147,486 145,484 145,481 C145,484 142,486 140,486 C137,486 135,484 135,481 C135,484 132,486 130,486 C127,486 125,484 125,481 C125,484 122,486 120,486 C117,486 115,484 115,481 C115,484 112,486 110,486 C107,486 105,484 105,481 C105,484 102,486 100,486 C97,486 95,484 95,481 C95,484 92,486 90,486 C87,486 85,484 85,481 C85,484 82,486 80,486 C77,486 75,484 75,481 C75,484 72,486 70,486 C67,486 65,484 65,481 C65,484 62,486 60,486 C57,486 55,484 55,481 C55,484 52,486 50,486 C47,486 45,484 45,481 C45,484 42,486 40,486 C37,486 35,484 35,481 C35,484 32,486 30,486 C27,486 25,484 25,481 C22,481 20,479 20,476 C20,473 22,471 25,471 C22,471 20,469 20,466 C20,463 22,461 25,461 C22,461 20,459 20,456 C20,453 22,451 25,451 C22,451 20,449 20,446 C20,443 22,441 25,441 C22,441 20,439 20,436 C20,433 22,431 25,431 C22,431 20,429 20,426 C20,423 22,421 25,421 C22,421 20,419 20,416 C20,413 22,411 25,411 C22,411 20,409 20,406 C20,403 22,401 25,401 C22,401 20,399 20,396 C20,393 22,391 25,391 C22,391 20,389 20,386 C20,383 22,381 25,381 C22,381 20,379 20,376 C20,373 22,371 25,371 C22,371 20,369 20,366 C20,363 22,361 25,361 C22,361 20,359 20,356 C20,353 22,351 25,351 C22,351 20,349 20,346 C20,343 22,341 25,341 C22,341 20,339 20,336 C20,333 22,331 25,331 C22,331 20,329 20,326 C20,323 22,321 25,321 C22,321 20,319 20,316 C20,313 22,311 25,311 C22,311 20,309 20,306 C20,303 22,301 25,301 C22,301 20,299 20,296 C20,293 22,291 25,291 C22,291 20,289 20,286 C20,283 22,281 25,281 C22,281 20,279 20,276 C20,273 22,271 25,271 C22,271 20,269 20,266 C20,263 22,261 25,261 C22,261 20,259 20,256 C20,253 22,251 25,251 C22,251 20,249 20,246 C20,243 22,241 25,241 C22,241 20,239 20,236 C20,233 22,231 25,231 C22,231 20,229 20,226 C20,223 22,221 25,221 C22,221 20,219 20,216 C20,213 22,211 25,211 C22,211 20,209 20,206 C20,203 22,201 25,201 C22,201 20,199 20,196 C20,193 22,191 25,191 C22,191 20,189 20,186 C20,183 22,181 25,181 C22,181 20,179 20,176 C20,173 22,171 25,171 C22,171 20,169 20,166 C20,163 22,161 25,161 C22,161 20,159 20,156 C20,153 22,151 25,151 C22,151 20,149 20,146 C20,143 22,141 25,141 C22,141 20,139 20,136 C20,133 22,131 25,131 C22,131 20,129 20,126 C20,123 22,121 25,121 C22,121 20,119 20,116 C20,113 22,111 25,111 C22,111 20,109 20,106 C20,103 22,101 25,101 C22,101 20,99 20,96 C20,93 22,91 25,91 C22,91 20,89 20,86 C20,83 22,81 25,81 C22,81 20,79 20,76 C20,73 22,71 25,71 C22,71 20,69 20,66 C20,63 22,61 25,61 C22,61 20,59 20,56 C20,53 22,51 25,51 C22,51 20,49 20,46 C20,43 22,41 25,41 C22,41 20,39 20,36 C20,33 22,31 25,31 " fill="#FFFFFF" filter="url(#ffoi5je)" style="stroke: #000000; stroke-width: 2.0;"/><text fill="#000000" font-family="sans-serif" font-size="14" font-weight="bold" lengthAdjust="spacingAndGlyphs" textLength="65" x="228" y="49.9951">symbols</text><!--entity ask_reason_here--><polygon fill="#FEFECE" filter="url(#ffoi5je)" points="75,192,85,182,235,182,235,218.2969,225,228.2969,75,228.2969,75,192" style="stroke: #000000; stroke-width: 1.5;"/><line style="stroke: #000000; stroke-width: 1.5;" x1="225" x2="234" y1="192" y2="183"/><line style="stroke: #000000; stroke-width: 1.5;" x1="75" x2="225" y1="192" y2="192"/><line style="stroke: #000000; stroke-width: 1.5;" x1="225" x2="225" y1="192" y2="228.2969"/><text fill="#000000" font-family="sans-serif" font-size="14" lengthAdjust="spacingAndGlyphs" textLength="120" x="90" y="214.9951">ask_reason_here</text><!--entity broken_arms--><polygon fill="#FEFECE" filter="url(#ffoi5je)" points="75.5,315,85.5,305,208.5,305,208.5,341.2969,198.5,351.2969,75.5,351.2969,75.5,315" style="stroke: #000000; stroke-width: 1.5;"/><line style="stroke: #000000; stroke-width: 1.5;" x1="198.5" x2="207.5" y1="315" y2="306"/><line style="stroke: #000000; stroke-width: 1.5;" x1="75.5" x2="198.5" y1="315" y2="315"/><line style="stroke: #000000; stroke-width: 1.5;" x1="198.5" x2="198.5" y1="315" y2="351.2969"/><text fill="#000000" font-family="sans-serif" font-size="14" lengthAdjust="spacingAndGlyphs" textLength="93" x="90.5" y="337.9951">broken_arms</text><!--entity feel_sick--><polygon fill="#FEFECE" filter="url(#ffoi5je)" points="344.5,192,354.5,182,445.5,182,445.5,218.2969,435.5,228.2969,344.5,228.2969,344.5,192" style="stroke: #000000; stroke-width: 1.5;"/><line style="stroke: #000000; stroke-width: 1.5;" x1="435.5" x2="444.5" y1="192" y2="183"/><line style="stroke: #000000; stroke-width: 1.5;" x1="344.5" x2="435.5" y1="192" y2="192"/><line style="stroke: #000000; stroke-width: 1.5;" x1="435.5" x2="435.5" y1="192" y2="228.2969"/><text fill="#000000" font-family="sans-serif" font-size="14" lengthAdjust="spacingAndGlyphs" textLength="61" x="359.5" y="214.9951">feel_sick</text><!--entity greeting--><polygon fill="#FEFECE" filter="url(#ffoi5je)" points="105,69,115,59,205,59,205,95.2969,195,105.2969,105,105.2969,105,69" style="stroke: #000000; stroke-width: 1.5;"/><line style="stroke: #000000; stroke-width: 1.5;" x1="195" x2="204" y1="69" y2="60"/><line style="stroke: #000000; stroke-width: 1.5;" x1="105" x2="195" y1="69" y2="69"/><line style="stroke: #000000; stroke-width: 1.5;" x1="195" x2="195" y1="69" y2="105.2969"/><text fill="#000000" font-family="sans-serif" font-size="14" lengthAdjust="spacingAndGlyphs" textLength="60" x="120" y="91.9951">greeting</text><!--entity status_inquery--><polygon fill="#FEFECE" filter="url(#ffoi5je)" points="97.5,438,107.5,428,240.5,428,240.5,464.2969,230.5,474.2969,97.5,474.2969,97.5,438" style="stroke: #000000; stroke-width: 1.5;"/><line style="stroke: #000000; stroke-width: 1.5;" x1="230.5" x2="239.5" y1="438" y2="429"/><line style="stroke: #000000; stroke-width: 1.5;" x1="97.5" x2="230.5" y1="438" y2="438"/><line style="stroke: #000000; stroke-width: 1.5;" x1="230.5" x2="230.5" y1="438" y2="474.2969"/><text fill="#000000" font-family="sans-serif" font-size="14" lengthAdjust="spacingAndGlyphs" textLength="103" x="112.5" y="460.9951">status_inquery</text><!--entity why_need--><polygon fill="#FEFECE" filter="url(#ffoi5je)" points="334.5,438,344.5,428,445.5,428,445.5,464.2969,435.5,474.2969,334.5,474.2969,334.5,438" style="stroke: #000000; stroke-width: 1.5;"/><line style="stroke: #000000; stroke-width: 1.5;" x1="435.5" x2="444.5" y1="438" y2="429"/><line style="stroke: #000000; stroke-width: 1.5;" x1="334.5" x2="435.5" y1="438" y2="438"/><line style="stroke: #000000; stroke-width: 1.5;" x1="435.5" x2="435.5" y1="438" y2="474.2969"/><text fill="#000000" font-family="sans-serif" font-size="14" lengthAdjust="spacingAndGlyphs" textLength="71" x="349.5" y="460.9951">why_need</text><!--entity need_medicine--><polygon fill="#FEFECE" filter="url(#ffoi5je)" points="243.5,315,253.5,305,392.5,305,392.5,341.2969,382.5,351.2969,243.5,351.2969,243.5,315" style="stroke: #000000; stroke-width: 1.5;"/><line style="stroke: #000000; stroke-width: 1.5;" x1="382.5" x2="391.5" y1="315" y2="306"/><line style="stroke: #000000; stroke-width: 1.5;" x1="243.5" x2="382.5" y1="315" y2="315"/><line style="stroke: #000000; stroke-width: 1.5;" x1="382.5" x2="382.5" y1="315" y2="351.2969"/><text fill="#000000" font-family="sans-serif" font-size="14" lengthAdjust="spacingAndGlyphs" textLength="109" x="258.5" y="337.9951">need_medicine</text><path d="M189.65,228.098 C203.35,237.094 219.111,247.768 233,258 C251.763,271.822 272.051,288.232 288.099,301.58 " fill="none" style="stroke: #A80036; stroke-width: 1.0;"/><polygon fill="#A80036" points="292.084,304.904,287.7346,296.0675,288.2443,301.7014,282.6105,302.2111,292.084,304.904" style="stroke: #A80036; stroke-width: 1.0;"/><text fill="#000000" font-family="sans-serif" font-size="13" lengthAdjust="spacingAndGlyphs" textLength="73" x="256" y="271.0669">a = patient</text><path d="M152.616,228.193 C150.444,248.405 147.231,278.307 144.91,299.919 " fill="none" style="stroke: #A80036; stroke-width: 1.0;"/><polygon fill="#A80036" points="144.369,304.947,149.3081,296.4261,144.9034,299.9756,141.3539,295.571,144.369,304.947" style="stroke: #A80036; stroke-width: 1.0;"/><text fill="#000000" font-family="sans-serif" font-size="13" lengthAdjust="spacingAndGlyphs" textLength="73" x="151" y="271.0669">a = patient</text><path d="M235.25,205 C269.258,205 308.067,205 338.917,205 " fill="none" style="stroke: #A80036; stroke-width: 1.0;"/><polygon fill="#A80036" points="344.189,205,335.189,201,339.189,205,335.189,209,344.189,205" style="stroke: #A80036; stroke-width: 1.0;"/><text fill="#000000" font-family="sans-serif" font-size="13" lengthAdjust="spacingAndGlyphs" textLength="73" x="253.25" y="198.0669">a = patient</text><path d="M290.671,351.193 C265.152,371.917 227.089,402.827 200.347,424.544 " fill="none" style="stroke: #A80036; stroke-width: 1.0;"/><polygon fill="#A80036" points="196.156,427.9474,205.6643,425.3798,200.0377,424.7958,200.6217,419.1692,196.156,427.9474" style="stroke: #A80036; stroke-width: 1.0;"/><path d="M326.322,351.135 C331.932,365.023 339.946,383.064 349,398 C354.28,406.7098 360.816,415.6189 367.106,423.5463 " fill="none" style="stroke: #A80036; stroke-width: 1.0;"/><polygon fill="#A80036" points="370.565,427.8419,368.0352,418.3235,367.4288,423.9478,361.8046,423.3414,370.565,427.8419" style="stroke: #A80036; stroke-width: 1.0;"/><text fill="#000000" font-family="sans-serif" font-size="13" lengthAdjust="spacingAndGlyphs" textLength="68" x="350" y="394.0669">a = doctor</text><path d="M122.262,105.143 C99.1907,122.873 70.1534,150.015 57,182 C46.5971,207.296 31.6822,292.897 58,351 C72.1504,382.241 101.4956,407.7126 126.46,424.9929 " fill="none" style="stroke: #A80036; stroke-width: 1.0;"/><polygon fill="#A80036" points="130.745,427.9092,125.5548,419.5389,126.6114,425.0962,121.054,426.1527,130.745,427.9092" style="stroke: #A80036; stroke-width: 1.0;"/><path d="M205.19,70.784 C224.241,70.351 240,74.09 240,82 C240,89.169 227.058,92.911 210.451,93.228 " fill="none" style="stroke: #A80036; stroke-width: 1.0;"/><polygon fill="#A80036" points="205.19,93.216,214.1808,97.2366,210.19,93.2274,214.1991,89.2366,205.19,93.216" style="stroke: #A80036; stroke-width: 1.0;"/><path d="M205.164,82.412 C276.08,84.636 403.611,100.529 463,182 C518.121,257.616 447.738,372.578 410.443,423.7939 " fill="none" style="stroke: #A80036; stroke-width: 1.0;"/><polygon fill="#A80036" points="407.379,427.9599,415.9331,423.0785,410.3409,423.9316,409.4878,418.3395,407.379,427.9599" style="stroke: #A80036; stroke-width: 1.0;"/><text fill="#000000" font-family="sans-serif" font-size="13" lengthAdjust="spacingAndGlyphs" textLength="68" x="483" y="271.0669">a = doctor</text><path d="M155,105.193 C155,125.405 155,155.307 155,176.919 " fill="none" style="stroke: #A80036; stroke-width: 1.0;"/><polygon fill="#A80036" points="155,181.947,159,172.947,155,176.947,151,172.947,155,181.947" style="stroke: #A80036; stroke-width: 1.0;"/><text fill="#000000" font-family="sans-serif" font-size="13" lengthAdjust="spacingAndGlyphs" textLength="68" x="156" y="148.0669">a = doctor</text></g></svg>