<?xml version="1.0" encoding="UTF-8" standalone="yes"?><svg xmlns="http://www.w3.org/2000/svg" xmlns:xlink="http://www.w3.org/1999/xlink" height="223px" style="width:425px;height:223px;" version="1.1" viewBox="0 0 425 223" width="425px"><defs><filter height="300%" id="fmu9kbs" width="300%" x="-1" y="-1"><feGaussianBlur result="blurOut" stdDeviation="2.0"/><feColorMatrix in="blurOut" result="blurOut2" type="matrix" values="0 0 0 0 0 0 0 0 0 0 0 0 0 0 0 0 0 0 .4 0"/><feOffset dx="4.0" dy="4.0" in="blurOut2" result="blurOut3"/><feBlend in="SourceGraphic" in2="blurOut3" mode="normal"/></filter></defs><g><!--cluster user says--><rect fill="#FFFFFF" filter="url(#fmu9kbs)" height="81" style="stroke: #000000; stroke-width: 2.0;" width="396" x="22" y="24"/><path d="M106,25 L106,33.2969 L96,43.2969 L22,43.2969 " fill="#FFFFFF" style="stroke: #000000; stroke-width: 2.0;"/><text fill="#000000" font-family="sans-serif" font-size="14" font-weight="bold" lengthAdjust="spacingAndGlyphs" textLength="74" x="25" y="37.9951">user says</text><!--cluster bot replies--><rect fill="#FFFFFF" filter="url(#fmu9kbs)" height="87" style="stroke: #000000; stroke-width: 2.0;" width="271" x="33" y="129"/><path d="M130,130 L130,138.2969 L120,148.2969 L33,148.2969 " fill="#FFFFFF" style="stroke: #000000; stroke-width: 2.0;"/><text fill="#000000" font-family="sans-serif" font-size="14" font-weight="bold" lengthAdjust="spacingAndGlyphs" textLength="87" x="36" y="142.9951">bot replies</text><ellipse cx="337.8339" cy="74.0668" fill="#FEFECE" filter="url(#fmu9kbs)" rx="63.3339" ry="15.0668" style="stroke: #A80036; stroke-width: 1.5;"/><text fill="#000000" font-family="sans-serif" font-size="14" lengthAdjust="spacingAndGlyphs" textLength="89" x="293.3339" y="78.7152">How are you</text><ellipse cx="184.9117" cy="74.0236" fill="#FEFECE" filter="url(#fmu9kbs)" rx="53.9117" ry="14.5236" style="stroke: #A80036; stroke-width: 1.5;"/><text fill="#000000" font-family="sans-serif" font-size="14" lengthAdjust="spacingAndGlyphs" textLength="72" x="148.9117" y="78.6721">How * you</text><ellipse cx="67.163" cy="74.0236" fill="#FEFECE" filter="url(#fmu9kbs)" rx="29.163" ry="14.5236" style="stroke: #A80036; stroke-width: 1.5;"/><text fill="#000000" font-family="sans-serif" font-size="14" lengthAdjust="spacingAndGlyphs" textLength="37" x="48.663" y="78.6721">Hello</text><!--entity notwell--><rect fill="#FEFECE" filter="url(#fmu9kbs)" height="36.2969" rx="35" ry="35" style="stroke: #000000; stroke-width: 1.5;" width="168" x="120" y="164"/><text fill="#000000" font-family="sans-serif" font-size="14" lengthAdjust="spacingAndGlyphs" textLength="148" x="130" y="186.9951">Not doing well today.</text><!--entity Hi--><rect fill="#FEFECE" filter="url(#fmu9kbs)" height="36.2969" rx="35" ry="35" style="stroke: #000000; stroke-width: 1.5;" width="35" x="49.5" y="164"/><text fill="#000000" font-family="sans-serif" font-size="14" lengthAdjust="spacingAndGlyphs" textLength="15" x="59.5" y="186.9951">Hi</text><path d="M320.756,88.641 C298.34,106.373 258.9,137.5715 232.125,158.752 " fill="none" style="stroke: #A80036; stroke-width: 1.0;"/><polygon fill="#A80036" points="225.608,163.9067,233.7436,161.2966,230.0213,156.5908,225.608,163.9067" style="stroke: #A80036; stroke-width: 1.0;"/><path d="M187.484,88.858 C190.525,105.825 195.734,134.8839 199.49,155.8376 " fill="none" style="stroke: #A80036; stroke-width: 1.0;"/><polygon fill="#A80036" points="200.95,163.984,202.4913,155.5802,196.5855,156.6389,200.95,163.984" style="stroke: #A80036; stroke-width: 1.0;"/><path d="M67,88.858 C67,105.825 67,134.8839 67,155.8376 " fill="none" style="stroke: #A80036; stroke-width: 1.0;"/><polygon fill="#A80036" points="67,163.984,70,155.984,64,155.984,67,163.984" style="stroke: #A80036; stroke-width: 1.0;"/></g></svg>