<?xml version="1.0" encoding="UTF-8" standalone="yes"?><svg xmlns="http://www.w3.org/2000/svg" xmlns:xlink="http://www.w3.org/1999/xlink" height="390px" style="width:600px;height:390px;" version="1.1" viewBox="0 0 600 390" width="600px"><defs><filter height="300%" id="f4xa43h" width="300%" x="-1" y="-1"><feGaussianBlur result="blurOut" stdDeviation="2.0"/><feColorMatrix in="blurOut" result="blurOut2" type="matrix" values="0 0 0 0 0 0 0 0 0 0 0 0 0 0 0 0 0 0 .4 0"/><feOffset dx="4.0" dy="4.0" in="blurOut2" result="blurOut3"/><feBlend in="SourceGraphic" in2="blurOut3" mode="normal"/></filter></defs><g><!--cluster user sais--><rect fill="#FFFFFF" filter="url(#f4xa43h)" height="83" style="stroke: #000000; stroke-width: 2.0;" width="571" x="22" y="24"/><path d="M102,25 L102,33.2969 L92,43.2969 L22,43.2969 " fill="#FFFFFF" style="stroke: #000000; stroke-width: 2.0;"/><text fill="#000000" font-family="sans-serif" font-size="14" font-weight="bold" lengthAdjust="spacingAndGlyphs" textLength="70" x="25" y="37.9951">user sais</text><!--cluster symbols--><path d="M205,138 C205,135 207,133 210,133 C213,133 215,135 215,138 C215,135 217,133 220,133 C223,133 225,135 225,138 C225,135 227,133 230,133 C233,133 235,135 235,138 C235,135 237,133 240,133 C243,133 245,135 245,138 C245,135 247,133 250,133 C253,133 255,135 255,138 C255,135 257,133 260,133 C263,133 265,135 265,138 C265,135 267,133 270,133 C273,133 275,135 275,138 C275,135 277,133 280,133 C283,133 285,135 285,138 C285,135 287,133 290,133 C293,133 295,135 295,138 C295,135 297,133 300,133 C303,133 305,135 305,138 C305,135 307,133 310,133 C313,133 315,135 315,138 C315,135 317,133 320,133 C323,133 325,135 325,138 C325,135 327,133 330,133 C333,133 335,135 335,138 C335,135 337,133 340,133 C343,133 345,135 345,138 C345,135 347,133 350,133 C353,133 355,135 355,138 C355,135 357,133 360,133 C363,133 365,135 365,138 C365,135 367,133 370,133 C373,133 375,135 375,138 C375,135 377,133 380,133 C383,133 385,135 385,138 C388,138 390,140 390,143 C390,146 388,148 385,148 C388,148 390,150 390,153 C390,156 388,158 385,158 C388,158 390,160 390,163 C390,166 388,168 385,168 C388,168 390,170 390,173 C390,176 388,178 385,178 C388,178 390,180 390,183 C390,186 388,188 385,188 C388,188 390,190 390,193 C390,196 388,198 385,198 C388,198 390,200 390,203 C390,206 388,208 385,208 C388,208 390,210 390,213 C390,216 388,218 385,218 C388,218 390,220 390,223 C390,226 388,228 385,228 C388,228 390,230 390,233 C390,236 388,238 385,238 C388,238 390,240 390,243 C390,246 388,248 385,248 C388,248 390,250 390,253 C390,256 388,258 385,258 C388,258 390,260 390,263 C390,266 388,268 385,268 C388,268 390,270 390,273 C390,276 388,278 385,278 C388,278 390,280 390,283 C390,286 388,288 385,288 C388,288 390,290 390,293 C390,296 388,298 385,298 C388,298 390,300 390,303 C390,306 388,308 385,308 C388,308 390,310 390,313 C390,316 388,318 385,318 C388,318 390,320 390,323 C390,326 388,328 385,328 C388,328 390,330 390,333 C390,336 388,338 385,338 C388,338 390,340 390,343 C390,346 388,348 385,348 C388,348 390,350 390,353 C390,356 388,358 385,358 C388,358 390,360 390,363 C390,366 388,368 385,368 C388,368 390,370 390,373 C390,376 388,378 385,378 C385,381 382,383 380,383 C377,383 375,381 375,378 C375,381 372,383 370,383 C367,383 365,381 365,378 C365,381 362,383 360,383 C357,383 355,381 355,378 C355,381 352,383 350,383 C347,383 345,381 345,378 C345,381 342,383 340,383 C337,383 335,381 335,378 C335,381 332,383 330,383 C327,383 325,381 325,378 C325,381 322,383 320,383 C317,383 315,381 315,378 C315,381 312,383 310,383 C307,383 305,381 305,378 C305,381 302,383 300,383 C297,383 295,381 295,378 C295,381 292,383 290,383 C287,383 285,381 285,378 C285,381 282,383 280,383 C277,383 275,381 275,378 C275,381 272,383 270,383 C267,383 265,381 265,378 C265,381 262,383 260,383 C257,383 255,381 255,378 C255,381 252,383 250,383 C247,383 245,381 245,378 C245,381 242,383 240,383 C237,383 235,381 235,378 C235,381 232,383 230,383 C227,383 225,381 225,378 C225,381 222,383 220,383 C217,383 215,381 215,378 C215,381 212,383 210,383 C207,383 205,381 205,378 C202,378 200,376 200,373 C200,370 202,368 205,368 C202,368 200,366 200,363 C200,360 202,358 205,358 C202,358 200,356 200,353 C200,350 202,348 205,348 C202,348 200,346 200,343 C200,340 202,338 205,338 C202,338 200,336 200,333 C200,330 202,328 205,328 C202,328 200,326 200,323 C200,320 202,318 205,318 C202,318 200,316 200,313 C200,310 202,308 205,308 C202,308 200,306 200,303 C200,300 202,298 205,298 C202,298 200,296 200,293 C200,290 202,288 205,288 C202,288 200,286 200,283 C200,280 202,278 205,278 C202,278 200,276 200,273 C200,270 202,268 205,268 C202,268 200,266 200,263 C200,260 202,258 205,258 C202,258 200,256 200,253 C200,250 202,248 205,248 C202,248 200,246 200,243 C200,240 202,238 205,238 C202,238 200,236 200,233 C200,230 202,228 205,228 C202,228 200,226 200,223 C200,220 202,218 205,218 C202,218 200,216 200,213 C200,210 202,208 205,208 C202,208 200,206 200,203 C200,200 202,198 205,198 C202,198 200,196 200,193 C200,190 202,188 205,188 C202,188 200,186 200,183 C200,180 202,178 205,178 C202,178 200,176 200,173 C200,170 202,168 205,168 C202,168 200,166 200,163 C200,160 202,158 205,158 C202,158 200,156 200,153 C200,150 202,148 205,148 C202,148 200,146 200,143 C200,140 202,138 205,138 " fill="#FFFFFF" filter="url(#f4xa43h)" style="stroke: #000000; stroke-width: 2.0;"/><text fill="#000000" font-family="sans-serif" font-size="14" font-weight="bold" lengthAdjust="spacingAndGlyphs" textLength="65" x="259.5" y="156.9951">symbols</text><ellipse cx="417.9597" cy="75.0919" fill="#FEFECE" filter="url(#f4xa43h)" rx="65.9597" ry="15.5919" style="stroke: #A80036; stroke-width: 1.5;"/><text fill="#000000" font-family="sans-serif" font-size="14" lengthAdjust="spacingAndGlyphs" textLength="96" x="369.9597" y="79.7404">How are you?</text><ellipse cx="248.9975" cy="74.8995" fill="#FEFECE" filter="url(#f4xa43h)" rx="67.4975" ry="15.8995" style="stroke: #A80036; stroke-width: 1.5;"/><text fill="#000000" font-family="sans-serif" font-size="14" lengthAdjust="spacingAndGlyphs" textLength="100" x="198.9975" y="79.5479">How are you *</text><ellipse cx="91.9117" cy="75.0236" fill="#FEFECE" filter="url(#f4xa43h)" rx="53.9117" ry="14.5236" style="stroke: #A80036; stroke-width: 1.5;"/><text fill="#000000" font-family="sans-serif" font-size="14" lengthAdjust="spacingAndGlyphs" textLength="72" x="55.9117" y="79.6721">How * you</text><ellipse cx="548.163" cy="75.0236" fill="#FEFECE" filter="url(#f4xa43h)" rx="29.163" ry="14.5236" style="stroke: #A80036; stroke-width: 1.5;"/><text fill="#000000" font-family="sans-serif" font-size="14" lengthAdjust="spacingAndGlyphs" textLength="37" x="529.663" y="79.6721">Hello</text><!--entity StatusInquiry--><polygon fill="#FEFECE" filter="url(#f4xa43h)" points="218,176,228,166,366,166,366,226.5938,356,236.5938,218,236.5938,218,176" style="stroke: #000000; stroke-width: 1.5;"/><line style="stroke: #000000; stroke-width: 1.5;" x1="356" x2="365" y1="176" y2="167"/><line style="stroke: #000000; stroke-width: 1.5;" x1="218" x2="356" y1="176" y2="176"/><line style="stroke: #000000; stroke-width: 1.5;" x1="356" x2="356" y1="176" y2="236.5938"/><text fill="#000000" font-family="sans-serif" font-size="14" lengthAdjust="spacingAndGlyphs" textLength="93" x="240.5" y="198.9951">StatusInquiry</text><line style="stroke: #000000; stroke-width: 1.0;" x1="218" x2="356" y1="202.2969" y2="202.2969"/><line style="stroke: #000000; stroke-width: 1.0;" x1="356" x2="366" y1="202.2969" y2="192.2969"/><text fill="#000000" font-family="sans-serif" font-size="14" lengthAdjust="spacingAndGlyphs" textLength="96" x="239" y="219.292">How are you?</text><!--entity Greeting--><polygon fill="#FEFECE" filter="url(#f4xa43h)" points="243,307,253,297,345,297,345,357.5938,335,367.5938,243,367.5938,243,307" style="stroke: #000000; stroke-width: 1.5;"/><line style="stroke: #000000; stroke-width: 1.5;" x1="335" x2="344" y1="307" y2="298"/><line style="stroke: #000000; stroke-width: 1.5;" x1="243" x2="335" y1="307" y2="307"/><line style="stroke: #000000; stroke-width: 1.5;" x1="335" x2="335" y1="307" y2="367.5938"/><text fill="#000000" font-family="sans-serif" font-size="14" lengthAdjust="spacingAndGlyphs" textLength="62" x="258" y="329.9951">Greeting</text><line style="stroke: #000000; stroke-width: 1.0;" x1="243" x2="335" y1="333.2969" y2="333.2969"/><line style="stroke: #000000; stroke-width: 1.0;" x1="335" x2="345" y1="333.2969" y2="323.2969"/><text fill="#000000" font-family="sans-serif" font-size="14" lengthAdjust="spacingAndGlyphs" textLength="37" x="270.5" y="350.292">Hello</text><path d="M345.208,308.1786 C364.291,307.3811 380,315.4883 380,332.5 C380,347.9169 367.099,356.0205 350.476,356.8109 " fill="none" style="stroke: #A80036; stroke-width: 2.0;"/><polygon fill="#A80036" points="345.208,356.8214,354.216,360.8034,350.208,356.8114,354.2,352.8034,345.208,356.8214" style="stroke: #A80036; stroke-width: 1.0;"/><path d="M292.618,242.38 C292.888,259.804 293.202,280.048 293.463,296.835 " fill="none" style="stroke: #A80036; stroke-width: 2.0;"/><polygon fill="#A80036" points="292.536,237.07,288.6754,246.1307,292.6132,242.0694,296.6744,246.0072,292.536,237.07" style="stroke: #A80036; stroke-width: 1.0;"/><path d="M254.273,91.266 C259.995,107.834 269.383,135.017 277.363,158.121 " fill="none" style="stroke: #A80036; stroke-width: 1.0;"/><polygon fill="#A80036" points="280.008,165.778,280.2326,157.2369,274.5612,159.1953,280.008,165.778" style="stroke: #A80036; stroke-width: 1.0;"/><path d="M403.546,90.282 C386.371,107.252 356.982,136.291 332.681,160.303 " fill="none" style="stroke: #A80036; stroke-width: 1.0;"/><polygon fill="#A80036" points="326.944,165.972,334.743,162.4827,330.5256,158.2149,326.944,165.972" style="stroke: #A80036; stroke-width: 1.0;"/><path d="M112.278,88.623 C139.502,105.57 189.097,136.443 229.302,161.47 " fill="none" style="stroke: #A80036; stroke-width: 1.0;"/><polygon fill="#A80036" points="236.179,165.751,230.9728,158.9764,227.802,164.0701,236.179,165.751" style="stroke: #A80036; stroke-width: 1.0;"/><path d="M535.749,88.323 C499.822,124.463 393.559,231.353 334.585,290.675 " fill="none" style="stroke: #A80036; stroke-width: 1.0;"/><polygon fill="#A80036" points="328.681,296.614,336.4489,293.0559,332.1939,288.8256,328.681,296.614" style="stroke: #A80036; stroke-width: 1.0;"/></g></svg>