<?xml version="1.0" encoding="UTF-8" standalone="yes"?><svg xmlns="http://www.w3.org/2000/svg" xmlns:xlink="http://www.w3.org/1999/xlink" height="465px" style="width:438px;height:465px;" version="1.1" viewBox="0 0 438 465" width="438px"><defs><filter height="300%" id="f9ev7zz" width="300%" x="-1" y="-1"><feGaussianBlur result="blurOut" stdDeviation="2.0"/><feColorMatrix in="blurOut" result="blurOut2" type="matrix" values="0 0 0 0 0 0 0 0 0 0 0 0 0 0 0 0 0 0 .4 0"/><feOffset dx="4.0" dy="4.0" in="blurOut2" result="blurOut3"/><feBlend in="SourceGraphic" in2="blurOut3" mode="normal"/></filter></defs><g><rect fill="#FEFECE" filter="url(#f9ev7zz)" height="60.8906" style="stroke: #A80036; stroke-width: 1.5;" width="104" x="55" y="20.5"/><text fill="#000000" font-family="sans-serif" font-size="12" lengthAdjust="spacingAndGlyphs" textLength="17" x="98.5" y="33.6387">D0</text><line style="stroke: #A80036; stroke-width: 1.5;" x1="56" x2="158" y1="38.4688" y2="38.4688"/><text fill="#000000" font-family="sans-serif" font-size="10" lengthAdjust="spacingAndGlyphs" textLength="62" x="61" y="51.751">a = "doctor"</text><text fill="#000000" font-family="sans-serif" font-size="10" lengthAdjust="spacingAndGlyphs" textLength="72" x="61" y="63.3916">s = "Greeting"</text><text fill="#000000" font-family="sans-serif" font-size="10" lengthAdjust="spacingAndGlyphs" textLength="92" x="61" y="75.0322">[D] = [D1, D2, D3]</text><rect fill="#FEFECE" filter="url(#f9ev7zz)" height="60.8906" style="stroke: #A80036; stroke-width: 1.5;" width="92" x="196" y="154"/><text fill="#000000" font-family="sans-serif" font-size="12" lengthAdjust="spacingAndGlyphs" textLength="17" x="233.5" y="167.1387">D1</text><line style="stroke: #A80036; stroke-width: 1.5;" x1="197" x2="287" y1="171.9688" y2="171.9688"/><text fill="#000000" font-family="sans-serif" font-size="10" lengthAdjust="spacingAndGlyphs" textLength="65" x="202" y="185.251">a = "patient"</text><text fill="#000000" font-family="sans-serif" font-size="10" lengthAdjust="spacingAndGlyphs" textLength="80" x="202" y="196.8916">s = "Complaint"</text><text fill="#000000" font-family="sans-serif" font-size="10" lengthAdjust="spacingAndGlyphs" textLength="72" x="202" y="208.5322">[D] = [D5, D4]</text><rect fill="#FEFECE" filter="url(#f9ev7zz)" height="60.8906" style="stroke: #A80036; stroke-width: 1.5;" width="123" x="6.5" y="275"/><text fill="#000000" font-family="sans-serif" font-size="12" lengthAdjust="spacingAndGlyphs" textLength="17" x="59.5" y="288.1387">D2</text><line style="stroke: #A80036; stroke-width: 1.5;" x1="7.5" x2="128.5" y1="292.9688" y2="292.9688"/><text fill="#000000" font-family="sans-serif" font-size="10" lengthAdjust="spacingAndGlyphs" textLength="65" x="12.5" y="306.251">a = "patient"</text><text fill="#000000" font-family="sans-serif" font-size="10" lengthAdjust="spacingAndGlyphs" textLength="111" x="12.5" y="317.8916">s = "QuestionIdentity"</text><text fill="#000000" font-family="sans-serif" font-size="10" lengthAdjust="spacingAndGlyphs" textLength="52" x="12.5" y="329.5322">[D] = [D6]</text><rect fill="#FEFECE" filter="url(#f9ev7zz)" height="60.8906" style="stroke: #A80036; stroke-width: 1.5;" width="84" x="6" y="154"/><text fill="#000000" font-family="sans-serif" font-size="12" lengthAdjust="spacingAndGlyphs" textLength="17" x="39.5" y="167.1387">D3</text><line style="stroke: #A80036; stroke-width: 1.5;" x1="7" x2="89" y1="171.9688" y2="171.9688"/><text fill="#000000" font-family="sans-serif" font-size="10" lengthAdjust="spacingAndGlyphs" textLength="65" x="12" y="185.251">a = "patient"</text><text fill="#000000" font-family="sans-serif" font-size="10" lengthAdjust="spacingAndGlyphs" textLength="72" x="12" y="196.8916">s = "Greeting"</text><text fill="#000000" font-family="sans-serif" font-size="10" lengthAdjust="spacingAndGlyphs" textLength="72" x="12" y="208.5322">[D] = [D1, D2]</text><rect fill="#FEFECE" filter="url(#f9ev7zz)" height="60.8906" style="stroke: #A80036; stroke-width: 1.5;" width="106" x="323" y="275"/><text fill="#000000" font-family="sans-serif" font-size="12" lengthAdjust="spacingAndGlyphs" textLength="17" x="367.5" y="288.1387">D5</text><line style="stroke: #A80036; stroke-width: 1.5;" x1="324" x2="428" y1="292.9688" y2="292.9688"/><text fill="#000000" font-family="sans-serif" font-size="10" lengthAdjust="spacingAndGlyphs" textLength="62" x="329" y="306.251">a = "doctor"</text><text fill="#000000" font-family="sans-serif" font-size="10" lengthAdjust="spacingAndGlyphs" textLength="94" x="329" y="317.8916">s = "StatusInquiry"</text><text fill="#000000" font-family="sans-serif" font-size="10" lengthAdjust="spacingAndGlyphs" textLength="38" x="329" y="329.5322">[D] = []</text><rect fill="#FEFECE" filter="url(#f9ev7zz)" height="60.8906" style="stroke: #A80036; stroke-width: 1.5;" width="113" x="174.5" y="275"/><text fill="#000000" font-family="sans-serif" font-size="12" lengthAdjust="spacingAndGlyphs" textLength="17" x="222.5" y="288.1387">D4</text><line style="stroke: #A80036; stroke-width: 1.5;" x1="175.5" x2="286.5" y1="292.9688" y2="292.9688"/><text fill="#000000" font-family="sans-serif" font-size="10" lengthAdjust="spacingAndGlyphs" textLength="62" x="180.5" y="306.251">a = "doctor"</text><text fill="#000000" font-family="sans-serif" font-size="10" lengthAdjust="spacingAndGlyphs" textLength="101" x="180.5" y="317.8916">s = "DoDiagnostics"</text><text fill="#000000" font-family="sans-serif" font-size="10" lengthAdjust="spacingAndGlyphs" textLength="38" x="180.5" y="329.5322">[D] = []</text><rect fill="#FEFECE" filter="url(#f9ev7zz)" height="60.8906" style="stroke: #A80036; stroke-width: 1.5;" width="107" x="14.5" y="396"/><text fill="#000000" font-family="sans-serif" font-size="12" lengthAdjust="spacingAndGlyphs" textLength="17" x="59.5" y="409.1387">D6</text><line style="stroke: #A80036; stroke-width: 1.5;" x1="15.5" x2="120.5" y1="413.9688" y2="413.9688"/><text fill="#000000" font-family="sans-serif" font-size="10" lengthAdjust="spacingAndGlyphs" textLength="62" x="20.5" y="427.251">a = "doctor"</text><text fill="#000000" font-family="sans-serif" font-size="10" lengthAdjust="spacingAndGlyphs" textLength="95" x="20.5" y="438.8916">s = "ShareIdentity"</text><text fill="#000000" font-family="sans-serif" font-size="10" lengthAdjust="spacingAndGlyphs" textLength="38" x="20.5" y="450.5322">[D] = []</text><polygon fill="#FBFB77" filter="url(#f9ev7zz)" points="194.5,8,194.5,93.6641,361.5,93.6641,361.5,18,351.5,8,194.5,8" style="stroke: #A80036; stroke-width: 1.0;"/><polygon fill="#FBFB77" points="194.5,8,194.5,93.6641,262.411,93.6641,250.147,153.74,270.411,93.6641,361.5,93.6641,361.5,18,351.5,8,194.5,8" style="stroke: #A80036; stroke-width: 1.0;"/><line style="stroke: #A80036; stroke-width: 1.0;" x1="351.5" x2="351.5" y1="8" y2="18"/><line style="stroke: #A80036; stroke-width: 1.0;" x1="361.5" x2="351.5" y1="18" y2="18"/><text fill="#000000" font-family="sans-serif" font-size="13" lengthAdjust="spacingAndGlyphs" textLength="140" x="200.5" y="25.0669">This node is currenlty</text><text fill="#000000" font-family="sans-serif" font-size="13" lengthAdjust="spacingAndGlyphs" textLength="120" x="204.5" y="40.1997">implicitly selected</text><text fill="#000000" font-family="sans-serif" font-size="13" lengthAdjust="spacingAndGlyphs" textLength="78" x="204.5" y="55.3325">as response</text><text fill="#000000" font-family="sans-serif" font-size="13" lengthAdjust="spacingAndGlyphs" textLength="142" x="200.5" y="70.4653">(because it came first</text><text fill="#000000" font-family="sans-serif" font-size="13" lengthAdjust="spacingAndGlyphs" textLength="93" x="204.5" y="85.5981">in D0 as child)</text><path d="M137.297,81.511 C156.356,100.077 181.171,124.248 201.858,144.399 " fill="none" style="stroke: #A80036; stroke-width: 1.0;"/><polygon fill="#A80036" points="211.337,153.632,209.8301,146.5801,202.741,145.2589,204.248,152.3108,211.337,153.632" style="stroke: #A80036; stroke-width: 1.0;"/><path d="M110.583,81.52 C113.756,114.459 116.556,169.151 107,215 C103.5959,231.334 97.0433,248.339 90.2668,263.085 " fill="none" style="stroke: #A80036; stroke-width: 1.0;"/><polygon fill="#A80036" points="84.5861,274.875,90.794,271.206,89.7948,264.0644,83.5869,267.7335,84.5861,274.875" style="stroke: #A80036; stroke-width: 1.0;"/><path d="M93.7592,81.511 C85.8065,99.236 75.561,122.072 66.7814,141.64 " fill="none" style="stroke: #A80036; stroke-width: 1.0;"/><polygon fill="#A80036" points="61.4007,153.632,67.5063,149.7951,66.3128,142.6834,60.2072,146.5203,61.4007,153.632" style="stroke: #A80036; stroke-width: 1.0;"/><path d="M239.253,215.222 C237.953,229.278 236.378,246.323 234.953,261.736 " fill="none" style="stroke: #A80036; stroke-width: 1.0;"/><polygon fill="#A80036" points="233.75,274.745,238.2855,269.1388,234.855,262.796,230.3195,268.4022,233.75,274.745" style="stroke: #A80036; stroke-width: 1.0;"/><path d="M275.468,215.222 C292.736,230.556 314.007,249.446 332.529,265.895 " fill="none" style="stroke: #A80036; stroke-width: 1.0;"/><polygon fill="#A80036" points="342.494,274.745,340.6636,267.7701,333.5212,266.777,335.3516,273.7519,342.494,274.745" style="stroke: #A80036; stroke-width: 1.0;"/><path d="M68,336.222 C68,350.278 68,367.3225 68,382.7357 " fill="none" style="stroke: #A80036; stroke-width: 1.0;"/><polygon fill="#A80036" points="68,395.7447,72,389.7447,68,383.7447,64,389.7447,68,395.7447" style="stroke: #A80036; stroke-width: 1.0;"/><path d="M90.0586,184.5 C120.872,184.5 151.686,184.5 182.5,184.5 " fill="none" style="stroke: #A80036; stroke-width: 1.0;"/><polygon fill="#A80036" points="195.705,184.5,189.705,180.5,183.705,184.5,189.705,188.5,195.705,184.5" style="stroke: #A80036; stroke-width: 1.0;"/><path d="M52.9953,215.222 C55.3577,229.278 58.2223,246.323 60.8127,261.736 " fill="none" style="stroke: #A80036; stroke-width: 1.0;"/><polygon fill="#A80036" points="62.9991,274.745,65.9488,268.1648,61.0092,262.9111,58.0595,269.4914,62.9991,274.745" style="stroke: #A80036; stroke-width: 1.0;"/></g></svg>