<?xml version="1.0" encoding="UTF-8" standalone="yes"?><svg xmlns="http://www.w3.org/2000/svg" xmlns:xlink="http://www.w3.org/1999/xlink" height="547px" style="width:946px;height:547px;" version="1.1" viewBox="0 0 946 547" width="946px"><defs><filter height="300%" id="fkemtr3" width="300%" x="-1" y="-1"><feGaussianBlur result="blurOut" stdDeviation="2.0"/><feColorMatrix in="blurOut" result="blurOut2" type="matrix" values="0 0 0 0 0 0 0 0 0 0 0 0 0 0 0 0 0 0 .4 0"/><feOffset dx="4.0" dy="4.0" in="blurOut2" result="blurOut3"/><feBlend in="SourceGraphic" in2="blurOut3" mode="normal"/></filter></defs><g><!--cluster db--><polygon fill="#FFFFFF" filter="url(#fkemtr3)" points="22,24,48,24,55,46.2969,377,46.2969,377,123,22,123,22,24" style="stroke: #000000; stroke-width: 2.0;"/><line style="stroke: #000000; stroke-width: 2.0;" x1="22" x2="55" y1="46.2969" y2="46.2969"/><text fill="#000000" font-family="sans-serif" font-size="14" font-weight="bold" lengthAdjust="spacingAndGlyphs" textLength="20" x="26" y="38.9951">db</text><!--class ConnectionDatabase--><rect fill="#FEFECE" filter="url(#fkemtr3)" height="48" style="stroke: #A80036; stroke-width: 1.5;" width="156" x="205" y="59"/><ellipse cx="220" cy="75" fill="#ADD1B2" rx="11" ry="11" style="stroke: #A80036; stroke-width: 1.0;"/><path d="M222.9688,80 Q222.3906,80.5 221.75,80.75 Q221.1094,81 220.4063,81 Q217.9063,81 216.5859,79.4609 Q215.2656,77.9219 215.2656,75 Q215.2656,72.0781 216.5859,70.5391 Q217.9063,69 220.4063,69 Q221.1094,69 221.7578,69.25 Q222.4063,69.5 222.9688,70 L222.9688,73 Q222.3438,71.9688 221.75,71.4844 Q221.1563,71 220.5156,71 Q219.1875,71 218.5,72.0078 Q217.8125,73.0156 217.8125,75 Q217.8125,76.9844 218.5,77.9922 Q219.1875,79 220.5156,79 Q221.1563,79 221.75,78.5156 Q222.3438,78.0313 222.9688,77 L222.9688,80 Z "/><text fill="#000000" font-family="sans-serif" font-size="12" lengthAdjust="spacingAndGlyphs" textLength="124" x="234" y="79.1543">ConnectionDatabase</text><line style="stroke: #A80036; stroke-width: 1.5;" x1="206" x2="360" y1="91" y2="91"/><line style="stroke: #A80036; stroke-width: 1.5;" x1="206" x2="360" y1="99" y2="99"/><!--class PatternDatabase--><rect fill="#FEFECE" filter="url(#fkemtr3)" height="48" style="stroke: #A80036; stroke-width: 1.5;" width="132" x="38" y="59"/><ellipse cx="53" cy="75" fill="#ADD1B2" rx="11" ry="11" style="stroke: #A80036; stroke-width: 1.0;"/><path d="M55.9688,80 Q55.3906,80.5 54.75,80.75 Q54.1094,81 53.4063,81 Q50.9063,81 49.5859,79.4609 Q48.2656,77.9219 48.2656,75 Q48.2656,72.0781 49.5859,70.5391 Q50.9063,69 53.4063,69 Q54.1094,69 54.7578,69.25 Q55.4063,69.5 55.9688,70 L55.9688,73 Q55.3438,71.9688 54.75,71.4844 Q54.1563,71 53.5156,71 Q52.1875,71 51.5,72.0078 Q50.8125,73.0156 50.8125,75 Q50.8125,76.9844 51.5,77.9922 Q52.1875,79 53.5156,79 Q54.1563,79 54.75,78.5156 Q55.3438,78.0313 55.9688,77 L55.9688,80 Z "/><text fill="#000000" font-family="sans-serif" font-size="12" lengthAdjust="spacingAndGlyphs" textLength="100" x="67" y="79.1543">PatternDatabase</text><line style="stroke: #A80036; stroke-width: 1.5;" x1="39" x2="169" y1="91" y2="91"/><line style="stroke: #A80036; stroke-width: 1.5;" x1="39" x2="169" y1="99" y2="99"/><!--class PerlocutionaryValue--><rect fill="#FEFECE" filter="url(#fkemtr3)" height="48" style="stroke: #A80036; stroke-width: 1.5;" width="151" x="681.5" y="484.5"/><ellipse cx="696.5" cy="500.5" fill="#EB937F" rx="11" ry="11" style="stroke: #A80036; stroke-width: 1.0;"/><path d="M700.6094,506.5 L692.8906,506.5 L692.8906,494.5 L700.6094,494.5 L700.6094,496.5 L695.3438,496.5 L695.3438,499.5 L700.1094,499.5 L700.1094,501.5 L695.3438,501.5 L695.3438,504.5 L700.6094,504.5 L700.6094,506.5 Z "/><text fill="#000000" font-family="sans-serif" font-size="12" lengthAdjust="spacingAndGlyphs" textLength="119" x="710.5" y="504.6543">PerlocutionaryValue</text><line style="stroke: #A80036; stroke-width: 1.5;" x1="682.5" x2="831.5" y1="516.5" y2="516.5"/><line style="stroke: #A80036; stroke-width: 1.5;" x1="682.5" x2="831.5" y1="524.5" y2="524.5"/><!--class PerlocutionaryValueSet--><rect fill="#FEFECE" filter="url(#fkemtr3)" height="60.8047" style="stroke: #A80036; stroke-width: 1.5;" width="278" x="597" y="344.5"/><ellipse cx="662.25" cy="360.5" fill="#ADD1B2" rx="11" ry="11" style="stroke: #A80036; stroke-width: 1.0;"/><path d="M665.2188,365.5 Q664.6406,366 664,366.25 Q663.3594,366.5 662.6563,366.5 Q660.1563,366.5 658.8359,364.9609 Q657.5156,363.4219 657.5156,360.5 Q657.5156,357.5781 658.8359,356.0391 Q660.1563,354.5 662.6563,354.5 Q663.3594,354.5 664.0078,354.75 Q664.6563,355 665.2188,355.5 L665.2188,358.5 Q664.5938,357.4688 664,356.9844 Q663.4063,356.5 662.7656,356.5 Q661.4375,356.5 660.75,357.5078 Q660.0625,358.5156 660.0625,360.5 Q660.0625,362.4844 660.75,363.4922 Q661.4375,364.5 662.7656,364.5 Q663.4063,364.5 664,364.0156 Q664.5938,363.5313 665.2188,362.5 L665.2188,365.5 Z "/><text fill="#000000" font-family="sans-serif" font-size="12" lengthAdjust="spacingAndGlyphs" textLength="139" x="682.75" y="364.6543">PerlocutionaryValueSet</text><line style="stroke: #A80036; stroke-width: 1.5;" x1="598" x2="874" y1="376.5" y2="376.5"/><ellipse cx="608" cy="388.4023" fill="none" rx="3" ry="3" style="stroke: #038048; stroke-width: 1.0;"/><text fill="#000000" font-family="sans-serif" font-size="11" lengthAdjust="spacingAndGlyphs" textLength="252" x="617" y="390.7104">perlocutionaryValues:{PerlocationaryValue}</text><line style="stroke: #A80036; stroke-width: 1.5;" x1="598" x2="874" y1="397.3047" y2="397.3047"/><!--class PatternSymbol--><rect fill="#FEFECE" filter="url(#fkemtr3)" height="73.6094" style="stroke: #A80036; stroke-width: 1.5;" width="121" x="108.5" y="192"/><ellipse cx="123.5" cy="208" fill="#ADD1B2" rx="11" ry="11" style="stroke: #A80036; stroke-width: 1.0;"/><path d="M126.4688,213 Q125.8906,213.5 125.25,213.75 Q124.6094,214 123.9063,214 Q121.4063,214 120.0859,212.4609 Q118.7656,210.9219 118.7656,208 Q118.7656,205.0781 120.0859,203.5391 Q121.4063,202 123.9063,202 Q124.6094,202 125.2578,202.25 Q125.9063,202.5 126.4688,203 L126.4688,206 Q125.8438,204.9688 125.25,204.4844 Q124.6563,204 124.0156,204 Q122.6875,204 122,205.0078 Q121.3125,206.0156 121.3125,208 Q121.3125,209.9844 122,210.9922 Q122.6875,212 124.0156,212 Q124.6563,212 125.25,211.5156 Q125.8438,211.0313 126.4688,210 L126.4688,213 Z "/><text fill="#000000" font-family="sans-serif" font-size="12" lengthAdjust="spacingAndGlyphs" textLength="89" x="137.5" y="212.1543">PatternSymbol</text><line style="stroke: #A80036; stroke-width: 1.5;" x1="109.5" x2="228.5" y1="224" y2="224"/><ellipse cx="119.5" cy="235.9023" fill="none" rx="3" ry="3" style="stroke: #038048; stroke-width: 1.0;"/><text fill="#000000" font-family="sans-serif" font-size="11" lengthAdjust="spacingAndGlyphs" textLength="86" x="128.5" y="238.2104">pattern:Pattern</text><ellipse cx="119.5" cy="248.707" fill="none" rx="3" ry="3" style="stroke: #038048; stroke-width: 1.0;"/><text fill="#000000" font-family="sans-serif" font-size="11" lengthAdjust="spacingAndGlyphs" textLength="87" x="128.5" y="251.0151">symbol:Symbol</text><line style="stroke: #A80036; stroke-width: 1.5;" x1="109.5" x2="228.5" y1="257.6094" y2="257.6094"/><!--class Scene--><rect fill="#FEFECE" filter="url(#fkemtr3)" height="60.8047" style="stroke: #A80036; stroke-width: 1.5;" width="95" x="110.5" y="478"/><ellipse cx="137.2" cy="494" fill="#ADD1B2" rx="11" ry="11" style="stroke: #A80036; stroke-width: 1.0;"/><path d="M140.1688,499 Q139.5906,499.5 138.95,499.75 Q138.3094,500 137.6063,500 Q135.1063,500 133.7859,498.4609 Q132.4656,496.9219 132.4656,494 Q132.4656,491.0781 133.7859,489.5391 Q135.1063,488 137.6063,488 Q138.3094,488 138.9578,488.25 Q139.6063,488.5 140.1688,489 L140.1688,492 Q139.5438,490.9688 138.95,490.4844 Q138.3563,490 137.7156,490 Q136.3875,490 135.7,491.0078 Q135.0125,492.0156 135.0125,494 Q135.0125,495.9844 135.7,496.9922 Q136.3875,498 137.7156,498 Q138.3563,498 138.95,497.5156 Q139.5438,497.0313 140.1688,496 L140.1688,499 Z "/><text fill="#000000" font-family="sans-serif" font-size="12" lengthAdjust="spacingAndGlyphs" textLength="37" x="153.8" y="498.1543">Scene</text><line style="stroke: #A80036; stroke-width: 1.5;" x1="111.5" x2="204.5" y1="510" y2="510"/><ellipse cx="121.5" cy="521.9023" fill="none" rx="3" ry="3" style="stroke: #038048; stroke-width: 1.0;"/><text fill="#000000" font-family="sans-serif" font-size="11" lengthAdjust="spacingAndGlyphs" textLength="69" x="130.5" y="524.2104">name:String</text><line style="stroke: #A80036; stroke-width: 1.5;" x1="111.5" x2="204.5" y1="530.8047" y2="530.8047"/><!--class Symbol--><rect fill="#FEFECE" filter="url(#fkemtr3)" height="86.4141" style="stroke: #A80036; stroke-width: 1.5;" width="109" x="228.5" y="332"/><ellipse cx="257.9" cy="348" fill="#ADD1B2" rx="11" ry="11" style="stroke: #A80036; stroke-width: 1.0;"/><path d="M260.8688,353 Q260.2906,353.5 259.65,353.75 Q259.0094,354 258.3063,354 Q255.8062,354 254.4859,352.4609 Q253.1656,350.9219 253.1656,348 Q253.1656,345.0781 254.4859,343.5391 Q255.8062,342 258.3063,342 Q259.0094,342 259.6578,342.25 Q260.3063,342.5 260.8688,343 L260.8688,346 Q260.2438,344.9688 259.65,344.4844 Q259.0563,344 258.4156,344 Q257.0875,344 256.4,345.0078 Q255.7125,346.0156 255.7125,348 Q255.7125,349.9844 256.4,350.9922 Q257.0875,352 258.4156,352 Q259.0563,352 259.65,351.5156 Q260.2438,351.0313 260.8688,350 L260.8688,353 Z "/><text fill="#000000" font-family="sans-serif" font-size="12" lengthAdjust="spacingAndGlyphs" textLength="45" x="275.1" y="352.1543">Symbol</text><line style="stroke: #A80036; stroke-width: 1.5;" x1="229.5" x2="336.5" y1="364" y2="364"/><ellipse cx="239.5" cy="375.9023" fill="none" rx="3" ry="3" style="stroke: #038048; stroke-width: 1.0;"/><text fill="#000000" font-family="sans-serif" font-size="11" lengthAdjust="spacingAndGlyphs" textLength="69" x="248.5" y="378.2104">name:String</text><ellipse cx="239.5" cy="388.707" fill="none" rx="3" ry="3" style="stroke: #038048; stroke-width: 1.0;"/><text fill="#000000" font-family="sans-serif" font-size="11" lengthAdjust="spacingAndGlyphs" textLength="71" x="248.5" y="391.0151">scene:Scene</text><rect fill="none" height="6" style="stroke: #C82930; stroke-width: 1.0;" width="6" x="236.5" y="398.5117"/><text fill="#000000" font-family="sans-serif" font-size="11" lengthAdjust="spacingAndGlyphs" textLength="83" x="248.5" y="403.8198">literals:[String]</text><line style="stroke: #A80036; stroke-width: 1.5;" x1="229.5" x2="336.5" y1="410.4141" y2="410.4141"/><!--class Connection--><rect fill="#FEFECE" filter="url(#fkemtr3)" height="86.4141" style="stroke: #A80036; stroke-width: 1.5;" width="199" x="336.5" y="186"/><ellipse cx="397.75" cy="202" fill="#ADD1B2" rx="11" ry="11" style="stroke: #A80036; stroke-width: 1.0;"/><path d="M400.7188,207 Q400.1406,207.5 399.5,207.75 Q398.8594,208 398.1563,208 Q395.6563,208 394.3359,206.4609 Q393.0156,204.9219 393.0156,202 Q393.0156,199.0781 394.3359,197.5391 Q395.6563,196 398.1563,196 Q398.8594,196 399.5078,196.25 Q400.1563,196.5 400.7188,197 L400.7188,200 Q400.0938,198.9688 399.5,198.4844 Q398.9063,198 398.2656,198 Q396.9375,198 396.25,199.0078 Q395.5625,200.0156 395.5625,202 Q395.5625,203.9844 396.25,204.9922 Q396.9375,206 398.2656,206 Q398.9063,206 399.5,205.5156 Q400.0938,205.0313 400.7188,204 L400.7188,207 Z "/><text fill="#000000" font-family="sans-serif" font-size="12" lengthAdjust="spacingAndGlyphs" textLength="68" x="418.25" y="206.1543">Connection</text><line style="stroke: #A80036; stroke-width: 1.5;" x1="337.5" x2="534.5" y1="218" y2="218"/><ellipse cx="347.5" cy="229.9023" fill="none" rx="3" ry="3" style="stroke: #038048; stroke-width: 1.0;"/><text fill="#000000" font-family="sans-serif" font-size="11" lengthAdjust="spacingAndGlyphs" textLength="57" x="356.5" y="232.2104">to:Symbol</text><ellipse cx="347.5" cy="242.707" fill="none" rx="3" ry="3" style="stroke: #038048; stroke-width: 1.0;"/><text fill="#000000" font-family="sans-serif" font-size="11" lengthAdjust="spacingAndGlyphs" textLength="105" x="356.5" y="245.0151">restricted_to:Actor</text><ellipse cx="347.5" cy="255.5117" fill="none" rx="3" ry="3" style="stroke: #038048; stroke-width: 1.0;"/><text fill="#000000" font-family="sans-serif" font-size="11" lengthAdjust="spacingAndGlyphs" textLength="173" x="356.5" y="257.8198">values:PerlocationaryValueSet</text><line style="stroke: #A80036; stroke-width: 1.5;" x1="337.5" x2="534.5" y1="264.4141" y2="264.4141"/><!--class Actor--><rect fill="#FEFECE" filter="url(#fkemtr3)" height="60.8047" style="stroke: #A80036; stroke-width: 1.5;" width="95" x="414.5" y="344.5"/><ellipse cx="443.45" cy="360.5" fill="#ADD1B2" rx="11" ry="11" style="stroke: #A80036; stroke-width: 1.0;"/><path d="M446.4188,365.5 Q445.8406,366 445.2,366.25 Q444.5594,366.5 443.8563,366.5 Q441.3563,366.5 440.0359,364.9609 Q438.7156,363.4219 438.7156,360.5 Q438.7156,357.5781 440.0359,356.0391 Q441.3563,354.5 443.8563,354.5 Q444.5594,354.5 445.2078,354.75 Q445.8563,355 446.4188,355.5 L446.4188,358.5 Q445.7938,357.4688 445.2,356.9844 Q444.6063,356.5 443.9656,356.5 Q442.6375,356.5 441.95,357.5078 Q441.2625,358.5156 441.2625,360.5 Q441.2625,362.4844 441.95,363.4922 Q442.6375,364.5 443.9656,364.5 Q444.6063,364.5 445.2,364.0156 Q445.7938,363.5313 446.4188,362.5 L446.4188,365.5 Z "/><text fill="#000000" font-family="sans-serif" font-size="12" lengthAdjust="spacingAndGlyphs" textLength="32" x="460.55" y="364.6543">Actor</text><line style="stroke: #A80036; stroke-width: 1.5;" x1="415.5" x2="508.5" y1="376.5" y2="376.5"/><ellipse cx="425.5" cy="388.4023" fill="none" rx="3" ry="3" style="stroke: #038048; stroke-width: 1.0;"/><text fill="#000000" font-family="sans-serif" font-size="11" lengthAdjust="spacingAndGlyphs" textLength="69" x="434.5" y="390.7104">name:String</text><line style="stroke: #A80036; stroke-width: 1.5;" x1="415.5" x2="508.5" y1="397.3047" y2="397.3047"/><!--class Goal--><rect fill="#FEFECE" filter="url(#fkemtr3)" height="86.4141" style="stroke: #A80036; stroke-width: 1.5;" width="231" x="396.5" y="40"/><ellipse cx="494.75" cy="56" fill="#ADD1B2" rx="11" ry="11" style="stroke: #A80036; stroke-width: 1.0;"/><path d="M497.7188,61 Q497.1406,61.5 496.5,61.75 Q495.8594,62 495.1563,62 Q492.6563,62 491.3359,60.4609 Q490.0156,58.9219 490.0156,56 Q490.0156,53.0781 491.3359,51.5391 Q492.6563,50 495.1563,50 Q495.8594,50 496.5078,50.25 Q497.1563,50.5 497.7188,51 L497.7188,54 Q497.0938,52.9688 496.5,52.4844 Q495.9063,52 495.2656,52 Q493.9375,52 493.25,53.0078 Q492.5625,54.0156 492.5625,56 Q492.5625,57.9844 493.25,58.9922 Q493.9375,60 495.2656,60 Q495.9063,60 496.5,59.5156 Q497.0938,59.0313 497.7188,58 L497.7188,61 Z "/><text fill="#000000" font-family="sans-serif" font-size="12" lengthAdjust="spacingAndGlyphs" textLength="26" x="515.25" y="60.1543">Goal</text><line style="stroke: #A80036; stroke-width: 1.5;" x1="397.5" x2="626.5" y1="72" y2="72"/><ellipse cx="407.5" cy="83.9023" fill="none" rx="3" ry="3" style="stroke: #038048; stroke-width: 1.0;"/><text fill="#000000" font-family="sans-serif" font-size="11" lengthAdjust="spacingAndGlyphs" textLength="101" x="416.5" y="86.2104">toSay:Inforamtive</text><ellipse cx="407.5" cy="96.707" fill="none" rx="3" ry="3" style="stroke: #038048; stroke-width: 1.0;"/><text fill="#000000" font-family="sans-serif" font-size="11" lengthAdjust="spacingAndGlyphs" textLength="49" x="416.5" y="99.0151">utility:int</text><line style="stroke: #A80036; stroke-width: 1.5;" x1="397.5" x2="626.5" y1="105.6094" y2="105.6094"/><ellipse cx="407.5" cy="117.5117" fill="#84BE84" rx="3" ry="3" style="stroke: #038048; stroke-width: 1.0;"/><text fill="#000000" font-family="sans-serif" font-size="11" lengthAdjust="spacingAndGlyphs" textLength="205" x="416.5" y="119.8198">isGoal(utterance:Utterance):boolean</text><!--class Informative--><rect fill="#FEFECE" filter="url(#fkemtr3)" height="73.6094" style="stroke: #A80036; stroke-width: 1.5;" width="101" x="570.5" y="192"/><ellipse cx="585.5" cy="208" fill="#ADD1B2" rx="11" ry="11" style="stroke: #A80036; stroke-width: 1.0;"/><path d="M588.4688,213 Q587.8906,213.5 587.25,213.75 Q586.6094,214 585.9063,214 Q583.4063,214 582.0859,212.4609 Q580.7656,210.9219 580.7656,208 Q580.7656,205.0781 582.0859,203.5391 Q583.4063,202 585.9063,202 Q586.6094,202 587.2578,202.25 Q587.9063,202.5 588.4688,203 L588.4688,206 Q587.8438,204.9688 587.25,204.4844 Q586.6563,204 586.0156,204 Q584.6875,204 584,205.0078 Q583.3125,206.0156 583.3125,208 Q583.3125,209.9844 584,210.9922 Q584.6875,212 586.0156,212 Q586.6563,212 587.25,211.5156 Q587.8438,211.0313 588.4688,210 L588.4688,213 Z "/><text fill="#000000" font-family="sans-serif" font-size="12" lengthAdjust="spacingAndGlyphs" textLength="69" x="599.5" y="212.1543">Informative</text><line style="stroke: #A80036; stroke-width: 1.5;" x1="571.5" x2="670.5" y1="224" y2="224"/><ellipse cx="581.5" cy="235.9023" fill="none" rx="3" ry="3" style="stroke: #038048; stroke-width: 1.0;"/><text fill="#000000" font-family="sans-serif" font-size="11" lengthAdjust="spacingAndGlyphs" textLength="73" x="590.5" y="238.2104">what:Symbol</text><ellipse cx="581.5" cy="248.707" fill="none" rx="3" ry="3" style="stroke: #038048; stroke-width: 1.0;"/><text fill="#000000" font-family="sans-serif" font-size="11" lengthAdjust="spacingAndGlyphs" textLength="57" x="590.5" y="251.0151">who:Actor</text><line style="stroke: #A80036; stroke-width: 1.5;" x1="571.5" x2="670.5" y1="257.6094" y2="257.6094"/><!--class PersonalValues--><rect fill="#FEFECE" filter="url(#fkemtr3)" height="60.8047" style="stroke: #A80036; stroke-width: 1.5;" width="302" x="344" y="478"/><ellipse cx="446.25" cy="494" fill="#ADD1B2" rx="11" ry="11" style="stroke: #A80036; stroke-width: 1.0;"/><path d="M449.2188,499 Q448.6406,499.5 448,499.75 Q447.3594,500 446.6563,500 Q444.1563,500 442.8359,498.4609 Q441.5156,496.9219 441.5156,494 Q441.5156,491.0781 442.8359,489.5391 Q444.1563,488 446.6563,488 Q447.3594,488 448.0078,488.25 Q448.6563,488.5 449.2188,489 L449.2188,492 Q448.5938,490.9688 448,490.4844 Q447.4063,490 446.7656,490 Q445.4375,490 444.75,491.0078 Q444.0625,492.0156 444.0625,494 Q444.0625,495.9844 444.75,496.9922 Q445.4375,498 446.7656,498 Q447.4063,498 448,497.5156 Q448.5938,497.0313 449.2188,496 L449.2188,499 Z "/><text fill="#000000" font-family="sans-serif" font-size="12" lengthAdjust="spacingAndGlyphs" textLength="89" x="466.75" y="498.1543">PersonalValues</text><line style="stroke: #A80036; stroke-width: 1.5;" x1="345" x2="645" y1="510" y2="510"/><rect fill="none" height="6" style="stroke: #C82930; stroke-width: 1.0;" width="6" x="352" y="518.9023"/><text fill="#000000" font-family="sans-serif" font-size="11" lengthAdjust="spacingAndGlyphs" textLength="276" x="364" y="524.2104">values:EnumMap&lt;PerlocutionaryValue, Integer&gt;</text><line style="stroke: #A80036; stroke-width: 1.5;" x1="345" x2="645" y1="530.8047" y2="530.8047"/><!--class Utterance--><rect fill="#FEFECE" filter="url(#fkemtr3)" height="86.4141" style="stroke: #A80036; stroke-width: 1.5;" width="275" x="662.5" y="40"/><ellipse cx="765.75" cy="56" fill="#ADD1B2" rx="11" ry="11" style="stroke: #A80036; stroke-width: 1.0;"/><path d="M768.7188,61 Q768.1406,61.5 767.5,61.75 Q766.8594,62 766.1563,62 Q763.6563,62 762.3359,60.4609 Q761.0156,58.9219 761.0156,56 Q761.0156,53.0781 762.3359,51.5391 Q763.6563,50 766.1563,50 Q766.8594,50 767.5078,50.25 Q768.1563,50.5 768.7188,51 L768.7188,54 Q768.0938,52.9688 767.5,52.4844 Q766.9063,52 766.2656,52 Q764.9375,52 764.25,53.0078 Q763.5625,54.0156 763.5625,56 Q763.5625,57.9844 764.25,58.9922 Q764.9375,60 766.2656,60 Q766.9063,60 767.5,59.5156 Q768.0938,59.0313 768.7188,58 L768.7188,61 Z "/><text fill="#000000" font-family="sans-serif" font-size="12" lengthAdjust="spacingAndGlyphs" textLength="60" x="786.25" y="60.1543">Utterance</text><line style="stroke: #A80036; stroke-width: 1.5;" x1="663.5" x2="936.5" y1="72" y2="72"/><ellipse cx="673.5" cy="83.9023" fill="none" rx="3" ry="3" style="stroke: #038048; stroke-width: 1.0;"/><text fill="#000000" font-family="sans-serif" font-size="11" lengthAdjust="spacingAndGlyphs" textLength="134" x="682.5" y="86.2104">informatvie:Informative</text><ellipse cx="673.5" cy="96.707" fill="none" rx="3" ry="3" style="stroke: #038048; stroke-width: 1.0;"/><text fill="#000000" font-family="sans-serif" font-size="11" lengthAdjust="spacingAndGlyphs" textLength="249" x="682.5" y="99.0151">perlocutionaryValues:PerloctionaryValueSet</text><ellipse cx="673.5" cy="109.5117" fill="none" rx="3" ry="3" style="stroke: #038048; stroke-width: 1.0;"/><text fill="#000000" font-family="sans-serif" font-size="11" lengthAdjust="spacingAndGlyphs" textLength="72" x="682.5" y="111.8198">when:Instant</text><line style="stroke: #A80036; stroke-width: 1.5;" x1="663.5" x2="936.5" y1="118.4141" y2="118.4141"/><path d="M740.713,405.511 C743.813,424.923 747.892,450.4637 751.192,471.1296 " fill="none" style="stroke: #A80036; stroke-width: 1.0;"/><polygon fill="#A80036" points="753.28,484.207,756.2837,477.6513,751.3875,472.3572,748.3838,478.9129,753.28,484.207" style="stroke: #A80036; stroke-width: 1.0;"/><text fill="#000000" font-family="sans-serif" font-size="13" lengthAdjust="spacingAndGlyphs" textLength="7" x="744.5201" y="473.5405">*</text><path d="M114.443,107.136 C123.285,126.724 136.25,155.447 147.323,179.978 " fill="none" style="stroke: #A80036; stroke-width: 1.0;"/><polygon fill="#A80036" points="152.744,191.988,153.9212,184.8736,147.8068,181.0507,146.6296,188.1651,152.744,191.988" style="stroke: #A80036; stroke-width: 1.0;"/><text fill="#000000" font-family="sans-serif" font-size="13" lengthAdjust="spacingAndGlyphs" textLength="7" x="142.1015" y="180.8962">*</text><path d="M100.2203,107.011 C97.0356,127.632 92.73,158.742 91,186 C88.579,224.145 85.7198,234.144 91,272 C100.6886,341.461 125.718,419.206 142.29,465.7063 " fill="none" style="stroke: #A80036; stroke-width: 1.0;"/><polygon fill="#A80036" points="146.72,477.9603,148.4415,470.9577,142.6397,466.6753,140.9182,473.6779,146.72,477.9603" style="stroke: #A80036; stroke-width: 1.0;"/><text fill="#000000" font-family="sans-serif" font-size="13" lengthAdjust="spacingAndGlyphs" textLength="7" x="136.4869" y="466.7419">*</text><path d="M283,107.242 C283,152.791 283,254.913 283,318.76 " fill="none" style="stroke: #A80036; stroke-width: 1.0;"/><polygon fill="#A80036" points="283,331.77,287,325.77,283,319.77,279,325.77,283,331.77" style="stroke: #A80036; stroke-width: 1.0;"/><text fill="#000000" font-family="sans-serif" font-size="13" lengthAdjust="spacingAndGlyphs" textLength="7" x="275.4641" y="321.0473">*</text><path d="M307.582,107.136 C327.506,125.888 356.327,153.013 381.618,176.817 " fill="none" style="stroke: #A80036; stroke-width: 1.0;"/><polygon fill="#A80036" points="391.113,185.753,389.4846,178.7282,382.3738,177.5294,384.0022,184.5543,391.113,185.753" style="stroke: #A80036; stroke-width: 1.0;"/><text fill="#000000" font-family="sans-serif" font-size="13" lengthAdjust="spacingAndGlyphs" textLength="7" x="376.7037" y="175.0277">*</text><path d="M391.335,272.038 C374.441,287.938 355.026,306.21 337.341,322.855 " fill="none" style="stroke: #A80036; stroke-width: 1.0;"/><polygon fill="#A80036" points="327.721,331.91,334.8316,330.7102,336.4589,323.6851,329.3483,324.8849,327.721,331.91" style="stroke: #A80036; stroke-width: 1.0;"/><path d="M443.59,272.038 C446.967,290.742 450.937,312.73 454.324,331.489 " fill="none" style="stroke: #A80036; stroke-width: 1.0;"/><polygon fill="#A80036" points="456.671,344.485,459.5413,337.8698,454.5389,332.6759,451.6686,339.2912,456.671,344.485" style="stroke: #A80036; stroke-width: 1.0;"/><path d="M523.579,272.038 C567.748,293.239 620.706,318.659 662.695,338.814 " fill="none" style="stroke: #A80036; stroke-width: 1.0;"/><polygon fill="#A80036" points="674.51,344.485,670.8318,338.2825,663.6918,339.2921,667.3699,345.4946,674.51,344.485" style="stroke: #A80036; stroke-width: 1.0;"/><path d="M543.82,126.038 C556.83,143.225 571.937,163.183 585.32,180.862 " fill="none" style="stroke: #A80036; stroke-width: 1.0;"/><polygon fill="#A80036" points="593.395,191.53,592.9629,184.3319,586.1522,181.9622,586.5844,189.1604,593.395,191.53" style="stroke: #A80036; stroke-width: 1.0;"/><path d="M580.878,266.337 C557.533,287.479 528.129,314.11 504.405,335.595 " fill="none" style="stroke: #A80036; stroke-width: 1.0;"/><polygon fill="#A80036" points="494.62,344.458,501.7523,343.395,503.5142,336.4024,496.3819,337.4655,494.62,344.458" style="stroke: #A80036; stroke-width: 1.0;"/><path d="M570.359,262.73 C564.592,266.021 558.727,269.182 553,272 C543.417,276.715 426.823,320.398 350.017,349.049 " fill="none" style="stroke: #A80036; stroke-width: 1.0;"/><polygon fill="#A80036" points="337.585,353.684,344.6045,355.3353,348.8286,349.4909,341.8091,347.8396,337.585,353.684" style="stroke: #A80036; stroke-width: 1.0;"/><path d="M197.767,266.337 C211.007,283.061 226.965,303.219 241.476,321.548 " fill="none" style="stroke: #A80036; stroke-width: 1.0;"/><polygon fill="#A80036" points="249.591,331.799,249.0033,324.6119,242.143,322.3901,242.7307,329.5772,249.591,331.799" style="stroke: #A80036; stroke-width: 1.0;"/><path d="M646.213,508.5 C653.516,508.5 660.819,508.5 668.121,508.5 " fill="none" style="stroke: #A80036; stroke-width: 1.0;"/><polygon fill="#A80036" points="681.267,508.5,675.267,504.5,669.267,508.5,675.267,512.5,681.267,508.5" style="stroke: #A80036; stroke-width: 1.0;"/><text fill="#000000" font-family="sans-serif" font-size="13" lengthAdjust="spacingAndGlyphs" textLength="7" x="666.4675" y="504.8352">*</text><path d="M242.761,418.331 C227.512,434.373 210.23,452.5538 195.267,468.2952 " fill="none" style="stroke: #A80036; stroke-width: 1.0;"/><polygon fill="#A80036" points="186.289,477.7402,193.322,476.1476,194.557,469.0431,187.524,470.6356,186.289,477.7402" style="stroke: #A80036; stroke-width: 1.0;"/><path d="M790.694,126.168 C778.587,181.026 757.552,276.34 745.4,331.406 " fill="none" style="stroke: #A80036; stroke-width: 1.0;"/><polygon fill="#A80036" points="742.585,344.161,747.784,339.164,745.171,332.443,739.972,337.44,742.585,344.161" style="stroke: #A80036; stroke-width: 1.0;"/><path d="M747.745,126.038 C725.283,144.107 699.013,165.241 676.232,183.568 " fill="none" style="stroke: #A80036; stroke-width: 1.0;"/><polygon fill="#A80036" points="666.037,191.769,673.2193,191.1246,675.3868,184.247,668.2046,184.8914,666.037,191.769" style="stroke: #A80036; stroke-width: 1.0;"/></g></svg>