<?xml version="1.0" encoding="UTF-8" standalone="yes"?><svg xmlns="http://www.w3.org/2000/svg" xmlns:xlink="http://www.w3.org/1999/xlink" height="335px" style="width:318px;height:335px;" version="1.1" viewBox="0 0 318 335" width="318px"><defs><filter height="300%" id="fmo1vgz" width="300%" x="-1" y="-1"><feGaussianBlur result="blurOut" stdDeviation="2.0"/><feColorMatrix in="blurOut" result="blurOut2" type="matrix" values="0 0 0 0 0 0 0 0 0 0 0 0 0 0 0 0 0 0 .4 0"/><feOffset dx="4.0" dy="4.0" in="blurOut2" result="blurOut3"/><feBlend in="SourceGraphic" in2="blurOut3" mode="normal"/></filter></defs><g><!--cluster Drools--><rect fill="#FEFECE" filter="url(#fmo1vgz)" height="211" rx="12.5" ry="12.5" style="stroke: #A80036; stroke-width: 1.5;" width="289" x="22" y="53"/><rect fill="#FFFFFF" height="178.7031" rx="12.5" ry="12.5" style="stroke: #FFFFFF; stroke-width: 1.0;" width="283" x="25" y="82.2969"/><line style="stroke: #A80036; stroke-width: 1.5;" x1="22" x2="311" y1="79.2969" y2="79.2969"/><text fill="#000000" font-family="sans-serif" font-size="14" lengthAdjust="spacingAndGlyphs" textLength="46" x="143.5" y="69.9951">Drools</text><rect fill="#FEFECE" filter="url(#fmo1vgz)" height="50" rx="12.5" ry="12.5" style="stroke: #A80036; stroke-width: 1.5;" width="136" x="38" y="88"/><line style="stroke: #A80036; stroke-width: 1.5;" x1="38" x2="174" y1="114.2969" y2="114.2969"/><text fill="#000000" font-family="sans-serif" font-size="14" lengthAdjust="spacingAndGlyphs" textLength="116" x="48" y="105.9951">PatternMatching</text><rect fill="#FEFECE" filter="url(#fmo1vgz)" height="50" rx="12.5" ry="12.5" style="stroke: #A80036; stroke-width: 1.5;" width="86" x="209" y="88"/><line style="stroke: #A80036; stroke-width: 1.5;" x1="209" x2="295" y1="114.2969" y2="114.2969"/><text fill="#000000" font-family="sans-serif" font-size="14" lengthAdjust="spacingAndGlyphs" textLength="66" x="219" y="105.9951">LowLevel</text><rect fill="#FEFECE" filter="url(#fmo1vgz)" height="50" rx="12.5" ry="12.5" style="stroke: #A80036; stroke-width: 1.5;" width="91" x="77.5" y="198"/><line style="stroke: #A80036; stroke-width: 1.5;" x1="77.5" x2="168.5" y1="224.2969" y2="224.2969"/><text fill="#000000" font-family="sans-serif" font-size="14" lengthAdjust="spacingAndGlyphs" textLength="71" x="87.5" y="215.9951">HighLevel</text><rect fill="#FEFECE" filter="url(#fmo1vgz)" height="50" rx="12.5" ry="12.5" style="stroke: #A80036; stroke-width: 1.5;" width="60" x="204" y="198"/><line style="stroke: #A80036; stroke-width: 1.5;" x1="204" x2="264" y1="224.2969" y2="224.2969"/><text fill="#000000" font-family="sans-serif" font-size="14" lengthAdjust="spacingAndGlyphs" textLength="40" x="214" y="215.9951">Reply</text><ellipse cx="106" cy="18" fill="#000000" filter="url(#fmo1vgz)" rx="10" ry="10" style="stroke: none; stroke-width: 1.0;"/><ellipse cx="234" cy="318" fill="none" filter="url(#fmo1vgz)" rx="10" ry="10" style="stroke: #000000; stroke-width: 1.0;"/><ellipse cx="234.5" cy="318.5" fill="#000000" rx="6" ry="6" style="stroke: none; stroke-width: 1.0;"/><path d="M174.152,113 C183.993,113 193.833,113 203.673,113 " fill="none" style="stroke: #A80036; stroke-width: 1.0;"/><polygon fill="#A80036" points="208.819,113,199.819,109,203.819,113,199.819,117,208.819,113" style="stroke: #A80036; stroke-width: 1.0;"/><path d="M109.815,138.237 C112.352,154.357 115.7,175.621 118.387,192.691 " fill="none" style="stroke: #A80036; stroke-width: 1.0;"/><polygon fill="#A80036" points="119.198,197.844,121.7481,188.331,118.4196,192.905,113.8456,189.5765,119.198,197.844" style="stroke: #A80036; stroke-width: 1.0;"/><path d="M168.527,204.855 C178.638,203.628 188.748,204.267 198.858,206.773 " fill="none" style="stroke: #A80036; stroke-width: 1.0;"/><polygon fill="#A80036" points="203.821,208.153,196.2222,201.8873,199.0039,206.813,194.0782,209.5947,203.821,208.153" style="stroke: #A80036; stroke-width: 1.0;"/><path d="M203.821,237.8471 C193.803,240.9355 183.785,242.191 173.766,241.6136 " fill="none" style="stroke: #A80036; stroke-width: 1.0;"/><polygon fill="#A80036" points="168.527,241.1446,177.1346,245.931,173.5071,241.5903,177.8477,237.9628,168.527,241.1446" style="stroke: #A80036; stroke-width: 1.0;"/><path d="M247.96,138.237 C245.274,154.357 241.73,175.621 238.885,192.691 " fill="none" style="stroke: #A80036; stroke-width: 1.0;"/><polygon fill="#A80036" points="238.026,197.844,243.4504,189.6235,238.8475,192.912,235.5591,188.3091,238.026,197.844" style="stroke: #A80036; stroke-width: 1.0;"/><path d="M106,28.257 C106,40.856 106,63.981 106,82.743 " fill="none" style="stroke: #A80036; stroke-width: 1.0;"/><polygon fill="#A80036" points="106,87.907,110,78.907,106,82.907,102,78.907,106,87.907" style="stroke: #A80036; stroke-width: 1.0;"/><path d="M234,248.4347 C234,265.5384 234,287.827 234,302.2736 " fill="none" style="stroke: #A80036; stroke-width: 1.0;"/><polygon fill="#A80036" points="234,307.5817,238,298.5817,234,302.5817,230,298.5817,234,307.5817" style="stroke: #A80036; stroke-width: 1.0;"/></g></svg>