<?xml version="1.0" encoding="UTF-8" standalone="yes"?><svg xmlns="http://www.w3.org/2000/svg" xmlns:xlink="http://www.w3.org/1999/xlink" height="177px" style="width:322px;height:177px;" version="1.1" viewBox="0 0 322 177" width="322px"><defs><filter height="300%" id="fwb4fg2" width="300%" x="-1" y="-1"><feGaussianBlur result="blurOut" stdDeviation="2.0"/><feColorMatrix in="blurOut" result="blurOut2" type="matrix" values="0 0 0 0 0 0 0 0 0 0 0 0 0 0 0 0 0 0 .4 0"/><feOffset dx="4.0" dy="4.0" in="blurOut2" result="blurOut3"/><feBlend in="SourceGraphic" in2="blurOut3" mode="normal"/></filter></defs><g><ellipse cx="16" cy="33" fill="#000000" filter="url(#fwb4fg2)" rx="10" ry="10" style="stroke: none; stroke-width: 1.0;"/><rect fill="#FEFECE" filter="url(#fwb4fg2)" height="50" rx="12.5" ry="12.5" style="stroke: #A80036; stroke-width: 1.5;" width="71" x="61.5" y="8"/><line style="stroke: #A80036; stroke-width: 1.5;" x1="61.5" x2="132.5" y1="34.2969" y2="34.2969"/><text fill="#000000" font-family="sans-serif" font-size="14" lengthAdjust="spacingAndGlyphs" textLength="51" x="71.5" y="25.9951">Pattern</text><rect fill="#FEFECE" filter="url(#fwb4fg2)" height="50" rx="12.5" ry="12.5" style="stroke: #A80036; stroke-width: 1.5;" width="88" x="172" y="8"/><line style="stroke: #A80036; stroke-width: 1.5;" x1="172" x2="260" y1="34.2969" y2="34.2969"/><text fill="#000000" font-family="sans-serif" font-size="14" lengthAdjust="spacingAndGlyphs" textLength="68" x="182" y="25.9951">Template</text><rect fill="#FEFECE" filter="url(#fwb4fg2)" height="50" rx="12.5" ry="12.5" style="stroke: #A80036; stroke-width: 1.5;" width="66" x="57" y="118"/><line style="stroke: #A80036; stroke-width: 1.5;" x1="57" x2="123" y1="144.2969" y2="144.2969"/><text fill="#000000" font-family="sans-serif" font-size="14" lengthAdjust="spacingAndGlyphs" textLength="46" x="67" y="135.9951">Drools</text><rect fill="#FEFECE" filter="url(#fwb4fg2)" height="50" rx="12.5" ry="12.5" style="stroke: #A80036; stroke-width: 1.5;" width="123" x="158.5" y="118"/><line style="stroke: #A80036; stroke-width: 1.5;" x1="158.5" x2="281.5" y1="144.2969" y2="144.2969"/><text fill="#000000" font-family="sans-serif" font-size="14" lengthAdjust="spacingAndGlyphs" textLength="103" x="168.5" y="135.9951">ReadDroolTag</text><ellipse cx="305" cy="33" fill="none" filter="url(#fwb4fg2)" rx="10" ry="10" style="stroke: #000000; stroke-width: 1.0;"/><ellipse cx="305.5" cy="33.5" fill="#000000" rx="6" ry="6" style="stroke: none; stroke-width: 1.0;"/><path d="M26.125,33 C36.1055,33 46.086,33 56.0665,33 " fill="none" style="stroke: #A80036; stroke-width: 1.0;"/><polygon fill="#A80036" points="61.2856,33,52.2856,29,56.2856,33,52.2856,37,61.2856,33" style="stroke: #A80036; stroke-width: 1.0;"/><path d="M132.793,33 C144.067,33 155.342,33 166.616,33 " fill="none" style="stroke: #A80036; stroke-width: 1.0;"/><polygon fill="#A80036" points="171.796,33,162.796,29,166.796,33,162.796,37,171.796,33" style="stroke: #A80036; stroke-width: 1.0;"/><path d="M95.4291,58.237 C94.3843,74.3565 93.006,95.6212 91.8997,112.6911 " fill="none" style="stroke: #A80036; stroke-width: 1.0;"/><polygon fill="#A80036" points="91.5657,117.8436,96.1397,109.1213,91.8893,112.8541,88.1565,108.6036,91.5657,117.8436" style="stroke: #A80036; stroke-width: 1.0;"/><path d="M118.182,117.8436 C137.616,101.1864 163.493,79.006 183.75,61.643 " fill="none" style="stroke: #A80036; stroke-width: 1.0;"/><polygon fill="#A80036" points="187.723,58.237,178.2869,61.0583,183.9271,61.4914,183.494,67.1317,187.723,58.237" style="stroke: #A80036; stroke-width: 1.0;"/><path d="M206.054,58.237 C204.344,74.3565 204.918,95.6212 207.432,112.6911 " fill="none" style="stroke: #A80036; stroke-width: 1.0;"/><polygon fill="#A80036" points="208.274,117.8436,210.7703,108.3163,207.4677,112.909,202.875,109.6065,208.274,117.8436" style="stroke: #A80036; stroke-width: 1.0;"/><path d="M230.574,117.8436 C232.428,101.7416 231.874,80.4785 229.257,63.395 " fill="none" style="stroke: #A80036; stroke-width: 1.0;"/><polygon fill="#A80036" points="228.379,58.237,225.9453,67.7804,229.2177,63.1662,233.8319,66.4386,228.379,58.237" style="stroke: #A80036; stroke-width: 1.0;"/><path d="M260.152,33 C269.998,33 279.844,33 289.69,33 " fill="none" style="stroke: #A80036; stroke-width: 1.0;"/><polygon fill="#A80036" points="294.839,33,285.839,29,289.839,33,285.839,37,294.839,33" style="stroke: #A80036; stroke-width: 1.0;"/></g></svg>