<?xml version="1.0" encoding="UTF-8" standalone="yes"?><svg xmlns="http://www.w3.org/2000/svg" xmlns:xlink="http://www.w3.org/1999/xlink" height="805px" style="width:717px;height:805px;" version="1.1" viewBox="0 0 717 805" width="717px"><defs><filter height="300%" id="f02hw8a" width="300%" x="-1" y="-1"><feGaussianBlur result="blurOut" stdDeviation="2.0"/><feColorMatrix in="blurOut" result="blurOut2" type="matrix" values="0 0 0 0 0 0 0 0 0 0 0 0 0 0 0 0 0 0 .4 0"/><feOffset dx="4.0" dy="4.0" in="blurOut2" result="blurOut3"/><feBlend in="SourceGraphic" in2="blurOut3" mode="normal"/></filter></defs><g><text fill="#000000" font-family="sans-serif" font-size="18" lengthAdjust="spacingAndGlyphs" textLength="100" x="90.5" y="29.4531">WebSocket</text><line style="stroke: #000000; stroke-width: 2.0;" x1="10" x2="10" y1="12.7451" y2="798.3857"/><ellipse cx="140.5" cy="43.6982" fill="#000000" filter="url(#f02hw8a)" rx="10" ry="10" style="stroke: none; stroke-width: 1.0;"/><rect fill="#FEFECE" filter="url(#f02hw8a)" height="33.9688" rx="12.5" ry="12.5" style="stroke: #A80036; stroke-width: 1.5;" width="189" x="46" y="88.6982"/><text fill="#000000" font-family="sans-serif" font-size="12" lengthAdjust="spacingAndGlyphs" textLength="169" x="56" y="109.8369">Receve StartGame message</text><rect fill="#FEFECE" filter="url(#f02hw8a)" height="33.9688" rx="12.5" ry="12.5" style="stroke: #A80036; stroke-width: 1.5;" width="241" x="20" y="709.417"/><text fill="#000000" font-family="sans-serif" font-size="12" lengthAdjust="spacingAndGlyphs" textLength="221" x="30" y="730.5557">put game id in websocket user prefs</text><ellipse cx="140.5" cy="788.3857" fill="none" filter="url(#f02hw8a)" rx="10" ry="10" style="stroke: #000000; stroke-width: 1.0;"/><ellipse cx="141" cy="788.8857" fill="#000000" filter="url(#f02hw8a)" rx="6" ry="6" style="stroke: none; stroke-width: 1.0;"/><rect fill="#FFDEEE" height="785.6406" style="stroke: #FFDEEE; stroke-width: 1.0;" width="251" x="271" y="12.7451"/><text fill="#000000" font-family="sans-serif" font-size="18" lengthAdjust="spacingAndGlyphs" textLength="60" x="366.5" y="29.4531">Engine</text><line style="stroke: #000000; stroke-width: 2.0;" x1="271" x2="271" y1="12.7451" y2="798.3857"/><rect fill="#FEFECE" filter="url(#f02hw8a)" height="33.9688" rx="12.5" ry="12.5" style="stroke: #A80036; stroke-width: 1.5;" width="115" x="339" y="157.667"/><text fill="#000000" font-family="sans-serif" font-size="12" lengthAdjust="spacingAndGlyphs" textLength="95" x="349" y="178.8057">Start kie thread</text><rect fill="#FEFECE" filter="url(#f02hw8a)" height="33.9688" rx="12.5" ry="12.5" style="stroke: #A80036; stroke-width: 1.5;" width="231" x="281" y="640.4482"/><text fill="#000000" font-family="sans-serif" font-size="12" lengthAdjust="spacingAndGlyphs" textLength="211" x="291" y="661.5869">Insert file reader results into Drools</text><rect fill="#EEEDFF" height="785.6406" style="stroke: #EEEDFF; stroke-width: 1.0;" width="194" x="522" y="12.7451"/><text fill="#000000" font-family="sans-serif" font-size="18" lengthAdjust="spacingAndGlyphs" textLength="95" x="571.5" y="29.4531">File reader</text><line style="stroke: #000000; stroke-width: 2.0;" x1="522" x2="522" y1="12.7451" y2="798.3857"/><rect fill="#FEFECE" filter="url(#f02hw8a)" height="33.9688" rx="12.5" ry="12.5" style="stroke: #A80036; stroke-width: 1.5;" width="124" x="557" y="226.6357"/><text fill="#000000" font-family="sans-serif" font-size="12" lengthAdjust="spacingAndGlyphs" textLength="104" x="567" y="247.7744">Read symbol files</text><rect fill="#FEFECE" filter="url(#f02hw8a)" height="33.9688" rx="12.5" ry="12.5" style="stroke: #A80036; stroke-width: 1.5;" width="146" x="546" y="295.6045"/><text fill="#000000" font-family="sans-serif" font-size="12" lengthAdjust="spacingAndGlyphs" textLength="126" x="556" y="316.7432">Construct symbol db</text><rect fill="#FEFECE" filter="url(#f02hw8a)" height="33.9688" rx="12.5" ry="12.5" style="stroke: #A80036; stroke-width: 1.5;" width="148" x="545" y="364.5732"/><text fill="#000000" font-family="sans-serif" font-size="12" lengthAdjust="spacingAndGlyphs" textLength="128" x="555" y="385.7119">Read connection files</text><rect fill="#FEFECE" filter="url(#f02hw8a)" height="33.9688" rx="12.5" ry="12.5" style="stroke: #A80036; stroke-width: 1.5;" width="174" x="532" y="433.542"/><text fill="#000000" font-family="sans-serif" font-size="12" lengthAdjust="spacingAndGlyphs" textLength="150" x="542" y="454.6807">Construct connection db</text><rect fill="#FEFECE" filter="url(#f02hw8a)" height="33.9688" rx="12.5" ry="12.5" style="stroke: #A80036; stroke-width: 1.5;" width="117" x="560.5" y="502.5107"/><text fill="#000000" font-family="sans-serif" font-size="12" lengthAdjust="spacingAndGlyphs" textLength="97" x="570.5" y="523.6494">Read believe file</text><rect fill="#FEFECE" filter="url(#f02hw8a)" height="33.9688" rx="12.5" ry="12.5" style="stroke: #A80036; stroke-width: 1.5;" width="159" x="539.5" y="571.4795"/><text fill="#000000" font-family="sans-serif" font-size="12" lengthAdjust="spacingAndGlyphs" textLength="139" x="549.5" y="592.6182">Construct patttern dbs</text><line style="stroke: #000000; stroke-width: 2.0;" x1="716" x2="716" y1="12.7451" y2="798.3857"/><line style="stroke: #A80036; stroke-width: 1.5;" x1="140.5" x2="140.5" y1="53.6982" y2="88.6982"/><polygon fill="#A80036" points="136.5,78.6982,140.5,88.6982,144.5,78.6982,140.5,82.6982" style="stroke: #A80036; stroke-width: 1.0;"/><line style="stroke: #A80036; stroke-width: 1.5;" x1="140.5" x2="140.5" y1="743.3857" y2="778.3857"/><polygon fill="#A80036" points="136.5,768.3857,140.5,778.3857,144.5,768.3857,140.5,772.3857" style="stroke: #A80036; stroke-width: 1.0;"/><line style="stroke: #A80036; stroke-width: 1.5;" x1="619" x2="619" y1="260.6045" y2="295.6045"/><polygon fill="#A80036" points="615,285.6045,619,295.6045,623,285.6045,619,289.6045" style="stroke: #A80036; stroke-width: 1.0;"/><line style="stroke: #A80036; stroke-width: 1.5;" x1="619" x2="619" y1="329.5732" y2="364.5732"/><polygon fill="#A80036" points="615,354.5732,619,364.5732,623,354.5732,619,358.5732" style="stroke: #A80036; stroke-width: 1.0;"/><line style="stroke: #A80036; stroke-width: 1.5;" x1="619" x2="619" y1="398.542" y2="433.542"/><polygon fill="#A80036" points="615,423.542,619,433.542,623,423.542,619,427.542" style="stroke: #A80036; stroke-width: 1.0;"/><line style="stroke: #A80036; stroke-width: 1.5;" x1="619" x2="619" y1="467.5107" y2="502.5107"/><polygon fill="#A80036" points="615,492.5107,619,502.5107,623,492.5107,619,496.5107" style="stroke: #A80036; stroke-width: 1.0;"/><line style="stroke: #A80036; stroke-width: 1.5;" x1="619" x2="619" y1="536.4795" y2="571.4795"/><polygon fill="#A80036" points="615,561.4795,619,571.4795,623,561.4795,619,565.4795" style="stroke: #A80036; stroke-width: 1.0;"/><line style="stroke: #A80036; stroke-width: 1.5;" x1="140.5" x2="140.5" y1="122.667" y2="140.167"/><line style="stroke: #A80036; stroke-width: 1.5;" x1="140.5" x2="396.5" y1="140.167" y2="140.167"/><line style="stroke: #A80036; stroke-width: 1.5;" x1="396.5" x2="396.5" y1="140.167" y2="157.667"/><polygon fill="#A80036" points="392.5,147.667,396.5,157.667,400.5,147.667,396.5,151.667" style="stroke: #A80036; stroke-width: 1.0;"/><line style="stroke: #A80036; stroke-width: 1.5;" x1="396.5" x2="396.5" y1="191.6357" y2="209.1357"/><line style="stroke: #A80036; stroke-width: 1.5;" x1="396.5" x2="619" y1="209.1357" y2="209.1357"/><line style="stroke: #A80036; stroke-width: 1.5;" x1="619" x2="619" y1="209.1357" y2="226.6357"/><polygon fill="#A80036" points="615,216.6357,619,226.6357,623,216.6357,619,220.6357" style="stroke: #A80036; stroke-width: 1.0;"/><line style="stroke: #A80036; stroke-width: 1.5;" x1="619" x2="619" y1="605.4482" y2="622.9482"/><line style="stroke: #A80036; stroke-width: 1.5;" x1="619" x2="396.5" y1="622.9482" y2="622.9482"/><line style="stroke: #A80036; stroke-width: 1.5;" x1="396.5" x2="396.5" y1="622.9482" y2="640.4482"/><polygon fill="#A80036" points="392.5,630.4482,396.5,640.4482,400.5,630.4482,396.5,634.4482" style="stroke: #A80036; stroke-width: 1.0;"/><line style="stroke: #A80036; stroke-width: 1.5;" x1="396.5" x2="396.5" y1="674.417" y2="691.917"/><line style="stroke: #A80036; stroke-width: 1.5;" x1="396.5" x2="140.5" y1="691.917" y2="691.917"/><line style="stroke: #A80036; stroke-width: 1.5;" x1="140.5" x2="140.5" y1="691.917" y2="709.417"/><polygon fill="#A80036" points="136.5,699.417,140.5,709.417,144.5,699.417,140.5,703.417" style="stroke: #A80036; stroke-width: 1.0;"/></g></svg>