<?xml version="1.0" encoding="UTF-8" standalone="yes"?><svg xmlns="http://www.w3.org/2000/svg" xmlns:xlink="http://www.w3.org/1999/xlink" height="1217px" style="width:826px;height:1217px;" version="1.1" viewBox="0 0 826 1217" width="826px"><defs><filter height="300%" id="f24osm2" width="300%" x="-1" y="-1"><feGaussianBlur result="blurOut" stdDeviation="2.0"/><feColorMatrix in="blurOut" result="blurOut2" type="matrix" values="0 0 0 0 0 0 0 0 0 0 0 0 0 0 0 0 0 0 .4 0"/><feOffset dx="4.0" dy="4.0" in="blurOut2" result="blurOut3"/><feBlend in="SourceGraphic" in2="blurOut3" mode="normal"/></filter></defs><g><text fill="#000000" font-family="sans-serif" font-size="18" lengthAdjust="spacingAndGlyphs" textLength="100" x="85.5" y="29.4531">WebSocket</text><line style="stroke: #000000; stroke-width: 2.0;" x1="10" x2="10" y1="12.7451" y2="1210.417"/><ellipse cx="191" cy="43.6982" fill="#000000" filter="url(#f24osm2)" rx="10" ry="10" style="stroke: none; stroke-width: 1.0;"/><rect fill="#FEFECE" filter="url(#f24osm2)" height="33.9688" rx="12.5" ry="12.5" style="stroke: #A80036; stroke-width: 1.5;" width="120" x="131" y="88.6982"/><text fill="#000000" font-family="sans-serif" font-size="12" lengthAdjust="spacingAndGlyphs" textLength="100" x="141" y="109.8369">Receve message</text><rect fill="#FEFECE" filter="url(#f24osm2)" height="33.9688" rx="12.5" ry="12.5" style="stroke: #A80036; stroke-width: 1.5;" width="106" x="138" y="157.667"/><text fill="#000000" font-family="sans-serif" font-size="12" lengthAdjust="spacingAndGlyphs" textLength="86" x="148" y="178.8057">Insert into KIE</text><ellipse cx="107.5" cy="418.5732" fill="none" filter="url(#f24osm2)" rx="10" ry="10" style="stroke: #000000; stroke-width: 1.0;"/><ellipse cx="108" cy="419.0732" fill="#000000" filter="url(#f24osm2)" rx="6" ry="6" style="stroke: none; stroke-width: 1.0;"/><rect fill="#FEFECE" filter="url(#f24osm2)" height="33.9688" rx="12.5" ry="12.5" style="stroke: #A80036; stroke-width: 1.5;" width="85" x="20" y="991.4482"/><text fill="#000000" font-family="sans-serif" font-size="12" lengthAdjust="spacingAndGlyphs" textLength="65" x="30" y="1012.5869">Send reply</text><ellipse cx="191" cy="1200.417" fill="none" filter="url(#f24osm2)" rx="10" ry="10" style="stroke: #000000; stroke-width: 1.0;"/><ellipse cx="191.5" cy="1200.917" fill="#000000" filter="url(#f24osm2)" rx="6" ry="6" style="stroke: none; stroke-width: 1.0;"/><rect fill="#CCDDDD" height="1197.6719" style="stroke: #CCDDDD; stroke-width: 1.0;" width="339" x="261" y="12.7451"/><text fill="#000000" font-family="sans-serif" font-size="18" lengthAdjust="spacingAndGlyphs" textLength="48" x="406.5" y="29.4531">Drool</text><line style="stroke: #000000; stroke-width: 2.0;" x1="261" x2="261" y1="12.7451" y2="1210.417"/><rect fill="#FEFECE" filter="url(#f24osm2)" height="33.9688" rx="12.5" ry="12.5" style="stroke: #A80036; stroke-width: 1.5;" width="243" x="289" y="226.6357"/><text fill="#000000" font-family="sans-serif" font-size="12" lengthAdjust="spacingAndGlyphs" textLength="223" x="299" y="247.7744">Pattern match symbol from message</text><polygon fill="#FEFECE" filter="url(#f24osm2)" points="349,295.6045,472,295.6045,484,307.6045,472,319.6045,349,319.6045,337,307.6045,349,295.6045" style="stroke: #A80036; stroke-width: 1.5;"/><text fill="#000000" font-family="sans-serif" font-size="11" lengthAdjust="spacingAndGlyphs" textLength="123" x="349" y="311.4126">quick response rules?</text><text fill="#000000" font-family="sans-serif" font-size="11" lengthAdjust="spacingAndGlyphs" textLength="20" x="317" y="305.0103">yes</text><rect fill="#FEFECE" filter="url(#f24osm2)" height="33.9688" rx="12.5" ry="12.5" style="stroke: #A80036; stroke-width: 1.5;" width="107" x="273.5" y="339.6045"/><text fill="#000000" font-family="sans-serif" font-size="12" lengthAdjust="spacingAndGlyphs" textLength="87" x="283.5" y="360.7432">Do quick reply</text><rect fill="#FEFECE" filter="url(#f24osm2)" height="33.9688" rx="12.5" ry="12.5" style="stroke: #A80036; stroke-width: 1.5;" width="178" x="321.5" y="527.5732"/><text fill="#000000" font-family="sans-serif" font-size="12" lengthAdjust="spacingAndGlyphs" textLength="158" x="331.5" y="548.7119">Create initial dialogue tree</text><polygon fill="#FEFECE" filter="url(#f24osm2)" points="321,596.542,500,596.542,512,608.542,500,620.542,321,620.542,309,608.542,321,596.542" style="stroke: #A80036; stroke-width: 1.5;"/><text fill="#000000" font-family="sans-serif" font-size="11" lengthAdjust="spacingAndGlyphs" textLength="179" x="321" y="612.3501">has next function in personality</text><polygon fill="#FEFECE" filter="url(#f24osm2)" points="309,737.5107,512,737.5107,524,749.5107,512,761.5107,309,761.5107,297,749.5107,309,737.5107" style="stroke: #A80036; stroke-width: 1.5;"/><text fill="#000000" font-family="sans-serif" font-size="11" lengthAdjust="spacingAndGlyphs" textLength="203" x="309" y="753.3188">has previous function in personality</text><rect fill="#FEFECE" filter="url(#f24osm2)" height="33.9688" rx="12.5" ry="12.5" style="stroke: #A80036; stroke-width: 1.5;" width="190" x="315.5" y="878.4795"/><text fill="#000000" font-family="sans-serif" font-size="12" lengthAdjust="spacingAndGlyphs" textLength="170" x="325.5" y="899.6182">Get reply from dialogue tree</text><polygon fill="#FEFECE" filter="url(#f24osm2)" points="304,947.4482,517,947.4482,529,959.4482,517,971.4482,304,971.4482,292,959.4482,304,947.4482" style="stroke: #A80036; stroke-width: 1.5;"/><text fill="#000000" font-family="sans-serif" font-size="11" lengthAdjust="spacingAndGlyphs" textLength="213" x="304" y="963.2563">Most preffered response is from self?</text><text fill="#000000" font-family="sans-serif" font-size="11" lengthAdjust="spacingAndGlyphs" textLength="20" x="272" y="956.854">yes</text><polygon fill="#FEFECE" filter="url(#f24osm2)" points="410.5,1035.417,422.5,1047.417,410.5,1059.417,398.5,1047.417,410.5,1035.417" style="stroke: #A80036; stroke-width: 1.5;"/><polygon fill="#FEFECE" filter="url(#f24osm2)" points="410.5,479.5732,422.5,491.5732,410.5,503.5732,398.5,491.5732,410.5,479.5732" style="stroke: #A80036; stroke-width: 1.5;"/><polygon fill="#FEFECE" filter="url(#f24osm2)" points="376,1131.417,445,1131.417,457,1143.417,445,1155.417,376,1155.417,364,1143.417,376,1131.417" style="stroke: #A80036; stroke-width: 1.5;"/><text fill="#000000" font-family="sans-serif" font-size="11" lengthAdjust="spacingAndGlyphs" textLength="69" x="376" y="1147.2251">Reply send?</text><text fill="#000000" font-family="sans-serif" font-size="11" lengthAdjust="spacingAndGlyphs" textLength="20" x="457" y="1140.8228">yes</text><rect fill="#FAEBD7" height="1197.6719" style="stroke: #FAEBD7; stroke-width: 1.0;" width="191" x="600" y="12.7451"/><text fill="#000000" font-family="sans-serif" font-size="18" lengthAdjust="spacingAndGlyphs" textLength="99" x="646" y="29.4531">Personality</text><line style="stroke: #000000; stroke-width: 2.0;" x1="600" x2="600" y1="12.7451" y2="1210.417"/><rect fill="#FEFECE" filter="url(#f24osm2)" height="33.9688" rx="12.5" ry="12.5" style="stroke: #A80036; stroke-width: 1.5;" width="171" x="610" y="644.542"/><text fill="#000000" font-family="sans-serif" font-size="12" lengthAdjust="spacingAndGlyphs" textLength="151" x="620" y="665.6807">execute jungian function</text><rect fill="#FEFECE" filter="url(#f24osm2)" height="33.9688" rx="12.5" ry="12.5" style="stroke: #A80036; stroke-width: 1.5;" width="171" x="610" y="785.5107"/><text fill="#000000" font-family="sans-serif" font-size="12" lengthAdjust="spacingAndGlyphs" textLength="151" x="620" y="806.6494">execute jungian function</text><line style="stroke: #000000; stroke-width: 2.0;" x1="791" x2="791" y1="12.7451" y2="1210.417"/><polygon fill="#A80036" points="805,653.5264,809,643.5264,813,653.5264,809,649.5264" style="stroke: #A80036; stroke-width: 1.0;"/><polygon fill="#A80036" points="817,794.4951,821,784.4951,825,794.4951,821,790.4951" style="stroke: #A80036; stroke-width: 1.0;"/><line style="stroke: #A80036; stroke-width: 1.5;" x1="191" x2="191" y1="53.6982" y2="88.6982"/><polygon fill="#A80036" points="187,78.6982,191,88.6982,195,78.6982,191,82.6982" style="stroke: #A80036; stroke-width: 1.0;"/><line style="stroke: #A80036; stroke-width: 1.5;" x1="191" x2="191" y1="122.667" y2="157.667"/><polygon fill="#A80036" points="187,147.667,191,157.667,195,147.667,191,151.667" style="stroke: #A80036; stroke-width: 1.0;"/><line style="stroke: #A80036; stroke-width: 1.5;" x1="337" x2="327" y1="307.6045" y2="307.6045"/><line style="stroke: #A80036; stroke-width: 1.5;" x1="327" x2="327" y1="307.6045" y2="339.6045"/><polygon fill="#A80036" points="323,329.6045,327,339.6045,331,329.6045,327,333.6045" style="stroke: #A80036; stroke-width: 1.0;"/><line style="stroke: #A80036; stroke-width: 1.5;" x1="484" x2="494" y1="307.6045" y2="307.6045"/><polygon fill="#A80036" points="490,366.0889,494,376.0889,498,366.0889,494,370.0889" style="stroke: #A80036; stroke-width: 1.5;"/><line style="stroke: #A80036; stroke-width: 1.5;" x1="494" x2="494" y1="307.6045" y2="444.5732"/><line style="stroke: #A80036; stroke-width: 1.5;" x1="494" x2="410.5" y1="444.5732" y2="444.5732"/><line style="stroke: #A80036; stroke-width: 1.5;" x1="410.5" x2="410.5" y1="444.5732" y2="479.5732"/><polygon fill="#A80036" points="406.5,469.5732,410.5,479.5732,414.5,469.5732,410.5,473.5732" style="stroke: #A80036; stroke-width: 1.0;"/><line style="stroke: #A80036; stroke-width: 1.5;" x1="410.5" x2="410.5" y1="260.6045" y2="295.6045"/><polygon fill="#A80036" points="406.5,285.6045,410.5,295.6045,414.5,285.6045,410.5,289.6045" style="stroke: #A80036; stroke-width: 1.0;"/><line style="stroke: #A80036; stroke-width: 1.5;" x1="309" x2="297" y1="608.542" y2="608.542"/><polygon fill="#A80036" points="293,645.5264,297,655.5264,301,645.5264,297,649.5264" style="stroke: #A80036; stroke-width: 1.5;"/><line style="stroke: #A80036; stroke-width: 1.5;" x1="297" x2="297" y1="608.542" y2="702.5107"/><line style="stroke: #A80036; stroke-width: 1.5;" x1="297" x2="410.5" y1="702.5107" y2="702.5107"/><line style="stroke: #A80036; stroke-width: 1.5;" x1="410.5" x2="410.5" y1="702.5107" y2="737.5107"/><polygon fill="#A80036" points="406.5,727.5107,410.5,737.5107,414.5,727.5107,410.5,731.5107" style="stroke: #A80036; stroke-width: 1.0;"/><line style="stroke: #A80036; stroke-width: 1.5;" x1="410.5" x2="410.5" y1="561.542" y2="596.542"/><polygon fill="#A80036" points="406.5,586.542,410.5,596.542,414.5,586.542,410.5,590.542" style="stroke: #A80036; stroke-width: 1.0;"/><line style="stroke: #A80036; stroke-width: 1.5;" x1="297" x2="285" y1="749.5107" y2="749.5107"/><polygon fill="#A80036" points="281,786.4951,285,796.4951,289,786.4951,285,790.4951" style="stroke: #A80036; stroke-width: 1.5;"/><line style="stroke: #A80036; stroke-width: 1.5;" x1="285" x2="285" y1="749.5107" y2="843.4795"/><line style="stroke: #A80036; stroke-width: 1.5;" x1="285" x2="410.5" y1="843.4795" y2="843.4795"/><line style="stroke: #A80036; stroke-width: 1.5;" x1="410.5" x2="410.5" y1="843.4795" y2="878.4795"/><polygon fill="#A80036" points="406.5,868.4795,410.5,878.4795,414.5,868.4795,410.5,872.4795" style="stroke: #A80036; stroke-width: 1.0;"/><line style="stroke: #A80036; stroke-width: 1.5;" x1="529" x2="539" y1="959.4482" y2="959.4482"/><polygon fill="#A80036" points="535,993.4326,539,1003.4326,543,993.4326,539,997.4326" style="stroke: #A80036; stroke-width: 1.5;"/><line style="stroke: #A80036; stroke-width: 1.5;" x1="539" x2="539" y1="959.4482" y2="1047.417"/><line style="stroke: #A80036; stroke-width: 1.5;" x1="539" x2="422.5" y1="1047.417" y2="1047.417"/><polygon fill="#A80036" points="432.5,1043.417,422.5,1047.417,432.5,1051.417,428.5,1047.417" style="stroke: #A80036; stroke-width: 1.0;"/><line style="stroke: #A80036; stroke-width: 1.5;" x1="410.5" x2="410.5" y1="912.4482" y2="947.4482"/><polygon fill="#A80036" points="406.5,937.4482,410.5,947.4482,414.5,937.4482,410.5,941.4482" style="stroke: #A80036; stroke-width: 1.0;"/><line style="stroke: #A80036; stroke-width: 1.5;" x1="410.5" x2="410.5" y1="503.5732" y2="527.5732"/><polygon fill="#A80036" points="406.5,517.5732,410.5,527.5732,414.5,517.5732,410.5,521.5732" style="stroke: #A80036; stroke-width: 1.0;"/><line style="stroke: #A80036; stroke-width: 1.5;" x1="457" x2="576" y1="1143.417" y2="1143.417"/><polygon fill="#A80036" points="572,827.4951,576,817.4951,580,827.4951,576,823.4951" style="stroke: #A80036; stroke-width: 1.5;"/><line style="stroke: #A80036; stroke-width: 1.5;" x1="576" x2="576" y1="491.5732" y2="1143.417"/><line style="stroke: #A80036; stroke-width: 1.5;" x1="576" x2="422.5" y1="491.5732" y2="491.5732"/><polygon fill="#A80036" points="432.5,487.5732,422.5,491.5732,432.5,495.5732,428.5,491.5732" style="stroke: #A80036; stroke-width: 1.0;"/><line style="stroke: #A80036; stroke-width: 1.5;" x1="410.5" x2="410.5" y1="1059.417" y2="1131.417"/><polygon fill="#A80036" points="406.5,1121.417,410.5,1131.417,414.5,1121.417,410.5,1125.417" style="stroke: #A80036; stroke-width: 1.0;"/><line style="stroke: #A80036; stroke-width: 1.5;" x1="191" x2="191" y1="191.6357" y2="209.1357"/><line style="stroke: #A80036; stroke-width: 1.5;" x1="191" x2="410.5" y1="209.1357" y2="209.1357"/><line style="stroke: #A80036; stroke-width: 1.5;" x1="410.5" x2="410.5" y1="209.1357" y2="226.6357"/><polygon fill="#A80036" points="406.5,216.6357,410.5,226.6357,414.5,216.6357,410.5,220.6357" style="stroke: #A80036; stroke-width: 1.0;"/><line style="stroke: #A80036; stroke-width: 1.5;" x1="327" x2="327" y1="373.5732" y2="391.0732"/><line style="stroke: #A80036; stroke-width: 1.5;" x1="327" x2="107.5" y1="391.0732" y2="391.0732"/><line style="stroke: #A80036; stroke-width: 1.5;" x1="107.5" x2="107.5" y1="391.0732" y2="408.5732"/><polygon fill="#A80036" points="103.5,398.5732,107.5,408.5732,111.5,398.5732,107.5,402.5732" style="stroke: #A80036; stroke-width: 1.0;"/><line style="stroke: #A80036; stroke-width: 1.5;" x1="410.5" x2="410.5" y1="620.542" y2="632.542"/><line style="stroke: #A80036; stroke-width: 1.5;" x1="410.5" x2="695.5" y1="632.542" y2="632.542"/><line style="stroke: #A80036; stroke-width: 1.5;" x1="695.5" x2="695.5" y1="632.542" y2="644.542"/><polygon fill="#A80036" points="691.5,634.542,695.5,644.542,699.5,634.542,695.5,638.542" style="stroke: #A80036; stroke-width: 1.0;"/><line style="stroke: #A80036; stroke-width: 1.5;" x1="695.5" x2="695.5" y1="678.5107" y2="690.5107"/><line style="stroke: #A80036; stroke-width: 1.5;" x1="695.5" x2="809" y1="690.5107" y2="690.5107"/><line style="stroke: #A80036; stroke-width: 1.5;" x1="809" x2="809" y1="608.542" y2="690.5107"/><line style="stroke: #A80036; stroke-width: 1.5;" x1="809" x2="512" y1="608.542" y2="608.542"/><polygon fill="#A80036" points="522,604.542,512,608.542,522,612.542,518,608.542" style="stroke: #A80036; stroke-width: 1.0;"/><line style="stroke: #A80036; stroke-width: 1.5;" x1="410.5" x2="410.5" y1="761.5107" y2="773.5107"/><line style="stroke: #A80036; stroke-width: 1.5;" x1="410.5" x2="695.5" y1="773.5107" y2="773.5107"/><line style="stroke: #A80036; stroke-width: 1.5;" x1="695.5" x2="695.5" y1="773.5107" y2="785.5107"/><polygon fill="#A80036" points="691.5,775.5107,695.5,785.5107,699.5,775.5107,695.5,779.5107" style="stroke: #A80036; stroke-width: 1.0;"/><line style="stroke: #A80036; stroke-width: 1.5;" x1="695.5" x2="695.5" y1="819.4795" y2="831.4795"/><line style="stroke: #A80036; stroke-width: 1.5;" x1="695.5" x2="821" y1="831.4795" y2="831.4795"/><line style="stroke: #A80036; stroke-width: 1.5;" x1="821" x2="821" y1="749.5107" y2="831.4795"/><line style="stroke: #A80036; stroke-width: 1.5;" x1="821" x2="524" y1="749.5107" y2="749.5107"/><polygon fill="#A80036" points="534,745.5107,524,749.5107,534,753.5107,530,749.5107" style="stroke: #A80036; stroke-width: 1.0;"/><line style="stroke: #A80036; stroke-width: 1.5;" x1="292" x2="62.5" y1="959.4482" y2="959.4482"/><line style="stroke: #A80036; stroke-width: 1.5;" x1="62.5" x2="62.5" y1="959.4482" y2="991.4482"/><polygon fill="#A80036" points="58.5,981.4482,62.5,991.4482,66.5,981.4482,62.5,985.4482" style="stroke: #A80036; stroke-width: 1.0;"/><line style="stroke: #A80036; stroke-width: 1.5;" x1="62.5" x2="62.5" y1="1025.417" y2="1047.417"/><line style="stroke: #A80036; stroke-width: 1.5;" x1="62.5" x2="398.5" y1="1047.417" y2="1047.417"/><polygon fill="#A80036" points="388.5,1043.417,398.5,1047.417,388.5,1051.417,392.5,1047.417" style="stroke: #A80036; stroke-width: 1.0;"/><line style="stroke: #A80036; stroke-width: 1.5;" x1="410.5" x2="410.5" y1="1155.417" y2="1172.917"/><line style="stroke: #A80036; stroke-width: 1.5;" x1="410.5" x2="191" y1="1172.917" y2="1172.917"/><line style="stroke: #A80036; stroke-width: 1.5;" x1="191" x2="191" y1="1172.917" y2="1190.417"/><polygon fill="#A80036" points="187,1180.417,191,1190.417,195,1180.417,191,1184.417" style="stroke: #A80036; stroke-width: 1.0;"/></g></svg>