<?xml version="1.0" encoding="UTF-8" standalone="yes"?><svg xmlns="http://www.w3.org/2000/svg" xmlns:xlink="http://www.w3.org/1999/xlink" height="638px" style="width:555px;height:638px;" version="1.1" viewBox="0 0 555 638" width="555px"><defs><filter height="300%" id="fqmnqdv" width="300%" x="-1" y="-1"><feGaussianBlur result="blurOut" stdDeviation="2.0"/><feColorMatrix in="blurOut" result="blurOut2" type="matrix" values="0 0 0 0 0 0 0 0 0 0 0 0 0 0 0 0 0 0 .4 0"/><feOffset dx="4.0" dy="4.0" in="blurOut2" result="blurOut3"/><feBlend in="SourceGraphic" in2="blurOut3" mode="normal"/></filter></defs><g><!--class JungFuncAccessor--><rect fill="#FEFECE" filter="url(#fqmnqdv)" height="60.8047" style="stroke: #A80036; stroke-width: 1.5;" width="336" x="6" y="569"/><ellipse cx="114.25" cy="585" fill="#B4A7E5" rx="11" ry="11" style="stroke: #A80036; stroke-width: 1.0;"/><path d="M110.6719,581 L110.6719,579 L118.0625,579 L118.0625,581 L115.5938,581 L115.5938,589 L118.0625,589 L118.0625,591 L110.6719,591 L110.6719,589 L113.1406,589 L113.1406,581 L110.6719,581 Z "/><text fill="#000000" font-family="sans-serif" font-size="12" font-style="italic" lengthAdjust="spacingAndGlyphs" textLength="111" x="134.75" y="589.1543">JungFuncAccessor</text><line style="stroke: #A80036; stroke-width: 1.5;" x1="7" x2="341" y1="601" y2="601"/><line style="stroke: #A80036; stroke-width: 1.5;" x1="7" x2="341" y1="609" y2="609"/><ellipse cx="17" cy="620.9023" fill="#84BE84" rx="3" ry="3" style="stroke: #038048; stroke-width: 1.0;"/><text fill="#000000" font-family="sans-serif" font-size="11" lengthAdjust="spacingAndGlyphs" textLength="310" x="26" y="623.2104">getFunction() : Function&lt;JungFuncArgs, JungFuncArgs&gt;</text><!--class NextFunction--><rect fill="#FEFECE" filter="url(#fqmnqdv)" height="60.8047" style="stroke: #A80036; stroke-width: 1.5;" width="278" x="131" y="448"/><ellipse cx="225.25" cy="464" fill="#B4A7E5" rx="11" ry="11" style="stroke: #A80036; stroke-width: 1.0;"/><path d="M221.6719,460 L221.6719,458 L229.0625,458 L229.0625,460 L226.5938,460 L226.5938,468 L229.0625,468 L229.0625,470 L221.6719,470 L221.6719,468 L224.1406,468 L224.1406,460 L221.6719,460 Z "/><text fill="#000000" font-family="sans-serif" font-size="12" font-style="italic" lengthAdjust="spacingAndGlyphs" textLength="81" x="245.75" y="468.1543">NextFunction</text><line style="stroke: #A80036; stroke-width: 1.5;" x1="132" x2="408" y1="480" y2="480"/><line style="stroke: #A80036; stroke-width: 1.5;" x1="132" x2="408" y1="488" y2="488"/><ellipse cx="142" cy="499.9023" fill="#84BE84" rx="3" ry="3" style="stroke: #038048; stroke-width: 1.0;"/><text fill="#000000" font-family="sans-serif" font-size="11" lengthAdjust="spacingAndGlyphs" textLength="252" x="151" y="502.2104">get():Pair&lt;JungFuncAccessor, NextFunction&gt;</text><!--class UnitNextFunction--><rect fill="#FEFECE" filter="url(#fqmnqdv)" height="60.8047" style="stroke: #A80036; stroke-width: 1.5;" width="284" x="262" y="327"/><ellipse cx="346.75" cy="343" fill="#ADD1B2" rx="11" ry="11" style="stroke: #A80036; stroke-width: 1.0;"/><path d="M349.7188,348 Q349.1406,348.5 348.5,348.75 Q347.8594,349 347.1563,349 Q344.6563,349 343.3359,347.4609 Q342.0156,345.9219 342.0156,343 Q342.0156,340.0781 343.3359,338.5391 Q344.6563,337 347.1563,337 Q347.8594,337 348.5078,337.25 Q349.1563,337.5 349.7188,338 L349.7188,341 Q349.0938,339.9688 348.5,339.4844 Q347.9063,339 347.2656,339 Q345.9375,339 345.25,340.0078 Q344.5625,341.0156 344.5625,343 Q344.5625,344.9844 345.25,345.9922 Q345.9375,347 347.2656,347 Q347.9063,347 348.5,346.5156 Q349.0938,346.0313 349.7188,345 L349.7188,348 Z "/><text fill="#000000" font-family="sans-serif" font-size="12" lengthAdjust="spacingAndGlyphs" textLength="106" x="367.25" y="347.1543">UnitNextFunction</text><line style="stroke: #A80036; stroke-width: 1.5;" x1="263" x2="545" y1="359" y2="359"/><rect fill="none" height="6" style="stroke: #C82930; stroke-width: 1.0;" width="6" x="270" y="367.9023"/><text fill="#000000" font-family="sans-serif" font-size="11" lengthAdjust="spacingAndGlyphs" textLength="258" x="282" y="373.2104">result:Pair&lt;JungFuncAccessor, NextFunction&gt;</text><line style="stroke: #A80036; stroke-width: 1.5;" x1="263" x2="545" y1="379.8047" y2="379.8047"/><!--class JungFuncArgs--><rect fill="#FEFECE" filter="url(#fqmnqdv)" height="124.8281" style="stroke: #A80036; stroke-width: 1.5;" width="347" x="130.5" y="142"/><ellipse cx="257.25" cy="158" fill="#ADD1B2" rx="11" ry="11" style="stroke: #A80036; stroke-width: 1.0;"/><path d="M260.2188,163 Q259.6406,163.5 259,163.75 Q258.3594,164 257.6563,164 Q255.1563,164 253.8359,162.4609 Q252.5156,160.9219 252.5156,158 Q252.5156,155.0781 253.8359,153.5391 Q255.1563,152 257.6563,152 Q258.3594,152 259.0078,152.25 Q259.6563,152.5 260.2188,153 L260.2188,156 Q259.5938,154.9688 259,154.4844 Q258.4063,154 257.7656,154 Q256.4375,154 255.75,155.0078 Q255.0625,156.0156 255.0625,158 Q255.0625,159.9844 255.75,160.9922 Q256.4375,162 257.7656,162 Q258.4063,162 259,161.5156 Q259.5938,161.0313 260.2188,160 L260.2188,163 Z "/><text fill="#000000" font-family="sans-serif" font-size="12" lengthAdjust="spacingAndGlyphs" textLength="85" x="277.75" y="162.1543">JungFuncArgs</text><line style="stroke: #A80036; stroke-width: 1.5;" x1="131.5" x2="476.5" y1="174" y2="174"/><ellipse cx="141.5" cy="185.9023" fill="none" rx="3" ry="3" style="stroke: #038048; stroke-width: 1.0;"/><text fill="#000000" font-family="sans-serif" font-size="11" lengthAdjust="spacingAndGlyphs" textLength="99" x="150.5" y="188.2104">believes:Believes</text><ellipse cx="141.5" cy="198.707" fill="none" rx="3" ry="3" style="stroke: #038048; stroke-width: 1.0;"/><text fill="#000000" font-family="sans-serif" font-size="11" lengthAdjust="spacingAndGlyphs" textLength="102" x="150.5" y="201.0151">tree:DialogueTree</text><ellipse cx="141.5" cy="211.5117" fill="none" rx="3" ry="3" style="stroke: #038048; stroke-width: 1.0;"/><text fill="#000000" font-family="sans-serif" font-size="11" lengthAdjust="spacingAndGlyphs" textLength="102" x="150.5" y="213.8198">next:NextFunction</text><line style="stroke: #A80036; stroke-width: 1.5;" x1="131.5" x2="476.5" y1="220.4141" y2="220.4141"/><ellipse cx="141.5" cy="232.3164" fill="#84BE84" rx="3" ry="3" style="stroke: #038048; stroke-width: 1.0;"/><text fill="#000000" font-family="sans-serif" font-size="11" lengthAdjust="spacingAndGlyphs" text-decoration="underline" textLength="300" x="150.5" y="234.6245">create(one:Believes,two:DialogueTree):JungFuncArgs</text><line style="stroke: #000000; stroke-width: 1.0;" x1="150.5" x2="450.5" y1="236.6245" y2="236.6245"/><ellipse cx="141.5" cy="245.1211" fill="#84BE84" rx="3" ry="3" style="stroke: #038048; stroke-width: 1.0;"/><text fill="#000000" font-family="sans-serif" font-size="11" lengthAdjust="spacingAndGlyphs" textLength="153" x="150.5" y="247.4292">applyNext() : JungFuncArgs</text><ellipse cx="141.5" cy="257.9258" fill="#84BE84" rx="3" ry="3" style="stroke: #038048; stroke-width: 1.0;"/><text fill="#000000" font-family="sans-serif" font-size="11" lengthAdjust="spacingAndGlyphs" textLength="321" x="150.5" y="260.2339">insertNextFuncs(funcs:[JungFuncAccessor]):JungFuncArgs</text><!--class JungianFunction--><rect fill="#FEFECE" filter="url(#fqmnqdv)" height="73.6094" style="stroke: #A80036; stroke-width: 1.5;" width="316" x="33" y="8"/><ellipse cx="137.25" cy="24" fill="#EB937F" rx="11" ry="11" style="stroke: #A80036; stroke-width: 1.0;"/><path d="M141.3594,30 L133.6406,30 L133.6406,18 L141.3594,18 L141.3594,20 L136.0938,20 L136.0938,23 L140.8594,23 L140.8594,25 L136.0938,25 L136.0938,28 L141.3594,28 L141.3594,30 Z "/><text fill="#000000" font-family="sans-serif" font-size="12" lengthAdjust="spacingAndGlyphs" textLength="99" x="157.75" y="28.1543">JungianFunction</text><line style="stroke: #A80036; stroke-width: 1.5;" x1="34" x2="348" y1="40" y2="40"/><rect fill="none" height="6" style="stroke: #C82930; stroke-width: 1.0;" width="6" x="41" y="48.9023"/><text fill="#000000" font-family="sans-serif" font-size="11" lengthAdjust="spacingAndGlyphs" textLength="290" x="53" y="54.2104">function : : Function&lt;JungFuncArgs, JungFuncArgs&gt;</text><ellipse cx="44" cy="64.707" fill="none" rx="3" ry="3" style="stroke: #038048; stroke-width: 1.0;"/><text fill="#000000" font-family="sans-serif" font-size="11" lengthAdjust="spacingAndGlyphs" textLength="112" x="53" y="67.0151">isRational : boolean</text><line style="stroke: #A80036; stroke-width: 1.5;" x1="34" x2="348" y1="73.6094" y2="73.6094"/><path d="M409.25,458.089 C429.98,461.267 444,468.07 444,478.5 C444,488.033 432.286,494.537 414.441,498.012 " fill="none" style="stroke: #A80036; stroke-width: 1.0; stroke-dasharray: 7.0,7.0;"/><polygon fill="#A80036" points="409.25,498.911,418.801,501.3147,414.1765,498.0568,417.4344,493.4323,409.25,498.911" style="stroke: #A80036; stroke-width: 1.0;"/><path d="M246.023,509.222 C232.392,526.118 215.279,547.331 201.155,564.8393 " fill="none" style="stroke: #A80036; stroke-width: 1.0; stroke-dasharray: 7.0,7.0;"/><polygon fill="#A80036" points="198.004,568.7447,206.7682,564.2516,201.1435,564.8532,200.5419,559.2284,198.004,568.7447" style="stroke: #A80036; stroke-width: 1.0;"/><path d="M370.532,388.222 C354.863,402.136 335.898,418.979 318.681,434.268 " fill="none" style="stroke: #A80036; stroke-width: 1.0;"/><polygon fill="none" points="323.108,439.698,303.506,447.745,313.812,429.23,323.108,439.698" style="stroke: #A80036; stroke-width: 1.0;"/><path d="M267.406,267.19 C258.233,285.779 249.677,306.661 245,327 C236.675,363.201 244.975,404.907 254.182,435.22 " fill="none" style="stroke: #A80036; stroke-width: 1.0;"/><polygon fill="#A80036" points="258.279,447.875,260.2372,440.9349,254.5841,436.458,252.6259,443.3981,258.279,447.875" style="stroke: #A80036; stroke-width: 1.0;"/><path d="M344.962,267.353 C357.387,286.114 370.581,306.038 381.338,322.28 " fill="none" style="stroke: #A80036; stroke-width: 1.0; stroke-dasharray: 7.0,7.0;"/><polygon fill="#A80036" points="384.305,326.76,382.6694,317.0479,381.5437,322.5916,376,321.466,384.305,326.76" style="stroke: #A80036; stroke-width: 1.0;"/><path d="M151.54,82.337 C136.416,98.884 120.903,119.739 113,142 C99.5956,179.754 89.6118,429.414 114,509 C118.687,524.297 126.939,539.3615 135.851,552.6424 " fill="none" style="stroke: #A80036; stroke-width: 1.0; stroke-dasharray: 7.0,7.0;"/><polygon fill="none" points="141.603,548.6501,147.702,568.9431,130.279,556.8827,141.603,548.6501" style="stroke: #A80036; stroke-width: 1.0;"/><path d="M216.924,82.134 C228.737,98.598 243.101,118.619 256.729,137.614 " fill="none" style="stroke: #A80036; stroke-width: 1.0; stroke-dasharray: 7.0,7.0;"/><polygon fill="#A80036" points="259.807,141.904,257.8093,132.2599,256.8918,137.8418,251.3098,136.9242,259.807,141.904" style="stroke: #A80036; stroke-width: 1.0;"/></g></svg>