<?xml version="1.0" encoding="UTF-8" standalone="yes"?><svg xmlns="http://www.w3.org/2000/svg" xmlns:xlink="http://www.w3.org/1999/xlink" height="590px" style="width:725px;height:590px;" version="1.1" viewBox="0 0 725 590" width="725px"><defs><filter height="300%" id="fyryexd" width="300%" x="-1" y="-1"><feGaussianBlur result="blurOut" stdDeviation="2.0"/><feColorMatrix in="blurOut" result="blurOut2" type="matrix" values="0 0 0 0 0 0 0 0 0 0 0 0 0 0 0 0 0 0 .4 0"/><feOffset dx="4.0" dy="4.0" in="blurOut2" result="blurOut3"/><feBlend in="SourceGraphic" in2="blurOut3" mode="normal"/></filter></defs><g><!--cluster Drools--><polygon fill="#FFFFFF" filter="url(#fyryexd)" points="65.5,170,123.5,170,130.5,192.2969,550.5,192.2969,550.5,583,65.5,583,65.5,170" style="stroke: #000000; stroke-width: 2.0;"/><line style="stroke: #000000; stroke-width: 2.0;" x1="65.5" x2="130.5" y1="192.2969" y2="192.2969"/><text fill="#000000" font-family="sans-serif" font-size="14" font-weight="bold" lengthAdjust="spacingAndGlyphs" textLength="52" x="69.5" y="184.9951">Drools</text><!--cluster Drools.db--><polygon fill="#FFFFFF" filter="url(#fyryexd)" points="322.5,221,405.5,221,412.5,243.2969,510.5,243.2969,510.5,320,322.5,320,322.5,221" style="stroke: #000000; stroke-width: 2.0;"/><line style="stroke: #000000; stroke-width: 2.0;" x1="322.5" x2="412.5" y1="243.2969" y2="243.2969"/><text fill="#000000" font-family="sans-serif" font-size="14" font-weight="bold" lengthAdjust="spacingAndGlyphs" textLength="77" x="326.5" y="235.9951">Drools.db</text><!--class Connection--><rect fill="#FEFECE" filter="url(#fyryexd)" height="73.6094" style="stroke: #A80036; stroke-width: 1.5;" width="131" x="353" y="364"/><ellipse cx="381.95" cy="380" fill="#ADD1B2" rx="11" ry="11" style="stroke: #A80036; stroke-width: 1.0;"/><path d="M384.9188,385 Q384.3406,385.5 383.7,385.75 Q383.0594,386 382.3563,386 Q379.8563,386 378.5359,384.4609 Q377.2156,382.9219 377.2156,380 Q377.2156,377.0781 378.5359,375.5391 Q379.8563,374 382.3563,374 Q383.0594,374 383.7078,374.25 Q384.3563,374.5 384.9188,375 L384.9188,378 Q384.2938,376.9688 383.7,376.4844 Q383.1063,376 382.4656,376 Q381.1375,376 380.45,377.0078 Q379.7625,378.0156 379.7625,380 Q379.7625,381.9844 380.45,382.9922 Q381.1375,384 382.4656,384 Q383.1063,384 383.7,383.5156 Q384.2938,383.0313 384.9188,382 L384.9188,385 Z "/><text fill="#000000" font-family="sans-serif" font-size="12" lengthAdjust="spacingAndGlyphs" textLength="68" x="399.05" y="384.1543">Connection</text><line style="stroke: #A80036; stroke-width: 1.5;" x1="354" x2="483" y1="396" y2="396"/><ellipse cx="364" cy="407.9023" fill="none" rx="3" ry="3" style="stroke: #038048; stroke-width: 1.0;"/><text fill="#000000" font-family="sans-serif" font-size="11" lengthAdjust="spacingAndGlyphs" textLength="57" x="373" y="410.2104">to:Symbol</text><ellipse cx="364" cy="420.707" fill="none" rx="3" ry="3" style="stroke: #038048; stroke-width: 1.0;"/><text fill="#000000" font-family="sans-serif" font-size="11" lengthAdjust="spacingAndGlyphs" textLength="105" x="373" y="423.0151">restricted_to:Actor</text><line style="stroke: #A80036; stroke-width: 1.5;" x1="354" x2="483" y1="429.6094" y2="429.6094"/><!--class Actor--><rect fill="#FEFECE" filter="url(#fyryexd)" height="60.8047" style="stroke: #A80036; stroke-width: 1.5;" width="95" x="224" y="498"/><ellipse cx="252.95" cy="514" fill="#ADD1B2" rx="11" ry="11" style="stroke: #A80036; stroke-width: 1.0;"/><path d="M255.9188,519 Q255.3406,519.5 254.7,519.75 Q254.0594,520 253.3563,520 Q250.8563,520 249.5359,518.4609 Q248.2156,516.9219 248.2156,514 Q248.2156,511.0781 249.5359,509.5391 Q250.8563,508 253.3563,508 Q254.0594,508 254.7078,508.25 Q255.3563,508.5 255.9188,509 L255.9188,512 Q255.2938,510.9688 254.7,510.4844 Q254.1063,510 253.4656,510 Q252.1375,510 251.45,511.0078 Q250.7625,512.0156 250.7625,514 Q250.7625,515.9844 251.45,516.9922 Q252.1375,518 253.4656,518 Q254.1063,518 254.7,517.5156 Q255.2938,517.0313 255.9188,516 L255.9188,519 Z "/><text fill="#000000" font-family="sans-serif" font-size="12" lengthAdjust="spacingAndGlyphs" textLength="32" x="270.05" y="518.1543">Actor</text><line style="stroke: #A80036; stroke-width: 1.5;" x1="225" x2="318" y1="530" y2="530"/><ellipse cx="235" cy="541.9023" fill="none" rx="3" ry="3" style="stroke: #038048; stroke-width: 1.0;"/><text fill="#000000" font-family="sans-serif" font-size="11" lengthAdjust="spacingAndGlyphs" textLength="69" x="244" y="544.2104">name:String</text><line style="stroke: #A80036; stroke-width: 1.5;" x1="225" x2="318" y1="550.8047" y2="550.8047"/><!--class Goal--><rect fill="#FEFECE" filter="url(#fyryexd)" height="48" style="stroke: #A80036; stroke-width: 1.5;" width="58" x="245.5" y="256"/><ellipse cx="260.5" cy="272" fill="#ADD1B2" rx="11" ry="11" style="stroke: #A80036; stroke-width: 1.0;"/><path d="M263.4688,277 Q262.8906,277.5 262.25,277.75 Q261.6094,278 260.9063,278 Q258.4063,278 257.0859,276.4609 Q255.7656,274.9219 255.7656,272 Q255.7656,269.0781 257.0859,267.5391 Q258.4063,266 260.9063,266 Q261.6094,266 262.2578,266.25 Q262.9063,266.5 263.4688,267 L263.4688,270 Q262.8438,268.9688 262.25,268.4844 Q261.6563,268 261.0156,268 Q259.6875,268 259,269.0078 Q258.3125,270.0156 258.3125,272 Q258.3125,273.9844 259,274.9922 Q259.6875,276 261.0156,276 Q261.6563,276 262.25,275.5156 Q262.8438,275.0313 263.4688,274 L263.4688,277 Z "/><text fill="#000000" font-family="sans-serif" font-size="12" lengthAdjust="spacingAndGlyphs" textLength="26" x="274.5" y="276.1543">Goal</text><line style="stroke: #A80036; stroke-width: 1.5;" x1="246.5" x2="302.5" y1="288" y2="288"/><line style="stroke: #A80036; stroke-width: 1.5;" x1="246.5" x2="302.5" y1="296" y2="296"/><!--class PersonalValues--><rect fill="#FEFECE" filter="url(#fyryexd)" height="48" style="stroke: #A80036; stroke-width: 1.5;" width="121" x="90" y="256"/><ellipse cx="105" cy="272" fill="#ADD1B2" rx="11" ry="11" style="stroke: #A80036; stroke-width: 1.0;"/><path d="M107.9688,277 Q107.3906,277.5 106.75,277.75 Q106.1094,278 105.4063,278 Q102.9063,278 101.5859,276.4609 Q100.2656,274.9219 100.2656,272 Q100.2656,269.0781 101.5859,267.5391 Q102.9063,266 105.4063,266 Q106.1094,266 106.7578,266.25 Q107.4063,266.5 107.9688,267 L107.9688,270 Q107.3438,268.9688 106.75,268.4844 Q106.1563,268 105.5156,268 Q104.1875,268 103.5,269.0078 Q102.8125,270.0156 102.8125,272 Q102.8125,273.9844 103.5,274.9922 Q104.1875,276 105.5156,276 Q106.1563,276 106.75,275.5156 Q107.3438,275.0313 107.9688,274 L107.9688,277 Z "/><text fill="#000000" font-family="sans-serif" font-size="12" lengthAdjust="spacingAndGlyphs" textLength="89" x="119" y="276.1543">PersonalValues</text><line style="stroke: #A80036; stroke-width: 1.5;" x1="91" x2="210" y1="288" y2="288"/><line style="stroke: #A80036; stroke-width: 1.5;" x1="91" x2="210" y1="296" y2="296"/><!--class Utterance--><rect fill="#FEFECE" filter="url(#fyryexd)" height="48" style="stroke: #A80036; stroke-width: 1.5;" width="92" x="225.5" y="377"/><ellipse cx="240.5" cy="393" fill="#ADD1B2" rx="11" ry="11" style="stroke: #A80036; stroke-width: 1.0;"/><path d="M243.4688,398 Q242.8906,398.5 242.25,398.75 Q241.6094,399 240.9063,399 Q238.4063,399 237.0859,397.4609 Q235.7656,395.9219 235.7656,393 Q235.7656,390.0781 237.0859,388.5391 Q238.4063,387 240.9063,387 Q241.6094,387 242.2578,387.25 Q242.9063,387.5 243.4688,388 L243.4688,391 Q242.8438,389.9688 242.25,389.4844 Q241.6563,389 241.0156,389 Q239.6875,389 239,390.0078 Q238.3125,391.0156 238.3125,393 Q238.3125,394.9844 239,395.9922 Q239.6875,397 241.0156,397 Q241.6563,397 242.25,396.5156 Q242.8438,396.0313 243.4688,395 L243.4688,398 Z "/><text fill="#000000" font-family="sans-serif" font-size="12" lengthAdjust="spacingAndGlyphs" textLength="60" x="254.5" y="397.1543">Utterance</text><line style="stroke: #A80036; stroke-width: 1.5;" x1="226.5" x2="316.5" y1="409" y2="409"/><line style="stroke: #A80036; stroke-width: 1.5;" x1="226.5" x2="316.5" y1="417" y2="417"/><!--class ConnectionDatabase--><rect fill="#FEFECE" filter="url(#fyryexd)" height="48" style="stroke: #A80036; stroke-width: 1.5;" width="156" x="338.5" y="256"/><ellipse cx="353.5" cy="272" fill="#ADD1B2" rx="11" ry="11" style="stroke: #A80036; stroke-width: 1.0;"/><path d="M356.4688,277 Q355.8906,277.5 355.25,277.75 Q354.6094,278 353.9063,278 Q351.4063,278 350.0859,276.4609 Q348.7656,274.9219 348.7656,272 Q348.7656,269.0781 350.0859,267.5391 Q351.4063,266 353.9063,266 Q354.6094,266 355.2578,266.25 Q355.9063,266.5 356.4688,267 L356.4688,270 Q355.8438,268.9688 355.25,268.4844 Q354.6563,268 354.0156,268 Q352.6875,268 352,269.0078 Q351.3125,270.0156 351.3125,272 Q351.3125,273.9844 352,274.9922 Q352.6875,276 354.0156,276 Q354.6563,276 355.25,275.5156 Q355.8438,275.0313 356.4688,274 L356.4688,277 Z "/><text fill="#000000" font-family="sans-serif" font-size="12" lengthAdjust="spacingAndGlyphs" textLength="124" x="367.5" y="276.1543">ConnectionDatabase</text><line style="stroke: #A80036; stroke-width: 1.5;" x1="339.5" x2="493.5" y1="288" y2="288"/><line style="stroke: #A80036; stroke-width: 1.5;" x1="339.5" x2="493.5" y1="296" y2="296"/><!--class Believes--><rect fill="#FEFECE" filter="url(#fyryexd)" height="137.6328" style="stroke: #A80036; stroke-width: 1.5;" width="289" x="6" y="8"/><ellipse cx="122.25" cy="24" fill="#ADD1B2" rx="11" ry="11" style="stroke: #A80036; stroke-width: 1.0;"/><path d="M125.2188,29 Q124.6406,29.5 124,29.75 Q123.3594,30 122.6563,30 Q120.1563,30 118.8359,28.4609 Q117.5156,26.9219 117.5156,24 Q117.5156,21.0781 118.8359,19.5391 Q120.1563,18 122.6563,18 Q123.3594,18 124.0078,18.25 Q124.6563,18.5 125.2188,19 L125.2188,22 Q124.5938,20.9688 124,20.4844 Q123.4063,20 122.7656,20 Q121.4375,20 120.75,21.0078 Q120.0625,22.0156 120.0625,24 Q120.0625,25.9844 120.75,26.9922 Q121.4375,28 122.7656,28 Q123.4063,28 124,27.5156 Q124.5938,27.0313 125.2188,26 L125.2188,29 Z "/><text fill="#000000" font-family="sans-serif" font-size="12" lengthAdjust="spacingAndGlyphs" textLength="48" x="142.75" y="28.1543">Believes</text><line style="stroke: #A80036; stroke-width: 1.5;" x1="7" x2="294" y1="40" y2="40"/><ellipse cx="17" cy="51.9023" fill="none" rx="3" ry="3" style="stroke: #038048; stroke-width: 1.0;"/><text fill="#000000" font-family="sans-serif" font-size="11" lengthAdjust="spacingAndGlyphs" textLength="263" x="26" y="54.2104">programmedConnections:ConnectionDatabase</text><ellipse cx="17" cy="64.707" fill="none" rx="3" ry="3" style="stroke: #038048; stroke-width: 1.0;"/><text fill="#000000" font-family="sans-serif" font-size="11" lengthAdjust="spacingAndGlyphs" textLength="232" x="26" y="67.0151">learnedConnections:ConnectionDatabase</text><ellipse cx="17" cy="77.5117" fill="none" rx="3" ry="3" style="stroke: #038048; stroke-width: 1.0;"/><text fill="#000000" font-family="sans-serif" font-size="11" lengthAdjust="spacingAndGlyphs" textLength="74" x="26" y="79.8198">goals:{Goal}</text><ellipse cx="17" cy="90.3164" fill="none" rx="3" ry="3" style="stroke: #038048; stroke-width: 1.0;"/><text fill="#000000" font-family="sans-serif" font-size="11" lengthAdjust="spacingAndGlyphs" textLength="128" x="26" y="92.6245">values:PersonalValues</text><ellipse cx="17" cy="103.1211" fill="none" rx="3" ry="3" style="stroke: #038048; stroke-width: 1.0;"/><text fill="#000000" font-family="sans-serif" font-size="11" lengthAdjust="spacingAndGlyphs" textLength="172" x="26" y="105.4292">learnedValues:PersonalValues</text><ellipse cx="17" cy="115.9258" fill="none" rx="3" ry="3" style="stroke: #038048; stroke-width: 1.0;"/><text fill="#000000" font-family="sans-serif" font-size="11" lengthAdjust="spacingAndGlyphs" textLength="83" x="26" y="118.2339">actors:{Actor}</text><ellipse cx="17" cy="128.7305" fill="none" rx="3" ry="3" style="stroke: #038048; stroke-width: 1.0;"/><text fill="#000000" font-family="sans-serif" font-size="11" lengthAdjust="spacingAndGlyphs" textLength="177" x="26" y="131.0386">previousUtterances:[Utterance]</text><line style="stroke: #A80036; stroke-width: 1.5;" x1="7" x2="294" y1="137.6328" y2="137.6328"/><!--class DialogueTree--><rect fill="#FEFECE" filter="url(#fyryexd)" height="86.4141" style="stroke: #A80036; stroke-width: 1.5;" width="187" x="502" y="34"/><ellipse cx="552.25" cy="50" fill="#ADD1B2" rx="11" ry="11" style="stroke: #A80036; stroke-width: 1.0;"/><path d="M555.2188,55 Q554.6406,55.5 554,55.75 Q553.3594,56 552.6563,56 Q550.1563,56 548.8359,54.4609 Q547.5156,52.9219 547.5156,50 Q547.5156,47.0781 548.8359,45.5391 Q550.1563,44 552.6563,44 Q553.3594,44 554.0078,44.25 Q554.6563,44.5 555.2188,45 L555.2188,48 Q554.5938,46.9688 554,46.4844 Q553.4063,46 552.7656,46 Q551.4375,46 550.75,47.0078 Q550.0625,48.0156 550.0625,50 Q550.0625,51.9844 550.75,52.9922 Q551.4375,54 552.7656,54 Q553.4063,54 554,53.5156 Q554.5938,53.0313 555.2188,52 L555.2188,55 Z "/><text fill="#000000" font-family="sans-serif" font-size="12" lengthAdjust="spacingAndGlyphs" textLength="78" x="572.75" y="54.1543">DialogueTree</text><line style="stroke: #A80036; stroke-width: 1.5;" x1="503" x2="688" y1="66" y2="66"/><ellipse cx="513" cy="77.9023" fill="none" rx="3" ry="3" style="stroke: #038048; stroke-width: 1.0;"/><text fill="#000000" font-family="sans-serif" font-size="11" lengthAdjust="spacingAndGlyphs" textLength="128" x="522" y="80.2104">options:[DialogueTree]</text><ellipse cx="513" cy="90.707" fill="none" rx="3" ry="3" style="stroke: #038048; stroke-width: 1.0;"/><text fill="#000000" font-family="sans-serif" font-size="11" lengthAdjust="spacingAndGlyphs" textLength="113" x="522" y="93.0151">utterance:Utterance</text><ellipse cx="513" cy="103.5117" fill="none" rx="3" ry="3" style="stroke: #038048; stroke-width: 1.0;"/><text fill="#000000" font-family="sans-serif" font-size="11" lengthAdjust="spacingAndGlyphs" textLength="161" x="522" y="105.8198">connection_used:Connection</text><line style="stroke: #A80036; stroke-width: 1.5;" x1="503" x2="688" y1="112.4141" y2="112.4141"/><path d="M416.89,304.227 C417.112,317.438 417.399,334.506 417.669,350.567 " fill="none" style="stroke: #A80036; stroke-width: 1.0;"/><polygon fill="#A80036" points="417.89,363.714,421.7886,357.6476,417.6882,351.7157,413.7897,357.7821,417.89,363.714" style="stroke: #A80036; stroke-width: 1.0;"/><text fill="#000000" font-family="sans-serif" font-size="13" lengthAdjust="spacingAndGlyphs" textLength="7" x="410.1579" y="352.85">*</text><path d="M295.016,127.581 C309.057,135.313 322.514,144.088 334.5,154 C363.986,178.383 386.705,216.136 400.673,243.775 " fill="none" style="stroke: #A80036; stroke-width: 1.0;"/><polygon fill="#A80036" points="406.467,255.677,407.4366,248.5314,401.2136,244.888,400.244,252.0336,406.467,255.677" style="stroke: #A80036; stroke-width: 1.0;"/><text fill="#000000" font-family="sans-serif" font-size="13" lengthAdjust="spacingAndGlyphs" textLength="8" x="395.0465" y="245.0032">2</text><path d="M223.283,146.455 C225.108,148.945 226.854,151.462 228.5,154 C246.398,181.588 258.606,217.099 265.923,243.217 " fill="none" style="stroke: #A80036; stroke-width: 1.0;"/><polygon fill="#A80036" points="269.307,255.927,271.6282,249.0997,266.2188,244.3312,263.8976,251.1585,269.307,255.927" style="stroke: #A80036; stroke-width: 1.0;"/><text fill="#000000" font-family="sans-serif" font-size="13" lengthAdjust="spacingAndGlyphs" textLength="7" x="260.0794" y="244.9203">*</text><path d="M150.5,146.049 C150.5,178.442 150.5,215.873 150.5,242.749 " fill="none" style="stroke: #A80036; stroke-width: 1.0;"/><polygon fill="#A80036" points="150.5,255.759,154.5,249.759,150.5,243.759,146.5,249.759,150.5,255.759" style="stroke: #A80036; stroke-width: 1.0;"/><text fill="#000000" font-family="sans-serif" font-size="13" lengthAdjust="spacingAndGlyphs" textLength="8" x="141.525" y="245.1052">2</text><path d="M41.2961,146.062 C39.564,148.628 37.9591,151.274 36.5,154 C0.0096,222.183 4.019,257.819 36.5,328 C72.4602,405.699 155.248,464.196 212.294,497.147 " fill="none" style="stroke: #A80036; stroke-width: 1.0;"/><polygon fill="#A80036" points="223.694,503.592,220.4397,497.157,213.248,497.686,216.5023,504.121,223.694,503.592" style="stroke: #A80036; stroke-width: 1.0;"/><text fill="#000000" font-family="sans-serif" font-size="13" lengthAdjust="spacingAndGlyphs" textLength="23" x="193.0954" y="496.5276">1..*</text><path d="M76.339,146.049 C74.9261,148.648 73.639,151.3 72.5,154 C42.4425,225.253 28.083,264.695 72.5,328 C103.8734,372.715 165.925,389.777 212.439,396.224 " fill="none" style="stroke: #A80036; stroke-width: 1.0;"/><polygon fill="#A80036" points="225.412,397.807,219.9411,393.1092,213.5005,396.3525,218.9714,401.0503,225.412,397.807" style="stroke: #A80036; stroke-width: 1.0;"/><text fill="#000000" font-family="sans-serif" font-size="13" lengthAdjust="spacingAndGlyphs" textLength="7" x="210.5089" y="393.1803">*</text><path d="M375.982,438.3 C357.294,454.254 335.335,473.001 316.384,489.181 " fill="none" style="stroke: #A80036; stroke-width: 1.0;"/><polygon fill="#A80036" points="306.494,497.624,313.6543,496.7697,315.6197,489.8316,308.4594,490.6859,306.494,497.624" style="stroke: #A80036; stroke-width: 1.0;"/><path d="M689.06,40.244 C709.313,43.838 724,56.09 724,77 C724,93.173 715.214,104.166 701.862,109.98 " fill="none" style="stroke: #A80036; stroke-width: 1.0;"/><polygon fill="#A80036" points="689.06,113.756,695.9464,115.8954,700.5699,110.3616,693.6835,108.2222,689.06,113.756" style="stroke: #A80036; stroke-width: 1.0;"/><text fill="#000000" font-family="sans-serif" font-size="13" lengthAdjust="spacingAndGlyphs" textLength="7" x="697.0978" y="113.234">*</text><path d="M602.871,120.357 C609.907,176.04 612.59,273.196 558.5,328 C487.978,399.454 430.273,330.878 335.5,364 C330.004,365.921 324.431,368.302 318.985,370.919 " fill="none" style="stroke: #A80036; stroke-width: 1.0;"/><polygon fill="#A80036" points="307.343,376.934,314.5096,377.7338,318.0042,371.426,310.8376,370.6263,307.343,376.934" style="stroke: #A80036; stroke-width: 1.0;"/><path d="M615.662,120.353 C637.869,173.847 665.054,266.339 621.5,328 C593.421,367.752 541.422,385.694 497.083,393.728 " fill="none" style="stroke: #A80036; stroke-width: 1.0;"/><polygon fill="#A80036" points="484.207,395.829,490.773,398.8101,496.0503,393.8958,489.4842,390.9146,484.207,395.829" style="stroke: #A80036; stroke-width: 1.0;"/><path d="M273.914,304.227 C273.489,321.1 272.905,344.265 272.418,363.587 " fill="none" style="stroke: #A80036; stroke-width: 1.0;"/><polygon fill="#A80036" points="272.084,376.832,276.2344,370.935,272.3873,364.8358,268.2369,370.7328,272.084,376.832" style="stroke: #A80036; stroke-width: 1.0;"/><path d="M271.5,425.019 C271.5,441.692 271.5,464.724 271.5,484.73 " fill="none" style="stroke: #A80036; stroke-width: 1.0;"/><polygon fill="#A80036" points="271.5,497.982,275.5,491.982,271.5,485.982,267.5,491.982,271.5,497.982" style="stroke: #A80036; stroke-width: 1.0;"/></g></svg>