<?xml version="1.0" encoding="UTF-8" standalone="yes"?><svg xmlns="http://www.w3.org/2000/svg" xmlns:xlink="http://www.w3.org/1999/xlink" height="495px" style="width:309px;height:495px;" version="1.1" viewBox="0 0 309 495" width="309px"><defs><filter height="300%" id="fscyafx" width="300%" x="-1" y="-1"><feGaussianBlur result="blurOut" stdDeviation="2.0"/><feColorMatrix in="blurOut" result="blurOut2" type="matrix" values="0 0 0 0 0 0 0 0 0 0 0 0 0 0 0 0 0 0 .4 0"/><feOffset dx="4.0" dy="4.0" in="blurOut2" result="blurOut3"/><feBlend in="SourceGraphic" in2="blurOut3" mode="normal"/></filter></defs><g><line style="stroke: #A80036; stroke-width: 1.0; stroke-dasharray: 5.0,5.0;" x1="30" x2="30" y1="86.2969" y2="411.625"/><line style="stroke: #A80036; stroke-width: 1.0; stroke-dasharray: 5.0,5.0;" x1="273" x2="273" y1="86.2969" y2="411.625"/><text fill="#000000" font-family="sans-serif" font-size="14" lengthAdjust="spacingAndGlyphs" textLength="39" x="8" y="82.9951">client</text><ellipse cx="30.5" cy="13" fill="#FEFECE" filter="url(#fscyafx)" rx="8" ry="8" style="stroke: #A80036; stroke-width: 2.0;"/><path d="M30.5,21 L30.5,48 M17.5,29 L43.5,29 M30.5,48 L17.5,63 M30.5,48 L43.5,63 " fill="#FEFECE" filter="url(#fscyafx)" style="stroke: #A80036; stroke-width: 2.0;"/><text fill="#000000" font-family="sans-serif" font-size="14" lengthAdjust="spacingAndGlyphs" textLength="39" x="8" y="423.6201">client</text><ellipse cx="30.5" cy="436.9219" fill="#FEFECE" filter="url(#fscyafx)" rx="8" ry="8" style="stroke: #A80036; stroke-width: 2.0;"/><path d="M30.5,444.9219 L30.5,471.9219 M17.5,452.9219 L43.5,452.9219 M30.5,471.9219 L17.5,486.9219 M30.5,471.9219 L43.5,486.9219 " fill="#FEFECE" filter="url(#fscyafx)" style="stroke: #A80036; stroke-width: 2.0;"/><text fill="#000000" font-family="sans-serif" font-size="14" lengthAdjust="spacingAndGlyphs" textLength="45" x="248" y="82.9951">server</text><ellipse cx="273.5" cy="54" fill="#FEFECE" filter="url(#fscyafx)" rx="12" ry="12" style="stroke: #A80036; stroke-width: 2.0;"/><line style="stroke: #A80036; stroke-width: 2.0;" x1="261.5" x2="285.5" y1="68" y2="68"/><text fill="#000000" font-family="sans-serif" font-size="14" lengthAdjust="spacingAndGlyphs" textLength="45" x="248" y="423.6201">server</text><ellipse cx="273.5" cy="442.9219" fill="#FEFECE" filter="url(#fscyafx)" rx="12" ry="12" style="stroke: #A80036; stroke-width: 2.0;"/><line style="stroke: #A80036; stroke-width: 2.0;" x1="261.5" x2="285.5" y1="456.9219" y2="456.9219"/><polygon fill="#A80036" points="261.5,113.2969,271.5,117.2969,261.5,121.2969,265.5,117.2969" style="stroke: #A80036; stroke-width: 1.0;"/><line style="stroke: #A80036; stroke-width: 1.0;" x1="30.5" x2="267.5" y1="117.2969" y2="117.2969"/><text fill="#000000" font-family="sans-serif" font-size="13" lengthAdjust="spacingAndGlyphs" textLength="148" x="37.5" y="112.3638">login(userid,password)</text><polygon fill="#A80036" points="261.5,142.4297,271.5,146.4297,261.5,150.4297,265.5,146.4297" style="stroke: #A80036; stroke-width: 1.0;"/><line style="stroke: #A80036; stroke-width: 1.0;" x1="30.5" x2="267.5" y1="146.4297" y2="146.4297"/><text fill="#000000" font-family="sans-serif" font-size="13" lengthAdjust="spacingAndGlyphs" textLength="119" x="37.5" y="141.4966">newGameRequest</text><polygon fill="#A80036" points="41.5,171.5625,31.5,175.5625,41.5,179.5625,37.5,175.5625" style="stroke: #A80036; stroke-width: 1.0;"/><line style="stroke: #A80036; stroke-width: 1.0; stroke-dasharray: 2.0,2.0;" x1="35.5" x2="272.5" y1="175.5625" y2="175.5625"/><text fill="#000000" font-family="sans-serif" font-size="13" lengthAdjust="spacingAndGlyphs" textLength="219" x="47.5" y="170.6294">newGameResponse(idNewGame)</text><polygon fill="#A80036" points="261.5,200.6953,271.5,204.6953,261.5,208.6953,265.5,204.6953" style="stroke: #A80036; stroke-width: 1.0;"/><line style="stroke: #A80036; stroke-width: 1.0;" x1="30.5" x2="267.5" y1="204.6953" y2="204.6953"/><text fill="#000000" font-family="sans-serif" font-size="13" lengthAdjust="spacingAndGlyphs" textLength="130" x="37.5" y="199.7622">startGame(idGame)</text><polygon fill="#A80036" points="41.5,229.8281,31.5,233.8281,41.5,237.8281,37.5,233.8281" style="stroke: #A80036; stroke-width: 1.0;"/><line style="stroke: #A80036; stroke-width: 1.0; stroke-dasharray: 2.0,2.0;" x1="35.5" x2="272.5" y1="233.8281" y2="233.8281"/><text fill="#000000" font-family="sans-serif" font-size="13" lengthAdjust="spacingAndGlyphs" textLength="56" x="47.5" y="228.895">log(text)</text><rect fill="#EEEEEE" filter="url(#fscyafx)" height="3" style="stroke: #EEEEEE; stroke-width: 1.0;" width="301" x="3" y="262.5273"/><line style="stroke: #000000; stroke-width: 1.0;" x1="3" x2="304" y1="262.5273" y2="262.5273"/><line style="stroke: #000000; stroke-width: 1.0;" x1="3" x2="304" y1="265.5273" y2="265.5273"/><rect fill="#EEEEEE" filter="url(#fscyafx)" height="23.1328" style="stroke: #000000; stroke-width: 2.0;" width="172" x="67.5" y="251.9609"/><text fill="#000000" font-family="sans-serif" font-size="13" font-weight="bold" lengthAdjust="spacingAndGlyphs" textLength="153" x="73.5" y="268.0278">Chat start (example)</text><polygon fill="#A80036" points="261.5,302.0938,271.5,306.0938,261.5,310.0938,265.5,306.0938" style="stroke: #A80036; stroke-width: 1.0;"/><line style="stroke: #A80036; stroke-width: 1.0;" x1="30.5" x2="267.5" y1="306.0938" y2="306.0938"/><text fill="#000000" font-family="sans-serif" font-size="13" lengthAdjust="spacingAndGlyphs" textLength="84" x="37.5" y="301.1606">userUtt(text)</text><polygon fill="#A80036" points="41.5,331.2266,31.5,335.2266,41.5,339.2266,37.5,335.2266" style="stroke: #A80036; stroke-width: 1.0;"/><line style="stroke: #A80036; stroke-width: 1.0; stroke-dasharray: 2.0,2.0;" x1="35.5" x2="272.5" y1="335.2266" y2="335.2266"/><text fill="#000000" font-family="sans-serif" font-size="13" lengthAdjust="spacingAndGlyphs" textLength="93" x="47.5" y="330.2935">agentUtt(text)</text><polygon fill="#A80036" points="41.5,360.3594,31.5,364.3594,41.5,368.3594,37.5,364.3594" style="stroke: #A80036; stroke-width: 1.0;"/><line style="stroke: #A80036; stroke-width: 1.0;" x1="35.5" x2="272.5" y1="364.3594" y2="364.3594"/><text fill="#000000" font-family="sans-serif" font-size="13" lengthAdjust="spacingAndGlyphs" textLength="93" x="47.5" y="359.4263">agentUtt(text)</text><polygon fill="#A80036" points="261.5,389.4922,271.5,393.4922,261.5,397.4922,265.5,393.4922" style="stroke: #A80036; stroke-width: 1.0;"/><line style="stroke: #A80036; stroke-width: 1.0; stroke-dasharray: 2.0,2.0;" x1="30.5" x2="267.5" y1="393.4922" y2="393.4922"/><text fill="#000000" font-family="sans-serif" font-size="13" lengthAdjust="spacingAndGlyphs" textLength="84" x="37.5" y="388.5591">userUtt(text)</text></g></svg>