<?xml version="1.0" encoding="UTF-8" standalone="yes"?><svg xmlns="http://www.w3.org/2000/svg" xmlns:xlink="http://www.w3.org/1999/xlink" height="445px" style="width:271px;height:445px;" version="1.1" viewBox="0 0 271 445" width="271px"><defs><filter height="300%" id="fokodh0" width="300%" x="-1" y="-1"><feGaussianBlur result="blurOut" stdDeviation="2.0"/><feColorMatrix in="blurOut" result="blurOut2" type="matrix" values="0 0 0 0 0 0 0 0 0 0 0 0 0 0 0 0 0 0 .4 0"/><feOffset dx="4.0" dy="4.0" in="blurOut2" result="blurOut3"/><feBlend in="SourceGraphic" in2="blurOut3" mode="normal"/></filter></defs><g><ellipse cx="142.5" cy="18" fill="#000000" filter="url(#fokodh0)" rx="10" ry="10" style="stroke: none; stroke-width: 1.0;"/><rect fill="#FEFECE" filter="url(#fokodh0)" height="50" rx="12.5" ry="12.5" style="stroke: #A80036; stroke-width: 1.5;" width="82" x="101.5" y="88"/><line style="stroke: #A80036; stroke-width: 1.5;" x1="101.5" x2="183.5" y1="114.2969" y2="114.2969"/><text fill="#000000" font-family="sans-serif" font-size="14" lengthAdjust="spacingAndGlyphs" textLength="62" x="111.5" y="105.9951">Greeting</text><rect fill="#FEFECE" filter="url(#fokodh0)" height="50" rx="12.5" ry="12.5" style="stroke: #A80036; stroke-width: 1.5;" width="127" x="6" y="198"/><line style="stroke: #A80036; stroke-width: 1.5;" x1="6" x2="133" y1="224.2969" y2="224.2969"/><text fill="#000000" font-family="sans-serif" font-size="14" lengthAdjust="spacingAndGlyphs" textLength="107" x="16" y="215.9951">Data gathering</text><rect fill="#FEFECE" filter="url(#fokodh0)" height="50" rx="12.5" ry="12.5" style="stroke: #A80036; stroke-width: 1.5;" width="94" x="168.5" y="198"/><line style="stroke: #A80036; stroke-width: 1.5;" x1="168.5" x2="262.5" y1="224.2969" y2="224.2969"/><text fill="#000000" font-family="sans-serif" font-size="14" lengthAdjust="spacingAndGlyphs" textLength="74" x="178.5" y="215.9951">Diagnoses</text><rect fill="#FEFECE" filter="url(#fokodh0)" height="50" rx="12.5" ry="12.5" style="stroke: #A80036; stroke-width: 1.5;" width="83" x="101" y="308"/><line style="stroke: #A80036; stroke-width: 1.5;" x1="101" x2="184" y1="334.2969" y2="334.2969"/><text fill="#000000" font-family="sans-serif" font-size="14" lengthAdjust="spacingAndGlyphs" textLength="63" x="111" y="325.9951">Finishing</text><ellipse cx="142.5" cy="428" fill="none" filter="url(#fokodh0)" rx="10" ry="10" style="stroke: #000000; stroke-width: 1.0;"/><ellipse cx="143" cy="428.5" fill="#000000" rx="6" ry="6" style="stroke: none; stroke-width: 1.0;"/><path d="M142.5,28.257 C142.5,40.856 142.5,63.981 142.5,82.743 " fill="none" style="stroke: #A80036; stroke-width: 1.0;"/><polygon fill="#A80036" points="142.5,87.907,146.5,78.907,142.5,82.907,138.5,78.907,142.5,87.907" style="stroke: #A80036; stroke-width: 1.0;"/><path d="M126.117,138.237 C115.034,154.634 100.3519,176.356 88.7164,193.57 " fill="none" style="stroke: #A80036; stroke-width: 1.0;"/><polygon fill="#A80036" points="85.8279,197.844,94.1818,192.6275,88.6278,193.7015,87.5538,188.1475,85.8279,197.844" style="stroke: #A80036; stroke-width: 1.0;"/><path d="M158.883,138.237 C169.966,154.634 184.648,176.356 196.284,193.57 " fill="none" style="stroke: #A80036; stroke-width: 1.0;"/><polygon fill="#A80036" points="199.172,197.844,197.4464,188.1475,196.3722,193.7014,190.8183,192.6272,199.172,197.844" style="stroke: #A80036; stroke-width: 1.0;"/><path d="M133.09,241.438 C143.05,242.098 153.01,241.71 162.97,240.276 " fill="none" style="stroke: #A80036; stroke-width: 1.0;"/><polygon fill="#A80036" points="168.179,239.43,158.6543,236.9242,163.2436,240.2314,159.9364,244.8208,168.179,239.43" style="stroke: #A80036; stroke-width: 1.0;"/><path d="M168.179,206.57 C158.218,204.77 148.258,204.018 138.298,204.312 " fill="none" style="stroke: #A80036; stroke-width: 1.0;"/><polygon fill="#A80036" points="133.09,204.562,142.2716,208.1254,138.0842,204.322,141.8876,200.1346,133.09,204.562" style="stroke: #A80036; stroke-width: 1.0;"/><path d="M85.8826,248.237 C96.9659,264.634 111.648,286.356 123.284,303.57 " fill="none" style="stroke: #A80036; stroke-width: 1.0;"/><polygon fill="#A80036" points="126.172,307.844,124.4464,298.1475,123.3722,303.7014,117.8183,302.6272,126.172,307.844" style="stroke: #A80036; stroke-width: 1.0;"/><path d="M199.117,248.237 C188.034,264.634 173.352,286.356 161.716,303.57 " fill="none" style="stroke: #A80036; stroke-width: 1.0;"/><polygon fill="#A80036" points="158.828,307.844,167.1817,302.6272,161.6278,303.7014,160.5536,298.1475,158.828,307.844" style="stroke: #A80036; stroke-width: 1.0;"/><path d="M142.5,358.4347 C142.5,375.5384 142.5,397.827 142.5,412.2736 " fill="none" style="stroke: #A80036; stroke-width: 1.0;"/><polygon fill="#A80036" points="142.5,417.5817,146.5,408.5817,142.5,412.5817,138.5,408.5817,142.5,417.5817" style="stroke: #A80036; stroke-width: 1.0;"/></g></svg>