<?xml version="1.0" encoding="UTF-8" standalone="yes"?><svg xmlns="http://www.w3.org/2000/svg" xmlns:xlink="http://www.w3.org/1999/xlink" height="467px" style="width:448px;height:467px;" version="1.1" viewBox="0 0 448 467" width="448px"><defs><filter height="300%" id="f5gknj5" width="300%" x="-1" y="-1"><feGaussianBlur result="blurOut" stdDeviation="2.0"/><feColorMatrix in="blurOut" result="blurOut2" type="matrix" values="0 0 0 0 0 0 0 0 0 0 0 0 0 0 0 0 0 0 .4 0"/><feOffset dx="4.0" dy="4.0" in="blurOut2" result="blurOut3"/><feBlend in="SourceGraphic" in2="blurOut3" mode="normal"/></filter></defs><g><!--cluster model--><polygon fill="#FFFFFF" filter="url(#f5gknj5)" points="22,294,78,294,85,316.2969,333,316.2969,333,460,22,460,22,294" style="stroke: #000000; stroke-width: 2.0;"/><line style="stroke: #000000; stroke-width: 2.0;" x1="22" x2="85" y1="316.2969" y2="316.2969"/><text fill="#000000" font-family="sans-serif" font-size="14" font-weight="bold" lengthAdjust="spacingAndGlyphs" textLength="50" x="26" y="308.9951">model</text><!--cluster template.db--><polygon fill="#FFFFFF" filter="url(#f5gknj5)" points="135,337,239,337,246,359.2969,309,359.2969,309,436,135,436,135,337" style="stroke: #000000; stroke-width: 2.0;"/><line style="stroke: #000000; stroke-width: 2.0;" x1="135" x2="246" y1="359.2969" y2="359.2969"/><text fill="#000000" font-family="sans-serif" font-size="14" font-weight="bold" lengthAdjust="spacingAndGlyphs" textLength="98" x="139" y="351.9951">template.db</text><!--cluster Drools--><polygon fill="#FFFFFF" filter="url(#f5gknj5)" points="22,24,80,24,87,46.2969,441,46.2969,441,270,22,270,22,24" style="stroke: #000000; stroke-width: 2.0;"/><line style="stroke: #000000; stroke-width: 2.0;" x1="22" x2="87" y1="46.2969" y2="46.2969"/><text fill="#000000" font-family="sans-serif" font-size="14" font-weight="bold" lengthAdjust="spacingAndGlyphs" textLength="52" x="26" y="38.9951">Drools</text><!--class Symbol--><rect fill="#FEFECE" filter="url(#f5gknj5)" height="48" style="stroke: #A80036; stroke-width: 1.5;" width="77" x="38.5" y="372"/><ellipse cx="53.5" cy="388" fill="#ADD1B2" rx="11" ry="11" style="stroke: #A80036; stroke-width: 1.0;"/><path d="M56.4688,393 Q55.8906,393.5 55.25,393.75 Q54.6094,394 53.9063,394 Q51.4063,394 50.0859,392.4609 Q48.7656,390.9219 48.7656,388 Q48.7656,385.0781 50.0859,383.5391 Q51.4063,382 53.9063,382 Q54.6094,382 55.2578,382.25 Q55.9063,382.5 56.4688,383 L56.4688,386 Q55.8438,384.9688 55.25,384.4844 Q54.6563,384 54.0156,384 Q52.6875,384 52,385.0078 Q51.3125,386.0156 51.3125,388 Q51.3125,389.9844 52,390.9922 Q52.6875,392 54.0156,392 Q54.6563,392 55.25,391.5156 Q55.8438,391.0313 56.4688,390 L56.4688,393 Z "/><text fill="#000000" font-family="sans-serif" font-size="12" lengthAdjust="spacingAndGlyphs" textLength="45" x="67.5" y="392.1543">Symbol</text><line style="stroke: #A80036; stroke-width: 1.5;" x1="39.5" x2="114.5" y1="404" y2="404"/><line style="stroke: #A80036; stroke-width: 1.5;" x1="39.5" x2="114.5" y1="412" y2="412"/><!--class CapturedMatchDB--><rect fill="#FEFECE" filter="url(#f5gknj5)" height="48" style="stroke: #A80036; stroke-width: 1.5;" width="142" x="151" y="372"/><ellipse cx="166" cy="388" fill="#ADD1B2" rx="11" ry="11" style="stroke: #A80036; stroke-width: 1.0;"/><path d="M168.9688,393 Q168.3906,393.5 167.75,393.75 Q167.1094,394 166.4063,394 Q163.9063,394 162.5859,392.4609 Q161.2656,390.9219 161.2656,388 Q161.2656,385.0781 162.5859,383.5391 Q163.9063,382 166.4063,382 Q167.1094,382 167.7578,382.25 Q168.4063,382.5 168.9688,383 L168.9688,386 Q168.3438,384.9688 167.75,384.4844 Q167.1563,384 166.5156,384 Q165.1875,384 164.5,385.0078 Q163.8125,386.0156 163.8125,388 Q163.8125,389.9844 164.5,390.9922 Q165.1875,392 166.5156,392 Q167.1563,392 167.75,391.5156 Q168.3438,391.0313 168.9688,390 L168.9688,393 Z "/><text fill="#000000" font-family="sans-serif" font-size="12" lengthAdjust="spacingAndGlyphs" textLength="110" x="180" y="392.1543">CapturedMatchDB</text><line style="stroke: #A80036; stroke-width: 1.5;" x1="152" x2="292" y1="404" y2="404"/><line style="stroke: #A80036; stroke-width: 1.5;" x1="152" x2="292" y1="412" y2="412"/><!--class UnparsedUserUtterance--><rect fill="#FEFECE" filter="url(#f5gknj5)" height="60.8047" style="stroke: #A80036; stroke-width: 1.5;" width="177" x="248.5" y="59"/><ellipse cx="263.5" cy="75" fill="#ADD1B2" rx="11" ry="11" style="stroke: #A80036; stroke-width: 1.0;"/><path d="M266.4688,80 Q265.8906,80.5 265.25,80.75 Q264.6094,81 263.9063,81 Q261.4063,81 260.0859,79.4609 Q258.7656,77.9219 258.7656,75 Q258.7656,72.0781 260.0859,70.5391 Q261.4063,69 263.9063,69 Q264.6094,69 265.2578,69.25 Q265.9063,69.5 266.4688,70 L266.4688,73 Q265.8438,71.9688 265.25,71.4844 Q264.6563,71 264.0156,71 Q262.6875,71 262,72.0078 Q261.3125,73.0156 261.3125,75 Q261.3125,76.9844 262,77.9922 Q262.6875,79 264.0156,79 Q264.6563,79 265.25,78.5156 Q265.8438,78.0313 266.4688,77 L266.4688,80 Z "/><text fill="#000000" font-family="sans-serif" font-size="12" lengthAdjust="spacingAndGlyphs" textLength="145" x="277.5" y="79.1543">UnparsedUserUtterance</text><line style="stroke: #A80036; stroke-width: 1.5;" x1="249.5" x2="424.5" y1="91" y2="91"/><ellipse cx="259.5" cy="102.9023" fill="none" rx="3" ry="3" style="stroke: #038048; stroke-width: 1.0;"/><text fill="#000000" font-family="sans-serif" font-size="11" lengthAdjust="spacingAndGlyphs" textLength="68" x="268.5" y="105.2104">value:String</text><line style="stroke: #A80036; stroke-width: 1.5;" x1="249.5" x2="424.5" y1="111.8047" y2="111.8047"/><!--class SymbolCapture--><rect fill="#FEFECE" filter="url(#f5gknj5)" height="73.6094" style="stroke: #A80036; stroke-width: 1.5;" width="145" x="53.5" y="180"/><ellipse cx="77.5" cy="196" fill="#ADD1B2" rx="11" ry="11" style="stroke: #A80036; stroke-width: 1.0;"/><path d="M80.4688,201 Q79.8906,201.5 79.25,201.75 Q78.6094,202 77.9063,202 Q75.4063,202 74.0859,200.4609 Q72.7656,198.9219 72.7656,196 Q72.7656,193.0781 74.0859,191.5391 Q75.4063,190 77.9063,190 Q78.6094,190 79.2578,190.25 Q79.9063,190.5 80.4688,191 L80.4688,194 Q79.8438,192.9688 79.25,192.4844 Q78.6563,192 78.0156,192 Q76.6875,192 76,193.0078 Q75.3125,194.0156 75.3125,196 Q75.3125,197.9844 76,198.9922 Q76.6875,200 78.0156,200 Q78.6563,200 79.25,199.5156 Q79.8438,199.0313 80.4688,198 L80.4688,201 Z "/><text fill="#000000" font-family="sans-serif" font-size="12" lengthAdjust="spacingAndGlyphs" textLength="93" x="93.5" y="200.1543">SymbolCapture</text><line style="stroke: #A80036; stroke-width: 1.5;" x1="54.5" x2="197.5" y1="212" y2="212"/><ellipse cx="64.5" cy="223.9023" fill="none" rx="3" ry="3" style="stroke: #038048; stroke-width: 1.0;"/><text fill="#000000" font-family="sans-serif" font-size="11" lengthAdjust="spacingAndGlyphs" textLength="87" x="73.5" y="226.2104">symbol:Symbol</text><ellipse cx="64.5" cy="236.707" fill="none" rx="3" ry="3" style="stroke: #038048; stroke-width: 1.0;"/><text fill="#000000" font-family="sans-serif" font-size="11" lengthAdjust="spacingAndGlyphs" textLength="119" x="73.5" y="239.0151">db:CapturedMatchDB</text><line style="stroke: #A80036; stroke-width: 1.5;" x1="54.5" x2="197.5" y1="245.6094" y2="245.6094"/><!--class ParsedUtterance--><rect fill="#FEFECE" filter="url(#f5gknj5)" height="60.8047" style="stroke: #A80036; stroke-width: 1.5;" width="175" x="38.5" y="59"/><ellipse cx="72.85" cy="75" fill="#ADD1B2" rx="11" ry="11" style="stroke: #A80036; stroke-width: 1.0;"/><path d="M75.8188,80 Q75.2406,80.5 74.6,80.75 Q73.9594,81 73.2563,81 Q70.7563,81 69.4359,79.4609 Q68.1156,77.9219 68.1156,75 Q68.1156,72.0781 69.4359,70.5391 Q70.7563,69 73.2563,69 Q73.9594,69 74.6078,69.25 Q75.2563,69.5 75.8188,70 L75.8188,73 Q75.1938,71.9688 74.6,71.4844 Q74.0063,71 73.3656,71 Q72.0375,71 71.35,72.0078 Q70.6625,73.0156 70.6625,75 Q70.6625,76.9844 71.35,77.9922 Q72.0375,79 73.3656,79 Q74.0063,79 74.6,78.5156 Q75.1938,78.0313 75.8188,77 L75.8188,80 Z "/><text fill="#000000" font-family="sans-serif" font-size="12" lengthAdjust="spacingAndGlyphs" textLength="100" x="91.15" y="79.1543">ParsedUtterance</text><line style="stroke: #A80036; stroke-width: 1.5;" x1="39.5" x2="212.5" y1="91" y2="91"/><ellipse cx="49.5" cy="102.9023" fill="none" rx="3" ry="3" style="stroke: #038048; stroke-width: 1.0;"/><text fill="#000000" font-family="sans-serif" font-size="11" lengthAdjust="spacingAndGlyphs" textLength="149" x="58.5" y="105.2104">captured:[SymbolCapture]</text><line style="stroke: #A80036; stroke-width: 1.5;" x1="39.5" x2="212.5" y1="111.8047" y2="111.8047"/><path d="M115.966,254.246 C107.478,284.905 95.3817,328.601 86.9251,359.148 " fill="none" style="stroke: #A80036; stroke-width: 1.0;"/><polygon fill="#A80036" points="83.4334,371.761,88.8893,367.0457,86.6351,360.196,81.1793,364.9113,83.4334,371.761" style="stroke: #A80036; stroke-width: 1.0;"/><path d="M145.659,254.246 C162.437,285.18 186.413,329.386 202.999,359.967 " fill="none" style="stroke: #A80036; stroke-width: 1.0;"/><polygon fill="#A80036" points="209.396,371.761,210.0512,364.5797,203.6743,361.2129,203.0191,368.3942,209.396,371.761" style="stroke: #A80036; stroke-width: 1.0;"/><path d="M126,120.242 C126,134.033 126,150.798 126,166.422 " fill="none" style="stroke: #A80036; stroke-width: 1.0;"/><polygon fill="#A80036" points="126,179.755,130,173.755,126,167.755,122,173.755,126,179.755" style="stroke: #A80036; stroke-width: 1.0;"/><text fill="#000000" font-family="sans-serif" font-size="13" lengthAdjust="spacingAndGlyphs" textLength="7" x="118.3766" y="168.8983">*</text></g></svg>