<?xml version="1.0" encoding="UTF-8" standalone="yes"?><svg xmlns="http://www.w3.org/2000/svg" xmlns:xlink="http://www.w3.org/1999/xlink" height="655px" style="width:759px;height:655px;" version="1.1" viewBox="0 0 759 655" width="759px"><defs><filter height="300%" id="f1kunwi" width="300%" x="-1" y="-1"><feGaussianBlur result="blurOut" stdDeviation="2.0"/><feColorMatrix in="blurOut" result="blurOut2" type="matrix" values="0 0 0 0 0 0 0 0 0 0 0 0 0 0 0 0 0 0 .4 0"/><feOffset dx="4.0" dy="4.0" in="blurOut2" result="blurOut3"/><feBlend in="SourceGraphic" in2="blurOut3" mode="normal"/></filter></defs><g><!--cluster Drools--><polygon fill="#FFFFFF" filter="url(#f1kunwi)" points="97,415,155,415,162,437.2969,752,437.2969,752,648,97,648,97,415" style="stroke: #000000; stroke-width: 2.0;"/><line style="stroke: #000000; stroke-width: 2.0;" x1="97" x2="162" y1="437.2969" y2="437.2969"/><text fill="#000000" font-family="sans-serif" font-size="14" font-weight="bold" lengthAdjust="spacingAndGlyphs" textLength="52" x="101" y="429.9951">Drools</text><!--cluster model--><polygon fill="#FFFFFF" filter="url(#f1kunwi)" points="308,458,364,458,371,480.2969,728,480.2969,728,624,308,624,308,458" style="stroke: #000000; stroke-width: 2.0;"/><line style="stroke: #000000; stroke-width: 2.0;" x1="308" x2="371" y1="480.2969" y2="480.2969"/><text fill="#000000" font-family="sans-serif" font-size="14" font-weight="bold" lengthAdjust="spacingAndGlyphs" textLength="50" x="312" y="472.9951">model</text><!--cluster template.db--><polygon fill="#FFFFFF" filter="url(#f1kunwi)" points="548,501,652,501,659,523.2969,704,523.2969,704,600,548,600,548,501" style="stroke: #000000; stroke-width: 2.0;"/><line style="stroke: #000000; stroke-width: 2.0;" x1="548" x2="659" y1="523.2969" y2="523.2969"/><text fill="#000000" font-family="sans-serif" font-size="14" font-weight="bold" lengthAdjust="spacingAndGlyphs" textLength="98" x="552" y="515.9951">template.db</text><!--cluster dialogue--><polygon fill="#FFFFFF" filter="url(#f1kunwi)" points="22,24,97,24,104,46.2969,665,46.2969,665,391,22,391,22,24" style="stroke: #000000; stroke-width: 2.0;"/><line style="stroke: #000000; stroke-width: 2.0;" x1="22" x2="104" y1="46.2969" y2="46.2969"/><text fill="#000000" font-family="sans-serif" font-size="14" font-weight="bold" lengthAdjust="spacingAndGlyphs" textLength="69" x="26" y="38.9951">dialogue</text><!--class UnparsedUserUtterance--><rect fill="#FEFECE" filter="url(#f1kunwi)" height="48" style="stroke: #A80036; stroke-width: 1.5;" width="177" x="112.5" y="536"/><ellipse cx="127.5" cy="552" fill="#ADD1B2" rx="11" ry="11" style="stroke: #A80036; stroke-width: 1.0;"/><path d="M130.4688,557 Q129.8906,557.5 129.25,557.75 Q128.6094,558 127.9063,558 Q125.4063,558 124.0859,556.4609 Q122.7656,554.9219 122.7656,552 Q122.7656,549.0781 124.0859,547.5391 Q125.4063,546 127.9063,546 Q128.6094,546 129.2578,546.25 Q129.9063,546.5 130.4688,547 L130.4688,550 Q129.8438,548.9688 129.25,548.4844 Q128.6563,548 128.0156,548 Q126.6875,548 126,549.0078 Q125.3125,550.0156 125.3125,552 Q125.3125,553.9844 126,554.9922 Q126.6875,556 128.0156,556 Q128.6563,556 129.25,555.5156 Q129.8438,555.0313 130.4688,554 L130.4688,557 Z "/><text fill="#000000" font-family="sans-serif" font-size="12" lengthAdjust="spacingAndGlyphs" textLength="145" x="141.5" y="556.1543">UnparsedUserUtterance</text><line style="stroke: #A80036; stroke-width: 1.5;" x1="113.5" x2="288.5" y1="568" y2="568"/><line style="stroke: #A80036; stroke-width: 1.5;" x1="113.5" x2="288.5" y1="576" y2="576"/><!--class Symbol--><rect fill="#FEFECE" filter="url(#f1kunwi)" height="48" style="stroke: #A80036; stroke-width: 1.5;" width="77" x="324.5" y="536"/><ellipse cx="339.5" cy="552" fill="#ADD1B2" rx="11" ry="11" style="stroke: #A80036; stroke-width: 1.0;"/><path d="M342.4688,557 Q341.8906,557.5 341.25,557.75 Q340.6094,558 339.9063,558 Q337.4063,558 336.0859,556.4609 Q334.7656,554.9219 334.7656,552 Q334.7656,549.0781 336.0859,547.5391 Q337.4063,546 339.9063,546 Q340.6094,546 341.2578,546.25 Q341.9063,546.5 342.4688,547 L342.4688,550 Q341.8438,548.9688 341.25,548.4844 Q340.6563,548 340.0156,548 Q338.6875,548 338,549.0078 Q337.3125,550.0156 337.3125,552 Q337.3125,553.9844 338,554.9922 Q338.6875,556 340.0156,556 Q340.6563,556 341.25,555.5156 Q341.8438,555.0313 342.4688,554 L342.4688,557 Z "/><text fill="#000000" font-family="sans-serif" font-size="12" lengthAdjust="spacingAndGlyphs" textLength="45" x="353.5" y="556.1543">Symbol</text><line style="stroke: #A80036; stroke-width: 1.5;" x1="325.5" x2="400.5" y1="568" y2="568"/><line style="stroke: #A80036; stroke-width: 1.5;" x1="325.5" x2="400.5" y1="576" y2="576"/><!--class Utterance--><rect fill="#FEFECE" filter="url(#f1kunwi)" height="48" style="stroke: #A80036; stroke-width: 1.5;" width="92" x="437" y="536"/><ellipse cx="452" cy="552" fill="#ADD1B2" rx="11" ry="11" style="stroke: #A80036; stroke-width: 1.0;"/><path d="M454.9688,557 Q454.3906,557.5 453.75,557.75 Q453.1094,558 452.4063,558 Q449.9063,558 448.5859,556.4609 Q447.2656,554.9219 447.2656,552 Q447.2656,549.0781 448.5859,547.5391 Q449.9063,546 452.4063,546 Q453.1094,546 453.7578,546.25 Q454.4063,546.5 454.9688,547 L454.9688,550 Q454.3438,548.9688 453.75,548.4844 Q453.1563,548 452.5156,548 Q451.1875,548 450.5,549.0078 Q449.8125,550.0156 449.8125,552 Q449.8125,553.9844 450.5,554.9922 Q451.1875,556 452.5156,556 Q453.1563,556 453.75,555.5156 Q454.3438,555.0313 454.9688,554 L454.9688,557 Z "/><text fill="#000000" font-family="sans-serif" font-size="12" lengthAdjust="spacingAndGlyphs" textLength="60" x="466" y="556.1543">Utterance</text><line style="stroke: #A80036; stroke-width: 1.5;" x1="438" x2="528" y1="568" y2="568"/><line style="stroke: #A80036; stroke-width: 1.5;" x1="438" x2="528" y1="576" y2="576"/><!--class QueryDatabase--><rect fill="#FEFECE" filter="url(#f1kunwi)" height="48" style="stroke: #A80036; stroke-width: 1.5;" width="124" x="564" y="536"/><ellipse cx="579" cy="552" fill="#ADD1B2" rx="11" ry="11" style="stroke: #A80036; stroke-width: 1.0;"/><path d="M581.9688,557 Q581.3906,557.5 580.75,557.75 Q580.1094,558 579.4063,558 Q576.9063,558 575.5859,556.4609 Q574.2656,554.9219 574.2656,552 Q574.2656,549.0781 575.5859,547.5391 Q576.9063,546 579.4063,546 Q580.1094,546 580.7578,546.25 Q581.4063,546.5 581.9688,547 L581.9688,550 Q581.3438,548.9688 580.75,548.4844 Q580.1563,548 579.5156,548 Q578.1875,548 577.5,549.0078 Q576.8125,550.0156 576.8125,552 Q576.8125,553.9844 577.5,554.9922 Q578.1875,556 579.5156,556 Q580.1563,556 580.75,555.5156 Q581.3438,555.0313 581.9688,554 L581.9688,557 Z "/><text fill="#000000" font-family="sans-serif" font-size="12" lengthAdjust="spacingAndGlyphs" textLength="92" x="593" y="556.1543">QueryDatabase</text><line style="stroke: #A80036; stroke-width: 1.5;" x1="565" x2="687" y1="568" y2="568"/><line style="stroke: #A80036; stroke-width: 1.5;" x1="565" x2="687" y1="576" y2="576"/><!--class DefaultReply--><rect fill="#FEFECE" filter="url(#f1kunwi)" height="60.8047" style="stroke: #A80036; stroke-width: 1.5;" width="108" x="317" y="193"/><ellipse cx="332" cy="209" fill="#ADD1B2" rx="11" ry="11" style="stroke: #A80036; stroke-width: 1.0;"/><path d="M334.9688,214 Q334.3906,214.5 333.75,214.75 Q333.1094,215 332.4063,215 Q329.9063,215 328.5859,213.4609 Q327.2656,211.9219 327.2656,209 Q327.2656,206.0781 328.5859,204.5391 Q329.9063,203 332.4063,203 Q333.1094,203 333.7578,203.25 Q334.4063,203.5 334.9688,204 L334.9688,207 Q334.3438,205.9688 333.75,205.4844 Q333.1563,205 332.5156,205 Q331.1875,205 330.5,206.0078 Q329.8125,207.0156 329.8125,209 Q329.8125,210.9844 330.5,211.9922 Q331.1875,213 332.5156,213 Q333.1563,213 333.75,212.5156 Q334.3438,212.0313 334.9688,211 L334.9688,214 Z "/><text fill="#000000" font-family="sans-serif" font-size="12" lengthAdjust="spacingAndGlyphs" textLength="76" x="346" y="213.1543">DefaultReply</text><line style="stroke: #A80036; stroke-width: 1.5;" x1="318" x2="424" y1="225" y2="225"/><text fill="#000000" font-family="sans-serif" font-size="11" lengthAdjust="spacingAndGlyphs" textLength="87" x="323" y="239.2104">symbol:Symbol</text><line style="stroke: #A80036; stroke-width: 1.5;" x1="318" x2="424" y1="245.8047" y2="245.8047"/><!--class PreProcessed--><rect fill="#FEFECE" filter="url(#f1kunwi)" height="60.8047" style="stroke: #A80036; stroke-width: 1.5;" width="125" x="308.5" y="65.5"/><ellipse cx="329.8" cy="81.5" fill="#ADD1B2" rx="11" ry="11" style="stroke: #A80036; stroke-width: 1.0;"/><path d="M332.7688,86.5 Q332.1906,87 331.55,87.25 Q330.9094,87.5 330.2063,87.5 Q327.7063,87.5 326.3859,85.9609 Q325.0656,84.4219 325.0656,81.5 Q325.0656,78.5781 326.3859,77.0391 Q327.7063,75.5 330.2063,75.5 Q330.9094,75.5 331.5578,75.75 Q332.2063,76 332.7688,76.5 L332.7688,79.5 Q332.1438,78.4688 331.55,77.9844 Q330.9563,77.5 330.3156,77.5 Q328.9875,77.5 328.3,78.5078 Q327.6125,79.5156 327.6125,81.5 Q327.6125,83.4844 328.3,84.4922 Q328.9875,85.5 330.3156,85.5 Q330.9563,85.5 331.55,85.0156 Q332.1438,84.5313 332.7688,83.5 L332.7688,86.5 Z "/><text fill="#000000" font-family="sans-serif" font-size="12" lengthAdjust="spacingAndGlyphs" textLength="79" x="345.2" y="85.6543">PreProcessed</text><line style="stroke: #A80036; stroke-width: 1.5;" x1="309.5" x2="432.5" y1="97.5" y2="97.5"/><text fill="#000000" font-family="sans-serif" font-size="11" lengthAdjust="spacingAndGlyphs" textLength="113" x="314.5" y="111.7104">utterance:Utterance</text><line style="stroke: #A80036; stroke-width: 1.5;" x1="309.5" x2="432.5" y1="118.3047" y2="118.3047"/><!--class Reply--><rect fill="#FEFECE" filter="url(#f1kunwi)" height="73.6094" style="stroke: #A80036; stroke-width: 1.5;" width="180" x="469" y="59"/><ellipse cx="538.25" cy="75" fill="#ADD1B2" rx="11" ry="11" style="stroke: #A80036; stroke-width: 1.0;"/><path d="M541.2188,80 Q540.6406,80.5 540,80.75 Q539.3594,81 538.6563,81 Q536.1563,81 534.8359,79.4609 Q533.5156,77.9219 533.5156,75 Q533.5156,72.0781 534.8359,70.5391 Q536.1563,69 538.6563,69 Q539.3594,69 540.0078,69.25 Q540.6563,69.5 541.2188,70 L541.2188,73 Q540.5938,71.9688 540,71.4844 Q539.4063,71 538.7656,71 Q537.4375,71 536.75,72.0078 Q536.0625,73.0156 536.0625,75 Q536.0625,76.9844 536.75,77.9922 Q537.4375,79 538.7656,79 Q539.4063,79 540,78.5156 Q540.5938,78.0313 541.2188,77 L541.2188,80 Z "/><text fill="#000000" font-family="sans-serif" font-size="12" lengthAdjust="spacingAndGlyphs" textLength="33" x="558.75" y="79.1543">Reply</text><line style="stroke: #A80036; stroke-width: 1.5;" x1="470" x2="648" y1="91" y2="91"/><text fill="#000000" font-family="sans-serif" font-size="11" lengthAdjust="spacingAndGlyphs" textLength="82" x="475" y="105.2104">with:Utterance</text><text fill="#000000" font-family="sans-serif" font-size="11" lengthAdjust="spacingAndGlyphs" textLength="168" x="475" y="118.0151">insertQueries:QueryDatabase</text><line style="stroke: #A80036; stroke-width: 1.5;" x1="470" x2="648" y1="124.6094" y2="124.6094"/><!--class Parsing--><rect fill="#FEFECE" filter="url(#f1kunwi)" height="48" style="stroke: #A80036; stroke-width: 1.5;" width="76" x="197" y="72"/><ellipse cx="212" cy="88" fill="#ADD1B2" rx="11" ry="11" style="stroke: #A80036; stroke-width: 1.0;"/><path d="M214.9688,93 Q214.3906,93.5 213.75,93.75 Q213.1094,94 212.4063,94 Q209.9063,94 208.5859,92.4609 Q207.2656,90.9219 207.2656,88 Q207.2656,85.0781 208.5859,83.5391 Q209.9063,82 212.4063,82 Q213.1094,82 213.7578,82.25 Q214.4063,82.5 214.9688,83 L214.9688,86 Q214.3438,84.9688 213.75,84.4844 Q213.1563,84 212.5156,84 Q211.1875,84 210.5,85.0078 Q209.8125,86.0156 209.8125,88 Q209.8125,89.9844 210.5,90.9922 Q211.1875,92 212.5156,92 Q213.1563,92 213.75,91.5156 Q214.3438,91.0313 214.9688,90 L214.9688,93 Z "/><text fill="#000000" font-family="sans-serif" font-size="12" lengthAdjust="spacingAndGlyphs" textLength="44" x="226" y="92.1543">Parsing</text><line style="stroke: #A80036; stroke-width: 1.5;" x1="198" x2="272" y1="104" y2="104"/><line style="stroke: #A80036; stroke-width: 1.5;" x1="198" x2="272" y1="112" y2="112"/><!--class FinshedProcess--><rect fill="#FEFECE" filter="url(#f1kunwi)" height="48" style="stroke: #A80036; stroke-width: 1.5;" width="124" x="38" y="72"/><ellipse cx="53" cy="88" fill="#ADD1B2" rx="11" ry="11" style="stroke: #A80036; stroke-width: 1.0;"/><path d="M55.9688,93 Q55.3906,93.5 54.75,93.75 Q54.1094,94 53.4063,94 Q50.9063,94 49.5859,92.4609 Q48.2656,90.9219 48.2656,88 Q48.2656,85.0781 49.5859,83.5391 Q50.9063,82 53.4063,82 Q54.1094,82 54.7578,82.25 Q55.4063,82.5 55.9688,83 L55.9688,86 Q55.3438,84.9688 54.75,84.4844 Q54.1563,84 53.5156,84 Q52.1875,84 51.5,85.0078 Q50.8125,86.0156 50.8125,88 Q50.8125,89.9844 51.5,90.9922 Q52.1875,92 53.5156,92 Q54.1563,92 54.75,91.5156 Q55.3438,91.0313 55.9688,90 L55.9688,93 Z "/><text fill="#000000" font-family="sans-serif" font-size="12" lengthAdjust="spacingAndGlyphs" textLength="92" x="67" y="92.1543">FinshedProcess</text><line style="stroke: #A80036; stroke-width: 1.5;" x1="39" x2="161" y1="104" y2="104"/><line style="stroke: #A80036; stroke-width: 1.5;" x1="39" x2="161" y1="112" y2="112"/><!--class InScene--><rect fill="#FEFECE" filter="url(#f1kunwi)" height="60.8047" style="stroke: #A80036; stroke-width: 1.5;" width="197" x="43.5" y="314"/><ellipse cx="113.25" cy="330" fill="#ADD1B2" rx="11" ry="11" style="stroke: #A80036; stroke-width: 1.0;"/><path d="M116.2188,335 Q115.6406,335.5 115,335.75 Q114.3594,336 113.6563,336 Q111.1563,336 109.8359,334.4609 Q108.5156,332.9219 108.5156,330 Q108.5156,327.0781 109.8359,325.5391 Q111.1563,324 113.6563,324 Q114.3594,324 115.0078,324.25 Q115.6563,324.5 116.2188,325 L116.2188,328 Q115.5938,326.9688 115,326.4844 Q114.4063,326 113.7656,326 Q112.4375,326 111.75,327.0078 Q111.0625,328.0156 111.0625,330 Q111.0625,331.9844 111.75,332.9922 Q112.4375,334 113.7656,334 Q114.4063,334 115,333.5156 Q115.5938,333.0313 116.2188,332 L116.2188,335 Z "/><text fill="#000000" font-family="sans-serif" font-size="12" lengthAdjust="spacingAndGlyphs" textLength="49" x="133.75" y="334.1543">InScene</text><line style="stroke: #A80036; stroke-width: 1.5;" x1="44.5" x2="239.5" y1="346" y2="346"/><text fill="#000000" font-family="sans-serif" font-size="11" lengthAdjust="spacingAndGlyphs" textLength="181" x="49.5" y="360.2104">source: UnparsedUserUtterance</text><line style="stroke: #A80036; stroke-width: 1.5;" x1="44.5" x2="239.5" y1="366.8047" y2="366.8047"/><!--class NeigbourScene--><rect fill="#FEFECE" filter="url(#f1kunwi)" height="60.8047" style="stroke: #A80036; stroke-width: 1.5;" width="193" x="88.5" y="193"/><ellipse cx="134.75" cy="209" fill="#ADD1B2" rx="11" ry="11" style="stroke: #A80036; stroke-width: 1.0;"/><path d="M137.7188,214 Q137.1406,214.5 136.5,214.75 Q135.8594,215 135.1563,215 Q132.6563,215 131.3359,213.4609 Q130.0156,211.9219 130.0156,209 Q130.0156,206.0781 131.3359,204.5391 Q132.6563,203 135.1563,203 Q135.8594,203 136.5078,203.25 Q137.1563,203.5 137.7188,204 L137.7188,207 Q137.0938,205.9688 136.5,205.4844 Q135.9063,205 135.2656,205 Q133.9375,205 133.25,206.0078 Q132.5625,207.0156 132.5625,209 Q132.5625,210.9844 133.25,211.9922 Q133.9375,213 135.2656,213 Q135.9063,213 136.5,212.5156 Q137.0938,212.0313 137.7188,211 L137.7188,214 Z "/><text fill="#000000" font-family="sans-serif" font-size="12" lengthAdjust="spacingAndGlyphs" textLength="92" x="155.25" y="213.1543">NeigbourScene</text><line style="stroke: #A80036; stroke-width: 1.5;" x1="89.5" x2="280.5" y1="225" y2="225"/><text fill="#000000" font-family="sans-serif" font-size="11" lengthAdjust="spacingAndGlyphs" textLength="177" x="94.5" y="239.2104">source:UnparsedUserUtterance</text><line style="stroke: #A80036; stroke-width: 1.5;" x1="89.5" x2="280.5" y1="245.8047" y2="245.8047"/><path d="M370.29,254.185 C368.823,315.536 365.46,456.128 363.867,522.732 " fill="none" style="stroke: #A80036; stroke-width: 1.0;"/><polygon fill="#A80036" points="363.556,535.767,367.6979,529.8641,363.8422,523.7704,359.7002,529.6733,363.556,535.767" style="stroke: #A80036; stroke-width: 1.0;"/><path d="M399.586,126.895 C414.828,144.677 432.377,168.495 442,193 C486.728,306.904 487.494,455.06 485.031,522.591 " fill="none" style="stroke: #A80036; stroke-width: 1.0;"/><polygon fill="#A80036" points="484.471,535.737,488.7225,529.9125,484.9813,523.7479,480.7298,529.5723,484.471,535.737" style="stroke: #A80036; stroke-width: 1.0;"/><path d="M553.036,133.252 C538.818,219.685 503.058,437.067 488.902,523.121 " fill="none" style="stroke: #A80036; stroke-width: 1.0;"/><polygon fill="#A80036" points="486.784,535.996,491.7054,530.7254,488.733,524.1553,483.8116,529.426,486.784,535.996" style="stroke: #A80036; stroke-width: 1.0;"/><path d="M565.797,133.412 C569.053,151.33 572.906,173.268 576,193 C594.879,313.415 613.284,456.762 621.514,522.623 " fill="none" style="stroke: #A80036; stroke-width: 1.0;"/><polygon fill="#A80036" points="623.157,535.83,626.3859,529.3822,621.676,523.9217,618.4471,530.3695,623.157,535.83" style="stroke: #A80036; stroke-width: 1.0;"/><path d="M150.204,375.186 C160.895,413.873 179.576,481.474 191.06,523.029 " fill="none" style="stroke: #A80036; stroke-width: 1.0;"/><polygon fill="#A80036" points="194.586,535.79,196.8432,528.9413,191.3894,524.2236,189.1322,531.0723,194.586,535.79" style="stroke: #A80036; stroke-width: 1.0;"/><path d="M218.083,254.248 C233.384,270.251 249.928,291.333 258,314 C283.943,386.853 246.72,476.148 221.306,524.278 " fill="none" style="stroke: #A80036; stroke-width: 1.0;"/><polygon fill="#A80036" points="214.987,535.874,221.3705,532.5197,220.7294,525.3372,214.3459,528.6914,214.987,535.874" style="stroke: #A80036; stroke-width: 1.0;"/></g></svg>