<?xml version="1.0" encoding="UTF-8" standalone="yes"?><svg xmlns="http://www.w3.org/2000/svg" xmlns:xlink="http://www.w3.org/1999/xlink" height="291px" style="width:300px;height:291px;" version="1.1" viewBox="0 0 300 291" width="300px"><defs><filter height="300%" id="f9gjkzh" width="300%" x="-1" y="-1"><feGaussianBlur result="blurOut" stdDeviation="2.0"/><feColorMatrix in="blurOut" result="blurOut2" type="matrix" values="0 0 0 0 0 0 0 0 0 0 0 0 0 0 0 0 0 0 .4 0"/><feOffset dx="4.0" dy="4.0" in="blurOut2" result="blurOut3"/><feBlend in="SourceGraphic" in2="blurOut3" mode="normal"/></filter></defs><g><!--cluster model--><polygon fill="#FFFFFF" filter="url(#f9gjkzh)" points="36,185,92,185,99,207.2969,293,207.2969,293,284,36,284,36,185" style="stroke: #000000; stroke-width: 2.0;"/><line style="stroke: #000000; stroke-width: 2.0;" x1="36" x2="99" y1="207.2969" y2="207.2969"/><text fill="#000000" font-family="sans-serif" font-size="14" font-weight="bold" lengthAdjust="spacingAndGlyphs" textLength="50" x="40" y="199.9951">model</text><!--cluster personality--><polygon fill="#FFFFFF" filter="url(#f9gjkzh)" points="22,24,118,24,125,46.2969,278,46.2969,278,161,22,161,22,24" style="stroke: #000000; stroke-width: 2.0;"/><line style="stroke: #000000; stroke-width: 2.0;" x1="22" x2="125" y1="46.2969" y2="46.2969"/><text fill="#000000" font-family="sans-serif" font-size="14" font-weight="bold" lengthAdjust="spacingAndGlyphs" textLength="90" x="26" y="38.9951">personality</text><!--class Believes--><rect fill="#FEFECE" filter="url(#f9gjkzh)" height="48" style="stroke: #A80036; stroke-width: 1.5;" width="80" x="197" y="220"/><ellipse cx="212" cy="236" fill="#ADD1B2" rx="11" ry="11" style="stroke: #A80036; stroke-width: 1.0;"/><path d="M214.9688,241 Q214.3906,241.5 213.75,241.75 Q213.1094,242 212.4063,242 Q209.9063,242 208.5859,240.4609 Q207.2656,238.9219 207.2656,236 Q207.2656,233.0781 208.5859,231.5391 Q209.9063,230 212.4063,230 Q213.1094,230 213.7578,230.25 Q214.4063,230.5 214.9688,231 L214.9688,234 Q214.3438,232.9688 213.75,232.4844 Q213.1563,232 212.5156,232 Q211.1875,232 210.5,233.0078 Q209.8125,234.0156 209.8125,236 Q209.8125,237.9844 210.5,238.9922 Q211.1875,240 212.5156,240 Q213.1563,240 213.75,239.5156 Q214.3438,239.0313 214.9688,238 L214.9688,241 Z "/><text fill="#000000" font-family="sans-serif" font-size="12" lengthAdjust="spacingAndGlyphs" textLength="48" x="226" y="240.1543">Believes</text><line style="stroke: #A80036; stroke-width: 1.5;" x1="198" x2="276" y1="252" y2="252"/><line style="stroke: #A80036; stroke-width: 1.5;" x1="198" x2="276" y1="260" y2="260"/><!--class DialogueTree--><rect fill="#FEFECE" filter="url(#f9gjkzh)" height="48" style="stroke: #A80036; stroke-width: 1.5;" width="110" x="52" y="220"/><ellipse cx="67" cy="236" fill="#ADD1B2" rx="11" ry="11" style="stroke: #A80036; stroke-width: 1.0;"/><path d="M69.9688,241 Q69.3906,241.5 68.75,241.75 Q68.1094,242 67.4063,242 Q64.9063,242 63.5859,240.4609 Q62.2656,238.9219 62.2656,236 Q62.2656,233.0781 63.5859,231.5391 Q64.9063,230 67.4063,230 Q68.1094,230 68.7578,230.25 Q69.4063,230.5 69.9688,231 L69.9688,234 Q69.3438,232.9688 68.75,232.4844 Q68.1563,232 67.5156,232 Q66.1875,232 65.5,233.0078 Q64.8125,234.0156 64.8125,236 Q64.8125,237.9844 65.5,238.9922 Q66.1875,240 67.5156,240 Q68.1563,240 68.75,239.5156 Q69.3438,239.0313 69.9688,238 L69.9688,241 Z "/><text fill="#000000" font-family="sans-serif" font-size="12" lengthAdjust="spacingAndGlyphs" textLength="78" x="81" y="240.1543">DialogueTree</text><line style="stroke: #A80036; stroke-width: 1.5;" x1="53" x2="161" y1="252" y2="252"/><line style="stroke: #A80036; stroke-width: 1.5;" x1="53" x2="161" y1="260" y2="260"/><!--class PersonalityProcess--><rect fill="#FEFECE" filter="url(#f9gjkzh)" height="86.4141" style="stroke: #A80036; stroke-width: 1.5;" width="224" x="38" y="59"/><ellipse cx="90.75" cy="75" fill="#ADD1B2" rx="11" ry="11" style="stroke: #A80036; stroke-width: 1.0;"/><path d="M93.7188,80 Q93.1406,80.5 92.5,80.75 Q91.8594,81 91.1563,81 Q88.6563,81 87.3359,79.4609 Q86.0156,77.9219 86.0156,75 Q86.0156,72.0781 87.3359,70.5391 Q88.6563,69 91.1563,69 Q91.8594,69 92.5078,69.25 Q93.1563,69.5 93.7188,70 L93.7188,73 Q93.0938,71.9688 92.5,71.4844 Q91.9063,71 91.2656,71 Q89.9375,71 89.25,72.0078 Q88.5625,73.0156 88.5625,75 Q88.5625,76.9844 89.25,77.9922 Q89.9375,79 91.2656,79 Q91.9063,79 92.5,78.5156 Q93.0938,78.0313 93.7188,77 L93.7188,80 Z "/><text fill="#000000" font-family="sans-serif" font-size="12" lengthAdjust="spacingAndGlyphs" textLength="110" x="111.25" y="79.1543">PersonalityProcess</text><line style="stroke: #A80036; stroke-width: 1.5;" x1="39" x2="261" y1="91" y2="91"/><ellipse cx="49" cy="102.9023" fill="none" rx="3" ry="3" style="stroke: #038048; stroke-width: 1.0;"/><text fill="#000000" font-family="sans-serif" font-size="11" lengthAdjust="spacingAndGlyphs" textLength="198" x="58" y="105.2104">under_consideration: DialogueTree</text><ellipse cx="49" cy="115.707" fill="none" rx="3" ry="3" style="stroke: #038048; stroke-width: 1.0;"/><text fill="#000000" font-family="sans-serif" font-size="11" lengthAdjust="spacingAndGlyphs" textLength="99" x="58" y="118.0151">believes:Believes</text><ellipse cx="49" cy="128.5117" fill="none" rx="3" ry="3" style="stroke: #038048; stroke-width: 1.0;"/><text fill="#000000" font-family="sans-serif" font-size="11" lengthAdjust="spacingAndGlyphs" textLength="89" x="58" y="130.8198">functionTasks:[]</text><line style="stroke: #A80036; stroke-width: 1.5;" x1="39" x2="261" y1="137.4141" y2="137.4141"/><path d="M176.103,145.005 C188.703,165.281 203.636,189.31 215.56,208.4989 " fill="none" style="stroke: #A80036; stroke-width: 1.0;"/><polygon fill="#A80036" points="222.548,219.7444,222.7784,212.537,216.214,209.5522,215.9836,216.7596,222.548,219.7444" style="stroke: #A80036; stroke-width: 1.0;"/><path d="M137.099,145.005 C131.018,164.803 123.838,188.179 118.016,207.1332 " fill="none" style="stroke: #A80036; stroke-width: 1.0;"/><polygon fill="#A80036" points="114.143,219.7444,119.7283,215.1832,117.6662,208.2733,112.0809,212.8344,114.143,219.7444" style="stroke: #A80036; stroke-width: 1.0;"/></g></svg>