<?xml version="1.0" encoding="UTF-8" standalone="yes"?><svg xmlns="http://www.w3.org/2000/svg" xmlns:xlink="http://www.w3.org/1999/xlink" height="699px" style="width:855px;height:699px;" version="1.1" viewBox="0 0 855 699" width="855px"><defs><filter height="300%" id="fhv72hh" width="300%" x="-1" y="-1"><feGaussianBlur result="blurOut" stdDeviation="2.0"/><feColorMatrix in="blurOut" result="blurOut2" type="matrix" values="0 0 0 0 0 0 0 0 0 0 0 0 0 0 0 0 0 0 .4 0"/><feOffset dx="4.0" dy="4.0" in="blurOut2" result="blurOut3"/><feBlend in="SourceGraphic" in2="blurOut3" mode="normal"/></filter></defs><g><!--cluster template--><polygon fill="#FFFFFF" filter="url(#fhv72hh)" points="22,123,101,123,108,145.2969,576,145.2969,576,692,22,692,22,123" style="stroke: #000000; stroke-width: 2.0;"/><line style="stroke: #000000; stroke-width: 2.0;" x1="22" x2="108" y1="145.2969" y2="145.2969"/><text fill="#000000" font-family="sans-serif" font-size="14" font-weight="bold" lengthAdjust="spacingAndGlyphs" textLength="73" x="26" y="137.9951">template</text><!--cluster db--><polygon fill="#FFFFFF" filter="url(#fhv72hh)" points="46,166,72,166,79,188.2969,552,188.2969,552,265,46,265,46,166" style="stroke: #000000; stroke-width: 2.0;"/><line style="stroke: #000000; stroke-width: 2.0;" x1="46" x2="79" y1="188.2969" y2="188.2969"/><text fill="#000000" font-family="sans-serif" font-size="14" font-weight="bold" lengthAdjust="spacingAndGlyphs" textLength="20" x="50" y="180.9951">db</text><!--class ATemplate--><rect fill="#FEFECE" filter="url(#fhv72hh)" height="60.8047" style="stroke: #A80036; stroke-width: 1.5;" width="96" x="240" y="615"/><ellipse cx="255" cy="631" fill="#A9DCDF" rx="11" ry="11" style="stroke: #A80036; stroke-width: 1.0;"/><path d="M255.1094,626.3906 L253.9531,631.25 L256.2813,631.25 L255.1094,626.3906 Z M253.625,624.25 L256.6094,624.25 L259.9688,636.25 L257.5156,636.25 L256.75,633.25 L253.4688,633.25 L252.7188,636.25 L250.2813,636.25 L253.625,624.25 Z "/><text fill="#000000" font-family="sans-serif" font-size="12" font-style="italic" lengthAdjust="spacingAndGlyphs" textLength="64" x="269" y="635.1543">ATemplate</text><line style="stroke: #A80036; stroke-width: 1.5;" x1="241" x2="335" y1="647" y2="647"/><ellipse cx="251" cy="658.9023" fill="none" rx="3" ry="3" style="stroke: #038048; stroke-width: 1.0;"/><text fill="#000000" font-family="sans-serif" font-size="11" lengthAdjust="spacingAndGlyphs" textLength="69" x="260" y="661.2104">name:String</text><line style="stroke: #A80036; stroke-width: 1.5;" x1="241" x2="335" y1="667.8047" y2="667.8047"/><!--class TemplateAttribute--><rect fill="#FEFECE" filter="url(#fhv72hh)" height="48" style="stroke: #A80036; stroke-width: 1.5;" width="142" x="280" y="481.5"/><ellipse cx="295" cy="497.5" fill="#ADD1B2" rx="11" ry="11" style="stroke: #A80036; stroke-width: 1.0;"/><path d="M297.9688,502.5 Q297.3906,503 296.75,503.25 Q296.1094,503.5 295.4063,503.5 Q292.9063,503.5 291.5859,501.9609 Q290.2656,500.4219 290.2656,497.5 Q290.2656,494.5781 291.5859,493.0391 Q292.9063,491.5 295.4063,491.5 Q296.1094,491.5 296.7578,491.75 Q297.4063,492 297.9688,492.5 L297.9688,495.5 Q297.3438,494.4688 296.75,493.9844 Q296.1563,493.5 295.5156,493.5 Q294.1875,493.5 293.5,494.5078 Q292.8125,495.5156 292.8125,497.5 Q292.8125,499.4844 293.5,500.4922 Q294.1875,501.5 295.5156,501.5 Q296.1563,501.5 296.75,501.0156 Q297.3438,500.5313 297.9688,499.5 L297.9688,502.5 Z "/><text fill="#000000" font-family="sans-serif" font-size="12" lengthAdjust="spacingAndGlyphs" textLength="110" x="309" y="501.6543">TemplateAttribute</text><line style="stroke: #A80036; stroke-width: 1.5;" x1="281" x2="421" y1="513.5" y2="513.5"/><line style="stroke: #A80036; stroke-width: 1.5;" x1="281" x2="421" y1="521.5" y2="521.5"/><!--class TemplateValue--><rect fill="#FEFECE" filter="url(#fhv72hh)" height="48" style="stroke: #A80036; stroke-width: 1.5;" width="121" x="138.5" y="335"/><ellipse cx="153.5" cy="351" fill="#ADD1B2" rx="11" ry="11" style="stroke: #A80036; stroke-width: 1.0;"/><path d="M156.4688,356 Q155.8906,356.5 155.25,356.75 Q154.6094,357 153.9063,357 Q151.4063,357 150.0859,355.4609 Q148.7656,353.9219 148.7656,351 Q148.7656,348.0781 150.0859,346.5391 Q151.4063,345 153.9063,345 Q154.6094,345 155.2578,345.25 Q155.9063,345.5 156.4688,346 L156.4688,349 Q155.8438,347.9688 155.25,347.4844 Q154.6563,347 154.0156,347 Q152.6875,347 152,348.0078 Q151.3125,349.0156 151.3125,351 Q151.3125,352.9844 152,353.9922 Q152.6875,355 154.0156,355 Q154.6563,355 155.25,354.5156 Q155.8438,354.0313 156.4688,353 L156.4688,356 Z "/><text fill="#000000" font-family="sans-serif" font-size="12" lengthAdjust="spacingAndGlyphs" textLength="89" x="167.5" y="355.1543">TemplateValue</text><line style="stroke: #A80036; stroke-width: 1.5;" x1="139.5" x2="258.5" y1="367" y2="367"/><line style="stroke: #A80036; stroke-width: 1.5;" x1="139.5" x2="258.5" y1="375" y2="375"/><!--class InsertQuery--><rect fill="#FEFECE" filter="url(#fhv72hh)" height="73.6094" style="stroke: #A80036; stroke-width: 1.5;" width="148" x="406" y="322"/><ellipse cx="441.25" cy="338" fill="#ADD1B2" rx="11" ry="11" style="stroke: #A80036; stroke-width: 1.0;"/><path d="M444.2188,343 Q443.6406,343.5 443,343.75 Q442.3594,344 441.6563,344 Q439.1563,344 437.8359,342.4609 Q436.5156,340.9219 436.5156,338 Q436.5156,335.0781 437.8359,333.5391 Q439.1563,332 441.6563,332 Q442.3594,332 443.0078,332.25 Q443.6563,332.5 444.2188,333 L444.2188,336 Q443.5938,334.9688 443,334.4844 Q442.4063,334 441.7656,334 Q440.4375,334 439.75,335.0078 Q439.0625,336.0156 439.0625,338 Q439.0625,339.9844 439.75,340.9922 Q440.4375,342 441.7656,342 Q442.4063,342 443,341.5156 Q443.5938,341.0313 444.2188,340 L444.2188,343 Z "/><text fill="#000000" font-family="sans-serif" font-size="12" lengthAdjust="spacingAndGlyphs" textLength="71" x="459.75" y="342.1543">InsertQuery</text><line style="stroke: #A80036; stroke-width: 1.5;" x1="407" x2="553" y1="354" y2="354"/><text fill="#000000" font-family="sans-serif" font-size="11" lengthAdjust="spacingAndGlyphs" textLength="134" x="412" y="368.2104">informative:Informative</text><text fill="#000000" font-family="sans-serif" font-size="11" lengthAdjust="spacingAndGlyphs" textLength="136" x="412" y="381.0151">templateAttribute:Match</text><line style="stroke: #A80036; stroke-width: 1.5;" x1="407" x2="553" y1="387.6094" y2="387.6094"/><!--class CapturedMatchDB--><rect fill="#FEFECE" filter="url(#fhv72hh)" height="48" style="stroke: #A80036; stroke-width: 1.5;" width="142" x="62" y="201"/><ellipse cx="77" cy="217" fill="#ADD1B2" rx="11" ry="11" style="stroke: #A80036; stroke-width: 1.0;"/><path d="M79.9688,222 Q79.3906,222.5 78.75,222.75 Q78.1094,223 77.4063,223 Q74.9063,223 73.5859,221.4609 Q72.2656,219.9219 72.2656,217 Q72.2656,214.0781 73.5859,212.5391 Q74.9063,211 77.4063,211 Q78.1094,211 78.7578,211.25 Q79.4063,211.5 79.9688,212 L79.9688,215 Q79.3438,213.9688 78.75,213.4844 Q78.1563,213 77.5156,213 Q76.1875,213 75.5,214.0078 Q74.8125,215.0156 74.8125,217 Q74.8125,218.9844 75.5,219.9922 Q76.1875,221 77.5156,221 Q78.1563,221 78.75,220.5156 Q79.3438,220.0313 79.9688,219 L79.9688,222 Z "/><text fill="#000000" font-family="sans-serif" font-size="12" lengthAdjust="spacingAndGlyphs" textLength="110" x="91" y="221.1543">CapturedMatchDB</text><line style="stroke: #A80036; stroke-width: 1.5;" x1="63" x2="203" y1="233" y2="233"/><line style="stroke: #A80036; stroke-width: 1.5;" x1="63" x2="203" y1="241" y2="241"/><!--class MatchedQueryDB--><rect fill="#FEFECE" filter="url(#fhv72hh)" height="48" style="stroke: #A80036; stroke-width: 1.5;" width="137" x="239.5" y="201"/><ellipse cx="254.5" cy="217" fill="#ADD1B2" rx="11" ry="11" style="stroke: #A80036; stroke-width: 1.0;"/><path d="M257.4688,222 Q256.8906,222.5 256.25,222.75 Q255.6094,223 254.9063,223 Q252.4063,223 251.0859,221.4609 Q249.7656,219.9219 249.7656,217 Q249.7656,214.0781 251.0859,212.5391 Q252.4063,211 254.9063,211 Q255.6094,211 256.2578,211.25 Q256.9063,211.5 257.4688,212 L257.4688,215 Q256.8438,213.9688 256.25,213.4844 Q255.6563,213 255.0156,213 Q253.6875,213 253,214.0078 Q252.3125,215.0156 252.3125,217 Q252.3125,218.9844 253,219.9922 Q253.6875,221 255.0156,221 Q255.6563,221 256.25,220.5156 Q256.8438,220.0313 257.4688,219 L257.4688,222 Z "/><text fill="#000000" font-family="sans-serif" font-size="12" lengthAdjust="spacingAndGlyphs" textLength="105" x="268.5" y="221.1543">MatchedQueryDB</text><line style="stroke: #A80036; stroke-width: 1.5;" x1="240.5" x2="375.5" y1="233" y2="233"/><line style="stroke: #A80036; stroke-width: 1.5;" x1="240.5" x2="375.5" y1="241" y2="241"/><!--class QueryDatabase--><rect fill="#FEFECE" filter="url(#fhv72hh)" height="48" style="stroke: #A80036; stroke-width: 1.5;" width="124" x="412" y="201"/><ellipse cx="427" cy="217" fill="#ADD1B2" rx="11" ry="11" style="stroke: #A80036; stroke-width: 1.0;"/><path d="M429.9688,222 Q429.3906,222.5 428.75,222.75 Q428.1094,223 427.4063,223 Q424.9063,223 423.5859,221.4609 Q422.2656,219.9219 422.2656,217 Q422.2656,214.0781 423.5859,212.5391 Q424.9063,211 427.4063,211 Q428.1094,211 428.7578,211.25 Q429.4063,211.5 429.9688,212 L429.9688,215 Q429.3438,213.9688 428.75,213.4844 Q428.1563,213 427.5156,213 Q426.1875,213 425.5,214.0078 Q424.8125,215.0156 424.8125,217 Q424.8125,218.9844 425.5,219.9922 Q426.1875,221 427.5156,221 Q428.1563,221 428.75,220.5156 Q429.3438,220.0313 429.9688,219 L429.9688,222 Z "/><text fill="#000000" font-family="sans-serif" font-size="12" lengthAdjust="spacingAndGlyphs" textLength="92" x="441" y="221.1543">QueryDatabase</text><line style="stroke: #A80036; stroke-width: 1.5;" x1="413" x2="535" y1="233" y2="233"/><line style="stroke: #A80036; stroke-width: 1.5;" x1="413" x2="535" y1="241" y2="241"/><!--class Symbol--><rect fill="#FEFECE" filter="url(#fhv72hh)" height="99.2188" style="stroke: #A80036; stroke-width: 1.5;" width="194" x="592" y="456"/><ellipse cx="662.25" cy="472" fill="#ADD1B2" rx="11" ry="11" style="stroke: #A80036; stroke-width: 1.0;"/><path d="M665.2188,477 Q664.6406,477.5 664,477.75 Q663.3594,478 662.6563,478 Q660.1563,478 658.8359,476.4609 Q657.5156,474.9219 657.5156,472 Q657.5156,469.0781 658.8359,467.5391 Q660.1563,466 662.6563,466 Q663.3594,466 664.0078,466.25 Q664.6563,466.5 665.2188,467 L665.2188,470 Q664.5938,468.9688 664,468.4844 Q663.4063,468 662.7656,468 Q661.4375,468 660.75,469.0078 Q660.0625,470.0156 660.0625,472 Q660.0625,473.9844 660.75,474.9922 Q661.4375,476 662.7656,476 Q663.4063,476 664,475.5156 Q664.5938,475.0313 665.2188,474 L665.2188,477 Z "/><text fill="#000000" font-family="sans-serif" font-size="12" lengthAdjust="spacingAndGlyphs" textLength="45" x="682.75" y="476.1543">Symbol</text><line style="stroke: #A80036; stroke-width: 1.5;" x1="593" x2="785" y1="488" y2="488"/><ellipse cx="603" cy="499.9023" fill="none" rx="3" ry="3" style="stroke: #038048; stroke-width: 1.0;"/><text fill="#000000" font-family="sans-serif" font-size="11" lengthAdjust="spacingAndGlyphs" textLength="69" x="612" y="502.2104">name:String</text><ellipse cx="603" cy="512.707" fill="none" rx="3" ry="3" style="stroke: #038048; stroke-width: 1.0;"/><text fill="#000000" font-family="sans-serif" font-size="11" lengthAdjust="spacingAndGlyphs" textLength="71" x="612" y="515.0151">scene:Scene</text><rect fill="none" height="6" style="stroke: #C82930; stroke-width: 1.0;" width="6" x="600" y="522.5117"/><text fill="#000000" font-family="sans-serif" font-size="11" lengthAdjust="spacingAndGlyphs" textLength="83" x="612" y="527.8198">literals:[String]</text><rect fill="none" height="6" style="stroke: #C82930; stroke-width: 1.0;" width="6" x="600" y="535.3164"/><text fill="#000000" font-family="sans-serif" font-size="11" lengthAdjust="spacingAndGlyphs" textLength="168" x="612" y="540.6245">required:{TemplateAttribute}</text><line style="stroke: #A80036; stroke-width: 1.5;" x1="593" x2="785" y1="547.2188" y2="547.2188"/><!--class Informative--><rect fill="#FEFECE" filter="url(#fhv72hh)" height="73.6094" style="stroke: #A80036; stroke-width: 1.5;" width="101" x="615.5" y="322"/><ellipse cx="630.5" cy="338" fill="#ADD1B2" rx="11" ry="11" style="stroke: #A80036; stroke-width: 1.0;"/><path d="M633.4688,343 Q632.8906,343.5 632.25,343.75 Q631.6094,344 630.9063,344 Q628.4063,344 627.0859,342.4609 Q625.7656,340.9219 625.7656,338 Q625.7656,335.0781 627.0859,333.5391 Q628.4063,332 630.9063,332 Q631.6094,332 632.2578,332.25 Q632.9063,332.5 633.4688,333 L633.4688,336 Q632.8438,334.9688 632.25,334.4844 Q631.6563,334 631.0156,334 Q629.6875,334 629,335.0078 Q628.3125,336.0156 628.3125,338 Q628.3125,339.9844 629,340.9922 Q629.6875,342 631.0156,342 Q631.6563,342 632.25,341.5156 Q632.8438,341.0313 633.4688,340 L633.4688,343 Z "/><text fill="#000000" font-family="sans-serif" font-size="12" lengthAdjust="spacingAndGlyphs" textLength="69" x="644.5" y="342.1543">Informative</text><line style="stroke: #A80036; stroke-width: 1.5;" x1="616.5" x2="715.5" y1="354" y2="354"/><ellipse cx="626.5" cy="365.9023" fill="none" rx="3" ry="3" style="stroke: #038048; stroke-width: 1.0;"/><text fill="#000000" font-family="sans-serif" font-size="11" lengthAdjust="spacingAndGlyphs" textLength="73" x="635.5" y="368.2104">what:Symbol</text><ellipse cx="626.5" cy="378.707" fill="none" rx="3" ry="3" style="stroke: #038048; stroke-width: 1.0;"/><text fill="#000000" font-family="sans-serif" font-size="11" lengthAdjust="spacingAndGlyphs" textLength="57" x="635.5" y="381.0151">who:Actor</text><line style="stroke: #A80036; stroke-width: 1.5;" x1="616.5" x2="715.5" y1="387.6094" y2="387.6094"/><!--class Before--><rect fill="#FEFECE" filter="url(#fhv72hh)" height="73.6094" style="stroke: #A80036; stroke-width: 1.5;" width="156" x="663" y="188"/><ellipse cx="717.75" cy="204" fill="#ADD1B2" rx="11" ry="11" style="stroke: #A80036; stroke-width: 1.0;"/><path d="M720.7188,209 Q720.1406,209.5 719.5,209.75 Q718.8594,210 718.1563,210 Q715.6563,210 714.3359,208.4609 Q713.0156,206.9219 713.0156,204 Q713.0156,201.0781 714.3359,199.5391 Q715.6563,198 718.1563,198 Q718.8594,198 719.5078,198.25 Q720.1563,198.5 720.7188,199 L720.7188,202 Q720.0938,200.9688 719.5,200.4844 Q718.9063,200 718.2656,200 Q716.9375,200 716.25,201.0078 Q715.5625,202.0156 715.5625,204 Q715.5625,205.9844 716.25,206.9922 Q716.9375,208 718.2656,208 Q718.9063,208 719.5,207.5156 Q720.0938,207.0313 720.7188,206 L720.7188,209 Z "/><text fill="#000000" font-family="sans-serif" font-size="12" lengthAdjust="spacingAndGlyphs" textLength="38" x="738.25" y="208.1543">Before</text><line style="stroke: #A80036; stroke-width: 1.5;" x1="664" x2="818" y1="220" y2="220"/><text fill="#000000" font-family="sans-serif" font-size="11" lengthAdjust="spacingAndGlyphs" textLength="144" x="669" y="234.2104">before:Optional&lt;Before&gt;</text><text fill="#000000" font-family="sans-serif" font-size="11" lengthAdjust="spacingAndGlyphs" textLength="134" x="669" y="247.0151">informative:Informative</text><line style="stroke: #A80036; stroke-width: 1.5;" x1="664" x2="818" y1="253.6094" y2="253.6094"/><!--class Connection--><rect fill="#FEFECE" filter="url(#fhv72hh)" height="99.2188" style="stroke: #A80036; stroke-width: 1.5;" width="199" x="507.5" y="8"/><ellipse cx="568.75" cy="24" fill="#ADD1B2" rx="11" ry="11" style="stroke: #A80036; stroke-width: 1.0;"/><path d="M571.7188,29 Q571.1406,29.5 570.5,29.75 Q569.8594,30 569.1563,30 Q566.6563,30 565.3359,28.4609 Q564.0156,26.9219 564.0156,24 Q564.0156,21.0781 565.3359,19.5391 Q566.6563,18 569.1563,18 Q569.8594,18 570.5078,18.25 Q571.1563,18.5 571.7188,19 L571.7188,22 Q571.0938,20.9688 570.5,20.4844 Q569.9063,20 569.2656,20 Q567.9375,20 567.25,21.0078 Q566.5625,22.0156 566.5625,24 Q566.5625,25.9844 567.25,26.9922 Q567.9375,28 569.2656,28 Q569.9063,28 570.5,27.5156 Q571.0938,27.0313 571.7188,26 L571.7188,29 Z "/><text fill="#000000" font-family="sans-serif" font-size="12" lengthAdjust="spacingAndGlyphs" textLength="68" x="589.25" y="28.1543">Connection</text><line style="stroke: #A80036; stroke-width: 1.5;" x1="508.5" x2="705.5" y1="40" y2="40"/><ellipse cx="518.5" cy="51.9023" fill="none" rx="3" ry="3" style="stroke: #038048; stroke-width: 1.0;"/><text fill="#000000" font-family="sans-serif" font-size="11" lengthAdjust="spacingAndGlyphs" textLength="57" x="527.5" y="54.2104">to:Symbol</text><ellipse cx="518.5" cy="64.707" fill="none" rx="3" ry="3" style="stroke: #038048; stroke-width: 1.0;"/><text fill="#000000" font-family="sans-serif" font-size="11" lengthAdjust="spacingAndGlyphs" textLength="105" x="527.5" y="67.0151">restricted_to:Actor</text><ellipse cx="518.5" cy="77.5117" fill="none" rx="3" ry="3" style="stroke: #038048; stroke-width: 1.0;"/><text fill="#000000" font-family="sans-serif" font-size="11" lengthAdjust="spacingAndGlyphs" textLength="173" x="527.5" y="79.8198">values:PerlocationaryValueSet</text><ellipse cx="518.5" cy="90.3164" fill="none" rx="3" ry="3" style="stroke: #038048; stroke-width: 1.0;"/><text fill="#000000" font-family="sans-serif" font-size="11" lengthAdjust="spacingAndGlyphs" textLength="144" x="527.5" y="92.6245">before:Optional&lt;Before&gt;</text><line style="stroke: #A80036; stroke-width: 1.5;" x1="508.5" x2="705.5" y1="99.2188" y2="99.2188"/><!--class Utterance--><rect fill="#FEFECE" filter="url(#fhv72hh)" height="99.2188" style="stroke: #A80036; stroke-width: 1.5;" width="275" x="163.5" y="8"/><ellipse cx="266.75" cy="24" fill="#ADD1B2" rx="11" ry="11" style="stroke: #A80036; stroke-width: 1.0;"/><path d="M269.7188,29 Q269.1406,29.5 268.5,29.75 Q267.8594,30 267.1563,30 Q264.6563,30 263.3359,28.4609 Q262.0156,26.9219 262.0156,24 Q262.0156,21.0781 263.3359,19.5391 Q264.6563,18 267.1563,18 Q267.8594,18 268.5078,18.25 Q269.1563,18.5 269.7188,19 L269.7188,22 Q269.0938,20.9688 268.5,20.4844 Q267.9063,20 267.2656,20 Q265.9375,20 265.25,21.0078 Q264.5625,22.0156 264.5625,24 Q264.5625,25.9844 265.25,26.9922 Q265.9375,28 267.2656,28 Q267.9063,28 268.5,27.5156 Q269.0938,27.0313 269.7188,26 L269.7188,29 Z "/><text fill="#000000" font-family="sans-serif" font-size="12" lengthAdjust="spacingAndGlyphs" textLength="60" x="287.25" y="28.1543">Utterance</text><line style="stroke: #A80036; stroke-width: 1.5;" x1="164.5" x2="437.5" y1="40" y2="40"/><ellipse cx="174.5" cy="51.9023" fill="none" rx="3" ry="3" style="stroke: #038048; stroke-width: 1.0;"/><text fill="#000000" font-family="sans-serif" font-size="11" lengthAdjust="spacingAndGlyphs" textLength="134" x="183.5" y="54.2104">informatvie:Informative</text><ellipse cx="174.5" cy="64.707" fill="none" rx="3" ry="3" style="stroke: #038048; stroke-width: 1.0;"/><text fill="#000000" font-family="sans-serif" font-size="11" lengthAdjust="spacingAndGlyphs" textLength="249" x="183.5" y="67.0151">perlocutionaryValues:PerloctionaryValueSet</text><ellipse cx="174.5" cy="77.5117" fill="none" rx="3" ry="3" style="stroke: #038048; stroke-width: 1.0;"/><text fill="#000000" font-family="sans-serif" font-size="11" lengthAdjust="spacingAndGlyphs" textLength="72" x="183.5" y="79.8198">when:Instant</text><ellipse cx="174.5" cy="90.3164" fill="none" rx="3" ry="3" style="stroke: #038048; stroke-width: 1.0;"/><text fill="#000000" font-family="sans-serif" font-size="11" lengthAdjust="spacingAndGlyphs" textLength="178" x="183.5" y="92.6245">caputeredDB:CapturedMatchDB</text><line style="stroke: #A80036; stroke-width: 1.5;" x1="164.5" x2="437.5" y1="99.2188" y2="99.2188"/><path d="M671.745,396.091 C673.99,410.197 676.63,426.781 679.16,442.678 " fill="none" style="stroke: #A80036; stroke-width: 1.0;"/><polygon fill="#A80036" points="681.248,455.799,684.2555,449.245,679.3623,443.9481,676.3548,450.5021,681.248,455.799" style="stroke: #A80036; stroke-width: 1.0;"/><path d="M340.455,529.598 C332.178,547.73 320.367,573.602 310.047,596.206 " fill="none" style="stroke: #A80036; stroke-width: 1.0;"/><polygon fill="none" points="316.339,599.28,301.665,614.5667,303.603,593.466,316.339,599.28" style="stroke: #A80036; stroke-width: 1.0;"/><path d="M206.283,383.282 C220.718,429.424 253.233,533.362 272.615,595.319 " fill="none" style="stroke: #A80036; stroke-width: 1.0;"/><polygon fill="none" points="279.349,593.399,278.639,614.5766,265.987,597.579,279.349,593.399" style="stroke: #A80036; stroke-width: 1.0;"/><path d="M554.109,359 C570.044,359 585.979,359 601.914,359 " fill="none" style="stroke: #A80036; stroke-width: 1.0;"/><polygon fill="#A80036" points="615.3,359,609.3,355,603.3,359,609.3,363,615.3,359" style="stroke: #A80036; stroke-width: 1.0;"/><path d="M447.781,396.091 C427.072,419.288 400.381,449.186 380.276,471.706 " fill="none" style="stroke: #A80036; stroke-width: 1.0;"/><polygon fill="#A80036" points="371.547,481.484,378.5267,479.672,379.5387,472.5323,372.5589,474.3443,371.547,481.484" style="stroke: #A80036; stroke-width: 1.0;"/><path d="M182.264,249.181 C213.011,265.77 251.463,290.679 277,322 C296.016,345.324 323.871,422.867 339.417,469.033 " fill="none" style="stroke: #A80036; stroke-width: 1.0;"/><polygon fill="#A80036" points="343.549,481.428,345.4461,474.4709,339.7539,470.0439,337.8567,477.001,343.549,481.428" style="stroke: #A80036; stroke-width: 1.0;"/><text fill="#000000" font-family="sans-serif" font-size="13" lengthAdjust="spacingAndGlyphs" textLength="7" x="333.7428" y="470.4216">*</text><path d="M144.648,249.295 C154.874,269.748 169.894,299.788 181.555,323.109 " fill="none" style="stroke: #A80036; stroke-width: 1.0;"/><polygon fill="#A80036" points="187.469,334.938,188.3634,327.7826,182.1024,324.2049,181.208,331.3603,187.469,334.938" style="stroke: #A80036; stroke-width: 1.0;"/><text fill="#000000" font-family="sans-serif" font-size="13" lengthAdjust="spacingAndGlyphs" textLength="7" x="176.6173" y="323.9341">*</text><path d="M311.592,249.266 C319.088,297.817 336.444,410.222 345.411,468.304 " fill="none" style="stroke: #A80036; stroke-width: 1.0;"/><polygon fill="#A80036" points="347.448,481.496,350.4853,474.9557,345.6163,469.6366,342.579,476.1769,347.448,481.496" style="stroke: #A80036; stroke-width: 1.0;"/><text fill="#000000" font-family="sans-serif" font-size="13" lengthAdjust="spacingAndGlyphs" textLength="7" x="338.6409" y="470.507">*</text><path d="M288.764,249.295 C271.486,270.219 245.922,301.178 226.489,324.711 " fill="none" style="stroke: #A80036; stroke-width: 1.0;"/><polygon fill="#A80036" points="218.044,334.938,224.9488,332.8588,225.6853,325.6854,218.7804,327.7646,218.044,334.938" style="stroke: #A80036; stroke-width: 1.0;"/><text fill="#000000" font-family="sans-serif" font-size="13" lengthAdjust="spacingAndGlyphs" textLength="7" x="215.0272" y="323.9341">*</text><path d="M446.508,249.263 C427.157,267.172 402.256,293.603 388,322 C364.412,368.986 355.861,429.925 352.762,468.127 " fill="none" style="stroke: #A80036; stroke-width: 1.0;"/><polygon fill="#A80036" points="351.835,481.342,356.2452,475.6367,352.675,469.3714,348.2648,475.0767,351.835,481.342" style="stroke: #A80036; stroke-width: 1.0;"/><text fill="#000000" font-family="sans-serif" font-size="13" lengthAdjust="spacingAndGlyphs" textLength="7" x="344.1521" y="470.3135">*</text><path d="M475.059,249.295 C475.803,265.67 476.827,288.192 477.75,308.49 " fill="none" style="stroke: #A80036; stroke-width: 1.0;"/><polygon fill="#A80036" points="478.352,321.751,482.0756,315.5756,477.8073,309.7634,474.0838,315.9387,478.352,321.751" style="stroke: #A80036; stroke-width: 1.0;"/><text fill="#000000" font-family="sans-serif" font-size="13" lengthAdjust="spacingAndGlyphs" textLength="7" x="470.435" y="310.8936">*</text><path d="M411.689,225 C401.767,225 391.845,225 381.923,225 " fill="none" style="stroke: #A80036; stroke-width: 1.0; stroke-dasharray: 7.0,7.0;"/><polygon fill="#A80036" points="376.734,225,385.734,229,381.734,225,385.734,221,376.734,225" style="stroke: #A80036; stroke-width: 1.0;"/><path d="M591.851,505.5 C539.749,505.5 487.646,505.5 435.543,505.5 " fill="none" style="stroke: #A80036; stroke-width: 1.0;"/><polygon fill="#A80036" points="422.297,505.5,428.297,509.5,434.297,505.5,428.297,501.5,422.297,505.5" style="stroke: #A80036; stroke-width: 1.0;"/><text fill="#000000" font-family="sans-serif" font-size="13" lengthAdjust="spacingAndGlyphs" textLength="7" x="430.0104" y="501.8003">*</text><path d="M819.162,200.176 C839.061,201.807 854,210.082 854,225 C854,236.422 845.243,243.949 832.208,247.582 " fill="none" style="stroke: #A80036; stroke-width: 1.0;"/><polygon fill="#A80036" points="819.162,249.824,825.7527,252.7502,830.9887,247.792,824.398,244.8658,819.162,249.824" style="stroke: #A80036; stroke-width: 1.0;"/><text fill="#000000" font-family="sans-serif" font-size="13" lengthAdjust="spacingAndGlyphs" textLength="24" x="826.9103" y="248.4022">0..1</text><path d="M720.506,262.07 C711.99,277.057 701.99,294.657 692.897,310.662 " fill="none" style="stroke: #A80036; stroke-width: 1.0;"/><polygon fill="#A80036" points="686.469,321.974,692.9109,318.7333,692.3971,311.5405,685.9552,314.7812,686.469,321.974" style="stroke: #A80036; stroke-width: 1.0;"/><path d="M646.48,107.26 C664.459,129.466 685.638,155.624 703.387,177.545 " fill="none" style="stroke: #A80036; stroke-width: 1.0;"/><polygon fill="#A80036" points="711.795,187.93,711.1286,180.7498,704.2444,178.6032,704.9108,185.7835,711.795,187.93" style="stroke: #A80036; stroke-width: 1.0;"/><path d="M567.815,107.26 C546.286,134.05 520.134,166.593 500.916,190.507 " fill="none" style="stroke: #A80036; stroke-width: 1.0;"/><polygon fill="#A80036" points="492.616,200.835,499.4923,198.6632,500.1323,191.4805,493.256,193.6524,492.616,200.835" style="stroke: #A80036; stroke-width: 1.0;"/><path d="M438.618,95.905 C455.847,99.97 473.283,103.789 490,107 C503.643,109.62 540.777,106.813 552,115 C585.195,139.215 626.754,245.382 649.401,309.101 " fill="none" style="stroke: #A80036; stroke-width: 1.0;"/><polygon fill="#A80036" points="653.803,321.625,655.5867,314.638,649.8232,310.3042,648.0395,317.2912,653.803,321.625" style="stroke: #A80036; stroke-width: 1.0;"/><path d="M230.828,107.12 C227.786,109.714 224.829,112.347 222,115 C197.612,137.878 173.86,167.451 157.037,190.021 " fill="none" style="stroke: #A80036; stroke-width: 1.0;"/><polygon fill="#A80036" points="149.133,200.794,155.9074,198.3225,156.2315,191.1187,149.4572,193.5902,149.133,200.794" style="stroke: #A80036; stroke-width: 1.0;"/></g></svg>