<?xml version="1.0" encoding="UTF-8" standalone="yes"?><svg xmlns="http://www.w3.org/2000/svg" xmlns:xlink="http://www.w3.org/1999/xlink" height="988px" style="width:847px;height:988px;" version="1.1" viewBox="0 0 847 988" width="847px"><defs><filter height="300%" id="fg77mhc" width="300%" x="-1" y="-1"><feGaussianBlur result="blurOut" stdDeviation="2.0"/><feColorMatrix in="blurOut" result="blurOut2" type="matrix" values="0 0 0 0 0 0 0 0 0 0 0 0 0 0 0 0 0 0 .4 0"/><feOffset dx="4.0" dy="4.0" in="blurOut2" result="blurOut3"/><feBlend in="SourceGraphic" in2="blurOut3" mode="normal"/></filter></defs><g><text fill="#000000" font-family="sans-serif" font-size="18" lengthAdjust="spacingAndGlyphs" textLength="100" x="37.5" y="29.4531">WebSocket</text><line style="stroke: #000000; stroke-width: 2.0;" x1="10" x2="10" y1="12.7451" y2="981.7373"/><ellipse cx="87.5" cy="43.6982" fill="#000000" filter="url(#fg77mhc)" rx="10" ry="10" style="stroke: none; stroke-width: 1.0;"/><rect fill="#FEFECE" filter="url(#fg77mhc)" height="33.9688" rx="12.5" ry="12.5" style="stroke: #A80036; stroke-width: 1.5;" width="135" x="20" y="88.6982"/><text fill="#000000" font-family="sans-serif" font-size="12" lengthAdjust="spacingAndGlyphs" textLength="115" x="30" y="109.8369">Utterance received</text><rect fill="#FEFECE" filter="url(#fg77mhc)" height="33.9688" rx="12.5" ry="12.5" style="stroke: #A80036; stroke-width: 1.5;" width="71" x="52" y="157.667"/><text fill="#000000" font-family="sans-serif" font-size="12" lengthAdjust="spacingAndGlyphs" textLength="51" x="62" y="178.8057">call chat</text><rect fill="#FEFECE" filter="url(#fg77mhc)" height="47.9375" rx="12.5" ry="12.5" style="stroke: #A80036; stroke-width: 1.5;" width="109" x="33" y="878.7998"/><text fill="#000000" font-family="sans-serif" font-size="12" lengthAdjust="spacingAndGlyphs" textLength="89" x="43" y="899.9385">Send response</text><text fill="#000000" font-family="sans-serif" font-size="12" lengthAdjust="spacingAndGlyphs" textLength="49" x="43" y="913.9072">to client</text><ellipse cx="87.5" cy="971.7373" fill="none" filter="url(#fg77mhc)" rx="10" ry="10" style="stroke: #000000; stroke-width: 1.0;"/><ellipse cx="88" cy="972.2373" fill="#000000" filter="url(#fg77mhc)" rx="6" ry="6" style="stroke: none; stroke-width: 1.0;"/><rect fill="#CCDDFF" height="968.9922" style="stroke: #CCDDFF; stroke-width: 1.0;" width="427" x="165" y="12.7451"/><text fill="#000000" font-family="sans-serif" font-size="18" lengthAdjust="spacingAndGlyphs" textLength="43" x="357" y="29.4531">Alice</text><line style="stroke: #000000; stroke-width: 2.0;" x1="165" x2="165" y1="12.7451" y2="981.7373"/><polygon fill="#FEFECE" filter="url(#fg77mhc)" points="287.5,226.6357,366.5,226.6357,378.5,239.4404,366.5,252.2451,287.5,252.2451,275.5,239.4404,287.5,226.6357" style="stroke: #A80036; stroke-width: 1.5;"/><text fill="#000000" font-family="sans-serif" font-size="11" lengthAdjust="spacingAndGlyphs" textLength="79" x="287.5" y="236.8462">AIML matched</text><text fill="#000000" font-family="sans-serif" font-size="11" lengthAdjust="spacingAndGlyphs" textLength="44" x="287.5" y="249.6509">results?</text><text fill="#000000" font-family="sans-serif" font-size="11" lengthAdjust="spacingAndGlyphs" textLength="15" x="260.5" y="236.8462">No</text><text fill="#000000" font-family="sans-serif" font-size="11" lengthAdjust="spacingAndGlyphs" textLength="20" x="378.5" y="236.8462">Yes</text><rect fill="#FEFECE" filter="url(#fg77mhc)" height="47.9375" rx="12.5" ry="12.5" style="stroke: #A80036; stroke-width: 1.5;" width="74" x="175" y="272.2451"/><text fill="#000000" font-family="sans-serif" font-size="12" lengthAdjust="spacingAndGlyphs" textLength="43" x="185" y="293.3838">Default</text><text fill="#000000" font-family="sans-serif" font-size="12" lengthAdjust="spacingAndGlyphs" textLength="54" x="185" y="307.3525">response</text><polygon fill="#FEFECE" filter="url(#fg77mhc)" points="399.5,272.2451,484.5,272.2451,496.5,284.2451,484.5,296.2451,399.5,296.2451,387.5,284.2451,399.5,272.2451" style="stroke: #A80036; stroke-width: 1.5;"/><text fill="#000000" font-family="sans-serif" font-size="11" lengthAdjust="spacingAndGlyphs" textLength="85" x="399.5" y="288.0532">Has insert tag?</text><text fill="#000000" font-family="sans-serif" font-size="11" lengthAdjust="spacingAndGlyphs" textLength="15" x="372.5" y="281.6509">No</text><text fill="#000000" font-family="sans-serif" font-size="11" lengthAdjust="spacingAndGlyphs" textLength="20" x="496.5" y="281.6509">Yes</text><rect fill="#FEFECE" filter="url(#fg77mhc)" height="47.9375" rx="12.5" ry="12.5" style="stroke: #A80036; stroke-width: 1.5;" width="138" x="437.5" y="385.2139"/><text fill="#000000" font-family="sans-serif" font-size="12" lengthAdjust="spacingAndGlyphs" textLength="118" x="447.5" y="406.3525">Combine Droolsting</text><text fill="#000000" font-family="sans-serif" font-size="12" lengthAdjust="spacingAndGlyphs" textLength="59" x="479.5" y="420.3213">with AIML</text><polygon fill="#FEFECE" filter="url(#fg77mhc)" points="442,443.1514,454,455.1514,442,467.1514,430,455.1514,442,443.1514" style="stroke: #A80036; stroke-width: 1.5;"/><polygon fill="#FEFECE" filter="url(#fg77mhc)" points="365,502.1514,519,502.1514,531,514.1514,519,526.1514,365,526.1514,353,514.1514,365,502.1514" style="stroke: #A80036; stroke-width: 1.5;"/><text fill="#000000" font-family="sans-serif" font-size="11" lengthAdjust="spacingAndGlyphs" textLength="154" x="365" y="517.9595">Has getDroolTemplate tag?</text><text fill="#000000" font-family="sans-serif" font-size="11" lengthAdjust="spacingAndGlyphs" textLength="15" x="338" y="511.5571">No</text><text fill="#000000" font-family="sans-serif" font-size="11" lengthAdjust="spacingAndGlyphs" textLength="20" x="531" y="511.5571">Yes</text><rect fill="#FEFECE" filter="url(#fg77mhc)" height="33.9688" rx="12.5" ry="12.5" style="stroke: #A80036; stroke-width: 1.5;" width="128" x="279" y="546.1514"/><text fill="#000000" font-family="sans-serif" font-size="12" lengthAdjust="spacingAndGlyphs" textLength="108" x="289" y="567.29">Use template text</text><rect fill="#FEFECE" filter="url(#fg77mhc)" height="75.875" rx="12.5" ry="12.5" style="stroke: #A80036; stroke-width: 1.5;" width="82" x="500" y="699.9248"/><text fill="#000000" font-family="sans-serif" font-size="12" lengthAdjust="spacingAndGlyphs" textLength="53" x="510" y="721.0635">Combine</text><text fill="#000000" font-family="sans-serif" font-size="12" lengthAdjust="spacingAndGlyphs" textLength="49" x="518" y="735.0322">reaction</text><text fill="#000000" font-family="sans-serif" font-size="12" lengthAdjust="spacingAndGlyphs" textLength="26" x="518" y="749.001">with</text><text fill="#000000" font-family="sans-serif" font-size="12" lengthAdjust="spacingAndGlyphs" textLength="54" x="518" y="762.9697">template</text><polygon fill="#FEFECE" filter="url(#fg77mhc)" points="442,785.7998,454,797.7998,442,809.7998,430,797.7998,442,785.7998" style="stroke: #A80036; stroke-width: 1.5;"/><polygon fill="#FEFECE" filter="url(#fg77mhc)" points="327,819.7998,339,831.7998,327,843.7998,315,831.7998,327,819.7998" style="stroke: #A80036; stroke-width: 1.5;"/><rect fill="#FAEBD7" height="968.9922" style="stroke: #FAEBD7; stroke-width: 1.0;" width="254" x="592" y="12.7451"/><text fill="#000000" font-family="sans-serif" font-size="18" lengthAdjust="spacingAndGlyphs" textLength="48" x="695" y="29.4531">Drool</text><line style="stroke: #000000; stroke-width: 2.0;" x1="592" x2="592" y1="12.7451" y2="981.7373"/><rect fill="#FEFECE" filter="url(#fg77mhc)" height="33.9688" rx="12.5" ry="12.5" style="stroke: #A80036; stroke-width: 1.5;" width="150" x="637.5" y="316.2451"/><text fill="#000000" font-family="sans-serif" font-size="12" lengthAdjust="spacingAndGlyphs" textLength="130" x="647.5" y="337.3838">Insert fact into Drools</text><rect fill="#FEFECE" filter="url(#fg77mhc)" height="33.9688" rx="12.5" ry="12.5" style="stroke: #A80036; stroke-width: 1.5;" width="47" x="723.5" y="606.9561"/><text fill="#000000" font-family="sans-serif" font-size="12" lengthAdjust="spacingAndGlyphs" textLength="27" x="733.5" y="628.0947">Wait</text><polygon fill="#FEFECE" filter="url(#fg77mhc)" points="696,546.1514,798,546.1514,810,558.1514,798,570.1514,696,570.1514,684,558.1514,696,546.1514" style="stroke: #A80036; stroke-width: 1.5;"/><text fill="#000000" font-family="sans-serif" font-size="11" lengthAdjust="spacingAndGlyphs" textLength="15" x="751" y="580.3618">No</text><text fill="#000000" font-family="sans-serif" font-size="11" lengthAdjust="spacingAndGlyphs" textLength="102" x="696" y="561.9595">Has reaction fact?</text><text fill="#000000" font-family="sans-serif" font-size="11" lengthAdjust="spacingAndGlyphs" textLength="82" x="602" y="555.5571">found reaction</text><line style="stroke: #000000; stroke-width: 2.0;" x1="846" x2="846" y1="12.7451" y2="981.7373"/><line style="stroke: #A80036; stroke-width: 1.5;" x1="87.5" x2="87.5" y1="53.6982" y2="88.6982"/><polygon fill="#A80036" points="83.5,78.6982,87.5,88.6982,91.5,78.6982,87.5,82.6982" style="stroke: #A80036; stroke-width: 1.0;"/><line style="stroke: #A80036; stroke-width: 1.5;" x1="87.5" x2="87.5" y1="122.667" y2="157.667"/><polygon fill="#A80036" points="83.5,147.667,87.5,157.667,91.5,147.667,87.5,151.667" style="stroke: #A80036; stroke-width: 1.0;"/><line style="stroke: #A80036; stroke-width: 1.5;" x1="87.5" x2="87.5" y1="926.7373" y2="961.7373"/><polygon fill="#A80036" points="83.5,951.7373,87.5,961.7373,91.5,951.7373,87.5,955.7373" style="stroke: #A80036; stroke-width: 1.0;"/><line style="stroke: #A80036; stroke-width: 1.5;" x1="387.5" x2="377.5" y1="284.2451" y2="284.2451"/><polygon fill="#A80036" points="373.5,359.6982,377.5,369.6982,381.5,359.6982,377.5,363.6982" style="stroke: #A80036; stroke-width: 1.5;"/><line style="stroke: #A80036; stroke-width: 1.5;" x1="377.5" x2="377.5" y1="284.2451" y2="455.1514"/><line style="stroke: #A80036; stroke-width: 1.5;" x1="377.5" x2="430" y1="455.1514" y2="455.1514"/><polygon fill="#A80036" points="420,451.1514,430,455.1514,420,459.1514,424,455.1514" style="stroke: #A80036; stroke-width: 1.0;"/><line style="stroke: #A80036; stroke-width: 1.5;" x1="506.5" x2="506.5" y1="433.1514" y2="455.1514"/><line style="stroke: #A80036; stroke-width: 1.5;" x1="506.5" x2="454" y1="455.1514" y2="455.1514"/><polygon fill="#A80036" points="464,451.1514,454,455.1514,464,459.1514,460,455.1514" style="stroke: #A80036; stroke-width: 1.0;"/><line style="stroke: #A80036; stroke-width: 1.5;" x1="353" x2="343" y1="514.1514" y2="514.1514"/><line style="stroke: #A80036; stroke-width: 1.5;" x1="343" x2="343" y1="514.1514" y2="546.1514"/><polygon fill="#A80036" points="339,536.1514,343,546.1514,347,536.1514,343,540.1514" style="stroke: #A80036; stroke-width: 1.0;"/><line style="stroke: #A80036; stroke-width: 1.5;" x1="343" x2="343" y1="580.1201" y2="797.7998"/><line style="stroke: #A80036; stroke-width: 1.5;" x1="343" x2="430" y1="797.7998" y2="797.7998"/><polygon fill="#A80036" points="420,793.7998,430,797.7998,420,801.7998,424,797.7998" style="stroke: #A80036; stroke-width: 1.0;"/><line style="stroke: #A80036; stroke-width: 1.5;" x1="541" x2="541" y1="775.7998" y2="797.7998"/><line style="stroke: #A80036; stroke-width: 1.5;" x1="541" x2="454" y1="797.7998" y2="797.7998"/><polygon fill="#A80036" points="464,793.7998,454,797.7998,464,801.7998,460,797.7998" style="stroke: #A80036; stroke-width: 1.0;"/><line style="stroke: #A80036; stroke-width: 1.5;" x1="442" x2="442" y1="467.1514" y2="502.1514"/><polygon fill="#A80036" points="438,492.1514,442,502.1514,446,492.1514,442,496.1514" style="stroke: #A80036; stroke-width: 1.0;"/><line style="stroke: #A80036; stroke-width: 1.5;" x1="275.5" x2="212" y1="239.4404" y2="239.4404"/><line style="stroke: #A80036; stroke-width: 1.5;" x1="212" x2="212" y1="239.4404" y2="272.2451"/><polygon fill="#A80036" points="208,262.2451,212,272.2451,216,262.2451,212,266.2451" style="stroke: #A80036; stroke-width: 1.0;"/><line style="stroke: #A80036; stroke-width: 1.5;" x1="378.5" x2="442" y1="239.4404" y2="239.4404"/><line style="stroke: #A80036; stroke-width: 1.5;" x1="442" x2="442" y1="239.4404" y2="272.2451"/><polygon fill="#A80036" points="438,262.2451,442,272.2451,446,262.2451,442,266.2451" style="stroke: #A80036; stroke-width: 1.0;"/><line style="stroke: #A80036; stroke-width: 1.5;" x1="212" x2="212" y1="320.1826" y2="831.7998"/><line style="stroke: #A80036; stroke-width: 1.5;" x1="212" x2="315" y1="831.7998" y2="831.7998"/><polygon fill="#A80036" points="305,827.7998,315,831.7998,305,835.7998,309,831.7998" style="stroke: #A80036; stroke-width: 1.0;"/><line style="stroke: #A80036; stroke-width: 1.5;" x1="442" x2="442" y1="809.7998" y2="831.7998"/><line style="stroke: #A80036; stroke-width: 1.5;" x1="442" x2="339" y1="831.7998" y2="831.7998"/><polygon fill="#A80036" points="349,827.7998,339,831.7998,349,835.7998,345,831.7998" style="stroke: #A80036; stroke-width: 1.0;"/><line style="stroke: #A80036; stroke-width: 1.5;" x1="747" x2="747" y1="570.1514" y2="606.9561"/><polygon fill="#A80036" points="743,596.9561,747,606.9561,751,596.9561,747,600.9561" style="stroke: #A80036; stroke-width: 1.0;"/><line style="stroke: #A80036; stroke-width: 1.5;" x1="747" x2="747" y1="640.9248" y2="652.9248"/><line style="stroke: #A80036; stroke-width: 1.5;" x1="747" x2="822" y1="652.9248" y2="652.9248"/><polygon fill="#A80036" points="818,615.5381,822,605.5381,826,615.5381,822,611.5381" style="stroke: #A80036; stroke-width: 1.5;"/><line style="stroke: #A80036; stroke-width: 1.5;" x1="822" x2="822" y1="558.1514" y2="652.9248"/><line style="stroke: #A80036; stroke-width: 1.5;" x1="822" x2="810" y1="558.1514" y2="558.1514"/><polygon fill="#A80036" points="820,554.1514,810,558.1514,820,562.1514,816,558.1514" style="stroke: #A80036; stroke-width: 1.0;"/><line style="stroke: #A80036; stroke-width: 1.5;" x1="684" x2="672" y1="558.1514" y2="558.1514"/><polygon fill="#A80036" points="668,610.2881,672,620.2881,676,610.2881,672,614.2881" style="stroke: #A80036; stroke-width: 1.5;"/><line style="stroke: #A80036; stroke-width: 1.5;" x1="672" x2="672" y1="558.1514" y2="682.4248"/><line style="stroke: #A80036; stroke-width: 1.5;" x1="672" x2="541" y1="682.4248" y2="682.4248"/><line style="stroke: #A80036; stroke-width: 1.5;" x1="541" x2="541" y1="682.4248" y2="699.9248"/><polygon fill="#A80036" points="537,689.9248,541,699.9248,545,689.9248,541,693.9248" style="stroke: #A80036; stroke-width: 1.0;"/><line style="stroke: #A80036; stroke-width: 1.5;" x1="712.5" x2="712.5" y1="350.2139" y2="367.7139"/><line style="stroke: #A80036; stroke-width: 1.5;" x1="712.5" x2="506.5" y1="367.7139" y2="367.7139"/><line style="stroke: #A80036; stroke-width: 1.5;" x1="506.5" x2="506.5" y1="367.7139" y2="385.2139"/><polygon fill="#A80036" points="502.5,375.2139,506.5,385.2139,510.5,375.2139,506.5,379.2139" style="stroke: #A80036; stroke-width: 1.0;"/><line style="stroke: #A80036; stroke-width: 1.5;" x1="496.5" x2="712.5" y1="284.2451" y2="284.2451"/><line style="stroke: #A80036; stroke-width: 1.5;" x1="712.5" x2="712.5" y1="284.2451" y2="316.2451"/><polygon fill="#A80036" points="708.5,306.2451,712.5,316.2451,716.5,306.2451,712.5,310.2451" style="stroke: #A80036; stroke-width: 1.0;"/><line style="stroke: #A80036; stroke-width: 1.5;" x1="531" x2="747" y1="514.1514" y2="514.1514"/><line style="stroke: #A80036; stroke-width: 1.5;" x1="747" x2="747" y1="514.1514" y2="546.1514"/><polygon fill="#A80036" points="743,536.1514,747,546.1514,751,536.1514,747,540.1514" style="stroke: #A80036; stroke-width: 1.0;"/><line style="stroke: #A80036; stroke-width: 1.5;" x1="87.5" x2="87.5" y1="191.6357" y2="209.1357"/><line style="stroke: #A80036; stroke-width: 1.5;" x1="87.5" x2="327" y1="209.1357" y2="209.1357"/><line style="stroke: #A80036; stroke-width: 1.5;" x1="327" x2="327" y1="209.1357" y2="226.6357"/><polygon fill="#A80036" points="323,216.6357,327,226.6357,331,216.6357,327,220.6357" style="stroke: #A80036; stroke-width: 1.0;"/><line style="stroke: #A80036; stroke-width: 1.5;" x1="327" x2="327" y1="843.7998" y2="861.2998"/><line style="stroke: #A80036; stroke-width: 1.5;" x1="327" x2="87.5" y1="861.2998" y2="861.2998"/><line style="stroke: #A80036; stroke-width: 1.5;" x1="87.5" x2="87.5" y1="861.2998" y2="878.7998"/><polygon fill="#A80036" points="83.5,868.7998,87.5,878.7998,91.5,868.7998,87.5,872.7998" style="stroke: #A80036; stroke-width: 1.0;"/></g></svg>