<?xml version="1.0" encoding="UTF-8" standalone="no"?>
<!-- Created with Inkscape (http://www.inkscape.org/) -->

<svg
   xmlns:osb="http://www.openswatchbook.org/uri/2009/osb"
   xmlns:dc="http://purl.org/dc/elements/1.1/"
   xmlns:cc="http://creativecommons.org/ns#"
   xmlns:rdf="http://www.w3.org/1999/02/22-rdf-syntax-ns#"
   xmlns:svg="http://www.w3.org/2000/svg"
   xmlns="http://www.w3.org/2000/svg"
   xmlns:sodipodi="http://sodipodi.sourceforge.net/DTD/sodipodi-0.dtd"
   xmlns:inkscape="http://www.inkscape.org/namespaces/inkscape"
   width="230"
   height="320"
   viewBox="0 0 230 320"
   id="svg2"
   version="1.1"
   inkscape:version="0.92.3 (2405546, 2018-03-11)"
   sodipodi:docname="category-pain.svg">
  <defs
     id="defs4">
    <marker
       inkscape:stockid="Arrow1Mstart"
       orient="auto"
       refY="0.0"
       refX="0.0"
       id="marker4518"
       style="overflow:visible"
       inkscape:isstock="true">
      <path
         id="path4520"
         d="M 0.0,0.0 L 5.0,-5.0 L -12.5,0.0 L 5.0,5.0 L 0.0,0.0 z "
         style="fill-rule:evenodd;stroke:#000000;stroke-width:1pt;stroke-opacity:1;fill:#000000;fill-opacity:1"
         transform="scale(0.4) translate(10,0)" />
    </marker>
    <marker
       inkscape:stockid="Arrow2Mstart"
       orient="auto"
       refY="0.0"
       refX="0.0"
       id="marker4514"
       style="overflow:visible"
       inkscape:isstock="true">
      <path
         id="path4516"
         style="fill-rule:evenodd;stroke-width:0.625;stroke-linejoin:round;stroke:#000000;stroke-opacity:1;fill:#000000;fill-opacity:1"
         d="M 8.7185878,4.0337352 L -2.2072895,0.016013256 L 8.7185884,-4.0017078 C 6.9730900,-1.6296469 6.9831476,1.6157441 8.7185878,4.0337352 z "
         transform="scale(0.6) translate(0,0)" />
    </marker>
    <marker
       inkscape:stockid="Arrow2Mend"
       orient="auto"
       refY="0.0"
       refX="0.0"
       id="Arrow2Mend"
       style="overflow:visible;"
       inkscape:isstock="true">
      <path
         id="path4219"
         style="fill-rule:evenodd;stroke-width:0.625;stroke-linejoin:round;stroke:#000000;stroke-opacity:1;fill:#000000;fill-opacity:1"
         d="M 8.7185878,4.0337352 L -2.2072895,0.016013256 L 8.7185884,-4.0017078 C 6.9730900,-1.6296469 6.9831476,1.6157441 8.7185878,4.0337352 z "
         transform="scale(0.6) rotate(180) translate(0,0)" />
    </marker>
    <marker
       inkscape:stockid="Arrow1Mend"
       orient="auto"
       refY="0.0"
       refX="0.0"
       id="Arrow1Mend"
       style="overflow:visible;"
       inkscape:isstock="true">
      <path
         id="path4201"
         d="M 0.0,0.0 L 5.0,-5.0 L -12.5,0.0 L 5.0,5.0 L 0.0,0.0 z "
         style="fill-rule:evenodd;stroke:#000000;stroke-width:1pt;stroke-opacity:1;fill:#000000;fill-opacity:1"
         transform="scale(0.4) rotate(180) translate(10,0)" />
    </marker>
    <marker
       inkscape:stockid="Arrow1Mstart"
       orient="auto"
       refY="0.0"
       refX="0.0"
       id="Arrow1Mstart"
       style="overflow:visible"
       inkscape:isstock="true">
      <path
         id="path4198"
         d="M 0.0,0.0 L 5.0,-5.0 L -12.5,0.0 L 5.0,5.0 L 0.0,0.0 z "
         style="fill-rule:evenodd;stroke:#000000;stroke-width:1pt;stroke-opacity:1;fill:#000000;fill-opacity:1"
         transform="scale(0.4) translate(10,0)" />
    </marker>
    <marker
       inkscape:stockid="Arrow2Lstart"
       orient="auto"
       refY="0.0"
       refX="0.0"
       id="marker4504"
       style="overflow:visible"
       inkscape:isstock="true">
      <path
         id="path4506"
         style="fill-rule:evenodd;stroke-width:0.625;stroke-linejoin:round;stroke:#000000;stroke-opacity:1;fill:#000000;fill-opacity:1"
         d="M 8.7185878,4.0337352 L -2.2072895,0.016013256 L 8.7185884,-4.0017078 C 6.9730900,-1.6296469 6.9831476,1.6157441 8.7185878,4.0337352 z "
         transform="scale(1.1) translate(1,0)" />
    </marker>
    <marker
       inkscape:stockid="Arrow1Lend"
       orient="auto"
       refY="0.0"
       refX="0.0"
       id="marker4500"
       style="overflow:visible;"
       inkscape:isstock="true">
      <path
         id="path4502"
         d="M 0.0,0.0 L 5.0,-5.0 L -12.5,0.0 L 5.0,5.0 L 0.0,0.0 z "
         style="fill-rule:evenodd;stroke:#000000;stroke-width:1pt;stroke-opacity:1;fill:#000000;fill-opacity:1"
         transform="scale(0.8) rotate(180) translate(12.5,0)" />
    </marker>
    <marker
       inkscape:stockid="Arrow2Lstart"
       orient="auto"
       refY="0.0"
       refX="0.0"
       id="Arrow2Lstart"
       style="overflow:visible"
       inkscape:isstock="true">
      <path
         id="path4210"
         style="fill-rule:evenodd;stroke-width:0.625;stroke-linejoin:round;stroke:#000000;stroke-opacity:1;fill:#000000;fill-opacity:1"
         d="M 8.7185878,4.0337352 L -2.2072895,0.016013256 L 8.7185884,-4.0017078 C 6.9730900,-1.6296469 6.9831476,1.6157441 8.7185878,4.0337352 z "
         transform="scale(1.1) translate(1,0)" />
    </marker>
    <marker
       inkscape:stockid="Arrow2Mstart"
       orient="auto"
       refY="0.0"
       refX="0.0"
       id="marker4494"
       style="overflow:visible"
       inkscape:isstock="true">
      <path
         id="path4496"
         style="fill-rule:evenodd;stroke-width:0.625;stroke-linejoin:round;stroke:#000000;stroke-opacity:1;fill:#000000;fill-opacity:1"
         d="M 8.7185878,4.0337352 L -2.2072895,0.016013256 L 8.7185884,-4.0017078 C 6.9730900,-1.6296469 6.9831476,1.6157441 8.7185878,4.0337352 z "
         transform="scale(0.6) translate(0,0)" />
    </marker>
    <marker
       inkscape:stockid="Tail"
       orient="auto"
       refY="0.0"
       refX="0.0"
       id="marker4478"
       style="overflow:visible"
       inkscape:isstock="true">
      <g
         id="g4480"
         transform="scale(-1.2)"
         style="stroke:#000000;stroke-opacity:1;fill:#000000;fill-opacity:1">
        <path
           id="path4482"
           d="M -3.8048674,-3.9585227 L 0.54352094,0"
           style="fill:#000000;fill-rule:evenodd;stroke:#000000;stroke-width:0.8;stroke-linecap:round;stroke-opacity:1;fill-opacity:1" />
        <path
           id="path4484"
           d="M -1.2866832,-3.9585227 L 3.0617053,0"
           style="fill:#000000;fill-rule:evenodd;stroke:#000000;stroke-width:0.8;stroke-linecap:round;stroke-opacity:1;fill-opacity:1" />
        <path
           id="path4486"
           d="M 1.3053582,-3.9585227 L 5.6537466,0"
           style="fill:#000000;fill-rule:evenodd;stroke:#000000;stroke-width:0.8;stroke-linecap:round;stroke-opacity:1;fill-opacity:1" />
        <path
           id="path4488"
           d="M -3.8048674,4.1775838 L 0.54352094,0.21974226"
           style="fill:#000000;fill-rule:evenodd;stroke:#000000;stroke-width:0.8;stroke-linecap:round;stroke-opacity:1;fill-opacity:1" />
        <path
           id="path4490"
           d="M -1.2866832,4.1775838 L 3.0617053,0.21974226"
           style="fill:#000000;fill-rule:evenodd;stroke:#000000;stroke-width:0.8;stroke-linecap:round;stroke-opacity:1;fill-opacity:1" />
        <path
           id="path4492"
           d="M 1.3053582,4.1775838 L 5.6537466,0.21974226"
           style="fill:#000000;fill-rule:evenodd;stroke:#000000;stroke-width:0.8;stroke-linecap:round;stroke-opacity:1;fill-opacity:1" />
      </g>
    </marker>
    <marker
       inkscape:stockid="Tail"
       orient="auto"
       refY="0.0"
       refX="0.0"
       id="Tail"
       style="overflow:visible"
       inkscape:isstock="true">
      <g
         id="g4228"
         transform="scale(-1.2)"
         style="stroke:#000000;stroke-opacity:1;fill:#000000;fill-opacity:1">
        <path
           id="path4230"
           d="M -3.8048674,-3.9585227 L 0.54352094,0"
           style="fill:#000000;fill-rule:evenodd;stroke:#000000;stroke-width:0.8;stroke-linecap:round;stroke-opacity:1;fill-opacity:1" />
        <path
           id="path4232"
           d="M -1.2866832,-3.9585227 L 3.0617053,0"
           style="fill:#000000;fill-rule:evenodd;stroke:#000000;stroke-width:0.8;stroke-linecap:round;stroke-opacity:1;fill-opacity:1" />
        <path
           id="path4234"
           d="M 1.3053582,-3.9585227 L 5.6537466,0"
           style="fill:#000000;fill-rule:evenodd;stroke:#000000;stroke-width:0.8;stroke-linecap:round;stroke-opacity:1;fill-opacity:1" />
        <path
           id="path4236"
           d="M -3.8048674,4.1775838 L 0.54352094,0.21974226"
           style="fill:#000000;fill-rule:evenodd;stroke:#000000;stroke-width:0.8;stroke-linecap:round;stroke-opacity:1;fill-opacity:1" />
        <path
           id="path4238"
           d="M -1.2866832,4.1775838 L 3.0617053,0.21974226"
           style="fill:#000000;fill-rule:evenodd;stroke:#000000;stroke-width:0.8;stroke-linecap:round;stroke-opacity:1;fill-opacity:1" />
        <path
           id="path4240"
           d="M 1.3053582,4.1775838 L 5.6537466,0.21974226"
           style="fill:#000000;fill-rule:evenodd;stroke:#000000;stroke-width:0.8;stroke-linecap:round;stroke-opacity:1;fill-opacity:1" />
      </g>
    </marker>
    <marker
       inkscape:stockid="Arrow2Lend"
       orient="auto"
       refY="0.0"
       refX="0.0"
       id="marker4466"
       style="overflow:visible;"
       inkscape:isstock="true">
      <path
         id="path4468"
         style="fill-rule:evenodd;stroke-width:0.625;stroke-linejoin:round;stroke:#000000;stroke-opacity:1;fill:#000000;fill-opacity:1"
         d="M 8.7185878,4.0337352 L -2.2072895,0.016013256 L 8.7185884,-4.0017078 C 6.9730900,-1.6296469 6.9831476,1.6157441 8.7185878,4.0337352 z "
         transform="scale(1.1) rotate(180) translate(1,0)" />
    </marker>
    <marker
       inkscape:stockid="Arrow1Lend"
       orient="auto"
       refY="0.0"
       refX="0.0"
       id="marker4462"
       style="overflow:visible;"
       inkscape:isstock="true">
      <path
         id="path4464"
         d="M 0.0,0.0 L 5.0,-5.0 L -12.5,0.0 L 5.0,5.0 L 0.0,0.0 z "
         style="fill-rule:evenodd;stroke:#000000;stroke-width:1pt;stroke-opacity:1;fill:#000000;fill-opacity:1"
         transform="scale(0.8) rotate(180) translate(12.5,0)" />
    </marker>
    <marker
       inkscape:stockid="Arrow1Lstart"
       orient="auto"
       refY="0.0"
       refX="0.0"
       id="Arrow1Lstart"
       style="overflow:visible"
       inkscape:isstock="true">
      <path
         id="path4192"
         d="M 0.0,0.0 L 5.0,-5.0 L -12.5,0.0 L 5.0,5.0 L 0.0,0.0 z "
         style="fill-rule:evenodd;stroke:#000000;stroke-width:1pt;stroke-opacity:1;fill:#000000;fill-opacity:1"
         transform="scale(0.8) translate(12.5,0)" />
    </marker>
    <marker
       inkscape:stockid="Arrow2Mstart"
       orient="auto"
       refY="0.0"
       refX="0.0"
       id="Arrow2Mstart"
       style="overflow:visible"
       inkscape:isstock="true">
      <path
         id="path4216"
         style="fill-rule:evenodd;stroke-width:0.625;stroke-linejoin:round;stroke:#000000;stroke-opacity:1;fill:#000000;fill-opacity:1"
         d="M 8.7185878,4.0337352 L -2.2072895,0.016013256 L 8.7185884,-4.0017078 C 6.9730900,-1.6296469 6.9831476,1.6157441 8.7185878,4.0337352 z "
         transform="scale(0.6) translate(0,0)" />
    </marker>
    <marker
       inkscape:stockid="Arrow2Lend"
       orient="auto"
       refY="0.0"
       refX="0.0"
       id="Arrow2Lend"
       style="overflow:visible;"
       inkscape:isstock="true">
      <path
         id="path4213"
         style="fill-rule:evenodd;stroke-width:0.625;stroke-linejoin:round;stroke:#000000;stroke-opacity:1;fill:#000000;fill-opacity:1"
         d="M 8.7185878,4.0337352 L -2.2072895,0.016013256 L 8.7185884,-4.0017078 C 6.9730900,-1.6296469 6.9831476,1.6157441 8.7185878,4.0337352 z "
         transform="scale(1.1) rotate(180) translate(1,0)" />
    </marker>
    <marker
       inkscape:stockid="Arrow1Lend"
       orient="auto"
       refY="0.0"
       refX="0.0"
       id="marker4450"
       style="overflow:visible;"
       inkscape:isstock="true">
      <path
         id="path4452"
         d="M 0.0,0.0 L 5.0,-5.0 L -12.5,0.0 L 5.0,5.0 L 0.0,0.0 z "
         style="fill-rule:evenodd;stroke:#000000;stroke-width:1pt;stroke-opacity:1;fill:#000000;fill-opacity:1"
         transform="scale(0.8) rotate(180) translate(12.5,0)" />
    </marker>
    <marker
       inkscape:stockid="Arrow1Lend"
       orient="auto"
       refY="0.0"
       refX="0.0"
       id="Arrow1Lend"
       style="overflow:visible;"
       inkscape:isstock="true">
      <path
         id="path4195"
         d="M 0.0,0.0 L 5.0,-5.0 L -12.5,0.0 L 5.0,5.0 L 0.0,0.0 z "
         style="fill-rule:evenodd;stroke:#000000;stroke-width:1pt;stroke-opacity:1;fill:#000000;fill-opacity:1"
         transform="scale(0.8) rotate(180) translate(12.5,0)" />
    </marker>
    <linearGradient
       id="linearGradient5272"
       osb:paint="solid">
      <stop
         style="stop-color:#000000;stop-opacity:1;"
         offset="0"
         id="stop5274" />
    </linearGradient>
    <inkscape:path-effect
       effect="spiro"
       id="path-effect4408"
       is_visible="true" />
  </defs>
  <sodipodi:namedview
     id="base"
     pagecolor="#ffffff"
     bordercolor="#666666"
     borderopacity="1.0"
     inkscape:pageopacity="0.0"
     inkscape:pageshadow="2"
     inkscape:zoom="5.6568543"
     inkscape:cx="100.66323"
     inkscape:cy="175.0219"
     inkscape:document-units="px"
     inkscape:current-layer="layer1"
     showgrid="false"
     showborder="true"
     showguides="false"
     inkscape:window-width="3836"
     inkscape:window-height="2106"
     inkscape:window-x="0"
     inkscape:window-y="16"
     inkscape:window-maximized="0"
     units="px"
     inkscape:snap-center="false"
     inkscape:snap-midpoints="false"
     inkscape:snap-bbox="false"
     inkscape:snap-others="false"
     inkscape:snap-nodes="false"
     inkscape:snap-global="true"
     inkscape:object-nodes="false" />
  <metadata
     id="metadata7">
    <rdf:RDF>
      <cc:Work
         rdf:about="">
        <dc:format>image/svg+xml</dc:format>
        <dc:type
           rdf:resource="http://purl.org/dc/dcmitype/StillImage" />
        <dc:title></dc:title>
      </cc:Work>
    </rdf:RDF>
  </metadata>
  <g
     inkscape:label="Laag 1"
     inkscape:groupmode="layer"
     id="layer1"
     transform="translate(0,-732.36216)">
    <ellipse
       style="fill:none;fill-opacity:1;stroke:#000000;stroke-width:1.13385832;stroke-miterlimit:4;stroke-dasharray:none;stroke-opacity:1"
       id="path8046"
       cx="120.83616"
       cy="878.29858"
       rx="75.075752"
       ry="79.01104" />
    <ellipse
       style="fill:none;fill-opacity:1;stroke:#000000;stroke-width:1.13385832;stroke-miterlimit:4;stroke-dasharray:none;stroke-opacity:1"
       id="path8048"
       cx="91.337982"
       cy="848.6839"
       rx="9.7170458"
       ry="10.989822" />
    <ellipse
       style="fill:none;fill-opacity:1;stroke:#000000;stroke-width:1.13385832;stroke-miterlimit:4;stroke-dasharray:none;stroke-opacity:1"
       id="path8050"
       cx="155.65558"
       cy="853.1955"
       rx="13.650136"
       ry="15.501433" />
    <path
       style="fill:none;stroke:#000000;stroke-width:0.99999994px;stroke-linecap:butt;stroke-linejoin:miter;stroke-opacity:1"
       d="m 83.4718,937.64363 c -0.08994,-0.35982 -0.318101,-0.95452 -0.231358,-1.38819 0.04783,-0.23914 0.196869,-0.45273 0.231358,-0.69409 0.04362,-0.30541 -0.07481,-0.62626 0,-0.92546 0.491028,-0.9821 0.484071,-0.80089 0.694075,-1.85092 0.183996,-0.92 0.23517,-1.86619 0.462716,-2.77638 0.118297,-0.47318 0.319278,-0.92203 0.462717,-1.38818 0.165111,-0.53668 0.273885,-1.09084 0.462716,-1.61956 0.197539,-0.55314 0.496537,-1.0665 0.694075,-1.61955 0.377664,-1.05752 0.570349,-2.1739 0.925433,-3.23911 0.208365,-0.62514 0.48571,-1.22586 0.694075,-1.85091 0.177542,-0.5327 0.285174,-1.08695 0.462716,-1.61956 0.208365,-0.62514 0.462717,-1.234 0.694075,-1.85091 0.231358,-0.61701 0.429972,-1.24724 0.694075,-1.85092 0.794296,-1.81562 0.95205,-1.78518 1.850866,-3.47051 2.258246,-4.51662 -0.367536,0.64954 1.850866,-3.47047 0.245267,-0.45551 0.397404,-0.96436 0.694074,-1.38819 0.250176,-0.3574 0.616956,-0.61697 0.925433,-0.92545 0.231359,-0.23137 0.445654,-0.48116 0.694075,-0.6941 0.292764,-0.25095 0.632666,-0.44315 0.925436,-0.69409 0.716341,-0.61403 0.570002,-0.74775 1.388149,-1.15683 0.218125,-0.10906 0.491155,-0.0961 0.694075,-0.23136 0.272235,-0.1815 0.438581,-0.4897 0.694075,-0.6941 0.13465,-0.10773 0.308474,-0.15424 0.462716,-0.23136 0.154232,-0.0771 0.292612,-0.20302 0.462712,-0.23136 0.30429,-0.0507 0.61695,0 0.92543,0 0.53983,0 1.07967,0 1.61951,0 0.75021,0 1.61243,-0.11922 2.31358,0.23136 0.1951,0.0976 0.27568,0.3505 0.46272,0.46273 0.20912,0.12547 0.46991,0.13529 0.69407,0.23136 0.31701,0.13587 0.62598,0.29162 0.92543,0.46273 1.19022,0.68014 0.21099,0.37882 1.85087,0.92546 0.53262,0.17755 1.09078,0.27389 1.61951,0.46273 0.5531,0.19755 1.07967,0.46273 1.6195,0.6941 0.53984,0.23136 1.07968,0.46273 1.61951,0.69409 0.53983,0.23136 1.06641,0.49655 1.61951,0.69409 3.42243,0.97786 -0.0856,-0.13206 3.00767,1.15683 0.45022,0.1876 0.94411,0.26089 1.38815,0.46273 0.40937,0.18608 0.7637,0.4757 1.15679,0.69409 0.30148,0.1675 0.63296,0.27993 0.92543,0.46273 0.32698,0.20437 0.58836,0.50683 0.92543,0.69409 0.36304,0.2017 0.80068,0.24905 1.15679,0.46273 0.42344,0.25407 0.75225,0.64227 1.15679,0.92546 0.73679,0.51577 1.5768,0.87242 2.31359,1.38819 0.40454,0.28319 0.75224,0.64227 1.15679,0.9255 0.32581,0.22803 2.65251,1.55764 2.7763,1.61955 0.37146,0.18574 0.78533,0.27699 1.15679,0.46273 0.4022,0.2011 0.76202,0.47874 1.15679,0.69409 0.45417,0.24775 0.9577,0.40711 1.38815,0.6941 0.27223,0.18148 0.42783,0.50391 0.69407,0.69409 0.28065,0.20045 0.63297,0.27986 0.92544,0.46273 0.32698,0.20434 0.61165,0.46995 0.92543,0.69409 0.0226,0.0157 1.38488,0.92213 1.38815,0.92546 0.19662,0.19657 0.28901,0.47689 0.46272,0.6941 0.13626,0.17028 0.30847,0.30845 0.46271,0.46273 0.15424,0.15418 0.27568,0.35047 0.46272,0.46273 0.20912,0.12539 0.50364,0.0787 0.69407,0.23136 0.21713,0.17371 0.28902,0.47689 0.46272,0.69409 0.27252,0.34067 0.65291,0.5848 0.92543,0.92546 0.17371,0.21712 0.28902,0.47689 0.46272,0.6941 0.27252,0.34066 0.66368,0.57637 0.92543,0.92546 1.10286,1.47046 -0.64014,-0.5451 0.46272,0.92545 0.38868,0.51826 0.99947,0.86994 1.38815,1.38819 0.10346,0.1379 0.12789,0.32475 0.23136,0.46273 0.26175,0.34899 0.66368,0.57638 0.92543,0.92546 0.20694,0.27588 0.27141,0.63847 0.46272,0.92546 0.12099,0.18148 0.36516,0.26755 0.46271,0.46273 0.069,0.13789 -0.10906,0.35362 0,0.46273 0.0545,0.0546 0.23136,-0.0768 0.23136,0 0,0.0768 -0.15424,0 -0.23136,0"
       id="path8060"
       inkscape:connector-curvature="0" />
    <g
       id="g8102"
       transform="matrix(0.92543297,0,0,0.92545873,8.9744466,-11.749496)"
       style="stroke-width:1.08056021">
      <ellipse
         style="fill:none;fill-opacity:1;stroke:#000000;stroke-width:1.2252022;stroke-miterlimit:4;stroke-dasharray:none;stroke-opacity:1"
         id="ellipse8090"
         cx="120.875"
         cy="961.73718"
         rx="81.125"
         ry="85.375" />
      <ellipse
         style="fill:none;fill-opacity:1;stroke:#000000;stroke-width:1.2252022;stroke-miterlimit:4;stroke-dasharray:none;stroke-opacity:1"
         id="ellipse8092"
         cx="89"
         cy="929.73718"
         rx="10.5"
         ry="11.875" />
      <ellipse
         style="fill:none;fill-opacity:1;stroke:#000000;stroke-width:1.2252022;stroke-miterlimit:4;stroke-dasharray:none;stroke-opacity:1"
         id="ellipse8094"
         cx="158.5"
         cy="934.61218"
         rx="14.75"
         ry="16.75" />
      <path
         style="fill:none;stroke:#000000;stroke-width:1.08056021px;stroke-linecap:butt;stroke-linejoin:miter;stroke-opacity:1"
         d="m 80.5,1025.8622 c -0.09719,-0.3888 -0.343732,-1.0314 -0.25,-1.5 0.05168,-0.2584 0.212732,-0.4892 0.25,-0.75 0.04714,-0.33 -0.08084,-0.6767 0,-1 0.530592,-1.0612 0.523075,-0.8654 0.75,-2 0.198821,-0.9941 0.254119,-2.0165 0.5,-3 0.127828,-0.5113 0.345003,-0.9963 0.5,-1.5 0.178415,-0.5799 0.295953,-1.1787 0.5,-1.75 0.213455,-0.5977 0.536545,-1.1524 0.75,-1.75 0.408094,-1.1427 0.616305,-2.349 1,-3.5 0.225154,-0.6755 0.524846,-1.3246 0.75,-2 0.191848,-0.5756 0.308152,-1.1745 0.5,-1.75 0.225154,-0.6755 0.5,-1.3334 0.75,-2 0.25,-0.6667 0.464617,-1.3477 0.75,-2 0.858297,-1.96186 1.028762,-1.92897 2,-3.75004 2.440205,-4.88041 -0.39715,0.70185 2,-3.75 0.26503,-0.4922 0.429425,-1.04204 0.75,-1.5 0.270333,-0.38619 0.666667,-0.66667 1,-1 0.25,-0.25 0.481562,-0.51991 0.75,-0.75 0.316357,-0.27116 0.683643,-0.47884 1,-0.75 0.774061,-0.66348 0.615934,-0.80797 1.5,-1.25 0.235702,-0.11785 0.530736,-0.10382 0.75,-0.25 0.294174,-0.19612 0.473921,-0.52914 0.75,-0.75 0.145506,-0.11641 0.333333,-0.16667 0.5,-0.25 0.166667,-0.0833 0.316196,-0.21937 0.5,-0.25 0.328798,-0.0548 0.666667,0 1,0 0.58333,0 1.16667,0 1.75,0 0.81066,0 1.74236,-0.12882 2.5,0.25 0.21082,0.10541 0.29789,0.37873 0.5,0.5 0.22597,0.13558 0.50778,0.14619 0.75,0.25 0.34255,0.14681 0.67642,0.3151 1,0.5 1.28612,0.73492 0.22799,0.40933 2,1 0.57554,0.19185 1.17867,0.29595 1.75,0.5 0.59767,0.21346 1.16667,0.5 1.75,0.75 0.58333,0.25 1.16667,0.5 1.75,0.75 0.58333,0.25 1.15233,0.53654 1.75,0.75 3.69818,1.05662 -0.0925,-0.1427 3.25,1.25 0.4865,0.20271 1.02019,0.28191 1.5,0.5 0.44236,0.20107 0.82524,0.51402 1.25,0.75 0.32578,0.18099 0.68397,0.30248 1,0.5 0.35333,0.22083 0.63577,0.54765 1,0.75 0.39229,0.21794 0.86519,0.26911 1.25,0.5 0.45755,0.27453 0.81286,0.694 1.25,1 0.79615,0.55731 1.70385,0.94269 2.5,1.5 0.43714,0.306 0.81286,0.694 1.25,1.00004 0.35206,0.2464 2.86624,1.6831 3,1.75 0.40139,0.2007 0.84861,0.2993 1.25,0.5 0.43461,0.2173 0.82342,0.5173 1.25,0.75 0.49076,0.2677 1.03487,0.4399 1.5,0.75 0.29417,0.1961 0.4623,0.5445 0.75,0.75 0.30326,0.2166 0.68397,0.3024 1,0.5 0.35333,0.2208 0.66094,0.5078 1,0.75 0.0244,0.017 1.49647,0.9964 1.5,1 0.21246,0.2124 0.3123,0.5153 0.5,0.75 0.14724,0.184 0.33333,0.3333 0.5,0.5 0.16667,0.1666 0.29789,0.3787 0.5,0.5 0.22597,0.1355 0.54422,0.085 0.75,0.25 0.23462,0.1877 0.3123,0.5153 0.5,0.75 0.29448,0.3681 0.70552,0.6319 1,1 0.1877,0.2346 0.3123,0.5153 0.5,0.75 0.29448,0.3681 0.71716,0.6228 1,1 1.19172,1.5889 -0.69172,-0.589 0.5,1 0.42,0.56 1.08,0.94 1.5,1.5 0.1118,0.149 0.1382,0.3509 0.25,0.5 0.28284,0.3771 0.71716,0.6228 1,1 0.22361,0.2981 0.29328,0.6899 0.5,1 0.13074,0.1961 0.39459,0.2891 0.5,0.5 0.0745,0.149 -0.11785,0.3821 0,0.5 0.0589,0.059 0.25,-0.083 0.25,0 0,0.083 -0.16667,0 -0.25,0"
         id="path8096"
         inkscape:connector-curvature="0" />
    </g>
    <rect
       y="995.26324"
       x="32.526913"
       height="24.395184"
       width="179.78191"
       id="rect8106"
       style="fill:none;fill-opacity:1;stroke:#000000;stroke-width:1.13385832;stroke-miterlimit:4;stroke-dasharray:none;stroke-opacity:1" />
    <rect
       style="fill:none;fill-opacity:1;stroke:#000000;stroke-width:1.13385832;stroke-miterlimit:4;stroke-dasharray:none;stroke-opacity:1"
       id="rect8108"
       width="24.395191"
       height="37.123104"
       x="107.83379"
       y="958.14008" />
    <rect
       style="fill:none;fill-opacity:1;stroke:#000000;stroke-width:1.13385832;stroke-miterlimit:4;stroke-dasharray:none;stroke-opacity:1"
       id="rect8110"
       width="179.78191"
       height="24.395184"
       x="-210.5744"
       y="-761.46027"
       transform="rotate(-179.86562)" />
    <rect
       y="-798.58344"
       x="-135.2675"
       height="37.123104"
       width="24.395191"
       id="rect8112"
       style="fill:none;fill-opacity:1;stroke:#000000;stroke-width:1.13385832;stroke-miterlimit:4;stroke-dasharray:none;stroke-opacity:1"
       transform="rotate(-179.86562)" />
    <rect
       style="fill:none;fill-opacity:1;stroke:#000000;stroke-width:1.13386333;stroke-miterlimit:4;stroke-dasharray:none;stroke-opacity:1"
       id="rect8118"
       width="22.932188"
       height="0.86597598"
       x="269.89853"
       y="931.21844"
       transform="matrix(0.98632417,0.16481693,-0.16892362,0.98562915,0,0)" />
    <rect
       transform="matrix(0.98632418,0.16481693,-0.16892362,0.98562914,0,0)"
       y="936.82715"
       x="270.67987"
       height="0.86597598"
       width="22.932188"
       id="rect8120"
       style="fill:none;fill-opacity:1;stroke:#000000;stroke-width:1.13386333;stroke-miterlimit:4;stroke-dasharray:none;stroke-opacity:1" />
    <rect
       style="fill:none;fill-opacity:1;stroke:#000000;stroke-width:1.13386333;stroke-miterlimit:4;stroke-dasharray:none;stroke-opacity:1"
       id="rect8122"
       width="22.932188"
       height="0.86597598"
       x="271.52094"
       y="942.78455"
       transform="matrix(0.98632418,0.16481693,-0.16892362,0.98562914,0,0)" />
    <rect
       transform="matrix(0.98632418,0.16481693,-0.16892362,0.98562914,0,0)"
       y="947.63293"
       x="272.53122"
       height="0.86597598"
       width="22.932188"
       id="rect8124"
       style="fill:none;fill-opacity:1;stroke:#000000;stroke-width:1.13386333;stroke-miterlimit:4;stroke-dasharray:none;stroke-opacity:1" />
    <rect
       style="fill:none;fill-opacity:1;stroke:#000000;stroke-width:1.13386333;stroke-miterlimit:4;stroke-dasharray:none;stroke-opacity:1"
       id="rect8126"
       width="22.932188"
       height="0.86597598"
       x="273.31256"
       y="953.24164"
       transform="matrix(0.98632418,0.16481693,-0.16892362,0.98562914,0,0)" />
    <rect
       transform="matrix(0.98632418,0.16481693,-0.16892362,0.98562914,0,0)"
       y="959.19904"
       x="274.15363"
       height="0.86597598"
       width="22.932188"
       id="rect8128"
       style="fill:none;fill-opacity:1;stroke:#000000;stroke-width:1.13386333;stroke-miterlimit:4;stroke-dasharray:none;stroke-opacity:1" />
    <rect
       transform="matrix(0.98632418,0.16481693,-0.16892362,0.98562914,0,0)"
       y="735.55621"
       x="237.64287"
       height="0.86597598"
       width="22.932188"
       id="rect8130"
       style="fill:none;fill-opacity:1;stroke:#000000;stroke-width:1.13386333;stroke-miterlimit:4;stroke-dasharray:none;stroke-opacity:1" />
    <rect
       style="fill:none;fill-opacity:1;stroke:#000000;stroke-width:1.13386333;stroke-miterlimit:4;stroke-dasharray:none;stroke-opacity:1"
       id="rect8132"
       width="22.932188"
       height="0.86597598"
       x="238.42421"
       y="741.16492"
       transform="matrix(0.98632418,0.16481693,-0.16892362,0.98562914,0,0)" />
    <rect
       transform="matrix(0.98632418,0.16481693,-0.16892362,0.98562914,0,0)"
       y="747.12231"
       x="239.26527"
       height="0.86597598"
       width="22.932188"
       id="rect8134"
       style="fill:none;fill-opacity:1;stroke:#000000;stroke-width:1.13386333;stroke-miterlimit:4;stroke-dasharray:none;stroke-opacity:1" />
    <rect
       style="fill:none;fill-opacity:1;stroke:#000000;stroke-width:1.13386333;stroke-miterlimit:4;stroke-dasharray:none;stroke-opacity:1"
       id="rect8136"
       width="22.932188"
       height="0.86597598"
       x="240.27556"
       y="751.9707"
       transform="matrix(0.98632418,0.16481693,-0.16892362,0.98562914,0,0)" />
    <rect
       transform="matrix(0.98632418,0.16481693,-0.16892362,0.98562914,0,0)"
       y="757.57941"
       x="241.0569"
       height="0.86597598"
       width="22.932188"
       id="rect8138"
       style="fill:none;fill-opacity:1;stroke:#000000;stroke-width:1.13386333;stroke-miterlimit:4;stroke-dasharray:none;stroke-opacity:1" />
    <rect
       style="fill:none;fill-opacity:1;stroke:#000000;stroke-width:1.13386333;stroke-miterlimit:4;stroke-dasharray:none;stroke-opacity:1"
       id="rect8140"
       width="22.932188"
       height="0.86597598"
       x="241.89796"
       y="763.5368"
       transform="matrix(0.98632418,0.16481693,-0.16892362,0.98562914,0,0)" />
    <rect
       style="fill:none;fill-opacity:1;stroke:#000000;stroke-width:1.13385832;stroke-miterlimit:4;stroke-dasharray:none;stroke-opacity:1"
       id="rect8142"
       width="12.197592"
       height="121.79914"
       x="9.0156116"
       y="930.38623" />
    <rect
       style="fill:none;fill-opacity:1;stroke:#000000;stroke-width:1.13385832;stroke-miterlimit:4;stroke-dasharray:none;stroke-opacity:1"
       id="rect8144"
       width="11.313708"
       height="4.4194174"
       x="21.036427"
       y="1006.4002" />
    <path
       sodipodi:type="star"
       style="fill:none;fill-opacity:1;stroke:#000000;stroke-width:1.13385832;stroke-miterlimit:4;stroke-dasharray:none;stroke-opacity:1"
       id="path8150"
       sodipodi:sides="4"
       sodipodi:cx="97.934288"
       sodipodi:cy="792.50042"
       sodipodi:r1="6.1871843"
       sodipodi:r2="2.1655145"
       sodipodi:arg1="0.64350111"
       sodipodi:arg2="1.4288993"
       inkscape:flatsided="false"
       inkscape:rounded="0"
       inkscape:randomized="0"
       d="m 102.88404,796.21274 -4.643502,-1.56856 -4.018561,2.80599 1.568561,-4.64349 -2.805997,-4.01856 4.643497,1.56856 4.018562,-2.806 -1.56856,4.6435 z" />
    <path
       sodipodi:type="star"
       style="fill:none;fill-opacity:1;stroke:#000000;stroke-width:1.13385832;stroke-miterlimit:4;stroke-dasharray:none;stroke-opacity:1"
       id="path8162"
       sodipodi:sides="4"
       sodipodi:cx="139.65359"
       sodipodi:cy="794.09141"
       sodipodi:r1="5.706356"
       sodipodi:r2="1.9972246"
       sodipodi:arg1="1.8533513"
       sodipodi:arg2="2.6387494"
       inkscape:flatsided="false"
       inkscape:rounded="0"
       inkscape:randomized="0"
       d="m 138.0626,799.57151 -0.159,-4.51758 -3.73008,-2.55349 4.51757,-0.15901 2.5535,-3.73008 0.159,4.51758 3.73008,2.55349 -4.51757,0.15901 z" />
    <path
       sodipodi:type="star"
       style="fill:none;fill-opacity:1;stroke:#000000;stroke-width:1.13385832;stroke-miterlimit:4;stroke-dasharray:none;stroke-opacity:1"
       id="path8164"
       sodipodi:sides="4"
       sodipodi:cx="97.22718"
       sodipodi:cy="958.14018"
       sodipodi:r1="6.5764732"
       sodipodi:r2="2.3017657"
       sodipodi:arg1="0.93804749"
       sodipodi:arg2="1.7234457"
       inkscape:flatsided="false"
       inkscape:rounded="0"
       inkscape:randomized="0"
       d="m 101.11627,963.4435 -4.23909,-3.0283 -4.9533,1.61409 3.0283,-4.23909 -1.614087,-4.9533 4.239088,3.0283 4.953299,-1.61409 -3.028299,4.23909 z" />
    <path
       sodipodi:type="star"
       style="fill:none;fill-opacity:1;stroke:#000000;stroke-width:1.13385832;stroke-miterlimit:4;stroke-dasharray:none;stroke-opacity:1"
       id="path8166"
       sodipodi:sides="4"
       sodipodi:cx="139.83037"
       sodipodi:cy="961.32217"
       sodipodi:r1="5.9817429"
       sodipodi:r2="2.09361"
       sodipodi:arg1="0.97459719"
       sodipodi:arg2="1.7599953"
       inkscape:flatsided="false"
       inkscape:rounded="0"
       inkscape:randomized="0"
       d="m 143.18913,966.27189 -3.75251,-2.8935 -4.556,1.30251 2.8935,-3.75251 -1.30251,-4.55599 3.75251,2.89349 4.556,-1.3025 -2.8935,3.7525 z" />
  </g>
</svg>
