<?xml version="1.0" encoding="UTF-8" standalone="no"?>
<!-- Created with Inkscape (http://www.inkscape.org/) -->

<svg
   xmlns:osb="http://www.openswatchbook.org/uri/2009/osb"
   xmlns:dc="http://purl.org/dc/elements/1.1/"
   xmlns:cc="http://creativecommons.org/ns#"
   xmlns:rdf="http://www.w3.org/1999/02/22-rdf-syntax-ns#"
   xmlns:svg="http://www.w3.org/2000/svg"
   xmlns="http://www.w3.org/2000/svg"
   xmlns:sodipodi="http://sodipodi.sourceforge.net/DTD/sodipodi-0.dtd"
   xmlns:inkscape="http://www.inkscape.org/namespaces/inkscape"
   width="230"
   height="320"
   viewBox="0 0 230 320"
   id="svg2"
   version="1.1"
   inkscape:version="0.92.3 (2405546, 2018-03-11)"
   sodipodi:docname="category-pain.svg">
  <defs
     id="defs4">
    <marker
       inkscape:stockid="Arrow1Mstart"
       orient="auto"
       refY="0.0"
       refX="0.0"
       id="marker4518"
       style="overflow:visible"
       inkscape:isstock="true">
      <path
         id="path4520"
         d="M 0.0,0.0 L 5.0,-5.0 L -12.5,0.0 L 5.0,5.0 L 0.0,0.0 z "
         style="fill-rule:evenodd;stroke:#000000;stroke-width:1pt;stroke-opacity:1;fill:#000000;fill-opacity:1"
         transform="scale(0.4) translate(10,0)" />
    </marker>
    <marker
       inkscape:stockid="Arrow2Mstart"
       orient="auto"
       refY="0.0"
       refX="0.0"
       id="marker4514"
       style="overflow:visible"
       inkscape:isstock="true">
      <path
         id="path4516"
         style="fill-rule:evenodd;stroke-width:0.625;stroke-linejoin:round;stroke:#000000;stroke-opacity:1;fill:#000000;fill-opacity:1"
         d="M 8.7185878,4.0337352 L -2.2072895,0.016013256 L 8.7185884,-4.0017078 C 6.9730900,-1.6296469 6.9831476,1.6157441 8.7185878,4.0337352 z "
         transform="scale(0.6) translate(0,0)" />
    </marker>
    <marker
       inkscape:stockid="Arrow2Mend"
       orient="auto"
       refY="0.0"
       refX="0.0"
       id="Arrow2Mend"
       style="overflow:visible;"
       inkscape:isstock="true">
      <path
         id="path4219"
         style="fill-rule:evenodd;stroke-width:0.625;stroke-linejoin:round;stroke:#000000;stroke-opacity:1;fill:#000000;fill-opacity:1"
         d="M 8.7185878,4.0337352 L -2.2072895,0.016013256 L 8.7185884,-4.0017078 C 6.9730900,-1.6296469 6.9831476,1.6157441 8.7185878,4.0337352 z "
         transform="scale(0.6) rotate(180) translate(0,0)" />
    </marker>
    <marker
       inkscape:stockid="Arrow1Mend"
       orient="auto"
       refY="0.0"
       refX="0.0"
       id="Arrow1Mend"
       style="overflow:visible;"
       inkscape:isstock="true">
      <path
         id="path4201"
         d="M 0.0,0.0 L 5.0,-5.0 L -12.5,0.0 L 5.0,5.0 L 0.0,0.0 z "
         style="fill-rule:evenodd;stroke:#000000;stroke-width:1pt;stroke-opacity:1;fill:#000000;fill-opacity:1"
         transform="scale(0.4) rotate(180) translate(10,0)" />
    </marker>
    <marker
       inkscape:stockid="Arrow1Mstart"
       orient="auto"
       refY="0.0"
       refX="0.0"
       id="Arrow1Mstart"
       style="overflow:visible"
       inkscape:isstock="true">
      <path
         id="path4198"
         d="M 0.0,0.0 L 5.0,-5.0 L -12.5,0.0 L 5.0,5.0 L 0.0,0.0 z "
         style="fill-rule:evenodd;stroke:#000000;stroke-width:1pt;stroke-opacity:1;fill:#000000;fill-opacity:1"
         transform="scale(0.4) translate(10,0)" />
    </marker>
    <marker
       inkscape:stockid="Arrow2Lstart"
       orient="auto"
       refY="0.0"
       refX="0.0"
       id="marker4504"
       style="overflow:visible"
       inkscape:isstock="true">
      <path
         id="path4506"
         style="fill-rule:evenodd;stroke-width:0.625;stroke-linejoin:round;stroke:#000000;stroke-opacity:1;fill:#000000;fill-opacity:1"
         d="M 8.7185878,4.0337352 L -2.2072895,0.016013256 L 8.7185884,-4.0017078 C 6.9730900,-1.6296469 6.9831476,1.6157441 8.7185878,4.0337352 z "
         transform="scale(1.1) translate(1,0)" />
    </marker>
    <marker
       inkscape:stockid="Arrow1Lend"
       orient="auto"
       refY="0.0"
       refX="0.0"
       id="marker4500"
       style="overflow:visible;"
       inkscape:isstock="true">
      <path
         id="path4502"
         d="M 0.0,0.0 L 5.0,-5.0 L -12.5,0.0 L 5.0,5.0 L 0.0,0.0 z "
         style="fill-rule:evenodd;stroke:#000000;stroke-width:1pt;stroke-opacity:1;fill:#000000;fill-opacity:1"
         transform="scale(0.8) rotate(180) translate(12.5,0)" />
    </marker>
    <marker
       inkscape:stockid="Arrow2Lstart"
       orient="auto"
       refY="0.0"
       refX="0.0"
       id="Arrow2Lstart"
       style="overflow:visible"
       inkscape:isstock="true">
      <path
         id="path4210"
         style="fill-rule:evenodd;stroke-width:0.625;stroke-linejoin:round;stroke:#000000;stroke-opacity:1;fill:#000000;fill-opacity:1"
         d="M 8.7185878,4.0337352 L -2.2072895,0.016013256 L 8.7185884,-4.0017078 C 6.9730900,-1.6296469 6.9831476,1.6157441 8.7185878,4.0337352 z "
         transform="scale(1.1) translate(1,0)" />
    </marker>
    <marker
       inkscape:stockid="Arrow2Mstart"
       orient="auto"
       refY="0.0"
       refX="0.0"
       id="marker4494"
       style="overflow:visible"
       inkscape:isstock="true">
      <path
         id="path4496"
         style="fill-rule:evenodd;stroke-width:0.625;stroke-linejoin:round;stroke:#000000;stroke-opacity:1;fill:#000000;fill-opacity:1"
         d="M 8.7185878,4.0337352 L -2.2072895,0.016013256 L 8.7185884,-4.0017078 C 6.9730900,-1.6296469 6.9831476,1.6157441 8.7185878,4.0337352 z "
         transform="scale(0.6) translate(0,0)" />
    </marker>
    <marker
       inkscape:stockid="Tail"
       orient="auto"
       refY="0.0"
       refX="0.0"
       id="marker4478"
       style="overflow:visible"
       inkscape:isstock="true">
      <g
         id="g4480"
         transform="scale(-1.2)"
         style="stroke:#000000;stroke-opacity:1;fill:#000000;fill-opacity:1">
        <path
           id="path4482"
           d="M -3.8048674,-3.9585227 L 0.54352094,0"
           style="fill:#000000;fill-rule:evenodd;stroke:#000000;stroke-width:0.8;stroke-linecap:round;stroke-opacity:1;fill-opacity:1" />
        <path
           id="path4484"
           d="M -1.2866832,-3.9585227 L 3.0617053,0"
           style="fill:#000000;fill-rule:evenodd;stroke:#000000;stroke-width:0.8;stroke-linecap:round;stroke-opacity:1;fill-opacity:1" />
        <path
           id="path4486"
           d="M 1.3053582,-3.9585227 L 5.6537466,0"
           style="fill:#000000;fill-rule:evenodd;stroke:#000000;stroke-width:0.8;stroke-linecap:round;stroke-opacity:1;fill-opacity:1" />
        <path
           id="path4488"
           d="M -3.8048674,4.1775838 L 0.54352094,0.21974226"
           style="fill:#000000;fill-rule:evenodd;stroke:#000000;stroke-width:0.8;stroke-linecap:round;stroke-opacity:1;fill-opacity:1" />
        <path
           id="path4490"
           d="M -1.2866832,4.1775838 L 3.0617053,0.21974226"
           style="fill:#000000;fill-rule:evenodd;stroke:#000000;stroke-width:0.8;stroke-linecap:round;stroke-opacity:1;fill-opacity:1" />
        <path
           id="path4492"
           d="M 1.3053582,4.1775838 L 5.6537466,0.21974226"
           style="fill:#000000;fill-rule:evenodd;stroke:#000000;stroke-width:0.8;stroke-linecap:round;stroke-opacity:1;fill-opacity:1" />
      </g>
    </marker>
    <marker
       inkscape:stockid="Tail"
       orient="auto"
       refY="0.0"
       refX="0.0"
       id="Tail"
       style="overflow:visible"
       inkscape:isstock="true">
      <g
         id="g4228"
         transform="scale(-1.2)"
         style="stroke:#000000;stroke-opacity:1;fill:#000000;fill-opacity:1">
        <path
           id="path4230"
           d="M -3.8048674,-3.9585227 L 0.54352094,0"
           style="fill:#000000;fill-rule:evenodd;stroke:#000000;stroke-width:0.8;stroke-linecap:round;stroke-opacity:1;fill-opacity:1" />
        <path
           id="path4232"
           d="M -1.2866832,-3.9585227 L 3.0617053,0"
           style="fill:#000000;fill-rule:evenodd;stroke:#000000;stroke-width:0.8;stroke-linecap:round;stroke-opacity:1;fill-opacity:1" />
        <path
           id="path4234"
           d="M 1.3053582,-3.9585227 L 5.6537466,0"
           style="fill:#000000;fill-rule:evenodd;stroke:#000000;stroke-width:0.8;stroke-linecap:round;stroke-opacity:1;fill-opacity:1" />
        <path
           id="path4236"
           d="M -3.8048674,4.1775838 L 0.54352094,0.21974226"
           style="fill:#000000;fill-rule:evenodd;stroke:#000000;stroke-width:0.8;stroke-linecap:round;stroke-opacity:1;fill-opacity:1" />
        <path
           id="path4238"
           d="M -1.2866832,4.1775838 L 3.0617053,0.21974226"
           style="fill:#000000;fill-rule:evenodd;stroke:#000000;stroke-width:0.8;stroke-linecap:round;stroke-opacity:1;fill-opacity:1" />
        <path
           id="path4240"
           d="M 1.3053582,4.1775838 L 5.6537466,0.21974226"
           style="fill:#000000;fill-rule:evenodd;stroke:#000000;stroke-width:0.8;stroke-linecap:round;stroke-opacity:1;fill-opacity:1" />
      </g>
    </marker>
    <marker
       inkscape:stockid="Arrow2Lend"
       orient="auto"
       refY="0.0"
       refX="0.0"
       id="marker4466"
       style="overflow:visible;"
       inkscape:isstock="true">
      <path
         id="path4468"
         style="fill-rule:evenodd;stroke-width:0.625;stroke-linejoin:round;stroke:#000000;stroke-opacity:1;fill:#000000;fill-opacity:1"
         d="M 8.7185878,4.0337352 L -2.2072895,0.016013256 L 8.7185884,-4.0017078 C 6.9730900,-1.6296469 6.9831476,1.6157441 8.7185878,4.0337352 z "
         transform="scale(1.1) rotate(180) translate(1,0)" />
    </marker>
    <marker
       inkscape:stockid="Arrow1Lend"
       orient="auto"
       refY="0.0"
       refX="0.0"
       id="marker4462"
       style="overflow:visible;"
       inkscape:isstock="true">
      <path
         id="path4464"
         d="M 0.0,0.0 L 5.0,-5.0 L -12.5,0.0 L 5.0,5.0 L 0.0,0.0 z "
         style="fill-rule:evenodd;stroke:#000000;stroke-width:1pt;stroke-opacity:1;fill:#000000;fill-opacity:1"
         transform="scale(0.8) rotate(180) translate(12.5,0)" />
    </marker>
    <marker
       inkscape:stockid="Arrow1Lstart"
       orient="auto"
       refY="0.0"
       refX="0.0"
       id="Arrow1Lstart"
       style="overflow:visible"
       inkscape:isstock="true">
      <path
         id="path4192"
         d="M 0.0,0.0 L 5.0,-5.0 L -12.5,0.0 L 5.0,5.0 L 0.0,0.0 z "
         style="fill-rule:evenodd;stroke:#000000;stroke-width:1pt;stroke-opacity:1;fill:#000000;fill-opacity:1"
         transform="scale(0.8) translate(12.5,0)" />
    </marker>
    <marker
       inkscape:stockid="Arrow2Mstart"
       orient="auto"
       refY="0.0"
       refX="0.0"
       id="Arrow2Mstart"
       style="overflow:visible"
       inkscape:isstock="true">
      <path
         id="path4216"
         style="fill-rule:evenodd;stroke-width:0.625;stroke-linejoin:round;stroke:#000000;stroke-opacity:1;fill:#000000;fill-opacity:1"
         d="M 8.7185878,4.0337352 L -2.2072895,0.016013256 L 8.7185884,-4.0017078 C 6.9730900,-1.6296469 6.9831476,1.6157441 8.7185878,4.0337352 z "
         transform="scale(0.6) translate(0,0)" />
    </marker>
    <marker
       inkscape:stockid="Arrow2Lend"
       orient="auto"
       refY="0.0"
       refX="0.0"
       id="Arrow2Lend"
       style="overflow:visible;"
       inkscape:isstock="true">
      <path
         id="path4213"
         style="fill-rule:evenodd;stroke-width:0.625;stroke-linejoin:round;stroke:#000000;stroke-opacity:1;fill:#000000;fill-opacity:1"
         d="M 8.7185878,4.0337352 L -2.2072895,0.016013256 L 8.7185884,-4.0017078 C 6.9730900,-1.6296469 6.9831476,1.6157441 8.7185878,4.0337352 z "
         transform="scale(1.1) rotate(180) translate(1,0)" />
    </marker>
    <marker
       inkscape:stockid="Arrow1Lend"
       orient="auto"
       refY="0.0"
       refX="0.0"
       id="marker4450"
       style="overflow:visible;"
       inkscape:isstock="true">
      <path
         id="path4452"
         d="M 0.0,0.0 L 5.0,-5.0 L -12.5,0.0 L 5.0,5.0 L 0.0,0.0 z "
         style="fill-rule:evenodd;stroke:#000000;stroke-width:1pt;stroke-opacity:1;fill:#000000;fill-opacity:1"
         transform="scale(0.8) rotate(180) translate(12.5,0)" />
    </marker>
    <marker
       inkscape:stockid="Arrow1Lend"
       orient="auto"
       refY="0.0"
       refX="0.0"
       id="Arrow1Lend"
       style="overflow:visible;"
       inkscape:isstock="true">
      <path
         id="path4195"
         d="M 0.0,0.0 L 5.0,-5.0 L -12.5,0.0 L 5.0,5.0 L 0.0,0.0 z "
         style="fill-rule:evenodd;stroke:#000000;stroke-width:1pt;stroke-opacity:1;fill:#000000;fill-opacity:1"
         transform="scale(0.8) rotate(180) translate(12.5,0)" />
    </marker>
    <linearGradient
       id="linearGradient5272"
       osb:paint="solid">
      <stop
         style="stop-color:#000000;stop-opacity:1;"
         offset="0"
         id="stop5274" />
    </linearGradient>
    <inkscape:path-effect
       effect="spiro"
       id="path-effect4408"
       is_visible="true" />
  </defs>
  <sodipodi:namedview
     id="base"
     pagecolor="#ffffff"
     bordercolor="#666666"
     borderopacity="1.0"
     inkscape:pageopacity="0.0"
     inkscape:pageshadow="2"
     inkscape:zoom="2.8284272"
     inkscape:cx="58.565246"
     inkscape:cy="83.637007"
     inkscape:document-units="px"
     inkscape:current-layer="layer1"
     showgrid="false"
     showborder="true"
     showguides="false"
     inkscape:window-width="3836"
     inkscape:window-height="2106"
     inkscape:window-x="0"
     inkscape:window-y="16"
     inkscape:window-maximized="0"
     units="px"
     inkscape:snap-center="false"
     inkscape:snap-midpoints="false"
     inkscape:snap-bbox="false"
     inkscape:snap-others="false"
     inkscape:snap-nodes="false"
     inkscape:snap-global="true"
     inkscape:object-nodes="false" />
  <metadata
     id="metadata7">
    <rdf:RDF>
      <cc:Work
         rdf:about="">
        <dc:format>image/svg+xml</dc:format>
        <dc:type
           rdf:resource="http://purl.org/dc/dcmitype/StillImage" />
        <dc:title />
      </cc:Work>
    </rdf:RDF>
  </metadata>
  <g
     inkscape:label="Laag 1"
     inkscape:groupmode="layer"
     id="layer1"
     transform="translate(0,-732.36216)">
    <ellipse
       style="fill:none;fill-opacity:1;stroke:#000000;stroke-width:6.27221537;stroke-miterlimit:4;stroke-dasharray:none;stroke-opacity:1"
       id="path8046"
       cx="120.83616"
       cy="878.29858"
       rx="75.075752"
       ry="79.01104" />
    <ellipse
       style="fill:none;fill-opacity:1;stroke:#000000;stroke-width:6.27221537;stroke-miterlimit:4;stroke-dasharray:none;stroke-opacity:1"
       id="path8048"
       cx="91.337982"
       cy="848.6839"
       rx="9.7170458"
       ry="10.989822" />
    <ellipse
       style="fill:none;fill-opacity:1;stroke:#000000;stroke-width:6.27221537;stroke-miterlimit:4;stroke-dasharray:none;stroke-opacity:1"
       id="path8050"
       cx="155.65558"
       cy="853.1955"
       rx="13.650136"
       ry="15.501433" />
    <path
       style="fill:none;stroke:#000000;stroke-width:5.53174591;stroke-linecap:butt;stroke-linejoin:miter;stroke-opacity:1;stroke-miterlimit:4;stroke-dasharray:none"
       d="m 83.4718,937.64363 c -0.08994,-0.35982 -0.318101,-0.95452 -0.231358,-1.38819 0.04783,-0.23914 0.196869,-0.45273 0.231358,-0.69409 0.04362,-0.30541 -0.07481,-0.62626 0,-0.92546 0.491028,-0.9821 0.484071,-0.80089 0.694075,-1.85092 0.183996,-0.92 0.23517,-1.86619 0.462716,-2.77638 0.118297,-0.47318 0.319278,-0.92203 0.462717,-1.38818 0.165111,-0.53668 0.273885,-1.09084 0.462716,-1.61956 0.197539,-0.55314 0.496537,-1.0665 0.694075,-1.61955 0.377664,-1.05752 0.570349,-2.1739 0.925433,-3.23911 0.208365,-0.62514 0.48571,-1.22586 0.694075,-1.85091 0.177542,-0.5327 0.285174,-1.08695 0.462716,-1.61956 0.208365,-0.62514 0.462717,-1.234 0.694075,-1.85091 0.231358,-0.61701 0.429972,-1.24724 0.694075,-1.85092 0.794296,-1.81562 0.95205,-1.78518 1.850866,-3.47051 2.258246,-4.51662 -0.367536,0.64954 1.850866,-3.47047 0.245267,-0.45551 0.397404,-0.96436 0.694074,-1.38819 0.250176,-0.3574 0.616956,-0.61697 0.925433,-0.92545 0.231359,-0.23137 0.445654,-0.48116 0.694075,-0.6941 0.292764,-0.25095 0.632666,-0.44315 0.925436,-0.69409 0.716341,-0.61403 0.570002,-0.74775 1.388149,-1.15683 0.218125,-0.10906 0.491155,-0.0961 0.694075,-0.23136 0.272235,-0.1815 0.438581,-0.4897 0.694075,-0.6941 0.13465,-0.10773 0.308474,-0.15424 0.462716,-0.23136 0.154232,-0.0771 0.292612,-0.20302 0.462712,-0.23136 0.30429,-0.0507 0.61695,0 0.92543,0 0.53983,0 1.07967,0 1.61951,0 0.75021,0 1.61243,-0.11922 2.31358,0.23136 0.1951,0.0976 0.27568,0.3505 0.46272,0.46273 0.20912,0.12547 0.46991,0.13529 0.69407,0.23136 0.31701,0.13587 0.62598,0.29162 0.92543,0.46273 1.19022,0.68014 0.21099,0.37882 1.85087,0.92546 0.53262,0.17755 1.09078,0.27389 1.61951,0.46273 0.5531,0.19755 1.07967,0.46273 1.6195,0.6941 0.53984,0.23136 1.07968,0.46273 1.61951,0.69409 0.53983,0.23136 1.06641,0.49655 1.61951,0.69409 3.42243,0.97786 -0.0856,-0.13206 3.00767,1.15683 0.45022,0.1876 0.94411,0.26089 1.38815,0.46273 0.40937,0.18608 0.7637,0.4757 1.15679,0.69409 0.30148,0.1675 0.63296,0.27993 0.92543,0.46273 0.32698,0.20437 0.58836,0.50683 0.92543,0.69409 0.36304,0.2017 0.80068,0.24905 1.15679,0.46273 0.42344,0.25407 0.75225,0.64227 1.15679,0.92546 0.73679,0.51577 1.5768,0.87242 2.31359,1.38819 0.40454,0.28319 0.75224,0.64227 1.15679,0.9255 0.32581,0.22803 2.65251,1.55764 2.7763,1.61955 0.37146,0.18574 0.78533,0.27699 1.15679,0.46273 0.4022,0.2011 0.76202,0.47874 1.15679,0.69409 0.45417,0.24775 0.9577,0.40711 1.38815,0.6941 0.27223,0.18148 0.42783,0.50391 0.69407,0.69409 0.28065,0.20045 0.63297,0.27986 0.92544,0.46273 0.32698,0.20434 0.61165,0.46995 0.92543,0.69409 0.0226,0.0157 1.38488,0.92213 1.38815,0.92546 0.19662,0.19657 0.28901,0.47689 0.46272,0.6941 0.13626,0.17028 0.30847,0.30845 0.46271,0.46273 0.15424,0.15418 0.27568,0.35047 0.46272,0.46273 0.20912,0.12539 0.50364,0.0787 0.69407,0.23136 0.21713,0.17371 0.28902,0.47689 0.46272,0.69409 0.27252,0.34067 0.65291,0.5848 0.92543,0.92546 0.17371,0.21712 0.28902,0.47689 0.46272,0.6941 0.27252,0.34066 0.66368,0.57637 0.92543,0.92546 1.10286,1.47046 -0.64014,-0.5451 0.46272,0.92545 0.38868,0.51826 0.99947,0.86994 1.38815,1.38819 0.10346,0.1379 0.12789,0.32475 0.23136,0.46273 0.26175,0.34899 0.66368,0.57638 0.92543,0.92546 0.20694,0.27588 0.27141,0.63847 0.46272,0.92546 0.12099,0.18148 0.36516,0.26755 0.46271,0.46273 0.069,0.13789 -0.10906,0.35362 0,0.46273 0.0545,0.0546 0.23136,-0.0768 0.23136,0 0,0.0768 -0.15424,0 -0.23136,0"
       id="path8060"
       inkscape:connector-curvature="0" />
    <g
       id="g1097"
       transform="matrix(1.2115719,0,0,1.0877026,-24.161361,-67.681525)"
       style="stroke-width:0.8711046">
      <rect
         transform="rotate(-179.86562)"
         y="-761.46027"
         x="-210.5744"
         height="24.395184"
         width="179.78191"
         id="rect8110"
         style="fill:none;fill-opacity:1;stroke:#000000;stroke-width:2.63491344;stroke-miterlimit:4;stroke-dasharray:none;stroke-opacity:1" />
      <rect
         transform="rotate(-179.86562)"
         style="fill:none;fill-opacity:1;stroke:#000000;stroke-width:2.63491344;stroke-miterlimit:4;stroke-dasharray:none;stroke-opacity:1"
         id="rect8112"
         width="24.395191"
         height="37.123104"
         x="-135.2675"
         y="-798.58344" />
      <rect
         transform="matrix(0.93335157,0.35896358,-0.36284795,0.93184836,0,0)"
         y="676.7323"
         x="381.64142"
         height="0.86597598"
         width="22.932188"
         id="rect8132"
         style="fill:none;fill-opacity:1;stroke:#000000;stroke-width:2.63519979;stroke-miterlimit:4;stroke-dasharray:none;stroke-opacity:1" />
      <rect
         transform="matrix(0.93375555,0.35791142,-0.36179748,0.93225672,0,0)"
         y="687.40149"
         x="384.84418"
         height="0.86597598"
         width="22.932188"
         id="rect8136"
         style="fill:none;fill-opacity:1;stroke:#000000;stroke-width:2.63519979;stroke-miterlimit:4;stroke-dasharray:none;stroke-opacity:1" />
      <rect
         transform="matrix(0.93863602,0.34490931,-0.47984944,0.87735085,0,0)"
         y="710.90875"
         x="481.23618"
         height="0.7819683"
         width="23.526367"
         id="rect8140"
         style="fill:none;fill-opacity:1;stroke:#000000;stroke-width:2.64977908;stroke-miterlimit:4;stroke-dasharray:none;stroke-opacity:1" />
    </g>
    <g
       id="g1063"
       transform="matrix(1.260893,0,0,1.3221586,-29.224545,-307.68404)"
       style="stroke-width:0.7744959">
      <rect
         y="995.26324"
         x="48.934662"
         height="24.395184"
         width="152.71458"
         id="rect1042"
         style="fill:none;fill-opacity:1;stroke:#000000;stroke-width:2.34269166;stroke-miterlimit:4;stroke-dasharray:none;stroke-opacity:1" />
      <rect
         style="fill:none;fill-opacity:1;stroke:#000000;stroke-width:2.34269166;stroke-miterlimit:4;stroke-dasharray:none;stroke-opacity:1"
         id="rect1044"
         width="24.395191"
         height="37.123104"
         x="107.83379"
         y="958.14008" />
      <rect
         transform="matrix(0.91045366,0.41361108,-0.41739961,0.90872304,0,0)"
         y="832.09088"
         x="502.35544"
         height="0.86597598"
         width="22.932188"
         id="rect1046"
         style="fill:none;fill-opacity:1;stroke:#000000;stroke-width:2.34294653;stroke-miterlimit:4;stroke-dasharray:none;stroke-opacity:1" />
      <rect
         transform="matrix(0.89502472,0.44601653,-0.44974051,0.89315926,0,0)"
         y="821.7005"
         x="535.87769"
         height="0.86597598"
         width="22.932188"
         id="rect1048"
         style="fill:none;fill-opacity:1;stroke:#000000;stroke-width:2.34294653;stroke-miterlimit:4;stroke-dasharray:none;stroke-opacity:1" />
      <rect
         transform="matrix(0.9023081,0.43109174,-0.42399484,0.9056646,0,0)"
         y="838.78857"
         x="515.42401"
         height="0.91793811"
         width="24.06967"
         id="rect1050"
         style="fill:none;fill-opacity:1;stroke:#000000;stroke-width:2.34297252;stroke-miterlimit:4;stroke-dasharray:none;stroke-opacity:1" />
      <rect
         style="fill:none;fill-opacity:1;stroke:#000000;stroke-width:2.34269166;stroke-miterlimit:4;stroke-dasharray:none;stroke-opacity:1"
         id="rect1052"
         width="12.197592"
         height="121.79914"
         x="23.73657"
         y="929.58398" />
      <rect
         style="fill:none;fill-opacity:1;stroke:#000000;stroke-width:2.34269166;stroke-miterlimit:4;stroke-dasharray:none;stroke-opacity:1"
         id="rect1054"
         width="11.313708"
         height="4.4194174"
         x="35.757385"
         y="1005.598" />
    </g>
  </g>
</svg>
