<?xml version="1.0" encoding="UTF-8" standalone="no"?>
<!-- Created with Inkscape (http://www.inkscape.org/) -->

<svg
   xmlns:dc="http://purl.org/dc/elements/1.1/"
   xmlns:cc="http://creativecommons.org/ns#"
   xmlns:rdf="http://www.w3.org/1999/02/22-rdf-syntax-ns#"
   xmlns:svg="http://www.w3.org/2000/svg"
   xmlns="http://www.w3.org/2000/svg"
   xmlns:sodipodi="http://sodipodi.sourceforge.net/DTD/sodipodi-0.dtd"
   xmlns:inkscape="http://www.inkscape.org/namespaces/inkscape"
   width="210mm"
   height="297mm"
   viewBox="0 0 744.09448819 1052.3622047"
   id="svg2"
   version="1.1"
   inkscape:version="0.91 r13725"
   sodipodi:docname="category-everything.svg">
  <defs
     id="defs4" />
  <sodipodi:namedview
     id="base"
     pagecolor="#ffffff"
     bordercolor="#666666"
     borderopacity="1.0"
     inkscape:pageopacity="0.0"
     inkscape:pageshadow="2"
     inkscape:zoom="1.4142136"
     inkscape:cx="415.70245"
     inkscape:cy="561.59385"
     inkscape:document-units="px"
     inkscape:current-layer="layer1"
     showgrid="false"
     showborder="false"
     inkscape:window-width="1916"
     inkscape:window-height="1034"
     inkscape:window-x="0"
     inkscape:window-y="18"
     inkscape:window-maximized="0" />
  <metadata
     id="metadata7">
    <rdf:RDF>
      <cc:Work
         rdf:about="">
        <dc:format>image/svg+xml</dc:format>
        <dc:type
           rdf:resource="http://purl.org/dc/dcmitype/StillImage" />
        <dc:title></dc:title>
      </cc:Work>
    </rdf:RDF>
  </metadata>
  <g
     inkscape:label="Laag 1"
     inkscape:groupmode="layer"
     id="layer1">
    <g
       id="g4231"
       style="stroke:#000000;stroke-opacity:1">
      <ellipse
         style="opacity:1;fill:#918a6f;fill-opacity:0;stroke:#000000;stroke-width:1.90475321;stroke-linecap:butt;stroke-linejoin:bevel;stroke-miterlimit:4;stroke-dasharray:none;stroke-dashoffset:0;stroke-opacity:1"
         id="ellipse4150"
         cx="342.5"
         cy="497.86221"
         rx="120.9389"
         ry="147.56837" />
      <ellipse
         ry="148.55818"
         rx="112.76152"
         cy="497.50867"
         cx="342.5"
         id="ellipse4156"
         style="opacity:1;fill:#918a6f;fill-opacity:0;stroke:#000000;stroke-width:1.84538925;stroke-linecap:butt;stroke-linejoin:bevel;stroke-miterlimit:4;stroke-dasharray:none;stroke-dashoffset:0;stroke-opacity:1" />
      <ellipse
         style="opacity:1;fill:#918a6f;fill-opacity:0;stroke:#000000;stroke-width:1.7777102;stroke-linecap:butt;stroke-linejoin:bevel;stroke-miterlimit:4;stroke-dasharray:none;stroke-dashoffset:0;stroke-opacity:1"
         id="ellipse4158"
         cx="342.5"
         cy="497.50867"
         rx="105.19005"
         ry="147.78448" />
      <ellipse
         ry="148.41983"
         rx="98.083687"
         cy="498.21579"
         cx="342.5"
         id="ellipse4160"
         style="opacity:1;fill:#918a6f;fill-opacity:0;stroke:#000000;stroke-width:1.72029746;stroke-linecap:butt;stroke-linejoin:bevel;stroke-miterlimit:4;stroke-dasharray:none;stroke-dashoffset:0;stroke-opacity:1" />
      <ellipse
         style="opacity:1;fill:#918a6f;fill-opacity:0;stroke:#000000;stroke-width:1.66102815;stroke-linecap:butt;stroke-linejoin:bevel;stroke-miterlimit:4;stroke-dasharray:none;stroke-dashoffset:0;stroke-opacity:1"
         id="ellipse4162"
         cx="342.5"
         cy="496.80157"
         rx="91.48526"
         ry="148.34901" />
      <ellipse
         ry="147.50859"
         rx="85.943657"
         cy="497.15512"
         cx="342.5"
         id="ellipse4164"
         style="opacity:1;fill:#918a6f;fill-opacity:0;stroke:#000000;stroke-width:1.60536861;stroke-linecap:butt;stroke-linejoin:bevel;stroke-miterlimit:4;stroke-dasharray:none;stroke-dashoffset:0;stroke-opacity:1" />
      <ellipse
         ry="146.23215"
         rx="81.156715"
         cy="496.44525"
         cx="341.79291"
         id="ellipse4184"
         style="opacity:1;fill:#918a6f;fill-opacity:0;stroke:#000000;stroke-width:1.55325484;stroke-linecap:butt;stroke-linejoin:bevel;stroke-miterlimit:4;stroke-dasharray:none;stroke-dashoffset:0;stroke-opacity:1" />
      <ellipse
         style="opacity:1;fill:#918a6f;fill-opacity:0;stroke:#000000;stroke-width:1.50484574;stroke-linecap:butt;stroke-linejoin:bevel;stroke-miterlimit:4;stroke-dasharray:none;stroke-dashoffset:0;stroke-opacity:1"
         id="ellipse4186"
         cx="341.79291"
         cy="496.09491"
         rx="75.669243"
         ry="147.21298" />
      <ellipse
         ry="146.44629"
         rx="70.588364"
         cy="496.09491"
         cx="341.79291"
         id="ellipse4188"
         style="opacity:1;fill:#918a6f;fill-opacity:0;stroke:#000000;stroke-width:1.44965601;stroke-linecap:butt;stroke-linejoin:bevel;stroke-miterlimit:4;stroke-dasharray:none;stroke-dashoffset:0;stroke-opacity:1" />
      <ellipse
         style="opacity:1;fill:#918a6f;fill-opacity:0;stroke:#000000;stroke-width:1.40283811;stroke-linecap:butt;stroke-linejoin:bevel;stroke-miterlimit:4;stroke-dasharray:none;stroke-dashoffset:0;stroke-opacity:1"
         id="ellipse4190"
         cx="341.79291"
         cy="496.79565"
         rx="65.819595"
         ry="147.07588" />
      <ellipse
         ry="147.00571"
         rx="61.391689"
         cy="495.39423"
         cx="341.79291"
         id="ellipse4192"
         style="opacity:1;fill:#918a6f;fill-opacity:0;stroke:#000000;stroke-width:1.35450613;stroke-linecap:butt;stroke-linejoin:bevel;stroke-miterlimit:4;stroke-dasharray:none;stroke-dashoffset:0;stroke-opacity:1" />
      <ellipse
         style="opacity:1;fill:#918a6f;fill-opacity:0;stroke:#000000;stroke-width:1.30911791;stroke-linecap:butt;stroke-linejoin:bevel;stroke-miterlimit:4;stroke-dasharray:none;stroke-dashoffset:0;stroke-opacity:1"
         id="ellipse4194"
         cx="341.79291"
         cy="495.74457"
         rx="57.672966"
         ry="146.1729" />
      <path
         transform="matrix(0.51312132,0,0,1.3770609,174.35752,-132.06941)"
         d="m 330.36029,455.91764 c 0.67716,-0.0171 1.19576,0.58645 1.20098,1.23965 0.007,0.84261 -0.74754,1.48311 -1.56337,1.47829 -1.02611,-0.006 -1.8016,-0.92812 -1.78434,-1.92465 0.0213,-1.22766 1.12822,-2.15121 2.32351,-2.11911 1.44725,0.0389 2.53194,1.34782 2.48261,2.75992 -0.0589,1.68489 -1.58693,2.94381 -3.23391,2.87483 -1.94058,-0.0813 -3.3868,-1.84554 -3.29578,-3.74545 0.10608,-2.21433 2.12366,-3.86093 4.29457,-3.74546 2.50612,0.1333 4.36619,2.42129 4.22386,4.88125 -0.16293,2.81597 -2.73843,4.90258 -5.50549,4.73098 -3.14387,-0.19495 -5.47011,-3.07507 -5.26684,-6.16729 0.22939,-3.48983 3.43122,-6.06876 6.86666,-5.83142 3.85384,0.26624 6.69855,3.80688 6.42473,7.6036 -0.30549,4.2359 -4.20205,7.35947 -8.3781,7.04676 -4.63603,-0.34714 -8.05153,-4.61673 -7.69753,-9.19017 0.39121,-5.0542 5.05092,-8.77471 10.03981,-8.37701 5.49043,0.43768 9.52903,5.50462 9.08522,10.927 -0.48656,5.94471 -5.97782,10.31449 -11.85177,9.82217 -6.41704,-0.53785 -11.13107,-6.47054 -10.58782,-12.8141 0.59153,-6.90744 6.98276,-11.97879 13.81399,-11.38222 7.41589,0.64764 12.85764,7.5145 12.20533,14.85145 -0.70614,7.94239 -8.06573,13.76763 -15.92647,13.05718 -8.48695,-0.76706 -14.70875,-8.63649 -13.93774,-17.03906 0.83037,-9.04956 9.22674,-15.681 18.18921,-14.84704 9.63023,0.8961 16.68438,9.83651 15.78506,19.37693 -0.96423,10.22895 -10.46579,17.7189 -20.60221,16.75181 -10.84574,-1.03478 -18.78456,-11.11458 -17.74729,-21.86506 1.10772,-11.48057 11.78288,-19.88135 23.16547,-18.77149 12.13346,1.18308 21.00927,12.47069 19.82442,24.50345 -1.26084,12.80441 -13.178,22.16833 -25.879,20.90607 -13.4934,-1.34101 -23.35851,-13.90483 -22.01644,-27.2921 1.42359,-14.20046 14.65116,-24.57983 28.74277,-23.15555 14.92557,1.50857 25.83229,15.417 24.32339,30.23101 -1.59597,15.66874 -16.20236,27.11587 -31.75682,25.51994 -16.42996,-1.68576 -28.43059,-17.00722 -26.74522,-33.32018 1.77796,-17.20924 17.83159,-29.77645 34.92111,-27.99924 18.00657,1.87258 31.15344,18.67547 29.28197,36.55962 -1.9696,18.82195 -19.53886,32.56155 -38.23567,30.59343 -19.6554,-2.06903 -34.00082,-20.42176 -31.93363,-39.94931 2.17087,-20.50689 21.32418,-35.4712 41.7005,-33.30254 21.37645,2.27511 36.97273,22.2461 34.70018,43.48926 -2.38176,22.26406 -23.18752,38.50539 -45.31558,36.12655 -23.16973,-2.49081 -40.06917,-24.14846 -37.58164,-47.17947 2.60228,-24.09345 25.12891,-41.66409 49.08092,-39.06546 25.03523,2.71615 43.29015,26.12886 40.57801,51.01994 -2.83243,25.99505 -27.14833,44.94734 -52.99653,42.11928 -26.97294,-2.95112 -46.63566,-28.18731 -43.68928,-55.01067 3.07222,-27.96888 29.2458,-48.35513 57.06239,-45.28801 28.98288,3.19572 50.10572,30.32379 46.91546,59.15167 -3.32162,30.01493 -31.42129,51.88744 -61.27851,48.57163 -31.06504,-3.44994 -53.7003,-32.5383 -50.25654,-63.44292 3.58066,-32.1332 33.67483,-55.54429 65.64489,-51.97016 33.21943,3.71379 57.41942,34.83086 53.71253,67.88443 -3.84933,34.3237 -36.00641,59.32567 -70.16154,55.48361 -35.44603,-3.98728 -61.26306,-37.20146 -57.28341,-72.47621 4.12763,-36.58642 38.41602,-63.23159 74.82844,-59.11195 37.74485,4.27039 65.23125,39.65009 60.96921,77.21824 -4.41556,38.92135 -40.90367,67.26204 -79.6456,62.8552 -40.11591,-4.56314 -69.32398,-42.17676 -64.76992,-82.11053 4.71312,-41.32852 43.46936,-71.41704 84.61303,-66.71336 42.55917,4.86551 73.54123,44.78147 68.68552,87.15309 -5.02031,43.80789 -46.11309,75.69655 -89.73071,70.68641 -45.07467,-5.17751 -77.88302,-47.46422 -72.71603,-92.3459 5.33712,-46.3595 48.83485,-80.10061 94.99865,-74.77437 47.66238,5.49913 82.34934,50.225 76.86145,97.68897 -5.66357,48.98332 -51.63466,84.6292 -100.41686,78.97724 -50.32232,-5.8304 -86.9402,-53.06382 -81.12177,-103.1823 5.99964,-51.67938 54.5125,-89.28233 105.98532,-83.29502 53.05448,6.17129 91.6556,55.98068 85.497,108.8259 -6.34535,54.44764 -57.46838,94.05999 -111.70405,87.72769 -55.85886,-6.52181 -96.49552,-58.97558 -89.98712,-114.61975 6.70068,-57.28812 60.50228,-98.96217 117.57301,-92.27528"
         sodipodi:t0="0.1"
         sodipodi:argument="-127.10195"
         sodipodi:radius="107.00467"
         sodipodi:revolution="20"
         sodipodi:expansion="2"
         sodipodi:cy="456.9783"
         sodipodi:cx="330.21887"
         id="path4198"
         style="fill:none;fill-rule:evenodd;stroke:#000000;stroke-width:1px;stroke-linecap:butt;stroke-linejoin:miter;stroke-opacity:1"
         sodipodi:type="spiral" />
    </g>
    <circle
       style="opacity:1;fill:#555555;fill-opacity:0.0079533;stroke:#000000;stroke-width:2.25452352;stroke-linecap:butt;stroke-linejoin:bevel;stroke-miterlimit:4;stroke-dasharray:none;stroke-dashoffset:0;stroke-opacity:1"
       id="path4268"
       cx="342.00745"
       cy="497.9801"
       r="149.45515" />
    <ellipse
       cy="498.68719"
       cx="342.00745"
       id="circle4270"
       style="opacity:1;fill:#555555;fill-opacity:0.0079533;stroke:#000000;stroke-width:2.17252016;stroke-linecap:butt;stroke-linejoin:bevel;stroke-miterlimit:4;stroke-dasharray:none;stroke-dashoffset:0;stroke-opacity:1"
       rx="139.49622"
       ry="148.68861" />
    <ellipse
       ry="148.97763"
       rx="130.14604"
       style="opacity:1;fill:#555555;fill-opacity:0.0079533;stroke:#000000;stroke-width:2.10048652;stroke-linecap:butt;stroke-linejoin:bevel;stroke-miterlimit:4;stroke-dasharray:none;stroke-dashoffset:0;stroke-opacity:1"
       id="ellipse4272"
       cx="342.00745"
       cy="497.62653" />
  </g>
</svg>
