<?xml version="1.0" encoding="UTF-8" standalone="no"?>
<svg
   xmlns:dc="http://purl.org/dc/elements/1.1/"
   xmlns:cc="http://creativecommons.org/ns#"
   xmlns:rdf="http://www.w3.org/1999/02/22-rdf-syntax-ns#"
   xmlns:svg="http://www.w3.org/2000/svg"
   xmlns="http://www.w3.org/2000/svg"
   xmlns:sodipodi="http://sodipodi.sourceforge.net/DTD/sodipodi-0.dtd"
   xmlns:inkscape="http://www.inkscape.org/namespaces/inkscape"
   width="7.8499999cm"
   height="8cm"
   viewBox="0 0 78.499999 80"
   version="1.1"
   id="svg891"
   sodipodi:docname="haskell-stack-logo.svg"
   inkscape:version="0.92.2 (5c3e80d, 2017-08-06)">
  <metadata
     id="metadata895">
    <rdf:RDF>
      <cc:Work
         rdf:about="">
        <dc:format>image/svg+xml</dc:format>
        <dc:type
           rdf:resource="http://purl.org/dc/dcmitype/StillImage" />
        <dc:title></dc:title>
      </cc:Work>
    </rdf:RDF>
  </metadata>
  <sodipodi:namedview
     pagecolor="#ffffff"
     bordercolor="#666666"
     borderopacity="1"
     objecttolerance="10"
     gridtolerance="10"
     guidetolerance="10"
     inkscape:pageopacity="0"
     inkscape:pageshadow="2"
     inkscape:window-width="1916"
     inkscape:window-height="1003"
     id="namedview893"
     showgrid="false"
     inkscape:zoom="2.5818236"
     inkscape:cx="187.72248"
     inkscape:cy="223.30777"
     inkscape:window-x="0"
     inkscape:window-y="35"
     inkscape:window-maximized="0"
     inkscape:current-layer="g1043" />
  <defs
     id="defs878">
    <clipPath
       id="clip1">
      <path
         d="M 0,120 H 170 V 0 H 0 Z m 0,0"
         id="path875"
         inkscape:connector-curvature="0" />
    </clipPath>
  </defs>
  <g
     id="g1043"
     transform="matrix(0.74650146,0,0,0.8027856,3.5305624,14.086134)">
    <g
       transform="matrix(0.25831204,0,0,0.29710146,24.185101,82.708156)"
       id="surface0">
      <g
         style="clip-rule:nonzero"
         id="g888"
         clip-path="url(#clip1)" />
    </g>
    <g
       id="g907"
       transform="matrix(0.22953716,0,0,0.26400561,40.954335,50.516866)">
      <g
         clip-path="url(#clip1)"
         id="g905"
         style="clip-rule:nonzero">
        <path
           style="fill:#666666;fill-opacity:1;fill-rule:nonzero;stroke:none"
           d="M 0,120 40,60 0,0 h 30 l 40,60 -40,60 z m 0,0"
           id="path897"
           inkscape:connector-curvature="0" />
        <path
           style="fill:#999999;fill-opacity:1;fill-rule:nonzero;stroke:none"
           d="M 40,120 80,60 40,0 h 30 l 80,120 H 120 L 95,82.5 70,120 Z m 0,0"
           id="path899"
           inkscape:connector-curvature="0" />
        <path
           style="fill:#666666;fill-opacity:1;fill-rule:nonzero;stroke:none"
           d="M 136.66667,85 123.33333,65 H 170 v 20 z m 0,0"
           id="path901"
           inkscape:connector-curvature="0" />
        <path
           style="fill:#666666;fill-opacity:1;fill-rule:nonzero;stroke:none"
           d="M 116.66667,55 103.33333,35 H 170 v 20 z m 0,0"
           id="path903"
           inkscape:connector-curvature="0" />
      </g>
    </g>
    <g
       transform="matrix(0.22953716,0,0,0.26400561,40.954335,18.836193)"
       id="g919">
      <g
         style="clip-rule:nonzero"
         id="g917"
         clip-path="url(#clip1)">
        <path
           inkscape:connector-curvature="0"
           id="path909"
           d="M 0,120 40,60 0,0 h 30 l 40,60 -40,60 z m 0,0"
           style="fill:#666666;fill-opacity:1;fill-rule:nonzero;stroke:none" />
        <path
           inkscape:connector-curvature="0"
           id="path911"
           d="M 40,120 80,60 40,0 h 30 l 80,120 H 120 L 95,82.5 70,120 Z m 0,0"
           style="fill:#999999;fill-opacity:1;fill-rule:nonzero;stroke:none" />
        <path
           inkscape:connector-curvature="0"
           id="path913"
           d="M 136.66667,85 123.33333,65 H 170 v 20 z m 0,0"
           style="fill:#666666;fill-opacity:1;fill-rule:nonzero;stroke:none" />
        <path
           inkscape:connector-curvature="0"
           id="path915"
           d="M 116.66667,55 103.33333,35 H 170 v 20 z m 0,0"
           style="fill:#666666;fill-opacity:1;fill-rule:nonzero;stroke:none" />
      </g>
    </g>
    <g
       id="g931"
       transform="matrix(0.15378938,-0.16498111,0.19765095,0.18200492,8.8261708,3.9530603)">
      <g
         clip-path="url(#clip1)"
         id="g929"
         style="clip-rule:nonzero">
        <path
           style="fill:#666666;fill-opacity:1;fill-rule:nonzero;stroke:none"
           d="M 0,120 40,60 0,0 h 30 l 40,60 -40,60 z m 0,0"
           id="path921"
           inkscape:connector-curvature="0" />
        <path
           style="fill:#999999;fill-opacity:1;fill-rule:nonzero;stroke:none"
           d="M 40,120 80,60 40,0 h 30 l 80,120 H 120 L 95,82.5 70,120 Z m 0,0"
           id="path923"
           inkscape:connector-curvature="0" />
        <path
           style="fill:#666666;fill-opacity:1;fill-rule:nonzero;stroke:none"
           d="M 136.66667,85 123.33333,65 H 170 v 20 z m 0,0"
           id="path925"
           inkscape:connector-curvature="0" />
        <path
           style="fill:#666666;fill-opacity:1;fill-rule:nonzero;stroke:none"
           d="M 116.66667,55 103.33333,35 H 170 v 20 z m 0,0"
           id="path927"
           inkscape:connector-curvature="0" />
      </g>
    </g>
  </g>
</svg>
