<?xml version="1.0" encoding="UTF-8"?>
<!-- MijnWebwinkel platform card icon: a snowflake, "the platform is frozen". -->
<svg xmlns="http://www.w3.org/2000/svg" viewBox="0 0 64 64" role="img">
  <circle cx="32" cy="32" r="30" fill="#eaf1f8"/>
  <g stroke="#10456b" stroke-width="3.5" stroke-linecap="round">
    <path d="M32 12 v40"/>
    <path d="M14.7 22 l34.6 20"/>
    <path d="M14.7 42 l34.6 -20"/>
    <path d="M32 12 l-5 6 M32 12 l5 6"/>
    <path d="M32 52 l-5 -6 M32 52 l5 -6"/>
    <path d="M14.7 22 l7.7 1.2 M14.7 22 l1 7.8"/>
    <path d="M49.3 42 l-7.7 -1.2 M49.3 42 l-1 -7.8"/>
    <path d="M14.7 42 l1 -7.8 M14.7 42 l7.7 -1.2"/>
    <path d="M49.3 22 l-1 7.8 M49.3 22 l-7.7 1.2"/>
  </g>
</svg>
