<?xml version="1.0" encoding="UTF-8" standalone="no"?>
<!-- Generator: Adobe Illustrator 23.0.1, SVG Export Plug-In . SVG Version: 6.00 Build 0)  -->

<svg
   xmlns:dc="http://purl.org/dc/elements/1.1/"
   xmlns:cc="http://creativecommons.org/ns#"
   xmlns:rdf="http://www.w3.org/1999/02/22-rdf-syntax-ns#"
   xmlns:svg="http://www.w3.org/2000/svg"
   xmlns="http://www.w3.org/2000/svg"
   xmlns:sodipodi="http://sodipodi.sourceforge.net/DTD/sodipodi-0.dtd"
   xmlns:inkscape="http://www.inkscape.org/namespaces/inkscape"
   version="1.1"
   id="Laag_1"
   x="0px"
   y="0px"
   viewBox="0 0 400 400"
   xml:space="preserve"
   sodipodi:docname="raster-logo.svg"
   width="400"
   height="400"
   inkscape:export-filename="/home/jappie/projects/raster/static/favicon.ico.png"
   inkscape:export-xdpi="300"
   inkscape:export-ydpi="300"
   inkscape:version="0.92.2 (5c3e80d, 2017-08-06)"><metadata
     id="metadata17"><rdf:RDF><cc:Work
         rdf:about=""><dc:format>image/svg+xml</dc:format><dc:type
           rdf:resource="http://purl.org/dc/dcmitype/StillImage" /><dc:title></dc:title></cc:Work></rdf:RDF></metadata><defs
     id="defs15" /><sodipodi:namedview
     pagecolor="#ffffff"
     bordercolor="#666666"
     borderopacity="1"
     objecttolerance="10"
     gridtolerance="10"
     guidetolerance="10"
     inkscape:pageopacity="0"
     inkscape:pageshadow="2"
     inkscape:window-width="3840"
     inkscape:window-height="2160"
     id="namedview13"
     showgrid="false"
     inkscape:zoom="2.6641832"
     inkscape:cx="118.89421"
     inkscape:cy="183.50307"
     inkscape:window-x="0"
     inkscape:window-y="0"
     inkscape:window-maximized="0"
     inkscape:current-layer="Laag_1"
     inkscape:snap-intersection-paths="true"
     inkscape:snap-object-midpoints="true"
     inkscape:snap-page="true"
     inkscape:snap-grids="true"
     inkscape:snap-to-guides="true"
     inkscape:snap-center="true" /><style
     type="text/css"
     id="style2">
	.st0{fill:#E84267;}
	.st1{fill:#4A4A4A;}
	.st2{fill:#FF3860;}
</style><g
     id="g847"
     transform="matrix(0.44214586,0,0,0.44214586,-114.01596,495.14629)"
     style="stroke-width:2.26169729"><path
       style="fill:#e84267;stroke-width:2.26169729"
       inkscape:connector-curvature="0"
       id="path4"
       d="M 476.97,-1002.0899"
       class="st0" /><path
       style="fill:#4a4a4a;stroke-width:2.26169729"
       inkscape:connector-curvature="0"
       id="path6"
       d="m 1119.52,-1100.7499 c -87.69,0.89 -175.41,-0.62 -263.1,0.75 -85.43,1.34 -141.97,70.63 -148.25,135.74995 -6.28,-65.11995 -62.82,-134.41995 -148.25,-135.74995 -87.68,-1.37 -175.4,0.14 -263.1,-0.75 -27.84,-0.28 -35.38,12.51 -35.09,38.22 0.96,86.20995 -0.06,172.42995 0.46,258.64995 0.4,66.74 50.16,129.97 114.05,143.44 -63.89,13.47 -113.65,76.7 -114.05,143.44 -0.51,86.21 0.5,172.44 -0.46,258.65 -0.29,25.71 7.25,38.5 35.09,38.22 87.69,-0.89 175.42,0.62 263.1,-0.75 99.1,-1.55 159.34,-94.57 147.32,-166.41 -28.91,48.31 -73.04,62.12 -124.63,61.52 -57.96,-0.67 -116.08,-2.42 -173.87,0.92 -33.42,1.93 -41.89,-11.6 -41.46,-40.57 0.74,-49.04 1.6,-98.13 0.17,-147.13 -1.61,-55.1 1.02,-107.97 50.9,-146.46 1.04,-0.15 2.07,-0.3 3.11,-0.47 -0.43,-0.31 -0.83,-0.64 -1.25,-0.95 0.42,-0.31 0.82,-0.64 1.25,-0.95 -1.04,-0.17 -2.08,-0.32 -3.11,-0.47 -49.88,-38.49 -52.51,-91.36 -50.9,-146.46 1.43,-49 0.57,-98.09 -0.17,-147.13 -0.44,-28.97 8.04,-42.5 41.46,-40.57 57.78,3.34 115.9,1.59 173.87,0.92 51.6,-0.59 95.72,13.21 124.63,61.52 0.38,-2.3 0.69,-4.62 0.93,-6.95 0.24,2.34 0.55,4.66 0.93,6.95 28.91,-48.31 73.04,-62.12 124.63,-61.52 57.96,0.67 116.08,2.42 173.87,-0.92 33.42,-1.93 41.89,11.6 41.46,40.57 -0.74,49.04 -1.6,98.13 -0.17,147.13 1.65,56.23 -1.1,110.16 -54.01,148.83 84.02,14.1 158.79,-62.51 159.28,-144.39 0.51,-86.21 -0.5,-172.44 0.46,-258.64995 0.28,-25.73 -7.26,-38.52 -35.1,-38.23 z"
       class="st1" /><path
       style="fill:#ff3860;stroke-width:2.26169729"
       inkscape:connector-curvature="0"
       id="path8"
       d="m 667.93,-416.15995 c -74.74,12.51 -171.49,-50.15 -173.1,-153.24 -1.43,-91.21 0.14,-182.45 -0.78,-273.67 -0.29,-28.96 13.01,-36.8 39.75,-36.51 89.67,1 179.36,-0.06 269.04,0.48 85.17,0.51 164.86,78.29 150.2,165.68 -40.22,-55.04 -96.32,-57.9 -154.81,-56.19 -50.97,1.49 -102.04,0.59 -153.05,-0.18 -30.14,-0.46 -44.21,8.36 -42.2,43.12 3.47,60.11 1.65,120.56 0.96,180.86 -0.63,53.68 13.73,99.57 63.99,129.65 z"
       class="st2" /><path
       style="fill:#ff3860;stroke-width:2.26169729"
       inkscape:connector-curvature="0"
       id="path10"
       d="m 1146,-484.79995 c -0.48,-87.42 -63.4,-148.66 -161.13,-147.88 l -211.17,-6.92 c -17.18,2.66 -27.21,11.25 -30.18,30.45 l -0.64,25.78 c 2.06,68.51 -1.44,137.25 -3.72,205.85 -0.83,25.07 1.14,48.76 7.47,70.51 19.18,53.09 66.18,84.92 128.15,86.32 78.04,1.76 156.16,-0.37 234.21,0.96 29.14,0.5 38.05,-11.24 37.58,-39.07 -1.28,-75.31 -0.16,-150.66 -0.57,-226 z"
       class="st2" /></g></svg>